<?xml version="1.0" encoding="utf-8"?>
<!-- Generator: Adobe Illustrator 19.2.1, SVG Export Plug-In . SVG Version: 6.00 Build 0)  -->
<svg version="1.1" id="Capa_1" xmlns="http://www.w3.org/2000/svg" xmlns:xlink="http://www.w3.org/1999/xlink" x="0px" y="0px"
	 viewBox="0 0 40 40" style="enable-background:new 0 0 40 40;" xml:space="preserve">
<style type="text/css">
	.st0{fill:#003685;}
</style>
<g>
	<path class="st0" d="M20,1.5c10.2,0,18.5,8.3,18.5,18.5c0,10.2-8.3,18.5-18.5,18.5S1.5,30.2,1.5,20C1.5,9.8,9.8,1.5,20,1.5 M20,0
		C9,0,0,9,0,20c0,11,9,20,20,20c11,0,20-9,20-20C40,9,31,0,20,0L20,0z"/>
	<path class="st0" d="M28.7,24.1c-0.2,0-0.4-0.1-0.5-0.2L20,15.7l-8.2,8.2c-0.3,0.3-0.8,0.3-1.1,0c-0.3-0.3-0.3-0.8,0-1.1l8.7-8.7
		c0.3-0.3,0.8-0.3,1.1,0l8.7,8.7c0.3,0.3,0.3,0.8,0,1.1C29.1,24,28.9,24.1,28.7,24.1z"/>
</g>
</svg>
