<?xml version="1.0" encoding="utf-8"?>
<!-- Generator: Adobe Illustrator 19.2.1, SVG Export Plug-In . SVG Version: 6.00 Build 0)  -->
<svg version="1.0" id="Capa_1" xmlns="http://www.w3.org/2000/svg" xmlns:xlink="http://www.w3.org/1999/xlink" x="0px" y="0px"
	 viewBox="0 0 305 138" style="enable-background:new 0 0 305 138;" xml:space="preserve">
<style type="text/css">
	.st0{fill:#FFFFFF;}
	.st1{fill:#1A63D0;}
</style>
<g>
	<path class="st0" d="M301,1H5C2.8,1,0.5,2.8,0.5,5v112.4c0,2.2,2.3,3.6,4.5,3.6h133.6l14.5,15.4l14.5-15.4H301
		c2.2,0,3.5-1.4,3.5-3.6V5C304.5,2.8,303.2,1,301,1z"/>
	<path class="st1" d="M153.1,137.9L138.2,122H5c-2.6,0-5.5-1.7-5.5-4.6V5c0-2.9,2.9-5,5.5-5h296c2.6,0,4.5,1.1,4.5,4v113.4
		c0,2.8-1.8,4.6-4.5,4.6H168L153.1,137.9z M5,2C3.4,2,1.5,3.3,1.5,5v112.4c0,1.6,1.8,2.6,3.5,2.6h134.1l14,15l14-15H301
		c1.6,0,2.5-0.9,2.5-2.6V5c0-1.5-0.8-3-2.5-3H5z"/>
</g>
</svg>
