<?xml version="1.0" encoding="utf-8"?>
<!-- Generator: Adobe Illustrator 19.0.0, SVG Export Plug-In . SVG Version: 6.00 Build 0)  -->
<svg version="1.1" id="Capa_1" xmlns="http://www.w3.org/2000/svg" xmlns:xlink="http://www.w3.org/1999/xlink" x="0px" y="0px"
	 viewBox="0 0 36 36" style="enable-background:new 0 0 36 36;" xml:space="preserve">
<style type="text/css">
	.st0{fill:#003685;}
</style>
<g id="XMLID_41_">
	<g id="XMLID_163_">
		<path id="XMLID_164_" class="st0" d="M26.7,17.9c-0.6,0-1.1,0.5-1.1,1.1c0,0.6,0.5,1.1,1.1,1.1s1.1-0.5,1.1-1.1
			C27.8,18.4,27.3,17.9,26.7,17.9z M16.2,7.2c0.1,0,0.2-0.1,0.2-0.2V4.3c0-0.1-0.1-0.2-0.2-0.2S16,4.2,16,4.3V7
			C16,7.1,16.1,7.2,16.2,7.2z M18.4,6.8c0.1,0,0.2-0.1,0.2-0.2V2.5c0-0.1-0.1-0.2-0.2-0.2c-0.1,0-0.2,0.1-0.2,0.2v4.1
			C18.2,6.7,18.3,6.8,18.4,6.8z M20.7,7.2c0.1,0,0.2-0.1,0.2-0.2V3.8c0-0.1-0.1-0.2-0.2-0.2c-0.1,0-0.2,0.1-0.2,0.2V7
			C20.5,7.1,20.6,7.2,20.7,7.2z M20.7,3.2c0.1,0,0.2-0.1,0.2-0.2V2.5c0-0.1-0.1-0.2-0.2-0.2c-0.1,0-0.2,0.1-0.2,0.2v0.5
			C20.5,3.1,20.6,3.2,20.7,3.2z M16.4,3.2c0.1,0,0.1,0,0.2-0.1c0,0,0.1-0.1,0.1-0.2c0-0.1,0-0.1-0.1-0.2c-0.1-0.1-0.2-0.1-0.3,0
			c0,0-0.1,0.1-0.1,0.2c0,0.1,0,0.1,0.1,0.2C16.3,3.1,16.4,3.2,16.4,3.2z M18.4,1.4c0.1,0,0.2-0.1,0.2-0.2V0.2
			c0-0.1-0.1-0.2-0.2-0.2c-0.1,0-0.2,0.1-0.2,0.2v0.9C18.2,1.2,18.3,1.4,18.4,1.4z M35,19.2c-0.4-0.4-1-0.7-1.6-0.7l-0.4,0
			c-0.6-1.7-1.6-3.2-3-4.5l1.8-3.3l0.4-0.7l-0.6-0.4c-0.1-0.1-1.5-0.8-2.9-0.8c-1.4,0-2.9,0.3-4.6,1.9c-0.5-0.1-1-0.2-1.5-0.3
			c-0.3-1.7-1.7-2.9-3.4-2.9c-1.7,0-3.2,1.3-3.4,3c-4.4,0.9-8,3.4-9.8,6.8c0,0,0,0,0,0c-0.4,0.2-1-0.1-1.3-0.6
			c-0.1-0.1-0.2-0.2-0.3-0.4c0.8-0.4,1.2-1.1,1.2-1.7c0.1-0.8-0.2-1.5-0.7-1.7c-0.2-0.1-0.7-0.2-1.3,0.4c-0.5,0.6-0.6,1.5-0.4,2.3
			c-0.5,0-0.8-0.1-1.1-0.3c-0.5-0.4-0.6-1.1-0.6-1.1c0-0.2-0.2-0.4-0.5-0.4c-0.2,0-0.4,0.2-0.4,0.5c0,0,0.1,1.1,0.9,1.7
			c0.5,0.4,1.2,0.6,2,0.5c0.1,0.3,0.3,0.5,0.5,0.7c0.5,0.6,1,0.9,1.6,0.9c-0.5,1.2-0.8,2.5-0.8,3.9c0,3.1,1.4,6,4,8.2l-0.6,1.5
			c-0.5,1.1,0,2.5,1.2,3l2.9,1.3c0.3,0.1,0.6,0.2,0.9,0.2c0.9,0,1.7-0.5,2.1-1.3l0.5-1.2c1.2,0.3,2.4,0.4,3.6,0.4c1,0,2-0.1,3-0.3
			l0.5,1.1c0.4,0.8,1.2,1.3,2.1,1.3c0.3,0,0.6-0.1,0.9-0.2l2.9-1.3c0.6-0.2,1-0.7,1.2-1.2c0.2-0.6,0.2-1.2,0-1.7l-0.4-1
			c1.6-1.2,2.8-2.7,3.6-4.4l0.7,0c1.3,0,2.3-1,2.3-2.2l0-3.2C35.6,20.2,35.4,19.6,35,19.2z M3.8,15.4c-0.1-0.6-0.1-1.1,0.2-1.5
			c0.1-0.2,0.2-0.1,0.3-0.1c0,0,0,0,0,0c0.1,0,0.2,0.3,0.2,0.7C4.5,14.7,4.4,15.1,3.8,15.4z M19,8.3c1.4,0,2.6,1.2,2.6,2.6
			c0,0.6-0.2,1.2-0.6,1.7c-0.1,0-0.2,0-0.4,0c-0.1,0-0.2,0-0.2,0c-0.2,0-0.5,0-0.7-0.1c0,0-0.1,0-0.1,0c-0.8,0-1.6,0-2.5,0.2
			c-0.5-0.5-0.7-1.1-0.7-1.8C16.4,9.4,17.6,8.3,19,8.3z M34.7,24c0,0.7-0.6,1.4-1.4,1.4c0,0,0,0,0,0L32,25.3c-0.8,2-2.2,3.7-4.1,5
			l0.7,1.6c0.3,0.7,0,1.5-0.7,1.8L25.1,35c-0.2,0.1-0.4,0.1-0.5,0.1c-0.5,0-1-0.3-1.2-0.8l-0.8-1.7c-1.1,0.2-2.3,0.4-3.5,0.4
			c-1.5,0-2.9-0.2-4.2-0.5L14,34.3c-0.2,0.5-0.7,0.8-1.2,0.8c-0.2,0-0.4,0-0.5-0.1l-2.9-1.3c-0.7-0.3-1-1.1-0.7-1.8l0.9-2.1
			c-2.6-2-4.2-4.8-4.2-7.9c0-5.1,4.3-9.4,10.1-10.7c0.1,0.6,0.3,1.2,0.6,1.7c-1.2,0.4-2,0.9-2.1,0.9c-0.2,0.1-0.3,0.4-0.1,0.6
			c0.1,0.1,0.2,0.2,0.4,0.2c0.1,0,0.2,0,0.2-0.1c0,0,1.1-0.7,2.7-1c0.2,0,0.3-0.1,0.5-0.1c0.2,0,0.4-0.1,0.7-0.1c0.1,0,0.3,0,0.4,0
			c0.2,0,0.3,0,0.5,0c0.1,0,0.3,0,0.4,0c0.2,0,0.3,0,0.5,0c0.2,0,0.3,0,0.5,0.1c0.9,0.2,1.9,0.5,2.9,1.1c0.2,0.1,0.5,0.1,0.6-0.1
			c0.1-0.2,0.1-0.5-0.1-0.6c-0.7-0.5-1.4-0.8-2.1-1c0.3-0.5,0.5-1,0.5-1.6c0.6,0.1,1.1,0.3,1.6,0.4l0,0c1.6-1.6,3.1-2,4.3-2
			c1.5,0,2.5,0.6,2.5,0.6l-2.1,3.9l0,0c1.7,1.4,2.9,3.2,3.5,5.2l1.1,0c0.7,0,1.3,0.6,1.3,1.4L34.7,24z M0.8,13.6
			C0.8,13.6,0.8,13.6,0.8,13.6c0.3,0,0.5-0.1,0.5-0.4c0.1-0.3,0.1-0.5,0.1-0.5c0.1-0.2-0.1-0.5-0.3-0.6c-0.2-0.1-0.5,0.1-0.6,0.3
			c0,0-0.1,0.2-0.1,0.6C0.4,13.3,0.5,13.5,0.8,13.6z"/>
	</g>
</g>
</svg>
