<?xml version="1.0" encoding="utf-8"?>
<!-- Generator: Adobe Illustrator 19.0.0, SVG Export Plug-In . SVG Version: 6.00 Build 0)  -->
<svg version="1.1" id="Capa_1" xmlns="http://www.w3.org/2000/svg" xmlns:xlink="http://www.w3.org/1999/xlink" x="0px" y="0px"
	 viewBox="0 0 36 36" style="enable-background:new 0 0 36 36;" xml:space="preserve">
<style type="text/css">
	.st0{fill-rule:evenodd;clip-rule:evenodd;fill:#FFFFFF;}
	.st1{fill:#003685;}
</style>
<g id="XMLID_61_">
	<path class="st0" d="M22.5,18.5c1,1,1.6,2.1,1.6,3.3c0,3.6-5.3,6.6-11.8,6.6c-6.5,0-11.8-3-11.8-6.6c0-3.6,5.3-6.6,11.8-6.6
		c3.2,0,6.1,0.7,8.2,1.9"/>
	<path id="XMLID_59_" class="st1" d="M12.2,27.9C6,27.8,1,25.1,1,21.8c0-3.3,5-6.1,11.1-6.1c0.2-0.3,0.4-0.6,0.6-1
		c-0.1,0-0.2,0-0.4,0C5.5,14.7,0,17.9,0,21.8c0,3.9,5.5,7.1,12.3,7.1c0.2,0,0.3,0,0.5,0C12.6,28.5,12.4,28.2,12.2,27.9z"/>
	<path class="st0" d="M22.5,15.3c1,1,1.6,2.1,1.6,3.3c0,3.6-5.3,6.6-11.8,6.6c-6.5,0-11.8-3-11.8-6.6C0.5,15,5.8,12,12.3,12
		c3.2,0,6.1,0.7,8.2,1.9"/>
	<path id="XMLID_57_" class="st1" d="M11,24.7c-5.6-0.4-10-2.9-10-6.1c0-3.4,5.1-6.1,11.3-6.1c0.7,0,1.3,0,2,0.1
		c0.3-0.3,0.6-0.6,0.9-0.9c-0.9-0.1-1.9-0.2-2.9-0.2C5.5,11.5,0,14.7,0,18.6c0,3.8,4.9,6.8,11.2,7.1C11.1,25.3,11.1,25,11,24.7z"/>
	<path class="st0" d="M22.5,12.1c1,1,1.6,2.1,1.6,3.3c0,3.6-5.3,6.6-11.8,6.6c-6.5,0-11.8-3-11.8-6.6c0-3.6,5.3-6.6,11.8-6.6
		c3.2,0,6.1,0.7,8.2,1.9"/>
	<path id="XMLID_55_" class="st1" d="M10.6,21.7c0-0.1,0-0.1,0-0.2c-5.5-0.4-9.7-3-9.7-6C1,12.1,6,9.3,12.3,9.3
		c1.9,0,3.7,0.3,5.4,0.7c0.4-0.2,0.8-0.4,1.3-0.6c-2-0.7-4.3-1.1-6.7-1.1C5.5,8.4,0,11.5,0,15.4c0,3.6,4.7,6.5,10.7,7
		C10.6,22.2,10.6,21.9,10.6,21.7z"/>
	<path class="st0" d="M22.5,9c1,1,1.6,2.1,1.6,3.3c0,3.6-5.3,6.6-11.8,6.6c-6.5,0-11.8-3-11.8-6.6c0-3.6,5.3-6.6,11.8-6.6
		c3.2,0,6.1,0.7,8.2,1.9"/>
	<g>
		<path id="XMLID_53_" class="st1" d="M11.1,18.4C5.4,18,1,15.4,1,12.3C1,8.9,6,6.2,12.3,6.2c3,0,5.9,0.6,8,1.8
			c0.2,0.1,0.5,0,0.6-0.2c0.1-0.2,0-0.5-0.2-0.6c-2.3-1.2-5.3-1.9-8.5-1.9C5.5,5.2,0,8.4,0,12.3c0,3.6,4.7,6.6,10.8,7
			C10.9,19,11,18.7,11.1,18.4z"/>
		<path id="XMLID_52_" class="st1" d="M22.8,8.6c-0.2-0.1-0.5-0.1-0.6,0c0,0,0,0,0,0C22.4,8.6,22.6,8.6,22.8,8.6z"/>
	</g>
	<path class="st0" d="M22.6,5.8c1,1,1.6,2.1,1.6,3.3c0,3.6-5.3,6.6-11.8,6.6c-6.5,0-11.8-3-11.8-6.6c0-3.6,5.3-6.6,11.8-6.6
		c3.2,0,6.1,0.7,8.2,1.9"/>
	<g>
		<path id="XMLID_50_" class="st1" d="M23.7,8.6C23.7,8.6,23.7,8.6,23.7,8.6c0.4,0,0.7,0,1,0c-0.1-1.1-0.7-2.2-1.7-3.1
			c-0.2-0.2-0.5-0.2-0.7,0c-0.2,0.2-0.2,0.5,0,0.7C23.1,6.9,23.5,7.7,23.7,8.6z"/>
		<path id="XMLID_49_" class="st1" d="M12.3,15.2c-6.2,0-11.2-2.8-11.2-6.1C1.1,5.8,6.1,3,12.4,3c3,0,5.9,0.6,8,1.8
			c0.2,0.1,0.5,0,0.6-0.2c0.1-0.2,0-0.5-0.2-0.6C18.6,2.7,15.6,2,12.4,2C5.6,2,0.1,5.2,0.1,9.1c0,3.9,5.1,6.9,11.7,7.1
			C12,15.9,12.1,15.6,12.3,15.2z"/>
	</g>
	<circle id="XMLID_48_" class="st0" cx="23.7" cy="21.7" r="11.8"/>
	<g>
		<path class="st0" d="M33.9,15.8c1,1.7,1.6,3.7,1.6,5.9c0,6.5-5.3,11.8-11.8,11.8s-11.8-5.3-11.8-11.8c0-6.5,5.3-11.8,11.8-11.8
			c3.2,0,6.1,1.3,8.2,3.3"/>
		<path id="XMLID_43_" class="st1" d="M23.7,34c-6.8,0-12.3-5.5-12.3-12.3c0-6.8,5.5-12.3,12.3-12.3c3.2,0,6.3,1.2,8.6,3.5
			c0.2,0.2,0.2,0.5,0,0.7c-0.2,0.2-0.5,0.2-0.7,0c-2.1-2.1-4.9-3.2-7.9-3.2c-6.2,0-11.3,5.1-11.3,11.3S17.5,33,23.7,33
			S35,27.9,35,21.7c0-2-0.5-3.9-1.5-5.7c-0.1-0.2-0.1-0.5,0.2-0.7c0.2-0.1,0.5-0.1,0.7,0.2c1.1,1.9,1.6,4,1.6,6.1
			C36,28.4,30.5,34,23.7,34z"/>
	</g>
</g>
<g id="XMLID_40_">
	<path id="XMLID_42_" class="st1" d="M23.1,30.8v-1.7c-0.9-0.1-1.5-0.3-2.1-0.6c-0.5-0.3-1-0.7-1.4-1.3c-0.4-0.6-0.6-1.4-0.7-2.2
		l1.7-0.3c0.1,0.9,0.4,1.6,0.7,2c0.5,0.6,1.1,0.9,1.7,1v-5.4c-0.7-0.1-1.4-0.4-2.1-0.8c-0.5-0.3-1-0.7-1.3-1.3
		c-0.3-0.5-0.4-1.1-0.4-1.8c0-1.2,0.4-2.2,1.3-2.9c0.6-0.5,1.4-0.8,2.6-0.9v-0.8h1v0.8c1,0.1,1.8,0.4,2.4,0.9
		c0.7,0.6,1.2,1.5,1.3,2.5l-1.8,0.3c-0.1-0.7-0.3-1.2-0.6-1.5c-0.3-0.4-0.8-0.6-1.3-0.7v4.9c0.9,0.2,1.4,0.4,1.7,0.5
		c0.5,0.2,1,0.5,1.3,0.9c0.3,0.3,0.6,0.7,0.8,1.2c0.2,0.5,0.3,1,0.3,1.5c0,1.2-0.4,2.2-1.1,2.9c-0.7,0.8-1.7,1.2-2.9,1.3v1.7H23.1z
		 M23.1,16c-0.7,0.1-1.2,0.4-1.6,0.8c-0.4,0.4-0.6,0.9-0.6,1.5c0,0.6,0.2,1.1,0.5,1.5c0.3,0.4,0.9,0.7,1.6,0.9V16z M24.1,27.7
		c0.7-0.1,1.2-0.4,1.6-0.9c0.4-0.5,0.6-1.1,0.6-1.8c0-0.6-0.2-1.1-0.5-1.5c-0.3-0.4-0.9-0.7-1.8-1V27.7z"/>
</g>
<g id="XMLID_62_">
	<path id="XMLID_63_" class="st1" d="M11.9,13.4v-1c-0.9-0.1-1.5-0.2-2.1-0.3c-0.5-0.2-1-0.4-1.4-0.8C8,11,7.8,10.6,7.7,10.1
		l1.7-0.2c0.1,0.5,0.4,0.9,0.7,1.1c0.5,0.3,1.1,0.5,1.7,0.6V8.6c-0.7-0.1-1.4-0.2-2.1-0.5c-0.5-0.2-1-0.4-1.3-0.7
		C8.2,7.1,8,6.7,8,6.3c0-0.7,0.4-1.2,1.3-1.7c0.6-0.3,1.4-0.5,2.6-0.5V3.7h1v0.5c1,0.1,1.8,0.2,2.4,0.5C16,5,16.4,5.5,16.5,6.1
		l-1.8,0.1c-0.1-0.4-0.3-0.7-0.6-0.9S13.4,5,12.9,5v2.8C13.7,7.9,14.3,8,14.6,8c0.5,0.1,1,0.3,1.3,0.5c0.3,0.2,0.6,0.4,0.8,0.7
		c0.2,0.3,0.3,0.5,0.3,0.8c0,0.7-0.4,1.2-1.1,1.7c-0.7,0.4-1.7,0.7-2.9,0.7v1H11.9z M11.9,5c-0.7,0.1-1.2,0.2-1.6,0.4
		S9.7,5.9,9.7,6.3c0,0.3,0.2,0.6,0.5,0.8c0.3,0.2,0.9,0.4,1.6,0.5V5z M12.9,11.6c0.7,0,1.2-0.2,1.6-0.5c0.4-0.3,0.6-0.6,0.6-1
		c0-0.3-0.2-0.6-0.5-0.8c-0.3-0.2-0.9-0.4-1.8-0.6V11.6z"/>
</g>
</svg>
