<?xml version="1.0" encoding="utf-8"?>
<!-- Generator: Adobe Illustrator 19.2.1, SVG Export Plug-In . SVG Version: 6.00 Build 0)  -->
<svg version="1.0" id="Capa_1" xmlns="http://www.w3.org/2000/svg" xmlns:xlink="http://www.w3.org/1999/xlink" x="0px" y="0px"
	 viewBox="0 0 32 32" style="enable-background:new 0 0 32 32;" xml:space="preserve">
<style type="text/css">
	.st0{fill:#1A63D0;}
	.st1{fill-rule:evenodd;clip-rule:evenodd;fill:#FFFFFF;}
</style>
<g>
	<path class="st0" d="M132.2-166.2C132.2-166.2,128.2-169.9,132.2-166.2c0.4,0.3,0.6,0.4,1,0l8-7.5c0.6-0.5,0.6-1.5,0-2l0,0
		c-0.5-0.5-1.4-0.5-1.9,0l-5,4.8v-9.9c0-0.8-0.7-1.5-1.5-1.5h0c-0.8,0-1.5,0.7-1.5,1.5v9.9l-5-4.8c-0.5-0.5-1.4-0.5-1.9,0l0,0
		c-0.6,0.5-0.6,1.5,0,2L132.2-166.2z"/>
	<path class="st0" d="M141.8-164.3h-18v1.9h18V-164.3z"/>
</g>
<path class="st1" d="M24.4,16c0,0.2-0.1,0.4-0.2,0.5c0,0,0,0,0,0l-4.8,4.8c-0.3,0.3-0.7,0.3-1,0c-0.3-0.3-0.3-0.6,0-0.9l3.6-3.4H8.6
	c-0.6,0-1-0.4-1-1v0c0-0.6,0.4-1,1-1h13.3l-3.6-3.5c-0.3-0.3-0.3-0.6,0-0.9c0.3-0.3,0.7-0.3,1,0l4.8,4.8c0,0,0,0,0,0
	C24.3,15.6,24.4,15.8,24.4,16z M32,16c0-8.8-7.2-16-16-16S0,7.2,0,16c0,8.8,7.2,16,16,16S32,24.8,32,16z M30.6,16
	c0,8-6.5,14.6-14.6,14.6S1.4,24,1.4,16C1.4,8,8,1.4,16,1.4S30.6,8,30.6,16z"/>
</svg>
