<?xml version="1.0" encoding="utf-8"?>
<!-- Generator: Adobe Illustrator 19.2.1, SVG Export Plug-In . SVG Version: 6.00 Build 0)  -->
<svg version="1.0" id="Capa_1" xmlns="http://www.w3.org/2000/svg" xmlns:xlink="http://www.w3.org/1999/xlink" x="0px" y="0px"
	 viewBox="0 0 70.9 60" style="enable-background:new 0 0 70.9 60;" xml:space="preserve">
<style type="text/css">
	.st0{fill:#1A63D0;}
</style>
<path class="st0" d="M63.7,26.3H7.2c-0.5,0-0.9-0.4-0.9-0.9v-6.2c0-0.5,0.4-0.9,0.9-0.9h56.6c0.5,0,0.9,0.4,0.9,0.9v6.2
	C64.6,25.9,64.2,26.3,63.7,26.3z M8,24.6h54.8v-4.4H8V24.6z M14.6,53.8h-4.2c-0.5,0-0.9-0.4-0.9-0.9V25.4c0-0.5,0.4-0.9,0.9-0.9h4.2
	c0.5,0,0.9,0.4,0.9,0.9V53C15.5,53.4,15.1,53.8,14.6,53.8z M11.3,52.1h2.5V26.3h-2.5V52.1z M24,53.8h-4.2c-0.5,0-0.9-0.4-0.9-0.9
	V25.4c0-0.5,0.4-0.9,0.9-0.9H24c0.5,0,0.9,0.4,0.9,0.9V53C24.9,53.4,24.5,53.8,24,53.8z M20.7,52.1h2.5V26.3h-2.5V52.1z M51.1,53.8
	h-4.2c-0.5,0-0.9-0.4-0.9-0.9V25.4c0-0.5,0.4-0.9,0.9-0.9h4.2c0.5,0,0.9,0.4,0.9,0.9V53C52,53.4,51.6,53.8,51.1,53.8z M47.8,52.1
	h2.5V26.3h-2.5V52.1z M60.5,53.8h-4.2c-0.5,0-0.9-0.4-0.9-0.9V25.4c0-0.5,0.4-0.9,0.9-0.9h4.2c0.5,0,0.9,0.4,0.9,0.9V53
	C61.4,53.4,61,53.8,60.5,53.8z M57.2,52.1h2.5V26.3h-2.5V52.1z M63.7,60H7.2c-0.5,0-0.9-0.4-0.9-0.9V53c0-0.5,0.4-0.9,0.9-0.9h56.6
	c0.5,0,0.9,0.4,0.9,0.9v6.2C64.6,59.6,64.2,60,63.7,60z M8,58.3h54.8v-4.4H8V58.3z M70.1,20.1H0.9c-0.4,0-0.7-0.3-0.8-0.7
	c-0.1-0.4,0.1-0.8,0.4-1L35.1,0.1c0.3-0.1,0.6-0.1,0.8,0l34.6,18.4c0.3,0.2,0.5,0.6,0.4,1C70.8,19.8,70.5,20.1,70.1,20.1z M4.3,18.4
	h62.3L35.5,1.8L4.3,18.4z M35.9,46.6h-3.8c-0.5,0-0.9-0.4-0.9-0.9c0-0.5,0.4-0.9,0.9-0.9h3.8c1.3,0,2.4-1.1,2.4-2.4
	c0-1.3-1.1-2.4-2.4-2.4H35c-2.3,0-4.1-1.9-4.1-4.1c0-2.3,1.9-4.1,4.1-4.1h3.5c0.5,0,0.9,0.4,0.9,0.9c0,0.5-0.4,0.9-0.9,0.9H35
	c-1.3,0-2.4,1.1-2.4,2.4c0,1.3,1.1,2.4,2.4,2.4h0.8c2.3,0,4.1,1.9,4.1,4.1C40,44.8,38.2,46.6,35.9,46.6z M35.8,33.5
	c-0.5,0-0.9-0.4-0.9-0.9v-3.4c0-0.5,0.4-0.9,0.9-0.9c0.5,0,0.9,0.4,0.9,0.9v3.4C36.7,33.1,36.3,33.5,35.8,33.5z M35.8,50.1
	c-0.5,0-0.9-0.4-0.9-0.9v-3.4c0-0.5,0.4-0.9,0.9-0.9c0.5,0,0.9,0.4,0.9,0.9v3.4C36.7,49.7,36.3,50.1,35.8,50.1z"/>
</svg>
