<?xml version="1.0" encoding="utf-8"?>
<!-- Generator: Adobe Illustrator 19.2.1, SVG Export Plug-In . SVG Version: 6.00 Build 0)  -->
<svg version="1.0" id="Capa_1" xmlns="http://www.w3.org/2000/svg" xmlns:xlink="http://www.w3.org/1999/xlink" x="0px" y="0px"
	 viewBox="0 0 77 55" style="enable-background:new 0 0 77 55;" xml:space="preserve">
<style type="text/css">
	.st0{fill:#1A63D0;}
</style>
<path class="st0" d="M47.1,54.3V18.2c0-1.6-1.3-2.9-2.9-2.9H32.8c-1.6,0-2.9,1.3-2.9,2.9v36.1c0,0.4,0.3,0.7,0.7,0.7
	s0.7-0.3,0.7-0.7V18.2c0-0.8,0.7-1.5,1.5-1.5h11.4c0.8,0,1.5,0.7,1.5,1.5v36.1c0,0.4,0.3,0.7,0.7,0.7C46.8,55,47.1,54.7,47.1,54.3z
	 M25.3,54.3V33.5c0-1.6-1.3-2.9-2.9-2.9H11c-1.6,0-2.9,1.3-2.9,2.9v20.8c0,0.4,0.3,0.7,0.7,0.7s0.7-0.3,0.7-0.7V33.5
	c0-0.8,0.7-1.5,1.5-1.5h11.4c0.8,0,1.5,0.7,1.5,1.5v20.8c0,0.4,0.3,0.7,0.7,0.7S25.3,54.7,25.3,54.3z M68.9,54.3V2.9
	C68.9,1.3,67.6,0,66,0H54.6c-1.6,0-2.9,1.3-2.9,2.9v51.4c0,0.4,0.3,0.7,0.7,0.7s0.7-0.3,0.7-0.7V2.9c0-0.8,0.7-1.5,1.5-1.5H66
	c0.8,0,1.5,0.7,1.5,1.5v51.4c0,0.4,0.3,0.7,0.7,0.7S68.9,54.7,68.9,54.3z M77,54.3c0-0.4-0.3-0.7-0.7-0.7H0.7
	c-0.4,0-0.7,0.3-0.7,0.7C0,54.7,0.3,55,0.7,55h75.6C76.7,55,77,54.7,77,54.3z"/>
</svg>
