<?xml version="1.0" encoding="utf-8"?>
<!-- Generator: Adobe Illustrator 19.2.1, SVG Export Plug-In . SVG Version: 6.00 Build 0)  -->
<svg version="1.0" id="Capa_1" xmlns="http://www.w3.org/2000/svg" xmlns:xlink="http://www.w3.org/1999/xlink" x="0px" y="0px"
	 viewBox="0 0 58 60" style="enable-background:new 0 0 58 60;" xml:space="preserve">
<style type="text/css">
	.st0{fill:#1A63D0;}
</style>
<g>
	<path class="st0" d="M45.8,60H0.9C0.4,60,0,59.6,0,59.1V0.9C0,0.4,0.4,0,0.9,0h44.9c0.5,0,0.9,0.4,0.9,0.9v23.6
		c0,0.5-0.4,0.9-0.9,0.9c-0.5,0-0.9-0.4-0.9-0.9V1.9H1.8v56.2h43.1V43.3c0-0.5,0.4-0.9,0.9-0.9c0.5,0,0.9,0.4,0.9,0.9v15.8
		C46.7,59.6,46.3,60,45.8,60z"/>
	<path class="st0" d="M45.8,42"/>
	<path class="st0" d="M51,32.1L51,32.1c-0.2,0-0.5-0.1-0.6-0.3l-3.3-3.4c-0.4-0.4-0.4-1,0-1.3l3.7-3.8c0.2-0.2,0.4-0.3,0.6-0.3l0,0
		c0.2,0,0.5,0.1,0.6,0.3l3.3,3.4c0.4,0.4,0.4,1,0,1.3l-3.7,3.8C51.5,32,51.3,32.1,51,32.1z M49,27.8l2,2.1l2.4-2.5l-2-2.1L49,27.8z"
		/>
	<path class="st0" d="M34.2,49.6L34.2,49.6c-0.2,0-0.5-0.1-0.6-0.3l-3.3-3.4c-0.4-0.4-0.4-1,0-1.3l16.8-17.5
		c0.2-0.2,0.4-0.3,0.6-0.3h0c0.2,0,0.5,0.1,0.6,0.3l3.3,3.4c0.4,0.4,0.4,1,0,1.3L34.9,49.3C34.7,49.5,34.5,49.6,34.2,49.6z
		 M32.2,45.3l2,2.1l15.5-16.1l-2-2.1L32.2,45.3z"/>
	<path class="st0" d="M28.3,52.5c-0.2,0-0.5-0.1-0.7-0.3L27.6,52c-0.3-0.3-0.3-0.7-0.2-1l2.7-6.1c0.2-0.5,0.8-0.7,1.2-0.5
		c0.5,0.2,0.7,0.8,0.4,1.3l-1.8,4l3.8-1.8c0.5-0.2,1,0,1.2,0.5c0.2,0.5,0,1-0.4,1.3l-5.9,2.8C28.6,52.4,28.5,52.5,28.3,52.5z"/>
	<path class="st0" d="M54.9,28.1c-0.2,0-0.5-0.1-0.6-0.3c-0.4-0.4-0.4-1,0-1.3l1.4-1.5c0.5-0.6,0.5-1.5,0-2.1c-0.5-0.6-1.4-0.6-2,0
		l-1.4,1.5c-0.4,0.4-0.9,0.4-1.3,0c-0.4-0.4-0.4-1,0-1.3l1.4-1.5c1.3-1.3,3.3-1.3,4.5,0c1.3,1.3,1.3,3.4,0,4.7l-1.4,1.5
		C55.4,28,55.2,28.1,54.9,28.1z"/>
	<path class="st0" d="M14.2,16.3H7.1c-0.5,0-0.9-0.4-0.9-0.9V8c0-0.5,0.4-0.9,0.9-0.9h7.1c0.5,0,0.9,0.4,0.9,0.9v7.3
		C15.1,15.9,14.7,16.3,14.2,16.3z M8,14.4h5.2V8.9H8V14.4z"/>
	<path class="st0" d="M14.2,28.9H7.1c-0.5,0-0.9-0.4-0.9-0.9v-7.3c0-0.5,0.4-0.9,0.9-0.9h7.1c0.5,0,0.9,0.4,0.9,0.9V28
		C15.1,28.5,14.7,28.9,14.2,28.9z M8,27h5.2v-5.5H8V27z"/>
	<path class="st0" d="M14.2,41.6H7.1c-0.5,0-0.9-0.4-0.9-0.9v-7.3c0-0.5,0.4-0.9,0.9-0.9h7.1c0.5,0,0.9,0.4,0.9,0.9v7.3
		C15.1,41.2,14.7,41.6,14.2,41.6z M8,39.7h5.2v-5.5H8V39.7z"/>
	<path class="st0" d="M37.8,10.2H19.2c-0.5,0-0.9-0.4-0.9-0.9c0-0.5,0.4-0.9,0.9-0.9h18.6c0.5,0,0.9,0.4,0.9,0.9
		C38.7,9.8,38.3,10.2,37.8,10.2z"/>
	<path class="st0" d="M37.8,15H19.2c-0.5,0-0.9-0.4-0.9-0.9c0-0.5,0.4-0.9,0.9-0.9h18.6c0.5,0,0.9,0.4,0.9,0.9
		C38.7,14.6,38.3,15,37.8,15z"/>
	<path class="st0" d="M37.8,22.8H19.2c-0.5,0-0.9-0.4-0.9-0.9c0-0.5,0.4-0.9,0.9-0.9h18.6c0.5,0,0.9,0.4,0.9,0.9
		C38.7,22.4,38.3,22.8,37.8,22.8z"/>
	<path class="st0" d="M37.8,27.7H19.2c-0.5,0-0.9-0.4-0.9-0.9c0-0.5,0.4-0.9,0.9-0.9h18.6c0.5,0,0.9,0.4,0.9,0.9
		C38.7,27.3,38.3,27.7,37.8,27.7z"/>
	<path class="st0" d="M35.4,35.5H19.2c-0.5,0-0.9-0.4-0.9-0.9c0-0.5,0.4-0.9,0.9-0.9h16.1c0.5,0,0.9,0.4,0.9,0.9
		C36.3,35.1,35.9,35.5,35.4,35.5z"/>
	<path class="st0" d="M29.3,40.3H19.2c-0.5,0-0.9-0.4-0.9-0.9c0-0.5,0.4-0.9,0.9-0.9h10.1c0.5,0,0.9,0.4,0.9,0.9
		C30.2,39.9,29.8,40.3,29.3,40.3z"/>
</g>
</svg>
