<?xml version="1.0" encoding="utf-8"?>
<!-- Generator: Adobe Illustrator 19.0.0, SVG Export Plug-In . SVG Version: 6.00 Build 0)  -->
<svg version="1.1" id="Capa_1" xmlns="http://www.w3.org/2000/svg" xmlns:xlink="http://www.w3.org/1999/xlink" x="0px" y="0px"
	 viewBox="0 0 23 23" style="enable-background:new 0 0 23 23;" xml:space="preserve">
<style type="text/css">
	.st0{fill-rule:evenodd;clip-rule:evenodd;fill:#003685;}
</style>
<g id="XMLID_76_">
	<g id="XMLID_93_">
		<path id="XMLID_94_" class="st0" d="M12.7,11.5L17,7.2c0.3-0.3,0.3-0.9,0-1.2c-0.3-0.3-0.9-0.3-1.2,0l-4.3,4.3L7.2,6
			C6.9,5.7,6.3,5.7,6,6C5.7,6.3,5.7,6.9,6,7.2l4.3,4.3L6,15.8c-0.3,0.3-0.3,0.9,0,1.2c0.3,0.3,0.9,0.3,1.2,0l4.3-4.3l4.3,4.3
			c0.3,0.3,0.9,0.3,1.2,0c0.3-0.3,0.3-0.9,0-1.2L12.7,11.5z"/>
	</g>
</g>
<path id="XMLID_71_" class="st0" d="M23,11.5C23,5.2,17.8,0,11.5,0S0,5.2,0,11.5C0,17.8,5.2,23,11.5,23S23,17.8,23,11.5z M21.6,11.5
	c0,5.6-4.5,10.1-10.1,10.1S1.4,17.1,1.4,11.5c0-5.6,4.5-10.1,10.1-10.1S21.6,5.9,21.6,11.5z"/>
</svg>
