<?xml version="1.0" encoding="utf-8"?>
<!-- Generator: Adobe Illustrator 19.2.1, SVG Export Plug-In . SVG Version: 6.00 Build 0)  -->
<svg version="1.1" id="Capa_1" xmlns="http://www.w3.org/2000/svg" xmlns:xlink="http://www.w3.org/1999/xlink" x="0px" y="0px"
	 viewBox="0 0 40 47" style="enable-background:new 0 0 40 47;" xml:space="preserve">
<style type="text/css">
	.st0{fill:#003685;}
</style>
<path class="st0" d="M20,47L6.3,34C2.3,30.4,0,25.1,0,19.5C0,8.8,9,0,20,0s20,8.8,20,19.5c0,5.6-2.3,10.9-6.3,14.5L20,47z M20,1.6
	C9.9,1.6,1.6,9.7,1.6,19.5c0,5.2,2.1,10,5.8,13.3L20,44.8l12.6-11.9c3.7-3.3,5.8-8.2,5.8-13.4C38.4,9.7,30.1,1.6,20,1.6z M20,25
	c-3.9,0-7-3.1-7-7c0-3.9,3.1-7,7-7s7,3.1,7,7C27,21.9,23.9,25,20,25z M20,12.6c-3,0-5.4,2.4-5.4,5.4c0,3,2.4,5.4,5.4,5.4
	s5.4-2.4,5.4-5.4C25.4,15,23,12.6,20,12.6z"/>
</svg>
