<?xml version="1.0" encoding="utf-8"?>
<!-- Generator: Adobe Illustrator 19.0.0, SVG Export Plug-In . SVG Version: 6.00 Build 0)  -->
<svg version="1.1" id="Capa_1" xmlns="http://www.w3.org/2000/svg" xmlns:xlink="http://www.w3.org/1999/xlink" x="0px" y="0px"
	 viewBox="0 0 32 32" style="enable-background:new 0 0 32 32;" xml:space="preserve">
<style type="text/css">
	.st0{fill-rule:evenodd;clip-rule:evenodd;fill:#003685;}
</style>
<g id="XMLID_2_">
	<g id="XMLID_42_">
		<path id="XMLID_43_" class="st0" d="M2.5,7.5h27c0.9,0,1.7-0.8,1.7-1.7c0-0.9-0.8-1.7-1.7-1.7h-27c-0.9,0-1.7,0.8-1.7,1.7
			C0.8,6.8,1.6,7.5,2.5,7.5z M29.5,14.3h-27c-0.9,0-1.7,0.8-1.7,1.7c0,0.9,0.8,1.7,1.7,1.7h27c0.9,0,1.7-0.8,1.7-1.7
			C31.2,15.1,30.4,14.3,29.5,14.3z M29.5,24.5h-27c-0.9,0-1.7,0.8-1.7,1.7c0,0.9,0.8,1.7,1.7,1.7h27c0.9,0,1.7-0.8,1.7-1.7
			C31.2,25.2,30.4,24.5,29.5,24.5z"/>
	</g>
</g>
</svg>
