<?xml version="1.0" encoding="utf-8"?>
<!-- Generator: Adobe Illustrator 19.0.0, SVG Export Plug-In . SVG Version: 6.00 Build 0)  -->
<svg version="1.1" id="Capa_1" xmlns="http://www.w3.org/2000/svg" xmlns:xlink="http://www.w3.org/1999/xlink" x="0px" y="0px"
	 viewBox="0 0 36 36" style="enable-background:new 0 0 36 36;" xml:space="preserve">
<style type="text/css">
	.st0{fill:#003685;}
</style>
<g id="XMLID_41_">
	<g id="XMLID_77_">
		<path id="XMLID_78_" class="st0" d="M18.3,7.4c-0.2-0.2-0.5-0.2-0.7,0L4.1,20.3c-0.1,0.1-0.1,0.2-0.1,0.3v14
			c0,0.3,0.2,0.5,0.5,0.5h9.4c0.3,0,0.5-0.2,0.5-0.5v-9.2h7.2v9.2c0,0.3,0.2,0.5,0.5,0.5h9.5c0.3,0,0.5-0.2,0.5-0.5v-7.3
			c0-0.3-0.4-0.5-0.6-0.5c-0.3,0-0.6,0.2-0.6,0.5v6.5h-7.9v-9.2c0-0.3-0.2-0.5-0.5-0.5h-8.8c-0.3,0-0.5,0.2-0.5,0.5v9.2H5.2V20.8
			L18,9l12.8,11.6v2.1c0,0.3,0.4,0.5,0.6,0.5c0.3,0,0.6-0.2,0.6-0.5v-2.3c0-0.1-0.1-0.3-0.1-0.3L18.3,7.4z M35.9,18L18.3,1.1
			c-0.2-0.2-0.5-0.2-0.7,0L9.1,9.3v-4c0-0.3-0.2-0.5-0.5-0.5H4.2C4,4.8,4,5,4,5.3v9.1L0.2,18c-0.2,0.2-0.2,0.9,0,1.1
			c0.1,0.1,0.2,0.2,0.4,0.2c0.1,0,0.3-0.1,0.4-0.2l4.1-4c0.1-0.1,0.2-0.3,0.1-0.5V6.1h2.6v4.5c0,0.2,0.2,0.3,0.4,0.4
			c0.2,0.2,0.5,0.6,0.6,0.5L18,2.6l17.2,16.6c0.1,0.1,0.2-0.4,0.3-0.4c0.1,0,0.3,0,0.4-0.1C36,18.5,36,18.2,35.9,18z"/>
	</g>
</g>
</svg>
