<?xml version="1.0" encoding="utf-8"?>
<!-- Generator: Adobe Illustrator 19.2.1, SVG Export Plug-In . SVG Version: 6.00 Build 0)  -->
<svg version="1.0" id="Capa_1" xmlns="http://www.w3.org/2000/svg" xmlns:xlink="http://www.w3.org/1999/xlink" x="0px" y="0px"
	 viewBox="0 0 80 60" style="enable-background:new 0 0 80 60;" xml:space="preserve">
<style type="text/css">
	.st0{fill:#1A63D0;}
	.st1{fill:#003685;}
	.st2{fill:#FFFFFF;}
	.st3{fill:#223F91;}
</style>
<g>
	<path class="st0" d="M80,37.2C80,37.1,80,37.1,80,37.2l0-33C80,1.9,78.1,0,75.8,0H23.2C20.9,0,19,1.9,19,4.2v32.9c0,0,0,0.1,0,0.1
		c0,0,0,0.1,0,0.1v2.9c0,2.3,1.9,4.2,4.2,4.2h20.4l-2.5,7.2c-0.1,0.3,0,0.5,0.1,0.8c0.2,0.2,0.4,0.4,0.7,0.4h15c0,0,0,0,0,0
		c0.5,0,0.8-0.4,0.8-0.8c0-0.1,0-0.3-0.1-0.4l-1.6-7.1h19.6c2.3,0,4.2-1.9,4.2-4.2L80,37.2C80,37.2,80,37.2,80,37.2z M23.2,1.7h52.5
		c1.4,0,2.5,1.1,2.5,2.5v32.1H20.7V4.2C20.7,2.8,21.8,1.7,23.2,1.7z M56,51H43.2l2.3-6.6h9L56,51z M75.8,42.7H55.1H44.8H23.2
		c-1.4,0-2.5-1.1-2.5-2.5V38h57.6v2.2C78.3,41.6,77.2,42.7,75.8,42.7z M31.5,18.2c0-2.4,1.9-4.3,4.3-4.4v-2.7c0-0.5,0.4-0.9,0.9-0.9
		c0.5,0,0.9,0.4,0.9,0.9v2.7h2c0.5,0,0.9,0.4,0.9,0.9c0,0.5-0.4,0.9-0.9,0.9h-3.7c-1.4,0-2.6,1.2-2.6,2.6c0,1.4,1.2,2.6,2.6,2.6h0.9
		c2.4,0,4.4,2,4.4,4.4c0,2.1-1.5,3.9-3.5,4.3v2.8c0,0.5-0.4,0.9-0.9,0.9c-0.5,0-0.9-0.4-0.9-0.9v-2.7h-3.1c-0.5,0-0.9-0.4-0.9-0.9
		s0.4-0.9,0.9-0.9h4.1c1.4,0,2.6-1.2,2.6-2.6c0-1.4-1.2-2.6-2.6-2.6h-0.9C33.4,22.6,31.5,20.6,31.5,18.2z M51.3,10.8
		c0-0.5,0.4-0.9,0.9-0.9h22.4c0.5,0,0.9,0.4,0.9,0.9c0,0.5-0.4,0.9-0.9,0.9H52.3C51.8,11.8,51.3,11.3,51.3,10.8z M51.3,16.9
		c0-0.5,0.4-0.9,0.9-0.9h22.4c0.5,0,0.9,0.4,0.9,0.9s-0.4,0.9-0.9,0.9H52.3C51.8,17.8,51.3,17.4,51.3,16.9z M51.3,23
		c0-0.5,0.4-0.9,0.9-0.9h22.4c0.5,0,0.9,0.4,0.9,0.9s-0.4,0.9-0.9,0.9H52.3C51.8,23.9,51.3,23.5,51.3,23z"/>
	<path class="st1" d="M18.7,60C8.4,60,0,51.6,0,41.3s8.4-18.7,18.7-18.7S37.4,31,37.4,41.3S29,60,18.7,60z M18.7,24.1
		c-9.5,0-17.3,7.7-17.3,17.3s7.7,17.3,17.3,17.3s17.3-7.7,17.3-17.3S28.2,24.1,18.7,24.1z"/>
	<path class="st2" d="M18.7,24.1c-9.5,0-17.3,7.7-17.3,17.3s7.7,17.3,17.3,17.3s17.3-7.7,17.3-17.3S28.2,24.1,18.7,24.1z"/>
	<g>
		<path class="st3" d="M13.6,46.1l1.6-2.2c0.8,0.7,1.9,1.3,3.2,1.3c1.1,0,1.9-0.5,1.9-1.3c0-0.9-0.6-1.5-3.6-1.5V40
			c2.4,0,3.1-0.5,3.1-1.4c0-0.8-0.5-1.2-1.5-1.2c-0.9,0-1.7,0.4-2.6,1.1L14,36.4c1.3-1,2.7-1.6,4.4-1.6c2.9,0,4.9,1.3,4.9,3.6
			c0,1.2-0.8,2.1-2.3,2.7v0.1c1.6,0.4,2.7,1.4,2.7,3c0,2.4-2.4,3.7-5.2,3.7C16.5,47.9,14.7,47.2,13.6,46.1z"/>
	</g>
	<path class="st0" d="M72,27H60.3c-2,0-3.5,1.6-3.5,3.5c0,1.9,1.6,3.5,3.5,3.5H72c1.9,0,3.5-1.6,3.5-3.5C75.6,28.6,74,27,72,27z
		 M72,32H60.3c-0.9,0-1.7-0.6-1.7-1.5c0-0.9,0.8-1.5,1.7-1.5H72c0.9,0,1.7,0.6,1.7,1.5C73.7,31.4,73,32,72,32z"/>
</g>
</svg>
