<?xml version="1.0" encoding="utf-8"?>
<!-- Generator: Adobe Illustrator 19.2.1, SVG Export Plug-In . SVG Version: 6.00 Build 0)  -->
<svg version="1.1" id="Capa_1" xmlns="http://www.w3.org/2000/svg" xmlns:xlink="http://www.w3.org/1999/xlink" x="0px" y="0px"
	 viewBox="0 0 20 24" style="enable-background:new 0 0 20 24;" xml:space="preserve">
<style type="text/css">
	.st0{fill-rule:evenodd;clip-rule:evenodd;fill:#FFFFFF;}
</style>
<g>
	<g>
		<path class="st0" d="M3.6,18c0,0.5,0.6,1.1,1.1,1.1h1.1v3.3c0,0.8,0.6,1.5,1.4,1.5c0.8,0,1.4-0.7,1.4-1.5v-3.3h3v3.3
			c0,0.8,0.6,1.5,1.4,1.5c0.8,0,1.4-0.7,1.4-1.5v-3.3h1.2c0.5,0,1.1-0.6,1.1-1.1V8H3.6V18z M1.4,7.7C0.6,7.7,0,8.3,0,9.2V15
			c0,0.8,0.6,1.5,1.4,1.5c0.8,0,1.4-0.7,1.4-1.5V9.2C2.9,8.3,2.2,7.7,1.4,7.7z M18.6,7.7c-0.8,0-1.4,0.7-1.4,1.5V15
			c0,0.8,0.6,1.5,1.4,1.5c0.8,0,1.4-0.7,1.4-1.5V9.2C20,8.3,19.4,7.7,18.6,7.7z M13.1,2.1l1.1-1.9c0,0,0.1-0.1,0-0.2
			c-0.1-0.1-0.2,0-0.2,0L12.9,2C12,1.6,11,1.4,10,1.4C9,1.4,8,1.6,7.2,2L6,0.1C6,0.1,6,0,5.9,0C5.8,0.1,5.8,0.2,5.8,0.2h0l1.1,1.9
			c-2,1-3.4,2.9-3.4,5.1H10h6.5C16.5,5,15.1,3.1,13.1,2.1z M7.9,5.1H6.4V3.6h1.4V5.1z M13.6,5.1h-1.4V3.6h1.4V5.1z"/>
	</g>
</g>
</svg>
