<?xml version="1.0" encoding="utf-8"?>
<!-- Generator: Adobe Illustrator 19.2.1, SVG Export Plug-In . SVG Version: 6.00 Build 0)  -->
<svg version="1.1" id="Capa_1" xmlns="http://www.w3.org/2000/svg" xmlns:xlink="http://www.w3.org/1999/xlink" x="0px" y="0px"
	 viewBox="0 0 22 18" style="enable-background:new 0 0 22 18;" xml:space="preserve">
<style type="text/css">
	.st0{fill:#003685;}
</style>
<path class="st0" d="M19.7,4.5c0,0.2,0,0.4,0,0.6c0,6-4.5,12.9-12.8,12.9C4.4,18,2,17.2,0,16C0.4,16,0.7,16,1.1,16
	c2.1,0,4.1-0.7,5.6-1.9c-2,0-3.6-1.3-4.2-3.2C2.7,11,3,11,3.3,11c0.4,0,0.8-0.1,1.2-0.2c-2.1-0.4-3.6-2.3-3.6-4.5c0,0,0,0,0-0.1
	c0.6,0.3,1.3,0.5,2,0.6c-1.2-0.8-2-2.2-2-3.8c0-0.8,0.2-1.6,0.6-2.3c2.2,2.8,5.6,4.6,9.3,4.7c-0.1-0.3-0.1-0.7-0.1-1
	c0-2.5,2-4.5,4.5-4.5c1.3,0,2.5,0.6,3.3,1.4c1-0.2,2-0.6,2.9-1.1c-0.3,1.1-1.1,2-2,2.5c0.9-0.1,1.8-0.4,2.6-0.7
	C21.4,3,20.6,3.8,19.7,4.5z"/>
</svg>
