<?xml version="1.0" encoding="utf-8"?>
<!-- Generator: Adobe Illustrator 19.2.1, SVG Export Plug-In . SVG Version: 6.00 Build 0)  -->
<svg version="1.0" id="Capa_1" xmlns="http://www.w3.org/2000/svg" xmlns:xlink="http://www.w3.org/1999/xlink" x="0px" y="0px"
	 viewBox="0 0 63 80" style="enable-background:new 0 0 63 80;" xml:space="preserve">
<style type="text/css">
	.st0{fill:#1A63D0;}
	.st1{fill:#FFFFFF;}
</style>
<g>
	<path class="st0" d="M147.7-142.2C147.7-142.2,143.7-145.9,147.7-142.2c0.4,0.3,0.6,0.4,1,0l8-7.5c0.6-0.5,0.6-1.5,0-2l0,0
		c-0.5-0.5-1.4-0.5-1.9,0l-5,4.8v-9.9c0-0.8-0.7-1.5-1.5-1.5h0c-0.8,0-1.5,0.7-1.5,1.5v9.9l-5-4.8c-0.5-0.5-1.4-0.5-1.9,0h0
		c-0.6,0.5-0.6,1.5,0,2L147.7-142.2z"/>
	<path class="st0" d="M157.3-140.3h-18v1.9h18V-140.3z"/>
</g>
<path class="st1" d="M26.4,80c0,0-0.1,0-0.1,0C10.9,78.5,3,68.4,0.9,60.2c-3.7-14.3,4.6-22.4,11.2-28.9c1-0.9,1.9-1.9,2.7-2.8
	c9.6-10,7.9-24.5,7.9-24.7c-0.2-1.4,0.3-2.7,1.2-3.3c0.9-0.7,2.2-0.7,3.5,0C28.6,1,54.4,13.8,61.3,36.1c1.1,3.6,1.7,7.2,1.7,10.9
	c0,15.1-11.1,29-25.9,32.4c-0.8,0.2-1.6-0.3-1.7-1.1c-0.2-0.8,0.3-1.6,1.1-1.7C50,73.4,60.1,60.7,60.1,46.9c0-3.3-0.5-6.7-1.5-10
	C52,15.9,26.5,3.2,26.2,3.1c-0.3-0.2-0.5-0.2-0.6-0.2c0,0,0,0.2,0,0.6c0.1,0.6,1.8,16-8.7,27.1c-0.9,0.9-1.8,1.9-2.8,2.8
	C7.7,39.7,0.4,46.8,3.7,59.5c1.9,7.3,9,16.3,22.9,17.6c0.8,0.1,1.4,0.8,1.3,1.6C27.8,79.4,27.1,80,26.4,80z M26.4,80
	c-0.1,0-0.2,0-0.4,0c-6.5-1.6-10.5-6.8-11.5-10.9c-2.2-8.8,2.3-13.8,5.9-17.8c0.9-1,1.8-2,2.6-3c4.5-5.9,4.4-12,4.4-12.1
	c0-2.1,1.1-2.9,1.5-3.1c0.5-0.2,1.8-0.6,3.4,0.7c0.5,0.4,12.4,10.6,14.5,21.6c2,10.9-1.8,20.4-9.4,23.8c-0.7,0.3-1.6,0-1.9-0.8
	c-0.3-0.7,0-1.6,0.7-1.9c6.4-2.8,9.5-11.1,7.7-20.6c-1.8-10-13.3-19.8-13.5-19.9c-0.1-0.1-0.1-0.1-0.2-0.1c0,0.1,0,0.1,0,0.2
	c0,0.3,0.1,7.2-5,13.9c-0.8,1.1-1.8,2.1-2.7,3.2c-3.6,4-7.1,7.8-5.3,15.1c0.7,2.7,3.7,7.3,9.4,8.8c0.8,0.2,1.2,1,1,1.8
	C27.6,79.6,27.1,80,26.4,80z"/>
</svg>
