<?xml version="1.0" encoding="utf-8"?>
<!-- Generator: Adobe Illustrator 19.2.1, SVG Export Plug-In . SVG Version: 6.00 Build 0)  -->
<svg version="1.0" id="Capa_1" xmlns="http://www.w3.org/2000/svg" xmlns:xlink="http://www.w3.org/1999/xlink" x="0px" y="0px"
	 viewBox="0 0 56.3 60" style="enable-background:new 0 0 56.3 60;" xml:space="preserve">
<style type="text/css">
	.st0{fill:#1A63D0;}
</style>
<g>
	<path class="st0" d="M52.1,51.7h-2.7v-4.3c0-0.5-0.4-0.9-0.9-0.9H24.3c-0.5,0-0.9,0.4-0.9,0.9v4.3h-3.1c-2.3,0-4.2,1.9-4.2,4.2
		c0,2.3,1.9,4.2,4.2,4.2h31.8c2.3,0,4.2-1.9,4.2-4.2C56.3,53.6,54.4,51.7,52.1,51.7z M25.2,48.3h22.4v3.4H25.2V48.3z M52.1,58.2
		H20.3c-1.3,0-2.4-1.1-2.4-2.4c0-1.3,1.1-2.4,2.4-2.4h4h24.2h3.6c1.3,0,2.4,1.1,2.4,2.4C54.5,57.1,53.4,58.2,52.1,58.2z"/>
	<path class="st0" d="M47.7,17.8c-1.2-1.2-3.3-1.2-4.5,0l-0.6,0.6L29.9,6l0.6-0.6c1.2-1.2,1.2-3.2,0-4.4c-1.2-1.2-3.3-1.2-4.5,0
		L15.7,11.2c-1.2,1.2-1.2,3.2,0,4.4c0.6,0.6,1.4,0.9,2.2,0.9c0.8,0,1.6-0.3,2.2-0.9l0.2-0.2l5,5l-7.3,5.7L2.7,41.4l-0.1-0.1
		c-0.4-0.4-0.9-0.4-1.3,0C0.5,42.2,0,43.2,0,44.4c0,1.2,0.5,2.3,1.3,3.1c0.8,0.8,1.9,1.3,3.1,1.3c1.2,0,2.3-0.5,3.1-1.3
		c0.2-0.2,0.3-0.4,0.3-0.6c0-0.2-0.1-0.5-0.3-0.6l-0.1-0.1l15.6-15.4l5.6-7.1l4.4,4.4l-0.2,0.2c-1.2,1.2-1.2,3.2,0,4.4
		c0.6,0.6,1.4,0.9,2.2,0.9c0.8,0,1.6-0.3,2.2-0.9l10.4-10.3C48.9,21.1,48.9,19.1,47.7,17.8z M19.7,13.5l-0.8,0.8
		c-0.5,0.5-1.4,0.5-1.9,0c-0.5-0.5-0.5-1.4,0-1.9L27.4,2.2c0.3-0.3,0.6-0.4,1-0.4c0.4,0,0.7,0.1,1,0.4c0.5,0.5,0.5,1.4,0,1.9L28,5.3
		c0,0,0,0,0,0L19.7,13.5z M21.6,29.5l-16.1,16c-0.2,0.2-0.3,0.4-0.3,0.6c0,0.2,0.1,0.5,0.3,0.6c-0.9,0.4-2.1,0.2-2.9-0.5
		c-0.5-0.5-0.8-1.1-0.8-1.8c0-0.4,0.1-0.7,0.2-1.1c0.4,0.3,0.9,0.3,1.3,0l16-15.9l7.3-5.7l0.6,0.6L21.6,29.5z M21.8,14.2l6.9-6.9
		l12.6,12.5l-6.5,6.9L21.8,14.2z M46.4,21L36,31.3c-0.5,0.5-1.4,0.5-1.9,0c-0.5-0.5-0.5-1.4,0-1.9l10.4-10.3c0.3-0.3,0.6-0.4,1-0.4
		c0.4,0,0.7,0.1,1,0.4C46.9,19.6,46.9,20.5,46.4,21z"/>
</g>
</svg>
