<?xml version="1.0" encoding="utf-8"?>
<!-- Generator: Adobe Illustrator 19.2.1, SVG Export Plug-In . SVG Version: 6.00 Build 0)  -->
<svg version="1.1" id="Capa_1" xmlns="http://www.w3.org/2000/svg" xmlns:xlink="http://www.w3.org/1999/xlink" x="0px" y="0px"
	 viewBox="0 0 72 72" style="enable-background:new 0 0 72 72;" xml:space="preserve">
<style type="text/css">
	.st0{fill-rule:evenodd;clip-rule:evenodd;fill:#00548C;}
	.st1{fill-rule:evenodd;clip-rule:evenodd;fill:#FFFFFF;}
	.st2{fill-rule:evenodd;clip-rule:evenodd;fill:#E5EDF5;}
</style>
<g>
	<path class="st0" d="M13.5,6V66c0.2,0.4,0,2.2,1.9,4.1c0.8,0.8,1.7,1.3,2.9,1.6c0.3,0.1,1.2,0.2,1.3,0.2h32.7
		c0.4-0.2,2.5-0.1,4.2-1.8c0.8-0.8,1.3-1.6,1.7-2.8c0.1-0.3,0.2-1.1,0.3-1.3V5.9c-0.2-0.5,0-2.1-1.9-4.1c-1.8-1.8-3.8-1.7-4.2-1.8
		H19.6c-0.1,0.1-1,0.2-1.3,0.2c-2.3,0.6-4,2.3-4.6,4.5C13.7,5,13.6,5.8,13.5,6L13.5,6z"/>
	<path class="st1" d="M14.7,57.5h42.7c0.1-0.4,0-8.9,0-9.6V9.4c0-2.9,0.4-5.5-2.4-7.3c-1.2-0.8-2.2-0.9-4-0.9H21.1
		c-1.8,0-2.8,0-4.1,0.9c-0.9,0.6-1.7,1.5-2.1,2.7c-0.4,1.2-0.3,3.2-0.3,4.6v45.8C14.7,55.7,14.6,56.9,14.7,57.5L14.7,57.5z"/>
	<path class="st0" d="M22.4,22.3c0-0.1-0.5-1.1-0.7-2.3c-0.7-3.3-0.1-7.1,1.6-10c0.4-0.7,1.1-1.4,1.2-1.9c0.2-0.9-0.7-1.6-1.6-1.4
		C22,7,21.6,7.7,21.2,8.3c-3.9,5.9-3.5,12.9,0.4,18.5c1.6,2.4,3.7,4.4,6.3,5.9c2.9,1.7,6,2.4,10.1,2.3c3.7,0,7.1-1.3,9.4-2.9
		c0.9-0.6,2.1-1.6,2.9-2.5c0.1-0.1,0.1-0.1,0.2-0.2c0.6-0.7,1-1.1,1.6-1.9c0.2-0.3,1.2-1.5,1.3-1.8c0.3-0.9-0.1-1.8-0.6-2.2
		c-0.7-0.6-1.2-0.6-2.4-0.6c-2.1,0-4.1,0-6.2,0c-1,0-1.2,0.3-1.8,1.2c-0.4,0.6-0.9,1.1-1.6,1.5c-2.1,1.2-5.2,1.3-7.4-0.2
		c-1.7-1.2-3-4.1-2.6-6.4c1-4.8,8.1-6.7,11.3-2.5c0.5,0.6,0.8,1.1,1.1,1.9c0.2,0.6,1.1,1.3,2,0.9c0.7-0.3,0.9-1.3,0.5-2.2
		c-0.8-2-2.4-3.8-4.4-4.8c-4.4-2.1-10.4-0.1-12.6,4.2c-0.6,1.2-0.9,2.4-0.8,3.7c0,0.5,0.1,0.9,0.1,1.4c-0.3-0.7-0.4-2.3-0.4-3.1
		c0.2-2.2,1.1-3.9,2.7-5.4l0.5-0.4c0.3-0.3,0.7-0.5,1-0.8c1.4-0.9,3.5-1.7,5.7-1.5c0.5,0.1,1.1,0.3,1.6,0.3c1.9,0.1,2.4-2.1,0.6-2.6
		c-2-0.6-4.5-0.4-6.4,0.2c-1.4,0.5-2.5,1-3.6,1.8c-1.8,1.3-3.1,2.9-4.1,5c-0.6,1.4-0.8,3-0.8,4.6c0,0.6,0.1,1.1,0.2,1.7
		c-0.3-0.5-0.5-2.2-0.5-2.9c-0.1-2.9,1-5.5,2.7-7.6c1-1.1,2.3-2.3,3.8-3.1c0.4-0.2,0.8-0.3,1.2-0.5c1.5-0.6,0.8-3-0.9-2.5
		C29.8,5.4,28,6.6,27,7.4c-2.7,2.1-4.4,5.2-4.9,8.8c-0.2,1.6-0.2,3.2,0.1,4.7C22.2,21.4,22.4,21.9,22.4,22.3L22.4,22.3z"/>
	<path class="st0" d="M29.4,44.9c-1.2,0.3-1.6,1.6-1.5,3c0.1,1.2,0.9,2.5,2.3,2.2C32.5,49.5,32.1,44.2,29.4,44.9L29.4,44.9z"/>
	<path class="st0" d="M43.6,44.9C43,45,42.7,45.4,42.5,46c-0.4,1-0.3,2.7,0.3,3.5c0.9,1.1,3.2,0.7,2.9-2.5
		C45.6,45.7,44.9,44.5,43.6,44.9L43.6,44.9z"/>
	<path class="st0" d="M39.7,44.8c-1.2,0.2-1.5,1.6-1.5,2.9c0.1,1.2,0.6,2.5,2,2.3c1.1-0.2,1.5-1.6,1.4-2.9
		C41.7,45.9,41.1,44.6,39.7,44.8L39.7,44.8z"/>
	<path class="st0" d="M36.8,47.7c0,1.7-1.4,1.8-1.6,1l-0.9,0c0.1,1.6,2.2,1.7,3,0.6c0.6-1,0.6-3.1-0.1-4c-0.8-0.9-2.8-0.7-2.9,1.1
		c-0.1,1.3,0.8,2.1,1.8,1.9C36.5,48.2,36.6,47.9,36.8,47.7L36.8,47.7z"/>
	<path class="st1" d="M36.3,62c-2.5,0.4-1.9,4.1,0.7,3.7c1-0.2,1.7-1,1.6-2.2C38.4,62.6,37.5,61.8,36.3,62L36.3,62z"/>
	<path class="st1" d="M48.6,64.5c-1,0-0.8-0.1-1.1,0.2c-0.1,0.1-0.1,0.1-0.2,0.2c-0.5,0.2-1.4,0.1-1.5-0.7l2.9,0
		c0.2-2.5-3.2-2.9-3.8-0.8c-0.4,1.6,1.3,2.9,2.7,2.1C48.1,65.3,48.5,64.9,48.6,64.5L48.6,64.5z"/>
	<path class="st0" d="M24.9,48.4l-0.8,0c0,1,0.6,1.7,1.7,1.6c1-0.1,1.6-0.9,1.4-1.9c-0.2-1.1-1.4-1-1.9-1.4
		c-0.4-0.3-0.3-0.9,0.1-1.1c0.6-0.2,0.9,0.2,0.9,0.7l0.8,0c-0.1-1.9-2.3-1.8-2.8-0.8c-0.2,0.4-0.2,1,0,1.4c0.4,0.8,1.8,0.7,2,1.3
		c0.2,0.5-0.2,1-0.7,1C25,49.3,25.1,48.5,24.9,48.4L24.9,48.4z"/>
	<path class="st1" d="M21.6,64.3c-0.1,0.2,0,2.3,0,2.8c0,0.4,0.1,0.5,0.3,0.6c1,0.9,1.3,1.4,2.4,0.3c0.8-0.8,0.9-0.5-0.7-2l-1.5-1.4
		C22,64.6,21.8,64.3,21.6,64.3L21.6,64.3z"/>
	<path class="st1" d="M24.9,65.1c0.1-0.3,0-2.2,0-2.8c0-0.4-0.1-0.4-0.3-0.6c-0.2-0.2-0.7-0.8-1-0.9c-0.7-0.2-1.2,0.4-1.8,1
		c-0.3,0.3-0.1,0.3,0.1,0.5c0.6,0.6,2.1,2,2.7,2.6C24.7,65,24.7,65.1,24.9,65.1L24.9,65.1z"/>
	<path class="st1" d="M52.9,64.3l-0.9,0c-0.5,1-2,0.6-2-0.4c0-1.3,1.6-1.5,2-0.6l0.9,0c-0.1-0.8-1.1-1.5-2.1-1.4
		c-2.2,0.3-2.2,3.5,0,3.7C51.8,65.8,52.8,65.2,52.9,64.3L52.9,64.3z"/>
	<path class="st1" d="M39.9,62.4l0-0.4l-0.8,0l0,3.5l0.8,0c0-0.6,0-1.2,0-1.8c0-0.5,0.2-1,0.8-1c0.7,0,0.8,0.4,0.8,1
		c0,0.6,0,1.2,0,1.8l0.9,0c0-1.5,0.3-3.4-1.2-3.6C40.3,61.9,40.1,62.4,39.9,62.4L39.9,62.4z"/>
	<path class="st1" d="M34.3,64.3l-0.9,0c-0.1,0.1-0.3,0.7-1.2,0.5c-1.1-0.2-1-1.8-0.1-2.1c0.9-0.2,1.2,0.5,1.3,0.5l0.8,0
		c-0.4-2.1-3.8-1.7-3.8,0.6c0,0.9,0.8,1.7,1.7,1.8C33.3,65.8,34.2,65.1,34.3,64.3L34.3,64.3z"/>
	<path class="st1" d="M29.6,45.6c-0.8,0.2-0.9,1.4-0.8,2.1c0,0.8,0.4,1.8,1.3,1.6C31.2,48.9,31.1,45.2,29.6,45.6L29.6,45.6z"/>
	<path class="st0" d="M46.9,45.7l0.8,0l0,4.3l0.9,0c0.1-0.3,0-4.4,0-5.1h-1.7L46.9,45.7L46.9,45.7z"/>
	<path class="st1" d="M43.8,45.7c-0.7,0.3-0.7,1.4-0.7,2c0,0.7,0.2,1.8,1,1.6C45.2,48.9,45.1,45.2,43.8,45.7L43.8,45.7z"/>
	<path class="st1" d="M39.8,45.6c-0.2,0.1-0.3,0.1-0.4,0.3c-0.5,0.8-0.5,3.6,0.7,3.2C41.2,48.9,41.1,45.2,39.8,45.6L39.8,45.6z"/>
	<polygon class="st1" points="43.3,62 42.8,62 42.8,62.8 43.3,62.8 43.3,65.6 44.2,65.6 44.2,62.8 44.8,62.8 44.8,62 44.2,62 
		44.2,60.8 43.4,60.8 43.3,62 	"/>
	<path class="st1" d="M25.5,66.8c0.2-0.1,0.4-0.3,0.5-0.5l1-0.9c0.2-0.2,0.3-0.3,0.3-0.7c0-0.5-0.5-0.9-0.8-1.2
		c-0.2-0.2-0.8-0.9-1-0.9C25.4,62.9,25.4,66.3,25.5,66.8L25.5,66.8z"/>
	<path class="st1" d="M21,66.8c0-0.5,0-3.9,0-4.2c-0.2,0.1-0.8,0.7-1,0.9c-0.3,0.3-1.3,1.1-0.5,1.8C19.7,65.6,20.8,66.7,21,66.8
		L21,66.8z"/>
	<polygon class="st0" points="22.5,49.9 23.4,49.9 23.4,44.9 22.5,44.9 22.5,49.9 	"/>
	<path class="st0" d="M36.3,62.8c-1.3,0.4-0.7,2.5,0.7,2C38.2,64.4,37.7,62.3,36.3,62.8L36.3,62.8z"/>
	<polygon class="st1" points="29.1,65.6 29.2,65.6 29.8,65.6 30,65.6 30,62 29.1,62 29.1,65.6 	"/>
	<path class="st1" d="M40.9,68.5L40.9,68.5c0.2,0.2,0.2,0.1,0.4,0.1l0-1.5c-0.3,0-0.3,0-0.4,0.1c0,0,0,0,0,0c-0.4-0.4-1.3,0-1.3,0.6
		C39.7,68.6,40.6,69,40.9,68.5L40.9,68.5z"/>
	<path class="st1" d="M51.3,68.5L51.3,68.5c0.1,0.2,0.2,0.1,0.4,0.1l0-1.5c-0.4,0-0.3,0-0.4,0.2c-0.5-0.4-1.3-0.1-1.3,0.6
		C50,68.6,51,68.9,51.3,68.5L51.3,68.5z"/>
	<path class="st1" d="M35.8,45.6c-0.4,0.1-0.6,0.5-0.6,1.1c0.1,0.5,0.4,0.9,0.9,0.8C37,47.3,36.8,45.4,35.8,45.6L35.8,45.6z"/>
	<path class="st1" d="M46.1,67.1c-1,0.3-0.7,1.8,0.4,1.5c0.4-0.1,0.7-0.5,0.6-1C47,67.3,46.6,67,46.1,67.1L46.1,67.1z"/>
	<path class="st2" d="M35.4,68.2c-0.6,0-0.3,0.1-0.7,0.2c-0.3,0.1-0.5-0.1-0.5-0.3l0-0.3c0-0.1,0.1-0.1,0.2-0.2
		c0.2-0.1,0.3-0.1,0.5,0c0.1,0.1,0.2,0.1,0.2,0.2l-0.9,0l0,0.3l1.2,0c0.1-1.1-1.3-1.2-1.6-0.3C33.5,68.7,35,69.1,35.4,68.2
		L35.4,68.2z"/>
	<path class="st1" d="M30.7,67.2C30.7,67.2,30.7,67.2,30.7,67.2l-0.1-0.1c-0.1,0-0.2,0-0.3,0l0,1.5l0.3,0c0-0.4-0.1-1.1,0.3-1.2
		c0.3,0,0.4,0.1,0.4,0.4c0,0.3,0,0.5,0,0.8l0.4,0c0-0.3,0-1-0.1-1.3C31.4,67.1,31,67,30.7,67.2L30.7,67.2z"/>
	<path class="st1" d="M43.7,68.1l-0.4,0c-0.1,0.2-0.3,0.3-0.6,0.2c-0.4-0.2-0.3-1,0.3-0.9c0.4,0.1,0,0.2,0.6,0.2
		c0-0.8-1.6-0.8-1.6,0.2C42.1,68.9,43.6,68.9,43.7,68.1L43.7,68.1z"/>
	<path class="st1" d="M48.3,67.3C48.3,67.2,48.3,67.2,48.3,67.3C48.3,67.2,48.3,67.2,48.3,67.3C48.1,67,48.4,67.2,48.3,67.3
		c-0.2-0.2-0.2-0.1-0.4-0.1c0,0.3,0,1.2,0,1.5l0.3,0c0.1-0.4-0.1-1.2,0.3-1.2c0.5-0.1,0.4,0.8,0.4,1.2l0.4,0c0-0.5,0.1-1.2-0.2-1.4
		C48.8,67,48.5,67.1,48.3,67.3L48.3,67.3z"/>
	<path class="st1" d="M37.9,67.3c0-0.2,0.1-0.1-0.4-0.1l0,1.5l0.4,0c0-0.4-0.1-1.2,0.3-1.2c0.5,0,0.3,0.8,0.4,1.2l0.3,0
		c0-0.3,0-1.1-0.1-1.3C38.7,67,38.2,67,37.9,67.3L37.9,67.3z"/>
	<path class="st0" d="M45.9,63.4l2,0C47.6,62.4,46.1,62.5,45.9,63.4L45.9,63.4z"/>
	<path class="st1" d="M32.6,67c-0.1,0.2-0.3,0-0.2,0.3c0,0.2,0.2,0,0.2,0.2l0,1.1l0.4,0l0-1.1c0-0.2,0.3,0.1,0.2-0.3
		c0-0.2-0.2,0-0.2-0.2l0-0.4l-0.4,0L32.6,67L32.6,67z"/>
	<path class="st1" d="M29.4,60.8c-0.2,0.1-0.5,0.3-0.3,0.6c0.1,0.2,0.4,0.4,0.7,0.3C30.4,61.5,30,60.6,29.4,60.8L29.4,60.8z"/>
	<path class="st1" d="M36.1,68.6l0.4,0c0-0.3-0.1-1,0.1-1.1c0.2-0.2,0.3,0.1,0.3-0.4c-0.2,0-0.2,0-0.3,0.1c-0.1-0.1,0-0.2-0.4-0.1
		L36.1,68.6L36.1,68.6z"/>
	<path class="st0" d="M46.2,67.5c-0.5,0.2-0.3,1,0.3,0.8C47,68.2,46.8,67.2,46.2,67.5L46.2,67.5z"/>
	<path class="st0" d="M40.3,67.5c-0.6,0.3-0.2,1,0.4,0.8C41.2,68.1,40.8,67.2,40.3,67.5L40.3,67.5z"/>
	<path class="st0" d="M50.7,67.5c-0.5,0.2-0.3,1,0.2,0.8C51.5,68.2,51.3,67.3,50.7,67.5L50.7,67.5z"/>
	<polygon class="st1" points="29.1,68.6 29.4,68.6 29.4,67.1 29.1,67.1 29.1,68.6 	"/>
	<polygon class="st1" points="29.1,68.6 29.1,68.6 29.4,68.6 29.4,68.6 29.4,67.1 29.1,67.1 29.1,68.6 	"/>
	<path class="st1" d="M29.2,66.6c-0.1,0-0.2,0.1-0.1,0.3c0,0.1,0.2,0.2,0.3,0.1C29.6,66.9,29.4,66.5,29.2,66.6L29.2,66.6z"/>
	<polygon class="st1" points="52.4,68.6 52.5,68.7 52.8,68.7 52.8,68.7 52.8,66.6 52.4,66.6 52.4,68.6 	"/>
	<path class="st1" d="M44.5,66.6c-0.1,0-0.2,0.1-0.1,0.3c0,0.1,0.2,0.2,0.3,0.1C44.9,66.9,44.7,66.5,44.5,66.6L44.5,66.6z"/>
	<polygon class="st1" points="44.4,68.6 44.4,68.6 44.7,68.6 44.8,68.6 44.8,67.1 44.4,67.1 44.4,68.6 	"/>
</g>
</svg>
