<?xml version="1.0" encoding="utf-8"?>
<!-- Generator: Adobe Illustrator 19.2.1, SVG Export Plug-In . SVG Version: 6.00 Build 0)  -->
<svg version="1.0" id="Capa_1" xmlns="http://www.w3.org/2000/svg" xmlns:xlink="http://www.w3.org/1999/xlink" x="0px" y="0px"
	 viewBox="0 0 18 20" style="enable-background:new 0 0 18 20;" xml:space="preserve">
<style type="text/css">
	.st0{fill:#1A63D0;}
</style>
<g>
	<path class="st0" d="M125.2-172.2C125.2-172.2,121.2-175.9,125.2-172.2c0.4,0.3,0.6,0.4,1,0l8-7.5c0.6-0.5,0.6-1.5,0-2l0,0
		c-0.5-0.5-1.4-0.5-1.9,0l-5,4.8v-9.9c0-0.8-0.7-1.5-1.5-1.5l0,0c-0.8,0-1.5,0.7-1.5,1.5v9.9l-5-4.8c-0.5-0.5-1.4-0.5-1.9,0l0,0
		c-0.6,0.5-0.6,1.5,0,2L125.2-172.2z"/>
	<path class="st0" d="M134.8-170.3h-18v1.9h18V-170.3z"/>
</g>
<g>
	<path class="st0" d="M8.5,16.5C8.4,16.4,4.5,12.6,8.5,16.5c0.4,0.4,0.6,0.4,1,0l8-8c0.6-0.6,0.6-1.4,0-2l0,0c-0.6-0.6-1.4-0.6-2,0
		l-5,5v-10C10.5,0.7,9.8,0,9,0h0C8.1,0,7.5,0.7,7.5,1.5v10L2.5,6.6C2,6,1.1,6,0.5,6.6l0,0C0,7.1,0,8,0.5,8.6L8.5,16.5z"/>
	<path class="st0" d="M18,18H0v2h18V18z"/>
</g>
</svg>
