<?xml version="1.0" encoding="utf-8"?>
<!-- Generator: Adobe Illustrator 19.2.1, SVG Export Plug-In . SVG Version: 6.00 Build 0)  -->
<svg version="1.0" id="Capa_1" xmlns="http://www.w3.org/2000/svg" xmlns:xlink="http://www.w3.org/1999/xlink" x="0px" y="0px"
	 viewBox="0 0 40 55" style="enable-background:new 0 0 40 55;" xml:space="preserve">
<style type="text/css">
	.st0{fill:#1A63D0;}
</style>
<g>
	<path class="st0" d="M39.1,37.4c-0.5,0-0.9-0.4-0.9-0.9V9.1c0-0.6-0.4-1-1-1h-4c-0.5,0-0.9-0.4-0.9-0.9s0.4-0.9,0.9-0.9h4
		c1.5,0,2.7,1.3,2.7,2.8v27.4C40,37,39.6,37.4,39.1,37.4z"/>
	<path class="st0" d="M37.3,55H2.7C1.2,55,0,53.7,0,52.2V9.1c0-1.6,1.2-2.8,2.7-2.8h4c0.5,0,0.9,0.4,0.9,0.9S7.2,8,6.8,8h-4
		c-0.5,0-1,0.5-1,1v43.1c0,0.6,0.4,1,1,1h34.5c0.5,0,1-0.5,1-1V41.5c0-0.5,0.4-0.9,0.9-0.9S40,41,40,41.5v10.7
		C40,53.7,38.8,55,37.3,55z"/>
	<path class="st0" d="M16.1,39.1L16.1,39.1c-0.2,0-0.5-0.1-0.6-0.3L8.9,32c-0.3-0.4-0.3-0.9,0-1.3c0.3-0.4,0.9-0.4,1.2,0l6,6.2
		l13.8-14.3c0.3-0.4,0.9-0.4,1.2,0c0.3,0.4,0.3,0.9,0,1.3L16.7,38.8C16.6,39,16.3,39.1,16.1,39.1z"/>
	<path class="st0" d="M31.4,11.4H8.6c-1.5,0-2.7-1.3-2.7-2.8v-3c0-1.6,1.2-2.8,2.7-2.8h7.9C16.9,1.2,18.3,0,20,0s3.1,1.2,3.5,2.8
		h7.9c1.5,0,2.7,1.3,2.7,2.8v3C34.1,10.2,32.9,11.4,31.4,11.4z M8.6,4.6c-0.5,0-1,0.5-1,1v3c0,0.6,0.4,1,1,1h22.7c0.5,0,1-0.5,1-1
		v-3c0-0.6-0.4-1-1-1h-9.6V3.7c0-1-0.8-1.9-1.8-1.9s-1.8,0.8-1.8,1.9v0.9H8.6z"/>
</g>
</svg>
