<?xml version="1.0" encoding="utf-8"?>
<!-- Generator: Adobe Illustrator 19.0.0, SVG Export Plug-In . SVG Version: 6.00 Build 0)  -->
<svg version="1.1" id="Capa_1" xmlns="http://www.w3.org/2000/svg" xmlns:xlink="http://www.w3.org/1999/xlink" x="0px" y="0px"
	 viewBox="0 0 36 36" style="enable-background:new 0 0 36 36;" xml:space="preserve">
<style type="text/css">
	.st0{fill:#003685;}
</style>
<g>
	<g id="XMLID_87_">
		<path id="XMLID_88_" class="st0" d="M35.8,14.1L19.4,6.4c-0.1-0.1-0.3-0.1-0.4,0L6.3,12.4c-0.2,0.1-0.3,0.4-0.2,0.6
			c0.1,0.2,0.4,0.5,0.6,0.4l12.6-5.9l15.1,6.9l-15.1,6.4L6.7,15.4c-0.2-0.1-0.5,0.2-0.6,0.4c-0.1,0.2,0,0.5,0.2,0.6L19,21.9
			c0.1,0,0.1,0,0.2,0c0.1,0,0.1,0,0.2,0l16.4-7.1c0.2-0.1,0.3-0.2,0.3-0.4C36,14.3,35.9,14.1,35.8,14.1z M29.3,18.4
			c-0.2,0-0.7,0.2-0.7,0.4v6.8c-1,0.5-4.7,2.4-9.4,2.4c-5.8,0-8.8-1.9-9.5-2.4v-6.9c0-0.2-0.4-0.4-0.7-0.4c-0.2,0-0.4,0.2-0.4,0.4
			V26c0,0.1,0.1,0.3,0.2,0.3c0.1,0.1,3.5,2.8,10.5,2.8c5.5,0,10.1-2.6,10.3-2.7c0.1-0.1,0.2-0.2,0.2-0.4v-7.2
			C29.7,18.6,29.5,18.4,29.3,18.4z M3.4,22.4v-5c0-1.9,0.1-2.5,1.9-2.5h14.3c0.2,0,0.5-0.3,0.5-0.6c0-0.2-0.3-0.5-0.5-0.5H5.2
			c-2.6,0-2.9,1.6-2.9,3.6v5L0,28.8c0,0.1,0,0.5,0.1,0.6c0.1,0.1,0.2,0.2,0.4,0.2H5c0.1,0,0.3-0.1,0.4-0.2c0.1-0.1,0.1-0.5,0.1-0.6
			L3.4,22.4z M1.3,28.5l1.5-4l1.3,4H1.3z"/>
	</g>
</g>
</svg>
