<?xml version="1.0" encoding="utf-8"?>
<!-- Generator: Adobe Illustrator 19.2.1, SVG Export Plug-In . SVG Version: 6.00 Build 0)  -->
<svg version="1.1" id="Capa_1" xmlns="http://www.w3.org/2000/svg" xmlns:xlink="http://www.w3.org/1999/xlink" x="0px" y="0px"
	 viewBox="0 0 20 24" style="enable-background:new 0 0 20 24;" xml:space="preserve">
<style type="text/css">
	.st0{fill-rule:evenodd;clip-rule:evenodd;fill:#FFFFFF;}
</style>
<g>
	<g>
		<path class="st0" d="M19.3,8.1c-1.2-1.5-2.9-2.4-4.5-2.4c-2.1,0-3,1-4.4,1c-1.5,0-2.6-1-4.5-1c-1.8,0-3.7,1.1-4.9,3
			c-1.7,2.7-1.4,7.7,1.3,12.1c1,1.5,2.3,3.3,4,3.3c1.5,0,2-1,4-1c2.1,0,2.5,1,4,1c1.7,0,3.1-1.9,4.1-3.5c0.7-1.1,1-1.7,1.5-2.9
			C16,16.1,15.4,10.3,19.3,8.1z M13.3,3.9c0.8-1,1.3-2.4,1.1-3.9c-1.2,0.1-2.7,0.9-3.6,2c-0.8,1-1.4,2.4-1.2,3.8
			C11,5.8,12.4,5,13.3,3.9z"/>
	</g>
</g>
</svg>
