<?xml version="1.0" encoding="utf-8"?>
<!-- Generator: Adobe Illustrator 19.2.1, SVG Export Plug-In . SVG Version: 6.00 Build 0)  -->
<svg version="1.1" id="Capa_1" xmlns="http://www.w3.org/2000/svg" xmlns:xlink="http://www.w3.org/1999/xlink" x="0px" y="0px"
	 viewBox="0 0 72 72" style="enable-background:new 0 0 72 72;" xml:space="preserve">
<style type="text/css">
	.st0{fill-rule:evenodd;clip-rule:evenodd;fill:#FFFFFF;}
	.st1{fill-rule:evenodd;clip-rule:evenodd;fill:#004C96;}
</style>
<g>
	<path class="st0" d="M36,0.1c19.9,0,36,16.1,36,35.9C72,55.9,55.9,72,36,72c-19.9,0-36-16.1-36-35.9C0.1,16.2,16.2,0.1,36,0.1
		L36,0.1z"/>
	<path class="st1" d="M36,10.7c13.3,0,24.2,10.3,25.2,23.4h10.7C70.9,15.1,55.2,0,36,0S1.1,15.1,0.1,34.1h10.7
		C11.8,21,22.7,10.7,36,10.7L36,10.7z M61.2,37.9C60.2,51,49.3,61.3,36,61.3c-13.3,0-24.2-10.3-25.2-23.4H0.1
		C1.1,56.9,16.8,72,36,72c19.2,0,34.9-15.1,35.9-34.1H61.2L61.2,37.9z M8.6,20.1c-0.6-0.3-1.7-0.2-2.3,1c-0.5,1-0.3,2.2,1.1,2.9
		c1.4,0.7,2.5,0.3,3-0.7c0.5-1,0.2-1.9-0.5-2.5l-0.4,0.8c0.4,0.4,0.5,0.8,0.3,1.3c-0.4,0.7-1.1,0.6-1.9,0.3
		c-1.1-0.6-1.1-1.3-0.9-1.7c0.4-0.7,0.9-0.6,1.1-0.5L8.6,20.1L8.6,20.1z M13.3,11.8L11,14.2l3.2,3.1l2.3-2.4L16,14.3l-1.7,1.8
		l-0.8-0.8l1.5-1.6l-0.6-0.5l-1.5,1.6l-0.7-0.6l1.6-1.7L13.3,11.8L13.3,11.8z M20.7,11.7l0.8-0.4l-0.8-1.5l0.8-0.5
		c0.6-0.3,0.7-0.1,1,0.4c0.2,0.4,0.4,0.6,0.5,0.7l0.9-0.5l-0.1-0.1c-0.2,0-0.3-0.1-0.6-0.7c-0.4-0.7-0.6-0.7-1-0.7
		c0.3-0.3,0.3-0.8,0.1-1.3c-0.2-0.3-0.8-1-1.8-0.4l-2,1.1L20.7,11.7L20.7,11.7z M20.3,9.1l-0.6-1l1-0.6c0.5-0.3,0.7,0,0.8,0.2
		c0.2,0.4,0.1,0.6-0.3,0.9L20.3,9.1L20.3,9.1z M29.8,4.2l1.3-0.3l-0.2-0.8L27.4,4l0.2,0.8l1.3-0.3L29.7,8l0.9-0.2L29.8,4.2L29.8,4.2
		z M37.7,2.9h-0.9v4.4h0.9V2.9L37.7,2.9z M44.4,6.6l1.9,0.5l0.2-0.8l-1.9-0.5l0.3-1L47,5.5l0.2-0.8l-3-0.9L43,8.1l0.9,0.3L44.4,6.6
		L44.4,6.6z M53.7,8l-0.8-0.5l-2.4,3.8l0.8,0.5L53.7,8L53.7,8z M61,14.3l-2.2-2.4l-3.2,3l2.3,2.5l0.6-0.5l-1.7-1.8l0.8-0.8l1.5,1.6
		l0.6-0.5l-1.5-1.6l0.7-0.6l1.6,1.7L61,14.3L61,14.3z M60.9,21.7l0.9,1.7c0.7,1.3,2.1,1,2.9,0.5c0.7-0.4,1.7-1.3,1-2.6l-0.9-1.7
		L60.9,21.7L60.9,21.7z M64.5,20.8l0.4,0.8c0.2,0.3,0.4,0.9-0.8,1.6c-0.6,0.3-1.4,0.5-1.8-0.2L62,22.2L64.5,20.8L64.5,20.8z M9,45.2
		l-0.4-1.3L5,44.2l0,0l3.1-1.7l-0.4-1.3l-4.3,1.2l0.2,0.8l3.6-1l0,0L4,43.9l0.3,0.9l3.8-0.2l0,0l-3.6,1l0.2,0.8L9,45.2L9,45.2z
		 M6.7,49l0.7,1.5l-0.7,0.6l0.4,0.9l3.4-3.2l-0.4-1l-4.7,0.4l0.4,0.9L6.7,49L6.7,49z M9.4,48.7L9.4,48.7L8,50l-0.5-1L9.4,48.7
		L9.4,48.7z M10.8,55.1L10.8,55.1l1.5-3.2l-0.6-0.8l-3.6,2.5l0.5,0.7l2.6-1.8l0,0l-1.6,3.3l0.5,0.8l3.6-2.5l-0.5-0.7L10.8,55.1
		L10.8,55.1z M12.9,58.2l1.2,1.1l-0.4,0.9l0.7,0.7l2-4.3l-0.8-0.7L11.3,58l0.7,0.7L12.9,58.2L12.9,58.2z M15.2,57L15.2,57l-0.8,1.7
		l-0.8-0.8L15.2,57L15.2,57z M18.2,61.9l0.8,0.6c-0.7,0.6-1.3,0.3-1.4,0.2c-0.5-0.4-0.9-1-0.1-2c0.7-0.9,1.4-0.9,2-0.5
		c0.5,0.4,0.5,1,0.4,1.2l0.7,0.5c0.3-0.5,0.4-1.6-0.7-2.4c-1.2-0.9-2.4-0.4-3.1,0.6c-0.9,1.3-0.6,2.5,0.3,3.1
		c0.7,0.5,1.2,0.3,1.5,0.3l-0.3,0.5l0.5,0.4l1.4-1.9l-1.5-1.1L18.2,61.9L18.2,61.9z M25.5,62.6l-3-1.4l-1.9,4l3.1,1.4l0.3-0.7
		l-2.2-1l0.5-1l2,0.9l0.3-0.7l-2-0.9l0.4-0.8l2.1,1L25.5,62.6L25.5,62.6z M31.1,64.4L29.8,64L28,67.1l0,0l0.3-3.6L27,63.1l-1.3,4.2
		l0.8,0.3l1.1-3.5l0,0l-0.3,3.8l0.9,0.3l1.9-3.3l0,0l-1.1,3.5l0.8,0.3L31.1,64.4L31.1,64.4z M35.6,64.7l-3.2-0.3L32,68.8l3.4,0.3
		l0.1-0.8L33,68.1l0.1-1.1l2.2,0.2l0.1-0.8l-2.2-0.2l0.1-0.9l2.3,0.2L35.6,64.7L35.6,64.7z M40,67.5L40,67.5l-2-2.9l-1,0.1l0.4,4.4
		l0.9-0.1L38,65.8l0,0l2.1,3l0.9-0.1l-0.4-4.4l-0.9,0.1L40,67.5L40,67.5z M43.9,64.3l1.3-0.4l-0.2-0.8l-3.5,1.1l0.2,0.8l1.3-0.4
		l1.1,3.5l0.9-0.3L43.9,64.3L43.9,64.3z M48.8,65.1c0.3,0.5,0.9,1.2,2.4,0.4c0.3-0.2,1.5-0.9,0.9-2.1c-0.4-0.7-1-0.7-1.6-0.5
		l-1.1,0.3c-0.2,0-0.5,0.1-0.6-0.2c-0.2-0.4,0.1-0.7,0.4-0.8c0.7-0.4,1,0,1.1,0.2l0.8-0.4c-0.3-0.5-1-1.1-2.2-0.5
		c-1.3,0.7-1.1,1.6-0.9,2c0.5,0.9,1.1,0.7,1.9,0.5l0.5-0.1c0.5-0.1,0.8-0.2,1,0.1c0.2,0.4-0.2,0.7-0.5,0.9c-0.7,0.4-1,0-1.2-0.2
		L48.8,65.1L48.8,65.1z M55,61l-0.4-3.1l-0.8,0.6l0.4,2.1l-1.9-1l-0.9,0.6l2.9,1.3l1,1.4l0.7-0.5L55,61L55,61z M57.5,59.5
		c0.4,0.4,1.3,0.8,2.4-0.4c0.3-0.3,1.1-1.4,0.1-2.3c-0.6-0.5-1.1-0.3-1.7,0l-0.9,0.6c-0.2,0.1-0.4,0.3-0.7,0
		c-0.3-0.3-0.1-0.7,0.1-0.9c0.6-0.6,0.9-0.3,1.1-0.2l0.6-0.7c-0.4-0.4-1.3-0.7-2.2,0.3c-1,1.1-0.5,1.8-0.2,2.2
		c0.7,0.7,1.3,0.3,1.9-0.1l0.4-0.3c0.4-0.3,0.7-0.4,0.9-0.2c0.3,0.3,0.1,0.7-0.2,1.1c-0.6,0.6-1,0.4-1.2,0.2L57.5,59.5L57.5,59.5z
		 M60.3,52.5l0.8-1.1L60.4,51l-2.1,3l0.6,0.4l0.8-1.1l3,2.1l0.5-0.8L60.3,52.5L60.3,52.5z M62.6,47l-1.5,2.9l4,2l1.5-3l-0.7-0.4
		l-1.1,2.2l-1-0.5l1-1.9L64,48l-1,1.9l-0.8-0.4l1.1-2.1L62.6,47L62.6,47z M64.2,41.7L63.8,43l3.1,1.7l0,0l-3.6-0.2L63,45.8l4.3,1.2
		l0.2-0.8l-3.6-1l0,0l3.8,0.2l0.3-0.9l-3.3-1.8l0,0l3.6,1l0.2-0.8L64.2,41.7L64.2,41.7z M0,36.5h10.7c0-0.2,0-0.3,0-0.5
		c0-0.2,0-0.3,0-0.5H0c0,0.2,0,0.3,0,0.5C0,36.2,0,36.3,0,36.5L0,36.5z M61.3,36.5H72c0-0.2,0-0.3,0-0.5c0-0.2,0-0.3,0-0.5H61.3
		c0,0.2,0,0.3,0,0.5C61.3,36.2,61.3,36.3,61.3,36.5L61.3,36.5z"/>
	<path class="st1" d="M13.1,28.8h45.7v-1.9H13.1V28.8L13.1,28.8z M13.1,45.1h45.7v-1.4H13.1V45.1L13.1,45.1z M51.2,35.2h-1v-0.5
		l3.1-3.2h0.3v2.1h2.6v1.6h-2.6V38v0.2v0.2l0.1,0.1v0.2v0.1l0.1,0.1v0.1l0.1,0.1l0.1,0.1l0.1,0.1h0.1l0.2,0.1h0.1h0.2h0.1h0.1h0.1
		h0.1H55l0.1-0.1h0.1h0.1h0.1h0.1l0.1-0.1h0.1h0.1l0.1-0.1H56l0.1-0.1v1.8H56l-0.2,0.1h-0.1l-0.2,0.1h-0.1h-0.2L55.1,41h-0.2h-0.1
		h-0.2l-0.1,0.1h-0.2h-0.1h-0.2H54h-0.1h-0.4L53.2,41h-0.3l-0.3-0.1l-0.3-0.1l-0.2-0.1L52,40.5l-0.2-0.1l-0.1-0.2l-0.2-0.3l-0.1-0.2
		v-0.3L51.3,39l-0.1-0.3v-0.4V38V35.2L51.2,35.2z M44.3,36.6h2.9v-0.2v-0.2l-0.1-0.1v-0.2L47,35.8l-0.1-0.1l-0.1-0.2l-0.1-0.1
		l-0.1-0.1h-0.1l-0.1-0.1l-0.1-0.1h-0.1H46L45.9,35h-0.1h-0.2l-0.2,0.1h-0.1h-0.1l-0.2,0.1L45,35.3h-0.1l-0.1,0.1l-0.1,0.1l-0.1,0.2
		l-0.1,0.1l-0.1,0.1v0.2l-0.1,0.1v0.2V36.6L44.3,36.6z M49.4,40.1l-0.2,0.2L49,40.4l-0.2,0.1l-0.2,0.1l-0.2,0.1h-0.2L48,40.8
		l-0.2,0.1h-0.2L47.4,41h-0.3h-0.2l-0.2,0.1h-0.3h-0.2h-0.3h-0.5L45.1,41l-0.5-0.1l-0.4-0.1l-0.4-0.1l-0.3-0.2l-0.3-0.2L42.9,40
		l-0.2-0.2l-0.3-0.3l-0.2-0.4l-0.1-0.3L42,38.4l-0.1-0.4l-0.1-0.4v-0.5v-0.4l0.1-0.4L42,36l0.1-0.3l0.1-0.4l0.2-0.3l0.3-0.3l0.2-0.2
		l0.3-0.3l0.3-0.2l0.4-0.2l0.3-0.1l0.4-0.1l0.4-0.1l0.5-0.1h0.4h0.5l0.4,0.1l0.4,0.1l0.4,0.1l0.3,0.2l0.3,0.2l0.4,0.2l0.2,0.3
		l0.3,0.3l0.2,0.3l0.2,0.3l0.1,0.4l0.2,0.4v0.4l0.1,0.5v0.5h-5.3v0.1V38v0.2v0.2l0.1,0.2l0.1,0.1l0.1,0.2l0.1,0.1l0.2,0.2l0.2,0.1
		l0.1,0.1l0.2,0.1l0.2,0.1h0.3l0.2,0.1h0.3h0.2h0.2h0.2h0.2l0.2-0.1h0.2l0.2-0.1h0.1l0.2-0.1h0.2l0.2-0.1l0.2-0.1l0.2-0.1l0.2-0.1
		l0.1-0.1l0.2-0.1l0.2-0.1V40.1L49.4,40.1z M33.4,34.1v6.7h-2.3V30.1h2l4.9,6.4v-6.4h2.3v10.7h-1.8L33.4,34.1L33.4,34.1z M15.3,40.9
		V30.1h2.9v10.7H15.3L15.3,40.9z M20.1,34.4l0.3-0.8l-0.7-0.5h0.8l0.2-0.6l0.3,0.6h0.7l-0.6,0.5l0.2,0.8L20.7,34L20.1,34.4
		L20.1,34.4z M19.5,37l0.3-0.7l-0.7-0.5h0.8l0.2-0.7l0.3,0.7H21l-0.6,0.5l0.3,0.7L20,36.6L19.5,37L19.5,37z M20,39.3l0.2-0.7
		l-0.6-0.5h0.8l0.2-0.7l0.2,0.7h0.8L21,38.6l0.2,0.7l-0.6-0.5L20,39.3L20,39.3z M21.8,41.2l0.2-0.8l-0.6-0.5h0.7l0.3-0.7l0.2,0.7
		h0.8l-0.6,0.5l0.2,0.7l-0.6-0.4L21.8,41.2L21.8,41.2z M24.1,42l0.3-0.8l-0.6-0.5h0.7l0.2-0.7l0.3,0.7h0.7l-0.6,0.5l0.2,0.8
		l-0.6-0.5L24.1,42L24.1,42z M26.7,41.1l0.2-0.7l-0.6-0.5H27l0.3-0.7l0.2,0.7h0.8l-0.6,0.5l0.2,0.7l-0.6-0.5L26.7,41.1L26.7,41.1z
		 M28.4,39.3l0.2-0.8L28,38.1h0.8l0.2-0.7l0.2,0.7h0.8l-0.6,0.5l0.2,0.8l-0.6-0.5L28.4,39.3L28.4,39.3z M28.9,37l0.2-0.7l-0.6-0.5
		h0.8l0.2-0.7l0.2,0.7h0.8l-0.6,0.5l0.2,0.7l-0.6-0.4L28.9,37L28.9,37z M28.2,34.3l0.2-0.7l-0.6-0.5h0.7l0.3-0.7l0.2,0.7h0.8
		L29,33.7l0.3,0.7L28.7,34L28.2,34.3L28.2,34.3z M26.4,32.6l0.2-0.7l-0.6-0.5h0.8l0.2-0.7l0.3,0.7H28l-0.6,0.5l0.2,0.7L27,32.2
		L26.4,32.6L26.4,32.6z M24.1,32.1l0.2-0.8l-0.6-0.5h0.7l0.3-0.6l0.2,0.6h0.8l-0.6,0.5l0.2,0.7l-0.6-0.4L24.1,32.1L24.1,32.1z
		 M21.8,32.6l0.2-0.7l-0.6-0.5h0.8l0.2-0.7l0.2,0.7h0.8l-0.6,0.5l0.2,0.7l-0.6-0.4L21.8,32.6L21.8,32.6z M25,38.8l0.3-0.8l-0.6-0.5
		h0.7l0.3-0.7l0.2,0.7h0.8l-0.6,0.5l0.2,0.8l-0.6-0.5L25,38.8L25,38.8z M28.1,43.2l0.3-0.8L27.7,42h0.8l0.2-0.7l0.3,0.7h0.7L29,42.4
		l0.3,0.7l-0.7-0.4L28.1,43.2L28.1,43.2z"/>
</g>
</svg>
