<?xml version="1.0" encoding="utf-8"?>
<!-- Generator: Adobe Illustrator 19.2.1, SVG Export Plug-In . SVG Version: 6.00 Build 0)  -->
<svg version="1.0" id="Capa_1" xmlns="http://www.w3.org/2000/svg" xmlns:xlink="http://www.w3.org/1999/xlink" x="0px" y="0px"
	 viewBox="0 0 88 72" style="enable-background:new 0 0 88 72;" xml:space="preserve">
<style type="text/css">
	.st0{fill:#1A63D0;}
	.st1{fill:#FFFFFF;}
</style>
<g>
	<path class="st0" d="M160.2-146.2C160.2-146.2,156.2-149.9,160.2-146.2c0.4,0.3,0.6,0.4,1,0l8-7.5c0.6-0.5,0.6-1.5,0-2l0,0
		c-0.5-0.5-1.4-0.5-1.9,0l-5,4.8v-9.9c0-0.8-0.7-1.5-1.5-1.5h0c-0.8,0-1.5,0.7-1.5,1.5v9.9l-5-4.8c-0.5-0.5-1.4-0.5-1.9,0h0
		c-0.6,0.5-0.6,1.5,0,2L160.2-146.2z"/>
	<path class="st0" d="M169.8-144.3h-18v1.9h18V-144.3z"/>
</g>
<path class="st1" d="M82.2,72H5.8C2.6,72,0,69.5,0,66.3v-46c0-3.1,2.6-5.7,5.8-5.7h76.4c3.2,0,5.8,2.6,5.8,5.7v46
	C88,69.5,85.4,72,82.2,72z M5.8,17.4c-1.6,0-3,1.3-3,3v46c0,1.6,1.3,3,3,3h76.4c1.6,0,3-1.3,3-3v-46c0-1.6-1.3-3-3-3H5.8z
	 M59.8,10.7c-0.8,0-1.4-0.6-1.4-1.4V4.6c0-1-0.9-1.9-1.9-1.9h-25c-1,0-1.9,0.8-1.9,1.9v4.7c0,0.8-0.6,1.4-1.4,1.4
	c-0.8,0-1.4-0.6-1.4-1.4V4.6c0-2.6,2.1-4.6,4.7-4.6h25c2.6,0,4.7,2.1,4.7,4.6v4.7C61.2,10,60.6,10.7,59.8,10.7z M24.8,40.5H7.7
	c-0.8,0-1.4-0.6-1.4-1.4c0-0.8,0.6-1.4,1.4-1.4h17.1c0.8,0,1.4,0.6,1.4,1.4C26.2,39.9,25.5,40.5,24.8,40.5z M79.5,40.5H62.4
	c-0.8,0-1.4-0.6-1.4-1.4c0-0.8,0.6-1.4,1.4-1.4h17.1c0.8,0,1.4,0.6,1.4,1.4C80.9,39.9,80.3,40.5,79.5,40.5z M56,40.5H31.2
	c-0.8,0-1.4-0.6-1.4-1.4c0-0.8,0.6-1.4,1.4-1.4H56c0.8,0,1.4,0.6,1.4,1.4C57.4,39.9,56.8,40.5,56,40.5z M28,46.2
	c-2.5,0-4.6-2-4.6-4.5v-5c0-2.5,2.1-4.5,4.6-4.5c2.5,0,4.6,2,4.6,4.5v5C32.6,44.2,30.5,46.2,28,46.2z M28,34.9c-1,0-1.8,0.8-1.8,1.8
	v5c0,1,0.8,1.8,1.8,1.8c1,0,1.8-0.8,1.8-1.8v-5C29.8,35.7,29,34.9,28,34.9z M59.2,46.2c-2.5,0-4.6-2-4.6-4.5v-5
	c0-2.5,2.1-4.5,4.6-4.5c2.5,0,4.6,2,4.6,4.5v5C63.8,44.2,61.8,46.2,59.2,46.2z M59.2,34.9c-1,0-1.8,0.8-1.8,1.8v5
	c0,1,0.8,1.8,1.8,1.8c1,0,1.8-0.8,1.8-1.8v-5C61,35.7,60.2,34.9,59.2,34.9z"/>
</svg>
