<?xml version="1.0" encoding="utf-8"?>
<!-- Generator: Adobe Illustrator 19.2.1, SVG Export Plug-In . SVG Version: 6.00 Build 0)  -->
<svg version="1.1" id="Capa_1" xmlns="http://www.w3.org/2000/svg" xmlns:xlink="http://www.w3.org/1999/xlink" x="0px" y="0px"
	 viewBox="0 0 15 15" style="enable-background:new 0 0 15 15;" xml:space="preserve">
<style type="text/css">
	.st0{fill:#FFFFFF;}
</style>
<path class="st0" d="M11.8,5.1h-0.2v-1C11.6,1.8,9.7,0,7.5,0C5.3,0,3.4,1.8,3.4,4.1v1H3.2c-0.7,0-1.3,0.6-1.3,1.3v7.3
	c0,0.7,0.6,1.3,1.3,1.3h8.6c0.7,0,1.3-0.6,1.3-1.3V6.4C13.1,5.7,12.5,5.1,11.8,5.1z M4.3,4.1c0-1.8,1.4-3.2,3.2-3.2
	c1.8,0,3.2,1.4,3.2,3.2v1H4.3V4.1z M12.2,13.7c0,0.2-0.2,0.4-0.4,0.4H3.2c-0.2,0-0.4-0.2-0.4-0.4V6.4c0-0.2,0.2-0.4,0.4-0.4h8.6
	c0.2,0,0.4,0.2,0.4,0.4V13.7z M8.6,9L8.6,9C8.6,9.4,8.3,9.8,8,10v1.6c0,0.3-0.2,0.5-0.5,0.5S7,11.9,7,11.6V10C6.7,9.8,6.4,9.4,6.4,9
	v0c0-0.6,0.5-1,1-1h0C8.1,8,8.6,8.4,8.6,9z"/>
</svg>
