<?xml version="1.0" encoding="utf-8"?>
<!-- Generator: Adobe Illustrator 19.2.1, SVG Export Plug-In . SVG Version: 6.00 Build 0)  -->
<svg version="1.0" id="Capa_1" xmlns="http://www.w3.org/2000/svg" xmlns:xlink="http://www.w3.org/1999/xlink" x="0px" y="0px"
	 viewBox="0 0 60 67" style="enable-background:new 0 0 60 67;" xml:space="preserve">
<style type="text/css">
	.st0{fill:#1A63D0;}
</style>
<g>
	<path class="st0" d="M56.5,67h-45C9.6,67,8,65.5,8,63.6v-0.8c0-0.6,0.5-1,1.1-1c0.6,0,1.1,0.5,1.1,1v0.8c0,0.7,0.6,1.3,1.4,1.3h45
		c0.8,0,1.4-0.6,1.4-1.3V11c0-0.7-0.6-1.3-1.4-1.3h-1.1c-0.6,0-1.1-0.5-1.1-1c0-0.6,0.5-1,1.1-1h1.1c1.9,0,3.5,1.5,3.5,3.4v52.6
		C60,65.5,58.4,67,56.5,67z"/>
	<path class="st0" d="M48.5,59.4h-45C1.6,59.4,0,57.9,0,56V8.6L8.5,0h40C50.4,0,52,1.5,52,3.4V56C52,57.9,50.4,59.4,48.5,59.4z
		 M2.1,9.5V56c0,0.7,0.6,1.3,1.4,1.3h45c0.8,0,1.4-0.6,1.4-1.3V3.4c0-0.7-0.6-1.3-1.4-1.3H9.4L2.1,9.5z"/>
	<path class="st0" d="M7.2,10.7H1.9c-0.6,0-1.1-0.5-1.1-1c0-0.6,0.5-1,1.1-1h5.3c0.7,0,1.3-0.6,1.3-1.3V1.9c0-0.6,0.5-1,1.1-1
		c0.6,0,1.1,0.5,1.1,1v5.5C10.7,9.2,9.1,10.7,7.2,10.7z"/>
	<path class="st0" d="M42.4,43.1H9.6c-0.6,0-1.1-0.5-1.1-1c0-0.6,0.5-1,1.1-1h32.8c0.6,0,1.1,0.5,1.1,1C43.5,42.6,43,43.1,42.4,43.1
		z"/>
	<path class="st0" d="M42.4,34.7H9.6c-0.6,0-1.1-0.5-1.1-1c0-0.6,0.5-1,1.1-1h32.8c0.6,0,1.1,0.5,1.1,1C43.5,34.3,43,34.7,42.4,34.7
		z"/>
	<path class="st0" d="M42.4,26.4H9.6c-0.6,0-1.1-0.5-1.1-1c0-0.6,0.5-1,1.1-1h32.8c0.6,0,1.1,0.5,1.1,1C43.5,25.9,43,26.4,42.4,26.4
		z"/>
	<path class="st0" d="M42.4,18H9.6c-0.6,0-1.1-0.5-1.1-1c0-0.6,0.5-1,1.1-1h32.8c0.6,0,1.1,0.5,1.1,1C43.5,17.5,43,18,42.4,18z"/>
	<path class="st0" d="M42.4,9.6H18.5c-0.6,0-1.1-0.5-1.1-1c0-0.6,0.5-1,1.1-1h23.9c0.6,0,1.1,0.5,1.1,1C43.5,9.2,43,9.6,42.4,9.6z"
		/>
	<path class="st0" d="M42.4,51.4H9.6c-0.6,0-1.1-0.5-1.1-1s0.5-1,1.1-1h32.8c0.6,0,1.1,0.5,1.1,1S43,51.4,42.4,51.4z"/>
</g>
</svg>
