<?xml version="1.0" encoding="utf-8"?>
<!-- Generator: Adobe Illustrator 19.2.1, SVG Export Plug-In . SVG Version: 6.00 Build 0)  -->
<svg version="1.0" id="Capa_1" xmlns="http://www.w3.org/2000/svg" xmlns:xlink="http://www.w3.org/1999/xlink" x="0px" y="0px"
	 viewBox="0 0 72 72" style="enable-background:new 0 0 72 72;" xml:space="preserve">
<style type="text/css">
	.st0{fill:#FFFFFF;}
	.st1{fill:#0064A7;}
	.st2{fill:#E63339;}
	.st3{fill:#3B489F;}
	.st4{fill:#F1EE44;}
</style>
<g>
	<ellipse class="st0" cx="36.1" cy="36.4" rx="35.7" ry="35.9"/>
	<path class="st1" d="M0.1,36.2c0-19.9,16.1-36,36-36v0.3v0.3c-9.8,0-18.6,4-25,10.4c-6.4,6.4-10.4,15.2-10.4,25
		c0,9.8,4,18.6,10.4,25c6.4,6.4,15.2,10.4,25,10.4c9.8,0,18.6-4,25-10.4c6.4-6.4,10.4-15.2,10.4-25c0-9.8-4-18.6-10.4-25
		c-6.4-6.4-15.2-10.4-25-10.4V0.5V0.2c19.9,0,36,16.1,36,36c0,19.9-16.1,36-36,36C16.2,72.2,0.1,56.1,0.1,36.2"/>
	<path class="st1" d="M24.3,66.6l0.3,0.3c-0.2,0.3-0.5,0.5-0.8,0.5c-0.3,0.1-0.6,0-0.9-0.1c-0.3-0.1-0.5-0.3-0.7-0.6
		c-0.1-0.2-0.2-0.5-0.2-0.8c0-0.3,0.1-0.6,0.2-0.9c0.1-0.3,0.3-0.5,0.5-0.7c0.2-0.2,0.5-0.3,0.7-0.3c0.3,0,0.5,0,0.8,0.2
		c0.3,0.1,0.5,0.3,0.6,0.6c0.1,0.2,0.2,0.5,0.1,0.8l-0.4-0.1c0-0.2,0-0.4-0.1-0.6c-0.1-0.2-0.2-0.3-0.4-0.4
		c-0.2-0.1-0.4-0.1-0.6-0.1c-0.2,0-0.4,0.1-0.5,0.3c-0.1,0.2-0.3,0.3-0.4,0.5c-0.1,0.2-0.2,0.5-0.2,0.7c0,0.2,0,0.4,0.1,0.6
		c0.1,0.2,0.3,0.3,0.4,0.4c0.2,0.1,0.4,0.1,0.6,0.1C23.9,67,24.1,66.8,24.3,66.6 M24.7,67.9l1.1-3.1l2.2,0.8L27.9,66l-1.8-0.6
		l-0.3,0.9l1.7,0.6l-0.1,0.4l-1.7-0.6l-0.4,1l1.9,0.6L27,68.7L24.7,67.9z M27.6,68.8l0.8-3.1l1.4,0.3c0.3,0.1,0.5,0.2,0.6,0.2
		c0.1,0.1,0.2,0.2,0.3,0.4c0.1,0.2,0.1,0.3,0,0.5c-0.1,0.2-0.2,0.4-0.4,0.5c-0.2,0.1-0.4,0.2-0.7,0.1c0.1,0.1,0.2,0.2,0.2,0.2
		c0.1,0.1,0.2,0.3,0.2,0.5l0.3,1l-0.5-0.1l-0.3-0.8c-0.1-0.2-0.1-0.4-0.2-0.5c-0.1-0.1-0.1-0.2-0.2-0.3c-0.1-0.1-0.1-0.1-0.2-0.1
		c0,0-0.1,0-0.2-0.1l-0.5-0.1L28,68.9L27.6,68.8z M28.5,67.2l0.9,0.2c0.2,0,0.3,0.1,0.5,0.1c0.1,0,0.2-0.1,0.3-0.1
		c0.1-0.1,0.1-0.2,0.2-0.3c0-0.1,0-0.3-0.1-0.4c-0.1-0.1-0.2-0.2-0.5-0.3l-1-0.2L28.5,67.2z M31.5,69.6l0.3-2.8l-1.1-0.1l0-0.4
		l2.6,0.3l0,0.4l-1.1-0.1L32,69.7L31.5,69.6z M33.5,69.8l0.3-3.2l0.4,0l-0.3,3.2L33.5,69.8z M34.7,69.9l0.1-3.2l2.2,0.1l0,0.4
		L35.2,67l0,1l1.5,0.1l0,0.4l-1.5-0.1l-0.1,1.5L34.7,69.9z M37.5,69.9l-0.1-3.2l0.4,0l0.1,3.2L37.5,69.9z M40.9,68.4l0.4,0.1
		c0,0.4-0.2,0.6-0.4,0.9c-0.2,0.2-0.5,0.3-0.8,0.4c-0.3,0-0.6,0-0.9-0.1c-0.2-0.1-0.4-0.3-0.6-0.6c-0.1-0.3-0.2-0.5-0.3-0.8
		c0-0.3,0-0.6,0.1-0.9c0.1-0.3,0.3-0.5,0.5-0.6c0.2-0.2,0.5-0.3,0.8-0.3c0.3,0,0.6,0,0.8,0.1c0.2,0.1,0.4,0.3,0.5,0.6l-0.4,0.2
		c-0.1-0.2-0.2-0.4-0.4-0.5c-0.2-0.1-0.3-0.1-0.6-0.1c-0.2,0-0.4,0.1-0.6,0.3c-0.2,0.1-0.2,0.3-0.3,0.5c0,0.2-0.1,0.4,0,0.6
		c0,0.3,0.1,0.5,0.2,0.7c0.1,0.2,0.2,0.3,0.4,0.4c0.2,0.1,0.4,0.1,0.6,0.1c0.2,0,0.4-0.1,0.6-0.3C40.8,68.9,40.8,68.7,40.9,68.4
		 M41.6,69.5l0.5-3.4l0.4-0.1l2,2.9l-0.5,0.1l-0.6-0.9l-1.3,0.3l-0.1,1L41.6,69.5z M42.2,68l1.1-0.2L42.8,67
		c-0.2-0.2-0.3-0.4-0.4-0.6c0,0.2,0,0.4,0,0.6L42.2,68z M44.9,68.8l-1.1-3l1-0.4c0.2-0.1,0.4-0.1,0.6-0.2c0.2,0,0.4,0,0.5,0.1
		c0.2,0.1,0.4,0.2,0.5,0.4c0.2,0.2,0.3,0.4,0.4,0.7C47,66.6,47,66.8,47,67c0,0.2,0,0.4,0,0.5c0,0.1-0.1,0.3-0.2,0.4
		c-0.1,0.1-0.2,0.2-0.3,0.3c-0.1,0.1-0.3,0.2-0.5,0.2L44.9,68.8z M45.2,68.3l0.6-0.2c0.2-0.1,0.4-0.1,0.5-0.2
		c0.1-0.1,0.2-0.2,0.2-0.3c0.1-0.1,0.1-0.3,0.1-0.5c0-0.2,0-0.4-0.1-0.6c-0.1-0.3-0.3-0.5-0.4-0.7c-0.2-0.1-0.3-0.2-0.5-0.2
		c-0.1,0-0.3,0-0.5,0.1L44.4,66L45.2,68.3z M47.3,66.4c-0.2-0.5-0.3-0.9-0.1-1.3c0.1-0.4,0.4-0.7,0.8-0.9c0.3-0.1,0.5-0.2,0.8-0.1
		c0.3,0,0.5,0.1,0.8,0.3c0.2,0.2,0.4,0.4,0.5,0.7c0.1,0.3,0.2,0.6,0.2,0.9c0,0.3-0.1,0.5-0.3,0.8c-0.2,0.2-0.4,0.4-0.6,0.5
		c-0.3,0.1-0.6,0.2-0.8,0.1c-0.3,0-0.5-0.1-0.8-0.3C47.6,66.9,47.4,66.7,47.3,66.4 M47.7,66.2c0.2,0.4,0.4,0.6,0.7,0.7
		c0.3,0.1,0.6,0.1,0.9,0c0.3-0.1,0.5-0.4,0.6-0.6c0.1-0.3,0.1-0.6-0.1-1c-0.1-0.2-0.2-0.4-0.4-0.6c-0.2-0.1-0.3-0.2-0.5-0.2
		c-0.2,0-0.4,0-0.6,0.1c-0.3,0.1-0.5,0.3-0.6,0.6C47.4,65.4,47.5,65.8,47.7,66.2"/>
	<path class="st1" d="M7.3,40.4l-0.1-0.7c0-0.2,0-0.3,0-0.4c0-0.1,0.1-0.2,0.1-0.3c0.1-0.1,0.2-0.2,0.3-0.2c0.1-0.1,0.3-0.1,0.5-0.1
		c0.2,0,0.3,0,0.4,0c0.2,0,0.3,0.1,0.4,0.2C9,38.9,9,39,9.1,39.1c0,0.1,0.1,0.2,0.1,0.4l0.1,0.8L7.3,40.4z M7.6,40l1.3-0.2l0-0.3
		c0-0.1,0-0.2,0-0.2c0-0.1-0.1-0.1-0.1-0.2c0,0-0.1-0.1-0.2-0.1c-0.1,0-0.2,0-0.4,0c-0.2,0-0.3,0-0.3,0.1c-0.1,0-0.1,0.1-0.2,0.1
		c0,0.1-0.1,0.1-0.1,0.2c0,0.1,0,0.2,0,0.3L7.6,40z M9,38.2l-2,0l0-1.5l0.3,0l0,1.1l0.4,0l0-1l0.3,0l0,1l0.5,0l0-1.1l0.3,0L9,38.2z
		 M9,36.3l-2-0.1l0-0.6c0-0.2,0-0.4,0-0.5c0-0.1,0.1-0.2,0.2-0.3c0.1-0.1,0.2-0.1,0.4-0.1c0.1,0,0.2,0,0.3,0.1
		c0.1,0,0.1,0.1,0.2,0.2c0,0.1,0.1,0.1,0.1,0.2c0,0.1,0,0.2,0,0.4l0,0.3l0.8,0L9,36.3z M7.3,35.9l0.6,0l0-0.2c0-0.2,0-0.3,0-0.3
		c0-0.1-0.1-0.1-0.1-0.1c0,0-0.1,0-0.2-0.1c-0.1,0-0.1,0-0.2,0.1c0,0-0.1,0.1-0.1,0.2c0,0,0,0.1,0,0.3L7.3,35.9z M9.2,32.9l0,0.4
		l-0.5,0.1l-0.1,0.8L9,34.4l0,0.4l-1.9-1l0-0.4L9.2,32.9z M8.3,33.5l-0.8,0.2l0.7,0.3L8.3,33.5z M9.2,32.6l-2-0.4l0.2-0.8
		c0-0.2,0.1-0.4,0.1-0.4c0.1-0.1,0.1-0.2,0.2-0.2c0.1,0,0.2,0,0.3,0c0.1,0,0.3,0.1,0.3,0.2c0.1,0.1,0.1,0.2,0.1,0.4
		c0.1-0.1,0.1-0.1,0.2-0.2c0.1,0,0.2-0.1,0.4-0.2l0.4-0.2l-0.1,0.5l-0.5,0.2c-0.2,0.1-0.3,0.1-0.3,0.2c0,0-0.1,0.1-0.1,0.1
		c0,0,0,0.1-0.1,0.2l0,0.1l0.8,0.2L9.2,32.6z M8.1,32l0.1-0.3c0-0.2,0.1-0.3,0-0.4c0-0.1,0-0.1-0.1-0.1c0,0-0.1-0.1-0.1-0.1
		c-0.1,0-0.1,0-0.2,0c0,0-0.1,0.1-0.1,0.1c0,0,0,0.1-0.1,0.3l-0.1,0.3L8.1,32z M9.6,30.2L8,29.8l-0.1,0.6l-0.3-0.1l0.4-1.5l0.3,0.1
		l-0.1,0.6l1.6,0.4L9.6,30.2z M10.4,27.5l-0.1,0.4l-0.5,0l-0.2,0.8L10,29l-0.1,0.4l-1.7-1.3l0.1-0.4L10.4,27.5z M9.4,28L8.6,28
		l0.6,0.5L9.4,28z M10.5,27.3l-1.9-0.8L8.8,26l1.4,0.2l-1.1-0.8l0.2-0.6l1.9,0.8l-0.1,0.3l-1.5-0.6l1.3,1l-0.1,0.4l-1.6-0.2l1.5,0.6
		L10.5,27.3z M11.3,25.1l-1.8-0.9l0.7-1.3l0.3,0.2l-0.5,1l0.4,0.2l0.5-0.9l0.3,0.2l-0.5,0.9l0.5,0.3l0.5-1l0.3,0.2L11.3,25.1z
		 M12.2,23.4l-1.7-1l0.2-0.3l1.6,0l-1.2-0.7l0.2-0.3l1.7,1l-0.2,0.4l-1.5,0l1.1,0.7L12.2,23.4z M13.4,21.3l-1.4-0.9l-0.3,0.5
		l-0.3-0.2l0.9-1.3l0.3,0.2l-0.3,0.5l1.4,0.9L13.4,21.3z M13.3,19.7c-0.2-0.1-0.3-0.3-0.3-0.4c-0.1-0.1-0.1-0.2-0.1-0.3
		c0-0.1,0-0.2,0-0.3c0-0.1,0.1-0.3,0.2-0.4c0.2-0.2,0.4-0.4,0.7-0.4c0.3,0,0.5,0.1,0.8,0.3c0.3,0.2,0.4,0.4,0.4,0.7
		c0,0.3,0,0.5-0.2,0.7C14.5,19.9,14.3,20,14,20C13.8,20,13.5,19.9,13.3,19.7 M13.5,19.4c0.2,0.1,0.3,0.2,0.5,0.2
		c0.2,0,0.3-0.1,0.4-0.2c0.1-0.1,0.1-0.3,0.1-0.4c0-0.2-0.1-0.3-0.3-0.5c-0.2-0.1-0.3-0.2-0.5-0.2c-0.2,0-0.3,0.1-0.4,0.2
		c-0.1,0.1-0.1,0.3-0.1,0.4C13.2,19.1,13.3,19.3,13.5,19.4 M17.2,16.8l-0.3,0.3l-0.4-0.2l-0.6,0.6l0.2,0.4l-0.3,0.3l-0.9-2l0.3-0.3
		L17.2,16.8z M16.1,16.8l-0.7-0.3l0.3,0.7L16.1,16.8z M16,15.1l0.6-0.5c0.1-0.1,0.2-0.2,0.3-0.2c0.1,0,0.2-0.1,0.3-0.1
		c0.1,0,0.2,0.1,0.4,0.1c0.1,0.1,0.2,0.2,0.4,0.3c0.1,0.1,0.2,0.2,0.2,0.4c0.1,0.1,0.1,0.3,0.1,0.4c0,0.1,0,0.2-0.1,0.3
		C18.1,16,18,16,17.9,16.1l-0.6,0.5L16,15.1z M16.5,15.1l0.9,1l0.2-0.2c0.1-0.1,0.1-0.1,0.2-0.2c0-0.1,0.1-0.1,0.1-0.2
		c0-0.1,0-0.1,0-0.2c0-0.1-0.1-0.2-0.2-0.3c-0.1-0.1-0.2-0.2-0.3-0.2c-0.1,0-0.1-0.1-0.2-0.1c-0.1,0-0.1,0-0.2,0
		c-0.1,0-0.1,0.1-0.3,0.2L16.5,15.1z M18.8,15.3l-1.2-1.6l0.5-0.4l1.1,0.9l-0.6-1.3l0.5-0.4l1.2,1.6l-0.3,0.2l-1-1.2l0.7,1.5
		l-0.3,0.2l-1.3-1l1,1.2L18.8,15.3z M20.7,13.9l-1.1-1.6l0.3-0.2l1.1,1.6L20.7,13.9z M21.3,13.4l-1-1.8l0.3-0.2l1.4,0.8l-0.6-1.2
		l0.3-0.2l1,1.8l-0.4,0.2L21,12.1l0.6,1.1L21.3,13.4z M23.1,12.4l-0.9-1.8l0.4-0.2l0.9,1.8L23.1,12.4z M23.4,11.5l0.3-0.2
		c0.1,0.1,0.2,0.2,0.2,0.2c0.1,0,0.2,0,0.3,0c0.1-0.1,0.2-0.1,0.2-0.2c0-0.1,0-0.2,0-0.2c0,0,0-0.1-0.1-0.1c0,0-0.1,0-0.2,0
		c0,0-0.2,0-0.3,0.1c-0.2,0-0.4,0-0.5,0c-0.2-0.1-0.3-0.1-0.3-0.3c0-0.1-0.1-0.2,0-0.3c0-0.1,0.1-0.2,0.1-0.3
		c0.1-0.1,0.2-0.2,0.3-0.2c0.2-0.1,0.4-0.1,0.6-0.1c0.2,0.1,0.3,0.2,0.4,0.3l-0.4,0.2c-0.1-0.1-0.1-0.1-0.2-0.2c-0.1,0-0.2,0-0.3,0
		c-0.1,0-0.2,0.1-0.2,0.2c0,0,0,0.1,0,0.1c0,0,0.1,0.1,0.1,0.1c0.1,0,0.2,0,0.4,0c0.2,0,0.4-0.1,0.5,0c0.1,0,0.2,0,0.3,0.1
		c0.1,0.1,0.2,0.1,0.2,0.3c0,0.1,0.1,0.2,0,0.3c0,0.1-0.1,0.2-0.2,0.3c-0.1,0.1-0.2,0.2-0.4,0.2c-0.2,0.1-0.4,0.1-0.6,0.1
		C23.7,11.8,23.5,11.7,23.4,11.5 M25.9,11.1l-0.6-1.6l-0.6,0.2l-0.1-0.3l1.5-0.6l0.1,0.3l-0.6,0.2l0.6,1.6L25.9,11.1z M27,10.7
		l-0.6-1.9l0.8-0.3c0.2-0.1,0.4-0.1,0.5-0.1c0.1,0,0.2,0,0.3,0.1c0.1,0.1,0.1,0.2,0.2,0.3c0,0.1,0,0.3,0,0.4
		c-0.1,0.1-0.2,0.2-0.3,0.3c0.1,0,0.2,0.1,0.3,0.1c0.1,0,0.2,0.1,0.3,0.2l0.4,0.3l-0.5,0.1l-0.4-0.3c-0.1-0.1-0.2-0.2-0.3-0.2
		c0,0-0.1,0-0.1,0c0,0-0.1,0-0.2,0l-0.1,0l0.3,0.8L27,10.7z M27.1,9.4l0.3-0.1c0.2-0.1,0.3-0.1,0.3-0.1c0,0,0.1-0.1,0.1-0.1
		c0,0,0-0.1,0-0.2c0-0.1-0.1-0.1-0.1-0.1c0,0-0.1,0-0.2,0c0,0-0.1,0-0.3,0.1l-0.3,0.1L27.1,9.4z M30.7,9.7l-0.4,0.1l-0.3-0.4
		l-0.8,0.2L29.2,10l-0.4,0.1L29.1,8l0.4-0.1L30.7,9.7z M29.9,9l-0.4-0.7l-0.1,0.8L29.9,9z M31.2,9.6l-0.3-1.6L30.3,8l-0.1-0.3
		l1.6-0.3l0.1,0.3l-0.6,0.1l0.3,1.6L31.2,9.6z M32.4,9.4l-0.2-2l0.4,0l0.2,2L32.4,9.4z M33.7,9.2l-0.9-1.9l0.4,0l0.6,1.4l0.4-1.5
		l0.4,0l-0.6,2L33.7,9.2z M35,8.2c0-0.2,0-0.4,0.1-0.5c0-0.1,0.1-0.2,0.2-0.3c0.1-0.1,0.2-0.1,0.3-0.2c0.1-0.1,0.3-0.1,0.4-0.1
		c0.3,0,0.5,0.1,0.7,0.3c0.2,0.2,0.3,0.4,0.3,0.8c0,0.3-0.1,0.6-0.3,0.8c-0.2,0.2-0.4,0.3-0.7,0.3c-0.3,0-0.5-0.1-0.7-0.3
		C35.1,8.7,35,8.5,35,8.2 M35.4,8.1c0,0.2,0.1,0.4,0.2,0.5c0.1,0.1,0.2,0.2,0.4,0.2c0.2,0,0.3-0.1,0.4-0.2c0.1-0.1,0.1-0.3,0.1-0.5
		c0-0.2-0.1-0.4-0.2-0.5c-0.1-0.1-0.2-0.2-0.4-0.2c-0.2,0-0.3,0.1-0.4,0.2C35.4,7.7,35.4,7.9,35.4,8.1 M38.2,7.2l0.7,0.1
		c0.2,0,0.3,0,0.4,0.1c0.1,0,0.2,0.1,0.3,0.2c0.1,0.1,0.1,0.2,0.2,0.3c0,0.1,0,0.3,0,0.5c0,0.2,0,0.3-0.1,0.4
		c-0.1,0.1-0.1,0.3-0.2,0.3c-0.1,0.1-0.2,0.1-0.3,0.1c-0.1,0-0.2,0-0.4,0L38,9.2L38.2,7.2z M38.5,7.6l-0.1,1.3l0.3,0
		c0.1,0,0.2,0,0.2,0c0.1,0,0.1,0,0.2-0.1c0,0,0.1-0.1,0.1-0.2c0-0.1,0.1-0.2,0.1-0.4c0-0.2,0-0.3,0-0.4c0-0.1-0.1-0.2-0.1-0.2
		c0,0-0.1-0.1-0.2-0.1c-0.1,0-0.2,0-0.3,0L38.5,7.6z M40,9.4l0.3-2l1.5,0.3L41.8,8l-1.1-0.2l-0.1,0.4l1,0.2l-0.1,0.3l-1-0.2
		l-0.1,0.5l1.1,0.2l-0.1,0.3L40,9.4z M42.6,9.9L43.2,8l0.4,0.1l-0.4,1.6l1,0.3L44,10.3L42.6,9.9z M46,10.9l-0.4-0.1l0-0.5l-0.8-0.2
		l-0.3,0.4l-0.4-0.1l1.4-1.7l0.4,0.1L46,10.9z M45.5,10l0-0.8L45,9.8L45.5,10z M46.8,11.3l0.8-1.8l1.3,0.6l-0.1,0.3L47.8,10
		l-0.2,0.4l0.8,0.3l-0.1,0.3l-0.8-0.3l-0.3,0.8L46.8,11.3z M49.3,10.3l0.4,0.2l-0.5,0.9C49,11.6,49,11.7,49,11.7c0,0.1,0,0.2,0,0.2
		c0,0.1,0.1,0.1,0.2,0.2c0.1,0.1,0.2,0.1,0.3,0.1c0.1,0,0.1,0,0.2-0.1c0-0.1,0.1-0.2,0.2-0.3l0.5-1l0.4,0.2L50.2,12
		c-0.1,0.2-0.2,0.4-0.3,0.4c-0.1,0.1-0.1,0.1-0.2,0.2c-0.1,0-0.2,0-0.3,0c-0.1,0-0.2-0.1-0.4-0.1c-0.2-0.1-0.3-0.2-0.3-0.3
		c-0.1-0.1-0.1-0.2-0.1-0.3c0-0.1,0-0.2,0-0.2c0-0.1,0.1-0.3,0.2-0.5L49.3,10.3z M50.1,13l1.1-1.7l0.3,0.2l0,1.6l0.7-1.1l0.3,0.2
		l-1.1,1.7l-0.3-0.2l0-1.5l-0.7,1.1L50.1,13z M53.3,14.3l0.2,0.3c-0.2,0.1-0.4,0.2-0.5,0.2c-0.2,0-0.3-0.1-0.5-0.2
		c-0.2-0.2-0.3-0.4-0.3-0.6c0-0.2,0.1-0.5,0.3-0.7c0.2-0.3,0.4-0.4,0.7-0.5c0.2,0,0.5,0,0.7,0.2c0.2,0.2,0.3,0.3,0.3,0.5
		c0,0.1,0,0.3-0.1,0.4l-0.4-0.2c0-0.1,0.1-0.2,0-0.3c0-0.1-0.1-0.2-0.2-0.2c-0.1-0.1-0.2-0.1-0.4-0.1c-0.1,0-0.3,0.1-0.4,0.3
		c-0.2,0.2-0.2,0.4-0.2,0.5c0,0.1,0.1,0.3,0.2,0.3c0.1,0.1,0.2,0.1,0.3,0.1C53,14.5,53.1,14.4,53.3,14.3 M53.4,15.4l1.3-1.5l0.3,0.3
		l-1.3,1.5L53.4,15.4z M54.6,15.1c0.1-0.1,0.3-0.3,0.4-0.3c0.1,0,0.2-0.1,0.3-0.1c0.1,0,0.2,0,0.3,0c0.1,0,0.3,0.1,0.4,0.2
		c0.2,0.2,0.3,0.4,0.3,0.7c0,0.3-0.1,0.5-0.3,0.7c-0.2,0.2-0.5,0.4-0.7,0.4c-0.3,0-0.5-0.1-0.7-0.3c-0.2-0.2-0.3-0.4-0.3-0.7
		C54.3,15.6,54.4,15.3,54.6,15.1 M54.9,15.4c-0.2,0.2-0.2,0.3-0.2,0.5c0,0.2,0.1,0.3,0.2,0.4c0.1,0.1,0.3,0.2,0.4,0.1
		c0.2,0,0.3-0.1,0.5-0.3c0.2-0.2,0.2-0.3,0.2-0.5c0-0.2-0.1-0.3-0.2-0.4c-0.1-0.1-0.3-0.2-0.4-0.1C55.2,15.1,55.1,15.2,54.9,15.4
		 M55.9,14.8l0.4-0.2l0.3,0.3l-0.6,0L55.9,14.8z M55.5,17.4L57,16l0.3,0.3l-0.4,1.5l1-0.9l0.3,0.3l-1.4,1.4l-0.3-0.3l0.4-1.5
		l-0.9,0.9L55.5,17.4z M57.4,19.5l1.6-1.2l0.4,0.5c0.1,0.2,0.2,0.3,0.3,0.4c0,0.1,0,0.2,0,0.3c0,0.1-0.1,0.2-0.2,0.3
		C59.3,20,59.2,20,59.1,20c-0.1,0-0.2,0-0.3,0c-0.1,0-0.1-0.1-0.2-0.1c-0.1-0.1-0.2-0.2-0.3-0.3l-0.2-0.2l-0.6,0.4L57.4,19.5z
		 M59,18.8l-0.5,0.3l0.1,0.2c0.1,0.1,0.2,0.2,0.2,0.2c0,0,0.1,0,0.2,0c0.1,0,0.1,0,0.2-0.1c0.1,0,0.1-0.1,0.1-0.2c0-0.1,0-0.1,0-0.2
		c0,0-0.1-0.1-0.2-0.2L59,18.8z M60.2,19.9l0.2,0.3l-0.9,0.6c-0.1,0.1-0.2,0.2-0.3,0.2c-0.1,0.1-0.1,0.1-0.1,0.2
		c0,0.1,0,0.2,0.1,0.3c0.1,0.1,0.1,0.2,0.2,0.2c0.1,0,0.1,0,0.2,0c0.1,0,0.2-0.1,0.3-0.2l0.9-0.6l0.2,0.3l-0.9,0.6
		c-0.2,0.1-0.3,0.2-0.4,0.3c-0.1,0-0.2,0-0.3,0c-0.1,0-0.2,0-0.3-0.1c-0.1-0.1-0.2-0.2-0.3-0.3c-0.1-0.2-0.2-0.3-0.2-0.4
		c0-0.1,0-0.2,0-0.3c0-0.1,0.1-0.2,0.1-0.2c0.1-0.1,0.2-0.2,0.4-0.3L60.2,19.9z M60.6,20.3l0.4-0.1l0.2,0.4l-0.5-0.1L60.6,20.3z
		 M61.4,21.8l0.4,0.7c0.1,0.1,0.1,0.2,0.1,0.3c0,0.1,0,0.1,0,0.2c0,0.1,0,0.1-0.1,0.2c0,0.1-0.1,0.1-0.2,0.2c-0.1,0-0.2,0.1-0.3,0.1
		c-0.1,0-0.2,0-0.3-0.1c0,0.1,0,0.2,0,0.3c0,0.1-0.1,0.2-0.2,0.2c-0.1,0-0.2,0.1-0.3,0.1c-0.1,0-0.2,0-0.3-0.1
		c-0.1,0-0.2-0.1-0.2-0.2c0-0.1-0.1-0.2-0.2-0.4l-0.3-0.6L61.4,21.8z M61.3,22.3l-0.4,0.2l0.1,0.2c0.1,0.1,0.1,0.2,0.1,0.3
		c0,0.1,0.1,0.1,0.1,0.1c0.1,0,0.1,0,0.2,0c0.1,0,0.1-0.1,0.1-0.1c0,0,0-0.1,0-0.2c0,0-0.1-0.1-0.2-0.3L61.3,22.3z M60.5,22.7
		l-0.5,0.3l0.2,0.3c0.1,0.1,0.1,0.2,0.1,0.2c0,0,0.1,0.1,0.1,0.1c0.1,0,0.1,0,0.2,0c0.1,0,0.1-0.1,0.1-0.1c0,0,0-0.1,0-0.2
		c0-0.1-0.1-0.2-0.1-0.3L60.5,22.7z M60.5,24.5l1.8-0.8l0.2,0.4L61,24.7l0.4,0.9l-0.3,0.1L60.5,24.5z M61.2,26l1.9-0.7l0.2,0.4
		l-1.9,0.7L61.2,26z M62.6,27.7l0,0.4c-0.2,0-0.4,0-0.6-0.1c-0.1-0.1-0.3-0.2-0.3-0.5c-0.1-0.3-0.1-0.5,0-0.7
		c0.1-0.2,0.3-0.4,0.6-0.5c0.3-0.1,0.6-0.1,0.8,0c0.2,0.1,0.4,0.3,0.5,0.6c0.1,0.2,0.1,0.4,0,0.6c-0.1,0.1-0.1,0.2-0.3,0.3l-0.2-0.3
		c0.1-0.1,0.2-0.1,0.2-0.2c0-0.1,0-0.2,0-0.3c0-0.1-0.1-0.2-0.3-0.3c-0.1-0.1-0.3,0-0.5,0c-0.2,0.1-0.4,0.2-0.5,0.3
		c-0.1,0.1-0.1,0.3,0,0.4c0,0.1,0.1,0.2,0.2,0.2C62.3,27.7,62.5,27.8,62.6,27.7 M62.6,30.4L62.5,30l0.4-0.3L62.6,29l-0.5,0L62,28.5
		l2.1,0.2l0.1,0.4L62.6,30.4z M63.2,29.5l0.6-0.5L63,29L63.2,29.5z M63.3,31.2l0.4-0.1l0.1,0.7l-0.4,0.1L63.3,31.2z M65,32.8
		l0.1,0.7c0,0.2,0,0.3,0,0.4c0,0.1-0.1,0.2-0.2,0.3c-0.1,0.1-0.2,0.2-0.3,0.2c-0.1,0.1-0.3,0.1-0.5,0.1c-0.2,0-0.3,0-0.4,0
		c-0.1,0-0.3-0.1-0.4-0.2c-0.1-0.1-0.1-0.2-0.2-0.3c0-0.1-0.1-0.2-0.1-0.4L63,33L65,32.8z M64.7,33.3l-1.3,0.1l0,0.3
		c0,0.1,0,0.2,0,0.2c0,0.1,0.1,0.1,0.1,0.2c0,0,0.1,0.1,0.2,0.1c0.1,0,0.2,0,0.4,0c0.2,0,0.3,0,0.4-0.1c0.1,0,0.1-0.1,0.2-0.1
		c0-0.1,0.1-0.1,0.1-0.2c0-0.1,0-0.2,0-0.3L64.7,33.3z M63.2,36.8l0-0.4l0.4-0.2l0-0.8l-0.5-0.1l0-0.4l2,0.7l0,0.4L63.2,36.8z
		 M64,36l0.7-0.3l-0.8-0.2L64,36z M63.2,37.1l2,0.1l-0.1,1.4l-0.3,0l0.1-1l-0.5,0l-0.1,0.8l-0.3,0l0.1-0.8l-0.8-0.1L63.2,37.1z
		 M63.1,38.8l2,0.2L65,39.6c0,0.2-0.1,0.4-0.1,0.5c0,0.1-0.1,0.2-0.2,0.3c-0.1,0.1-0.2,0.1-0.4,0.1c-0.1,0-0.2,0-0.3-0.1
		c-0.1-0.1-0.1-0.1-0.2-0.2c0-0.1-0.1-0.1-0.1-0.2c0-0.1,0-0.2,0-0.4l0-0.3L63,39.2L63.1,38.8z M64.7,39.4l-0.6-0.1l0,0.2
		c0,0.2,0,0.3,0,0.3c0,0.1,0,0.1,0.1,0.1c0,0,0.1,0.1,0.1,0.1c0.1,0,0.1,0,0.2,0c0.1,0,0.1-0.1,0.1-0.1c0,0,0-0.1,0-0.3L64.7,39.4z"
		/>
	<polygon class="st1" points="55.3,47.8 55.2,47.7 55.2,47.7 55.2,47.6 55.3,47.6 55.3,47.5 55.3,47.5 55.3,47.4 55.2,47.4 
		55.2,47.3 55.2,47.3 55.2,47.3 55.1,47.2 55.1,47.2 55.1,47.2 55.1,47.1 55.1,47 55.1,46.9 55,46.8 55,46.7 55,46.6 54.9,46.6 
		54.9,46.5 54.8,46.4 54.8,46.3 54.8,46.2 54.7,46.1 54.7,46 54.7,45.9 54.7,45.9 54.7,45.8 54.6,45.7 54.6,45.6 54.5,45.6 
		54.5,45.5 54.5,45.4 54.5,45.4 54.5,45.3 54.5,45.3 54.5,45.2 54.5,45.1 54.5,45 54.5,45 54.4,45 54.4,45 54.4,45 54.3,45 54.3,45 
		54.3,44.9 54.2,44.8 54.2,44.8 54.2,44.7 54.2,44.6 54.2,44.6 54.2,44.5 54.2,44.5 54.2,44.4 54.2,44.4 54.3,44.4 54.2,44.3 
		54.2,44.2 54.1,44.1 54,44.1 53.9,44 53.8,43.9 53.8,43.8 53.7,43.7 53.6,43.6 53.5,43.5 53.4,43.4 53.4,43.4 53.3,43.3 53.3,43.3 
		53.2,43.3 53.2,43.3 53.2,43.3 53.2,43.3 53.1,43.2 53.1,43.1 53.1,43 53,42.9 53,42.9 52.9,42.9 52.9,42.9 52.9,42.9 52.8,42.9 
		52.8,42.9 52.7,42.9 52.7,42.9 52.6,42.8 52.6,42.8 52.6,42.8 52.5,42.8 52.5,42.8 52.4,42.8 52.4,42.8 52.3,42.8 52.3,42.9 
		52.3,42.9 52.2,42.9 52.2,42.9 52.2,42.8 53.5,41.6 53.7,41.5 53.7,41.5 53.7,41.5 53.7,41.4 53.7,41.4 53.7,41.4 53.8,41.3 
		53.8,41.3 53.8,41.2 53.9,41.2 53.9,41.1 53.9,41 53.8,40.9 53.8,40.9 53.8,40.9 53.7,40.9 53.6,40.8 53.6,40.8 53.6,40.7 
		53.6,40.6 53.5,40.6 53.5,40.5 53.5,40.5 53.5,40.5 53.5,40.4 53.5,40.3 53.5,40.3 53.4,40.2 53.4,40.2 53.4,40.1 53.3,40 53.3,40 
		53.3,39.9 53.3,39.9 53.3,39.9 53.3,39.9 53.2,39.9 53.2,39.9 53.2,39.9 53.2,40 53.2,40 53.1,40 53.1,40 53,40 53,40 53,40 53,40 
		52.9,39.9 52.9,39.9 52.9,39.8 52.9,39.7 52.8,39.6 52.8,39.6 52.8,39.6 52.7,39.5 52.7,39.4 52.7,39.4 52.7,39.3 52.7,39.2 
		52.7,39.1 52.7,39.1 52.6,39 52.6,38.9 52.6,38.8 52.5,38.8 52.5,38.7 52.4,38.6 52.4,38.6 52.4,38.5 52.4,38.4 52.4,38.3 
		52.4,38.2 52.5,38.2 52.4,38 52.4,37.9 52.4,37.9 52.3,37.8 52.3,37.7 52.3,37.7 52.2,37.6 52.1,37.5 52.1,37.4 52.1,37.3 
		52.2,37.1 52.2,37 52.2,36.9 52.2,36.7 52.2,36.7 52.2,36.6 52.2,36.5 52.2,36.4 52.3,36.3 52.3,36.2 52.3,36.1 52.3,35.9 
		52.3,35.8 52.2,35.8 52.2,35.7 52.2,35.7 52.2,35.6 52.3,35.5 52.3,35.5 52.3,35.4 52.2,35.3 52.2,35.2 52.2,35.1 52.3,35.1 
		52.3,35 52.4,34.9 52.6,34.8 52.7,34.7 52.8,34.7 52.9,34.6 52.9,34.5 52.9,34.4 53,34.4 52.9,34.3 52.9,34.2 52.8,34 52.8,34 
		52.9,33.9 52.9,33.9 52.9,33.8 52.9,33.7 52.9,33.6 53,33.6 53,33.5 53.1,33.4 53.1,33.3 53.2,33.2 53.3,33.1 53.4,33.1 53.5,33 
		53.5,32.9 53.4,32.8 53.3,32.7 53.3,32.6 53.3,32.5 53.3,32.4 53.3,32.4 53.3,32.3 53.3,32.3 53.2,32.3 53.1,32.2 53.1,32.1 
		53.1,32.1 53,32.1 53,32.1 52.9,32.1 52.9,32.1 52.8,32.1 52.7,32.1 52.7,32.1 52.6,32.1 52.5,32.1 52.5,32.1 52.4,32.1 52.4,32 
		52.3,32 52.3,32 52.2,32.1 52.2,32.1 52.1,32.1 52.1,32.1 52,32.1 52,32.2 51.9,32.2 51.9,32.3 51.9,32.3 51.8,32.3 51.8,32.3 
		51.8,32.4 51.7,32.4 51.6,32.4 51.6,32.3 51.5,32.3 51.4,32.3 51.4,32.3 51.3,32.3 51.3,32.3 51.3,32.3 51.3,32.3 51.2,32.3 
		51.2,32.3 51.2,32.3 51.1,32.4 51.1,32.4 51,32.4 51,32.4 50.9,32.4 50.9,32.4 50.9,32.5 50.8,32.5 50.8,32.5 50.7,32.5 50.6,32.5 
		50.5,32.4 50.4,32.4 50.3,32.4 50.3,32.4 50.2,32.5 50.1,32.5 50.1,32.5 50,32.5 50,32.5 49.9,32.5 49.9,32.5 49.9,32.5 49.8,32.5 
		49.8,32.6 49.8,32.6 49.7,32.6 49.6,32.6 49.5,32.6 49.4,32.6 49.3,32.6 49.3,32.5 49.2,32.5 49.2,32.5 49.1,32.5 49,32.5 
		48.9,32.5 48.8,32.5 48.7,32.4 48.7,32.4 48.6,32.4 48.6,32.4 48.6,32.4 48.5,32.4 48.5,32.4 48.5,32.4 48.4,32.4 48.3,32.4 
		48.3,32.4 48.3,32.4 48.2,32.4 48.2,32.4 48.2,32.5 48.2,32.5 48.1,32.6 48.1,32.6 48.1,32.6 48.1,32.6 48,32.6 48,32.6 48,32.7 
		48,32.7 47.9,32.7 47.9,32.8 47.8,32.8 47.8,32.8 47.7,32.8 47.7,32.8 47.6,32.7 47.6,32.7 47.6,32.6 47.5,32.6 47.5,32.6 
		47.5,32.7 47.5,32.7 47.4,32.7 47.4,32.7 47.3,32.7 47.3,32.7 45.2,30.1 45,30.1 44.9,30.1 44.8,30.1 44.8,30.1 44.8,30.1 
		44.7,30.2 44.6,30.2 44.3,30 44.2,30 44.2,30 44.1,30 44.1,30 44,30 43.9,29.9 43.9,29.8 43.9,29.8 43.8,29.8 43.7,29.8 43.7,29.8 
		43.5,29.7 43.4,29.7 43.4,29.7 43.2,29.7 43.1,29.7 43.1,29.8 43,29.8 42.9,29.8 42.8,29.8 42.8,29.8 42.7,29.9 42.7,29.9 
		42.6,29.9 42.5,30 42.5,30 42.4,30.1 42.3,30.1 42.3,30.1 42.2,30.1 42.1,30 42.1,30 42.1,29.9 42.1,29.9 42,29.9 41.9,29.9 
		41.8,29.9 41.7,29.9 41.6,29.9 41.5,29.9 41.4,30 41.4,30 41.3,30 41.3,29.9 41.3,29.9 41.2,29.9 41.1,29.9 41.1,29.9 41.1,30 
		41,29.9 41,29.9 41,29.9 40.9,29.9 40.8,29.9 40.8,29.9 40.7,29.9 40.7,29.9 40.6,29.9 40.6,29.9 40.5,29.9 40.5,29.8 40.4,29.8 
		40.4,29.9 40.4,29.9 40.4,29.9 40.3,29.9 40.3,29.9 40.2,29.8 40.2,29.8 40.1,29.8 40.1,29.8 40.1,29.8 40,29.9 40,29.9 39.9,29.9 
		39.8,29.9 39.7,30 39.6,30 39.5,30 39.4,30 39.3,30 39.2,29.9 38.8,29.2 38.9,29.1 38.8,29 38.8,28.9 38.7,28.8 38.7,28.8 
		38.6,28.8 38.6,28.8 38.5,28.8 38.4,28.8 38.4,28.8 38.2,28.8 38.2,28.8 38.1,28.8 38,28.8 38,28.7 38,28.6 38,28.6 38,28.6 
		38,28.6 37.9,28.5 37.9,28.5 37.9,28.4 38,28.3 37.9,28.3 37.9,28.2 37.9,28.1 37.9,28 37.9,27.8 37.9,27.8 37.9,27.7 37.9,27.6 
		38,27.5 38,27.5 38,27.4 38,27.4 38,27.3 37.9,27.3 37.9,27.2 37.9,27.2 38,27.1 38.1,27.1 38.1,27 38.1,27 38.2,27 38.2,26.9 
		38.2,26.9 38.2,26.8 38.2,26.7 38.2,26.6 38.2,26.6 38.3,26.5 38.2,26.4 38.2,26.4 38.2,26.3 38.2,26.3 38.2,26.2 38.2,26.1 
		38.2,26 38.2,26 38.2,25.9 38.2,25.9 38.2,25.8 38.1,25.8 37.5,25.2 37.5,25.1 37.4,25.1 37.4,25.1 37,23.7 37,23.6 37,23.6 
		36.9,23.6 36.9,23.5 36.9,23.5 36.8,23.5 36.7,23.5 36.7,23.5 36.6,23.6 36.6,23.6 36.6,23.6 36.5,23.6 36.5,23.6 36.4,23.6 
		36.4,23.5 36.4,23.5 36.4,23.4 36.4,23.4 36.4,23.4 36.4,23.3 36.4,23.2 36.3,23.2 36.3,23.1 36.3,23.1 36.2,23 36.1,23.1 
		36.1,23.1 36.1,23.1 36,23.1 36,23.2 36,23.2 35.9,23.2 35.8,23.3 35.8,23.3 35.7,23.4 35.7,23.4 35.6,23.4 35.6,23.4 35.5,23.4 
		35.4,23.4 35.4,23.4 35.3,23.4 35.3,23.3 35.3,23.3 35.4,23.2 35.4,23 35.4,23 35.5,22.9 35.5,22.8 35.5,22.7 35.6,22.6 35.7,22.6 
		35.7,22.5 35.8,22.4 35.8,22.3 35.9,22.3 35.9,22.2 36,22.1 36,22.1 36.1,22 36.2,21.8 36.2,21.8 36.2,21.7 36.3,21.6 36.4,21.4 
		36.4,21.4 36.5,21.3 36.4,21.3 36.4,21.2 36.4,21.2 36.4,21.1 36.3,21 36.4,20.9 36.4,20.7 36.5,20.6 36.5,20.6 36.6,20.5 
		36.6,20.4 36.6,20.2 36.6,20.1 36.6,19.9 36.6,19.9 36.8,19.7 36.9,19.6 36.9,19.5 37,19.4 37.1,19.3 37.2,19.1 37.2,18.9 
		37.3,18.8 37.4,18.7 37.5,18.3 37.6,18.2 37.6,18 37.7,17.8 37.8,17.7 37.9,17.6 38.1,17.5 38.4,17.3 38.5,17.3 38.5,17.3 
		38.6,17.3 39.4,15.8 40,15.6 41.3,15.2 41.3,15.1 41.3,15.1 41.3,15.1 41.3,15 41.3,15 41.4,15 41.4,15 41.4,14.9 41.4,14.9 
		41.3,14.9 41.3,14.9 41.3,14.8 41.4,14.8 41.4,14.9 41.4,14.9 41.5,14.9 41.5,14.8 41.6,14.8 41.6,14.7 41.7,14.7 41.7,14.7 
		41.8,14.7 41.9,14.6 41.9,14.6 42,14.5 42,14.4 41.9,14.3 41.8,14.1 41.8,14.1 41.6,13.8 41.6,13.7 41.6,13.7 41.5,13.6 41.5,13.6 
		41.4,13.6 41.4,13.5 41.4,13.5 41.3,13.6 41.3,13.5 41.2,13.5 41.2,13.5 41.1,13.4 41,13.4 41,13.5 40.9,13.4 40.9,13.3 40.8,13.3 
		40.8,13.3 40.7,13.3 40.6,13.3 40.6,13.3 40.5,13.3 40.5,13.3 40.4,13.2 40.3,13.2 40.3,13.2 40.2,13.2 40.1,13.3 40.1,13.3 
		40.1,13.3 40.2,13.3 40.2,13.3 40.3,13.3 40.3,13.3 40.3,13.3 40.3,13.3 40.3,13.3 40.3,13.4 40.4,13.3 40.4,13.3 40.4,13.4 
		40.3,13.4 40.2,13.4 40.2,13.4 40.2,13.5 40.3,13.5 40.2,13.5 40.2,13.5 40.1,13.5 40.1,13.4 40.1,13.4 40.1,13.4 40.1,13.4 
		40.1,13.4 40,13.4 40,13.5 40.1,13.5 40.1,13.6 40,13.6 40,13.6 39.9,13.6 39.9,13.7 39.8,13.7 39.8,13.6 39.8,13.5 39.8,13.5 
		39.7,13.6 39.6,13.6 39.6,13.7 39.5,13.7 39.5,13.7 39.4,13.8 39.5,13.8 39.5,13.8 39.6,13.8 39.6,13.8 39.6,13.8 39.6,13.9 
		39.6,13.9 39.7,13.9 39.7,13.9 39.7,14 39.7,14 39.6,14 39.6,14 39.6,14 39.5,14.1 39.5,14.1 39.6,14.1 39.5,14.2 39.5,14.2 
		39.4,14.2 39.4,14.2 39.3,14.2 39.3,14.1 39.3,14.1 39.3,14 39.3,14 39.4,14 39.4,13.9 39.4,13.9 39.4,13.9 39.4,13.8 39.4,13.8 
		39.3,13.9 39.2,13.9 39.1,13.9 39.1,13.9 39,13.9 39,13.9 39,13.9 38.8,13.9 38.8,13.9 38.8,13.9 38.7,14 38.8,14 38.8,14 38.8,14 
		38.9,14.1 38.9,14.2 38.8,14.5 38.7,14.6 38.7,14.7 38.6,14.8 38.6,14.9 38.4,15 38.3,15.1 38.2,15.2 38.1,15.2 38,15.3 37.9,15.3 
		37.8,15.3 37.8,15.4 37.7,15.4 37.7,15.4 37.6,15.4 37.5,15.4 37.4,15.4 37.4,15.5 37.3,15.5 37.2,15.5 37.1,15.5 37,15.6 
		36.8,15.7 36.8,15.7 36.6,15.9 36.6,15.9 36.5,16 36.4,16 36.3,16.1 36.2,16.2 36.1,16.2 36.1,16.3 36,16.3 35.9,16.4 35.9,16.5 
		35.8,16.5 35.7,16.5 35.7,16.6 35.7,16.6 35.6,16.7 35.6,16.7 35.5,16.8 35.4,16.8 35.3,16.9 35.1,16.9 34.9,16.9 34.7,16.9 
		34.6,17 34.5,16.9 34.5,16.9 34.3,16.9 34.3,16.9 34.1,16.9 34,16.9 33.8,16.9 33.8,16.9 33.7,16.9 33.6,16.8 33.5,16.8 33.4,16.8 
		33.3,16.7 33.3,16.7 33.2,16.7 33.1,16.7 33.1,16.7 33,16.7 33,16.7 33,16.7 33,16.7 33,16.7 32.9,16.7 32.9,16.7 32.8,16.7 
		32.8,16.7 32.8,16.8 32.8,16.8 32.7,16.8 32.7,16.8 32.6,16.8 32.6,16.9 32.6,16.9 32.6,17 32.5,17 32.5,17 32.5,17.1 32.5,17.2 
		32.6,17.3 32.5,17.3 32.5,17.4 32.6,17.4 32.6,17.5 32.6,17.5 32.5,17.6 32.5,17.7 32.4,17.7 32.4,17.8 32.3,17.8 32.2,17.8 
		32.1,17.8 32,17.8 31.9,17.8 31.8,17.8 31.8,17.8 31.5,17.7 31.3,17.6 31.1,17.6 31,17.5 30.9,17.5 30.8,17.5 30.8,17.5 30.7,17.4 
		30.7,17.5 30.6,17.5 30.6,17.5 30.5,17.5 30.5,17.6 30.4,17.7 30.4,17.7 30.3,17.8 30.2,17.8 30.2,17.9 30.1,17.9 30.1,18 30.1,18 
		30,18.1 29.9,18.1 29.8,18.2 29.8,18.2 29.7,18.3 29.7,18.3 29.6,18.3 29.5,18.4 29.5,18.4 29.4,18.4 29.3,18.6 29.3,18.6 
		29.2,18.7 29.1,18.7 29.1,18.7 29,18.7 29,18.8 29,18.8 28.9,18.8 28.9,18.9 28.9,18.9 28.8,18.9 28.8,18.9 28.8,19 28.8,19 
		28.7,19 28.7,19 28.6,19 28.6,19.1 28.6,19.1 28.7,19.1 28.7,19.2 28.7,19.3 28.8,19.3 28.8,19.4 28.8,19.4 28.8,19.5 28.8,19.5 
		28.7,19.6 28.7,19.6 28.7,19.5 28.7,19.5 28.7,19.4 28.7,19.4 28.7,19.3 28.7,19.3 28.7,19.3 28.7,19.3 28.7,19.4 28.6,19.4 
		28.6,19.4 28.6,19.5 28.5,19.5 28.5,19.6 28.6,19.6 28.6,19.6 28.6,19.6 28.7,19.7 28.7,19.8 28.7,19.8 28.6,19.9 28.6,19.9 
		28.6,19.9 28.5,20 28.5,20 28.5,20 28.5,19.9 28.5,19.9 28.4,19.9 28.4,19.9 28.4,20 28.4,20 28.4,20 28.4,20 28.4,20 28.4,20 
		28.3,20 28.3,20.1 28.4,20.1 28.3,20.2 28.3,20.2 28.3,20.3 28.2,20.3 28.2,20.3 28.1,20.3 28.1,20.3 28.1,20.4 28.1,20.4 
		28.1,20.4 28.2,20.4 28.2,20.3 28.3,20.3 28.3,20.2 28.4,20.2 28.4,20.2 28.5,20.1 28.6,20.1 28.6,20.1 28.6,20.1 28.6,20.1 
		28.6,20.2 28.6,20.2 28.6,20.3 28.6,20.3 28.6,20.3 28.6,20.3 28.6,20.3 28.6,20.3 28.6,20.3 28.5,20.4 28.5,20.4 28.5,20.5 
		28.5,20.4 28.5,20.4 28.4,20.4 28.4,20.4 28.4,20.5 28.4,20.5 28.4,20.6 28.5,20.6 28.5,20.6 28.6,20.6 28.6,20.7 28.6,20.7 
		28.6,20.7 28.6,20.8 28.6,20.8 28.5,20.8 28.5,20.9 28.5,20.9 28.5,20.9 28.5,20.9 28.4,21 28.4,21.1 28.3,21.1 28.3,21.2 
		28.3,21.3 28.3,21.4 28.3,21.4 28.3,21.5 28.2,21.6 28.1,21.7 28.1,21.7 28.1,21.7 28.1,21.7 28.2,21.7 28.3,21.7 28.5,22.1 
		28.5,22.2 28.4,22.3 28.4,22.4 28.3,22.5 28.3,22.5 28.3,22.6 28.2,22.6 28.1,22.6 28.1,22.6 28,22.6 28,22.6 28,22.6 27.9,22.6 
		27.9,22.7 27.8,22.7 27.8,22.7 27.7,22.7 27.7,22.7 27.7,22.6 27.7,22.6 27.7,22.6 27.7,22.6 27.8,22.6 27.8,22.6 27.8,22.6 
		27.8,22.5 27.7,22.5 27.7,22.6 27.6,22.6 27.5,22.6 27.5,22.6 27.4,22.6 27.4,22.6 27.3,22.6 27.3,22.7 27.2,22.7 27.1,22.8 
		27,22.8 26.9,22.8 26.9,22.9 26.8,22.9 26.8,22.9 26.8,23 26.8,23.1 26.7,23.1 26.7,23.1 26.6,23.2 26.6,23.2 26.6,23.3 26.6,23.3 
		26.6,23.5 26.6,23.5 26.5,23.6 26.4,23.6 26.4,23.6 26.3,23.7 26.3,23.7 26.3,23.8 26.3,23.9 26.3,24 26.2,24 26.1,24 26.1,24 
		26,24 26,24.1 26,24.2 25.9,24.2 25.8,24.2 25.8,24.2 25.8,24.2 25.8,24.3 25.7,24.3 25.7,24.4 25.6,24.4 25.6,24.5 25.5,24.5 
		25.4,24.6 25.1,24.8 25.1,24.8 25,24.9 24.9,24.9 24.9,24.9 24.8,25 24.7,25 24.6,25 24.6,25 24.5,25 24.4,25 24.4,25 24.4,25.1 
		24.4,25.1 24.4,25.1 24.3,25.2 24.3,25.2 24.3,25.3 24.3,25.3 24.3,25.3 24.3,25.3 24.3,25.3 24.4,25.3 24.4,25.3 24.5,25.3 
		24.5,25.3 24.6,25.4 24.6,25.4 24.7,25.5 24.7,25.6 24.7,25.6 24.7,25.6 24.8,25.7 24.8,25.7 24.8,25.8 24.8,25.9 24.8,26 24.7,26 
		24.8,26.4 24.8,26.5 24.8,26.5 24.8,26.6 24.8,26.6 24.8,26.7 24.9,26.7 24.9,26.7 24.9,26.7 24.9,26.7 24.9,26.8 24.9,26.8 
		24.9,26.9 24.9,26.9 24.9,27 24.8,27 24.8,27 24.8,27.1 24.8,27.1 24.8,27.2 24.8,27.2 24.7,27.3 24.6,27.3 24.5,27.3 24.4,27.2 
		24.4,27.2 24.3,27.2 24.3,27.2 24.3,27.1 24.3,27.1 24.3,27 24.3,27 24.3,26.9 24.3,26.9 24.3,26.9 24.3,26.9 24.3,26.8 24.4,26.8 
		24.4,26.8 24.5,26.9 24.5,26.9 24.5,26.9 24.5,26.8 24.5,26.8 24.5,26.8 24.5,26.8 24.6,26.8 24.6,26.7 24.5,26.7 24.5,26.7 
		24.6,26.7 24.6,26.6 24.5,26.6 24.5,26.6 24.6,26.5 24.5,26.5 24.5,26.5 24.5,26.5 24.4,26.5 24.4,26.5 24.4,26.5 24.4,26.5 
		24.4,26.6 24.3,26.6 24.3,26.6 24.3,26.6 24.2,26.5 24.2,26.5 24.3,26.4 24.3,26.4 24.3,26.4 24.3,26.4 24.3,26.3 24.2,26.4 
		24.2,26.3 24.2,26.3 24.2,26.2 24.2,26.2 24.2,26.2 24.2,26.1 24.2,26.1 24.1,26.1 24.1,26.1 24.1,26.1 24.1,26.2 24,26.2 24,26.1 
		23.9,26.1 23.9,26 23.9,26 23.8,25.8 23.7,25.8 23.7,25.7 23.6,25.6 23.6,25.6 23.5,25.6 23.5,25.5 23.4,25.5 23.3,25.5 23.3,25.4 
		23.3,25.4 23.2,25.3 23.2,25.3 23.2,25.2 23.1,25.2 23.1,25.2 23.1,25.1 23,25.1 23,25 23,25 23,25 22.9,24.9 22.9,25.1 22.9,25.1 
		22.8,25.2 22.8,25.2 22.7,25.3 22.7,25.3 22.7,25.4 22.7,25.4 22.8,25.5 22.8,25.6 22.9,25.7 23,25.8 23,25.9 23,26 23,26 
		23.1,26.2 23.3,26.4 23.3,26.5 23.4,26.7 23.4,26.8 23.4,26.8 23.5,26.9 23.5,27 23.5,27.1 23.4,27.1 23.4,27.1 23.4,27.2 
		23.4,27.3 23.4,27.3 23.3,27.4 23.2,27.4 23.1,27.4 23,27.5 23,27.6 22.9,27.6 22.8,27.8 22.7,27.9 22.7,28 22.6,28.1 22.5,28.2 
		22.5,28.3 22.5,28.4 22.4,28.4 22.4,28.4 22.3,28.4 22.2,28.4 22.2,28.3 22.1,28.2 22,28 22,28 21.9,28 21.9,28 21.9,28 21.8,28 
		21.8,28.1 21.8,28.1 21.8,28.2 21.8,28.3 21.8,28.3 21.8,28.4 21.8,28.5 21.8,28.6 21.8,28.6 21.7,28.6 21.6,28.6 21.6,28.6 
		21.6,28.6 21.5,28.7 21.5,28.7 21.5,28.8 21.5,28.9 21.4,29 21.4,29.1 21.4,29.1 21.3,29.2 21.3,29.3 21.4,29.4 21.4,29.4 
		21.5,29.5 21.5,29.5 21.5,29.6 21.6,29.6 21.7,29.7 21.7,29.7 21.7,29.8 21.8,29.8 22,30 22.1,30.1 22.1,30.1 22,30.2 22,30.2 
		22,30.2 21.9,30.3 21.9,30.3 21.9,30.4 21.9,30.4 21.9,30.5 21.9,30.5 21.9,30.6 22,30.5 22,30.5 22,30.5 22,30.5 22,30.4 22,30.5 
		22.1,30.5 22.1,30.5 22.2,30.6 22.2,30.6 22.3,30.7 22.3,30.7 22.3,30.8 22.4,30.8 22.4,30.9 22.4,31 22.4,31 22.4,31.1 22.4,31.1 
		22.5,31.1 22.5,31.1 22.5,31.1 22.5,31 22.5,31 22.5,31 22.5,30.9 22.6,30.9 22.7,30.9 22.7,30.9 22.8,31 22.8,31 22.8,31.1 
		22.8,31.1 22.9,31.2 22.9,31.3 22.9,31.3 23,31.3 23,31.4 23,31.4 23,31.5 22.9,31.6 22.9,31.6 22.9,31.7 22.9,31.8 22.9,31.8 
		22.9,31.9 22.9,31.9 22.9,31.9 22.8,31.9 22.8,31.9 22.8,31.9 22.8,32 22.9,32 22.9,32 22.9,32 22.9,32.1 22.9,32.1 22.9,32.2 
		22.9,32.2 22.9,32.2 22.9,32.3 22.9,32.4 22.8,32.4 22.8,32.4 22.8,32.3 22.8,32.2 22.7,32.2 22.7,32.2 22.7,32.2 22.6,32.1 
		22.6,32.1 22.6,32.2 22.6,32.2 22.6,32.2 22.6,32.3 22.6,32.4 22.6,32.5 22.6,32.6 22.6,32.6 22.7,32.7 22.7,32.7 22.8,32.8 
		22.9,32.8 22.9,32.9 22.9,32.8 22.9,32.8 22.9,32.9 23,33 23,33 23,33.1 23,33.2 23,33.3 23.1,33.4 23.1,33.5 23.2,33.6 23.3,33.7 
		23.3,33.7 23.3,33.8 23.2,33.9 23.2,33.9 23.1,34 23.1,34.1 23,34.1 23,34.2 23,34.2 23,34.2 22.9,34.3 22.9,34.3 22.8,34.3 
		22.8,34.3 22.8,34.3 22.7,34.3 22.7,34.3 22.6,34.3 22.5,34.3 22.5,34.3 22.4,34.4 22.4,34.4 22.4,34.4 22.4,34.5 22.4,34.5 
		22.4,34.6 22.4,34.6 22.5,34.7 22.5,34.7 22.5,34.6 22.6,34.6 22.6,34.7 22.7,34.7 22.7,34.8 22.8,34.8 22.8,34.8 22.8,34.9 
		22.8,34.9 22.7,34.9 22.7,34.9 22.7,34.9 22.7,35 22.7,35 22.7,35 22.7,35.1 22.8,35.1 22.8,35.1 22.8,35.1 22.8,35.1 22.8,35.2 
		22.9,35.2 22.9,35.3 22.9,35.3 22.8,35.3 22.8,35.3 22.8,35.3 22.8,35.2 22.8,35.2 22.8,35.3 22.8,35.4 22.8,35.5 22.8,35.6 
		22.8,35.6 22.8,35.6 22.9,35.5 22.9,35.5 22.9,35.5 22.9,35.6 22.9,35.6 22.9,35.6 23,35.6 23,35.6 23.1,35.6 23.1,35.6 23,35.6 
		23,35.6 23,35.7 22.9,35.7 22.9,35.7 22.9,35.7 22.8,35.7 22.8,35.7 22.8,35.8 22.8,35.8 22.8,35.9 22.8,35.9 22.9,36 22.9,36.1 
		22.9,36.2 22.9,36.3 22.9,36.4 22.9,36.4 22.9,36.5 22.9,36.6 22.9,36.7 23,36.7 23,36.7 23.1,36.8 23.1,36.9 23.1,36.9 23.2,36.9 
		23.2,37 23.2,37 23.2,37.1 23.2,37.1 23.2,37.1 23.2,37 23.1,37 23.1,37 23,36.9 23,37 23,37 23,37 23,37.1 23,37.2 23,37.2 
		23,37.3 23,37.3 23,37.4 23,37.5 23,37.5 23,37.5 23,37.6 23,37.6 23,37.7 23,37.7 23,37.8 23,37.9 23,37.9 23,37.9 23.1,37.9 
		23.1,37.9 23,38 23,38 22.8,38.2 22.7,38.2 22.7,38.3 22.7,38.3 22.6,38.3 22.6,38.3 22.6,38.4 22.6,38.4 22.6,38.4 22.5,38.5 
		22.5,38.4 22.5,38.4 22.5,38.4 22.5,38.4 22.5,38.4 22.4,38.4 22.4,38.5 22.4,38.5 22.4,38.6 22.4,38.7 22.4,38.7 22.4,38.8 
		22.5,38.9 22.5,39 22.6,39.1 22.6,39.1 22.6,39 22.7,39 22.7,39 22.7,39 22.7,39 22.7,39.1 22.7,39.1 22.7,39.1 22.7,39.2 
		22.7,39.2 22.8,39.3 22.8,39.3 22.9,39.4 22.9,39.4 22.9,39.4 22.9,39.5 23,39.4 23,39.4 23,39.3 23,39.2 23,39.2 23.1,39.1 
		23.1,39.1 23.2,39 23.2,39 23.2,39 23.2,39 23.3,39 23.3,39 23.3,39 23.3,39.1 23.4,39.1 23.4,39.1 23.4,39.1 23.3,39.2 23.3,39.2 
		23.3,39.2 23.3,39.3 23.3,39.3 23.2,39.3 23.2,39.3 23.2,39.3 23.2,39.3 23.1,39.4 23.1,39.4 23.1,39.4 23,39.5 23,39.5 23.1,39.5 
		23.1,39.5 23.2,39.6 23.1,39.6 23.3,39.7 23.3,39.7 23.4,39.7 23.5,39.7 23.6,39.7 23.6,39.7 23.6,39.6 23.7,39.6 23.7,39.6 
		23.7,39.5 23.7,39.5 23.6,39.5 23.6,39.5 23.6,39.5 23.7,39.5 23.7,39.5 23.8,39.4 23.8,39.4 23.8,39.4 23.8,39.5 23.8,39.5 
		23.8,39.5 23.8,39.5 23.8,39.5 23.9,39.5 23.9,39.5 24,39.6 23.9,39.6 23.9,39.6 23.9,39.6 23.8,39.6 23.8,39.6 23.8,39.6 
		23.8,39.7 23.8,39.7 23.8,39.8 23.8,39.8 23.7,39.8 23.7,39.8 23.6,39.8 23.6,39.8 23.6,39.8 23.6,39.7 23.6,39.8 23.6,39.8 
		23.6,39.8 23.6,39.9 23.6,39.9 23.5,40 23.5,40 23.5,40.1 23.5,40.1 23.5,40.2 23.5,40.2 23.6,40.2 23.6,40.2 23.6,40.3 23.6,40.3 
		23.6,40.3 23.5,40.3 23.5,40.3 23.5,40.4 23.5,40.4 23.4,40.5 23.3,40.5 23.2,40.5 23.2,40.5 23.1,40.6 23.1,40.6 23.1,40.7 
		23,40.8 23,40.8 23,40.9 23,40.9 23,40.9 23,40.9 23.1,40.9 23.1,41 23,41 23,41 23,41.1 23,41.1 22.9,41.1 22.9,41.1 22.8,41.1 
		22.8,41.1 22.8,41.2 22.8,41.2 22.7,41.2 22.7,41.3 22.6,41.3 22.6,41.3 22.6,41.3 22.6,41.3 22.5,41.4 22.4,41.5 22.4,41.5 
		22.5,41.5 22.5,41.5 22.5,41.5 22.6,41.5 22.6,41.6 22.6,41.6 22.6,41.6 22.5,41.7 22.5,41.7 22.5,41.7 22.4,41.7 22.4,41.7 
		22.4,41.8 22.3,41.8 22.2,41.9 22.2,41.9 22.2,42 22.1,42 22,42 22,42.1 22,42.1 21.9,42.2 21.9,42.2 21.8,42.3 21.8,42.3 
		21.9,42.3 21.9,42.3 21.9,42.3 22,42.3 22,42.3 22,42.3 22.1,42.3 22,42.3 22,42.4 22,42.4 22,42.4 22,42.5 22,42.5 21.9,42.5 
		21.9,42.5 21.8,42.5 21.8,42.6 21.9,42.7 21.9,42.7 21.8,42.7 21.8,42.8 21.8,42.8 21.8,42.8 21.7,42.8 21.7,42.8 21.7,42.8 
		21.6,42.9 21.6,42.9 21.6,42.9 21.7,42.9 21.7,42.9 21.8,43 21.7,43 21.7,43 21.5,43 21.5,43 21.5,43 21.5,43.1 21.5,43.1 
		21.5,43.2 21.5,43.2 21.5,43.3 21.5,43.3 21.4,43.2 21.4,43.2 21.3,43.1 21.3,43.1 21.2,43.1 21.2,43.2 21.2,43.2 21.2,43.2 
		21.1,43.2 21.1,43.3 21.1,43.3 21.1,43.3 21.1,43.4 21.1,43.4 21.1,43.4 21.1,43.4 21,43.4 21,43.3 21,43.3 21,43.3 20.9,43.3 
		20.9,43.3 20.9,43.4 20.9,43.4 20.9,43.5 20.9,43.5 20.8,43.5 20.8,43.6 20.8,43.6 20.7,43.6 20.7,43.7 20.7,43.7 20.7,43.7 
		20.6,43.7 20.6,43.6 20.6,43.5 20.6,43.5 20.6,43.4 20.5,43.3 20.5,43.3 20.5,43.3 20.4,43.4 20.3,43.4 20.3,43.4 20.3,43.4 
		20.3,43.4 20.3,43.5 20.3,43.5 20.2,43.6 20.1,43.6 20.1,43.7 20.1,43.7 20,43.7 20,43.7 20,43.6 19.9,43.7 19.9,43.7 19.9,43.7 
		19.9,43.7 19.9,43.8 19.9,43.8 19.9,43.9 19.9,43.9 19.9,43.9 19.9,43.9 19.8,43.9 19.8,43.8 19.8,43.8 19.8,43.8 19.7,43.7 
		19.7,43.7 19.7,43.7 19.7,43.6 19.7,43.6 19.7,43.6 19.6,43.7 19.6,43.7 19.5,43.7 19.5,43.8 19.5,43.8 19.5,43.8 19.4,43.8 
		19.4,43.8 19.4,43.9 19.3,43.9 19.2,43.9 19.2,43.9 19.1,44 19.1,44.1 19.1,44.1 19.1,44.1 19.1,44.2 19,44.3 19,44.4 19,44.4 
		19.1,44.5 19.1,44.5 19.1,44.6 19.1,44.6 19.1,44.7 19.1,44.7 19.2,44.7 19.2,44.7 19.2,44.7 19.2,44.8 19.2,44.8 19.2,44.9 
		19.2,44.9 19.2,45 19.2,45.1 19.2,45.1 19.2,45.2 19.2,45.2 19.1,45.2 19.1,45.2 19,45.2 19,45.2 18.9,45.2 18.9,45.2 18.9,45.2 
		18.9,45.3 18.9,45.3 18.9,45.4 18.9,45.3 19,45.3 19.1,45.5 19.1,45.5 19.1,45.6 19.1,45.6 19.1,45.7 19.2,45.7 19.2,45.6 
		19.2,45.7 19.2,45.7 19.2,45.8 19.3,45.8 19.2,45.9 19.2,45.9 19.3,46 19.2,46 19.2,46.1 19.1,46.1 19.1,46.1 19.1,46 19.1,46 
		19,46 19,46 18.9,46 18.9,46 18.8,46 18.8,46 18.7,46 18.7,46 18.7,46 18.7,46 18.6,46 18.5,46 18.5,46 18.5,46 18.4,45.9 
		18.4,45.9 18.4,45.9 18.3,45.9 18.3,45.9 18.2,46 18.1,46.1 18,46.2 17.9,46.4 17.8,46.4 17.8,46.5 17.8,46.5 17.7,46.6 17.7,46.6 
		17.8,46.6 17.8,46.7 18.1,46.9 18.2,46.9 18.2,46.9 18.2,46.9 18.2,47 18.3,47 18.3,47 18.3,47 18.3,47.1 18.3,47.1 18.4,47.2 
		18.5,47.2 18.5,47.3 18.6,47.3 18.7,47.4 18.8,47.5 18.8,47.6 18.9,47.6 18.9,47.6 18.9,47.7 19,47.7 19,47.7 19,47.7 19.1,47.8 
		19.1,47.8 19.2,47.8 19.2,47.9 19.2,47.9 19.3,47.9 19.4,47.9 19.4,47.9 19.5,48 19.6,48 19.6,48 19.6,48.1 19.7,48.2 19.8,48.2 
		19.8,48.3 19.9,48.3 20,48.4 20,48.4 20.1,48.4 20.2,48.4 20.2,48.5 20.3,48.5 20.3,48.6 20.4,48.6 20.4,48.6 20.5,48.7 20.5,48.7 
		20.6,48.8 20.6,48.8 20.6,48.8 20.7,48.8 20.8,48.9 20.8,48.9 20.8,49 20.9,49 21,49.1 21.1,49.1 21.2,49.1 21.4,49.1 21.5,49.1 
		21.6,49 21.7,49 21.9,49 21.9,49 22,49 22,49 22,49 22.1,49.1 22.1,49.2 22,49.3 22,49.3 22.1,49.4 22.1,49.4 22.2,49.5 22.2,49.6 
		22.4,49.6 22.4,49.6 22.5,49.6 22.5,49.7 22.6,49.7 22.6,49.8 22.5,49.8 22.5,49.9 22.5,49.9 22.5,50 22.6,50 22.6,50.1 22.6,50.2 
		22.6,50.2 22.7,50.3 22.8,50.4 22.8,50.4 22.9,50.4 22.9,50.4 23,50.4 23,50.4 23.1,50.4 23.2,50.4 23.3,50.5 23.3,50.5 23.4,50.5 
		23.5,50.5 23.5,50.5 23.6,50.4 23.6,50.4 23.6,50.4 23.7,50.4 23.7,50.4 23.8,50.5 23.8,50.5 23.8,50.5 23.8,50.5 24.1,50.6 
		24.2,50.6 24.2,50.7 24.2,50.7 24.3,50.7 24.3,50.8 24.4,50.8 24.4,50.8 24.5,50.8 24.5,50.8 24.5,50.8 24.6,50.7 24.6,50.7 
		24.7,50.7 24.7,50.8 24.7,50.8 24.8,50.8 24.8,50.8 24.8,50.7 24.8,50.7 24.8,50.7 24.8,50.7 24.8,50.7 24.9,50.7 24.9,50.7 
		25,50.7 25,50.7 25.1,50.7 25.1,50.7 25.2,50.7 25.2,50.7 25.3,50.8 25.3,50.9 25.3,50.9 25.4,50.8 25.4,50.8 25.5,50.8 25.6,50.8 
		25.7,50.8 25.8,50.8 25.8,50.4 25.9,50.3 25.9,50.3 25.9,50.3 26,50.3 26,50.3 26,50.3 26.1,50.3 26.1,50.3 26.1,50.3 26.1,50.2 
		26.2,50.2 26.2,50.2 26.2,50.2 26.3,50.3 26.3,50.3 26.3,50.3 26.4,50.3 26.4,50.3 26.4,50.3 26.5,50.3 26.5,50.3 26.6,50.3 
		26.6,50.3 26.6,50.3 26.6,50.4 26.7,50.4 26.7,50.4 26.7,50.4 26.7,50.5 26.8,50.5 26.8,50.5 26.8,50.5 26.9,50.5 26.9,50.5 
		26.9,50.5 27,50.5 27,50.5 27,50.5 27.1,50.6 27.1,50.6 27.1,50.7 27.1,50.7 27.1,50.7 27.1,50.7 27.1,50.8 27.2,50.8 27.2,50.8 
		27.2,50.9 27.2,50.9 27.3,51 27.3,51 27.3,51 27.4,51.1 27.5,51.1 27.5,51.1 27.6,51.2 27.6,51.2 27.7,51.3 27.7,51.3 27.8,51.3 
		27.8,51.4 27.9,51.4 28,51.4 28,51.4 28.1,51.4 28.1,51.4 28.2,51.4 28.2,51.4 28.2,51.4 28.2,51.3 28.2,51.3 28.3,51.3 28.3,51.4 
		28.3,51.4 28.4,51.4 28.4,51.5 28.4,51.5 28.5,51.5 28.5,51.5 28.6,51.6 28.6,51.6 28.7,51.6 28.7,51.6 28.8,51.7 28.8,51.7 
		28.9,51.7 29,51.8 29,51.8 29.1,51.8 29.1,51.8 29.1,51.8 29.2,51.9 29.3,51.9 29.3,51.9 29.4,51.9 29.4,51.8 29.5,51.8 29.5,51.7 
		29.5,51.7 29.5,51.7 29.6,51.6 29.6,51.6 29.6,51.7 29.7,51.7 29.7,51.7 29.7,51.7 29.8,51.7 29.9,51.7 29.9,51.8 30,51.8 30,51.9 
		30.1,51.9 30.2,51.9 30.2,52 30.2,52 30.2,52 30.3,52.1 30.3,52.1 30.4,52.1 30.5,52.2 30.5,52.2 30.5,52.2 30.5,52.2 30.6,52.2 
		30.7,52.2 30.7,52.2 30.7,52.1 30.8,52.1 30.8,52.1 30.8,52.1 30.8,52.1 30.9,52.2 30.9,52.2 30.9,52.3 31,52.3 31,52.4 31,52.4 
		31,52.5 31,52.5 31,52.6 31,52.6 31.1,52.6 31.1,52.6 31.1,52.6 31.2,52.6 31.2,52.7 31.2,52.7 31.3,52.7 31.3,52.7 31.4,52.7 
		31.4,52.7 31.4,52.7 31.5,52.7 31.5,52.8 31.5,52.8 31.6,52.8 31.6,52.9 31.6,52.9 31.6,52.9 31.6,53 31.7,53 31.7,53 31.7,53 
		31.7,53 31.8,53 31.8,53 31.8,53.1 31.9,53.1 31.9,53.1 31.9,53.1 31.9,53.1 31.9,53.1 31.9,53.1 31.9,53.2 31.9,53.2 32,53.2 
		32,53.2 32,53.2 32,53.3 32,53.3 32.1,53.4 32.1,53.4 32.1,53.4 32.1,53.4 32.1,53.5 32.1,53.5 32.1,53.5 32.1,53.5 32.1,53.6 
		32.2,53.6 32.2,53.6 32.2,53.7 32.2,53.7 32.2,53.7 32.2,53.7 32.2,53.7 32.1,53.8 32.1,53.8 32.1,53.8 32.1,53.8 32.1,53.8 
		32.1,53.8 32.2,53.9 32.2,53.9 32.3,53.9 32.3,53.9 32.3,54 32.3,54 32.3,54 32.3,54 32.3,54.1 32.4,54.1 32.4,54.1 32.4,54.1 
		32.5,54.1 32.5,54.2 32.5,54.2 32.5,54.3 32.4,54.3 32.4,54.3 32.4,54.3 32.3,54.2 32.3,54.3 32.3,54.3 32.3,54.3 32.3,54.3 
		32.4,54.4 32.4,54.4 32.4,54.4 32.4,54.4 32.4,54.5 32.4,54.5 32.4,54.6 32.4,54.6 32.5,54.6 32.5,54.6 32.5,54.7 32.6,54.7 
		32.6,54.7 32.6,54.7 32.7,54.7 32.7,54.7 32.7,54.7 32.8,54.7 32.8,54.8 32.9,54.8 32.9,54.8 32.9,54.8 33,54.9 33,54.9 33.1,54.9 
		33.1,54.8 33.1,54.8 33.1,54.8 33.1,54.7 33.1,54.7 33.1,54.7 33.1,54.7 33.2,54.7 33.2,54.7 33.2,54.8 33.2,54.8 33.2,54.9 
		33.2,54.9 33.2,54.9 33.2,55 33.3,55 33.3,55 33.3,55 33.3,54.9 33.4,54.9 33.4,54.9 33.4,55 33.4,55 33.4,55 33.4,55 33.4,55.1 
		33.4,55.1 33.5,55 33.5,55 33.5,55 33.6,55 33.6,55.1 33.6,55.1 33.6,55.1 33.6,55.2 33.6,55.2 33.6,55.2 33.7,55.3 33.7,55.3 
		33.7,55.3 33.7,55.4 33.7,55.4 33.8,55.4 33.8,55.4 33.8,55.4 33.9,55.4 33.9,55.4 33.9,55.4 33.9,55.4 34,55.5 34,55.5 34,55.4 
		34,55.4 34,55.4 34,55.4 34,55.3 34,55.3 34.1,55.3 34.1,55.3 34.1,55.4 34.1,55.4 34.1,55.4 34.1,55.4 34.1,55.4 34.2,55.4 
		34.2,55.4 34.3,55.4 34.3,55.4 34.3,55.4 34.3,55.4 34.3,55.5 34.4,55.5 34.4,55.5 34.4,55.5 34.4,55.6 34.4,55.6 34.5,55.6 
		34.5,55.7 34.5,55.7 34.5,55.7 34.6,55.7 34.6,55.7 34.6,55.8 34.6,55.8 34.6,55.8 34.6,55.8 34.6,55.9 34.6,55.9 34.6,55.9 
		34.6,55.9 34.6,55.9 34.6,55.9 34.6,56 34.6,56 34.6,56 34.6,56 34.7,56 34.7,56 34.7,56 34.7,56 34.7,56.1 34.7,56.1 34.7,56.1 
		34.8,56.1 34.8,56.1 34.8,56.2 34.8,56.2 34.8,56.2 34.9,56.3 34.9,56.3 34.9,56.3 34.9,56.4 34.9,56.4 34.9,56.4 34.9,56.4 
		34.9,56.4 34.9,56.5 34.9,56.5 34.9,56.5 34.9,56.5 34.9,56.6 34.8,56.6 34.8,56.6 34.8,56.6 34.8,56.6 34.8,56.6 34.8,56.7 
		34.8,56.7 34.8,56.7 34.8,56.7 34.8,56.7 34.7,56.8 34.7,56.8 34.7,56.8 34.7,56.8 34.7,56.9 34.7,56.9 34.8,56.9 34.8,56.9 
		34.8,56.9 34.8,56.9 34.9,57 34.9,57 34.9,57 34.9,57 35,57 35,57 35,57 35,57.1 35,57.1 35,57.1 35.1,57.1 35.1,57.1 35.1,57.1 
		35.2,57.1 35.2,57.1 35.2,57.1 35.2,57.1 35.3,57.1 35.3,57.1 35.3,57.2 35.3,57.2 35.3,57.2 35.4,57.2 35.4,57.2 35.4,57.2 
		35.4,57.2 35.4,57.1 35.4,57.1 35.5,57.1 35.5,57.1 35.5,57.1 35.6,57.1 35.6,57.1 35.6,57.1 35.6,57.1 35.6,57.1 35.6,57.1 
		35.7,57 35.7,57 35.7,57 35.7,57 35.7,57.1 35.8,57.1 35.8,57.1 35.8,57.1 35.8,57.1 35.9,57.2 35.9,57.2 35.9,57.2 35.9,57.2 
		35.9,57.3 35.9,57.3 35.9,57.3 35.9,57.4 36,57.4 36,57.4 36,57.4 36,57.4 36,57.4 36,57.4 36,57.5 36,57.5 36,57.6 36,57.6 
		36,57.6 36,57.7 36,57.7 36,57.7 36,57.7 36,57.8 36,57.8 36,57.8 36,57.8 36,57.8 36.1,57.9 36.1,57.9 36.1,57.9 36.1,57.9 
		36.1,57.9 36.1,57.9 36.1,58 36.1,58 36.1,58 36.1,58 36.1,58 36.1,58 36.2,58 36.2,58 36.2,58.1 36.2,58.1 36.2,58.1 36.1,58.1 
		36.1,58.1 36.1,58.1 36.1,58.2 36.1,58.2 36.1,58.2 36,58.2 36,58.2 36,58.3 36,58.3 36,58.3 36,58.3 36,58.3 36,58.4 36,58.4 
		35.9,58.4 35.9,58.4 35.9,58.4 35.9,58.4 35.9,58.4 35.9,58.4 35.9,58.5 35.9,58.5 35.9,58.5 35.9,58.5 35.9,58.6 35.9,58.6 
		36,58.6 36,58.6 36,58.7 36,58.7 36,58.7 36,58.8 36.1,58.8 36.1,58.8 36.1,58.8 36.1,58.8 36.2,58.8 36.2,58.9 36.2,58.9 
		36.2,58.9 36.2,58.9 36.2,58.9 36.2,58.9 36.3,58.8 36.3,58.8 36.3,58.8 36.3,58.8 36.3,58.8 36.3,58.8 36.3,58.8 36.3,58.8 
		36.3,58.8 36.4,58.8 36.4,58.8 36.4,58.8 36.4,58.8 36.5,58.8 36.5,58.8 36.5,58.8 36.5,58.9 36.5,58.9 36.5,58.9 36.5,58.9 
		36.5,58.9 36.5,58.9 36.5,59 36.5,59 36.5,59 36.6,59 36.6,59 36.6,59.1 36.6,59.1 36.6,59.1 36.6,59.1 36.6,59.2 36.6,59.2 
		36.7,59.2 36.7,59.2 36.7,59.1 36.8,59.1 36.8,59.1 36.9,59.1 36.9,59.1 37,59 37,59 37,59 37.1,59 37.1,59 37.1,59 37.1,59 
		37.1,59 37.1,59 37.1,59 37.1,59.1 37.2,59.1 37.2,59.1 37.2,59.1 37.2,59 37.2,59 37.2,59 37.2,59 37.2,59 37.3,59 37.3,59 
		37.3,59 37.3,59 37.3,59 37.3,59 37.3,59.1 37.3,59.1 37.3,59.1 37.4,59.1 37.4,59.1 37.4,59.1 37.4,59.1 37.4,59.1 37.5,59 
		37.5,59 37.5,59 37.5,59 37.5,59 37.5,58.9 37.5,58.9 37.5,58.9 37.5,58.9 37.5,58.9 37.6,58.9 37.6,58.9 37.6,58.9 37.6,58.9 
		37.6,58.9 37.7,58.9 37.7,59 37.7,59 37.8,59 37.8,59 37.9,59 37.9,59 38,59 38.1,59 38.1,59 38.2,59 38.2,59 38.2,59 38.3,59 
		38.3,59 38.3,59.1 38.3,59.1 38.4,59.1 38.4,59.1 38.4,59.1 38.5,59.1 38.5,59.1 38.6,59.1 38.6,59.1 38.6,59.1 38.6,59.1 
		38.7,59.1 38.7,59.1 38.7,59.1 38.7,59.1 38.7,59.1 38.7,59.1 38.7,59.1 38.7,59 38.7,59 38.8,59 38.8,59 38.9,59 38.9,59 38.9,59 
		39,59 39,59 39,59.1 39,59.1 39,59.1 39.1,59.1 39.1,59 39.1,59 39.1,59 39.1,58.9 39.2,58.9 39.2,58.8 39.2,58.8 39.3,58.8 
		39.3,58.7 39.3,58.7 39.4,58.7 39.4,58.7 39.4,58.7 39.4,58.8 39.5,58.8 39.5,58.8 39.6,58.8 39.6,58.8 39.6,58.8 39.7,58.8 
		39.7,58.7 39.7,58.7 39.7,58.7 39.7,58.6 39.8,58.6 39.8,58.6 39.8,58.6 39.9,58.6 39.9,58.5 39.9,58.5 39.9,58.4 39.9,58.4 
		40,58.3 40,58.3 40,58.3 40,58.3 40.1,58.3 40.1,58.2 40.1,58.2 40.2,58.2 40.2,58.1 40.2,58.1 40.3,58.1 40.3,58.1 40.3,58.1 
		40.3,58.1 40.3,58.1 40.3,58.1 40.3,58.2 40.3,58.2 40.3,58.3 40.3,58.3 40.3,58.3 40.4,58.3 40.4,58.3 40.4,58.3 40.4,58.3 
		40.5,58.3 40.5,58.3 40.6,58.3 40.6,58.3 40.6,58.3 40.6,58.3 40.7,58.3 40.7,58.3 40.8,58.3 40.8,58.4 40.9,58.4 40.9,58.4 
		41,58.4 41,58.4 41,58.4 41,58.4 41,58.5 41,58.6 41,58.6 41,58.7 41,58.7 41.1,58.7 41.1,58.7 41.1,58.7 41.1,58.7 41.1,58.6 
		41.1,58.6 41.1,58.6 41.1,58.5 41.1,58.5 41.1,58.5 41.2,58.5 41.2,58.5 41.2,58.6 41.2,58.6 41.3,58.6 41.3,58.6 41.3,58.7 
		41.3,58.7 41.3,58.7 41.3,58.8 41.3,58.8 41.3,58.8 41.3,58.8 41.4,58.9 41.4,58.9 41.4,58.9 41.5,58.8 41.5,58.8 41.6,58.8 
		41.6,58.8 41.6,58.7 41.7,58.7 41.7,58.7 41.7,58.7 41.7,58.7 41.8,58.7 41.8,58.7 41.8,58.7 41.9,58.7 41.9,58.7 42,58.8 42,58.8 
		42.1,58.8 42.1,58.8 42.2,58.7 42.2,58.7 42.2,58.6 42.2,58.6 42.2,58.5 42.2,58.5 42.3,58.5 42.4,58.5 42.4,58.5 42.5,58.5 
		42.5,58.5 42.5,58.5 42.6,58.5 42.6,58.5 42.6,58.5 42.6,58.5 42.6,58.4 42.5,58.4 42.6,58.3 42.6,58.3 42.6,58.3 42.6,58.3 
		42.7,58.3 42.7,58.3 42.7,58.4 42.7,58.4 42.8,58.4 42.8,58.4 42.9,58.3 42.9,58.3 42.9,58.3 43,58.3 43,58.4 43,58.4 43,58.4 
		43.1,58.5 43.1,58.5 43.1,58.5 43.1,58.5 43.2,58.5 43.2,58.5 43.3,58.6 43.3,58.6 43.3,58.6 43.4,58.6 43.4,58.7 43.5,58.7 
		43.5,58.7 43.6,58.7 43.6,58.7 43.6,58.7 43.6,58.8 43.6,58.8 43.6,58.8 43.6,58.8 43.6,58.9 43.6,58.9 43.7,58.9 43.7,58.9 
		43.7,58.9 43.7,58.9 43.7,58.9 43.7,59 43.7,59 43.7,59 43.7,59 43.7,59.1 43.8,59.1 43.8,59.1 43.9,59.1 43.9,59.1 43.9,59.1 
		43.9,59.1 43.9,59 43.9,59 43.9,58.9 43.9,58.9 43.9,58.9 44,58.9 44,58.9 44,59 44,59 44,59 44.1,59.1 44.1,59.1 44.1,59.1 
		44.2,59 44.2,59 44.2,59 44.2,59.1 44.2,59.1 44.2,59.1 44.3,59.1 44.3,59.2 44.3,59.2 44.3,59.2 44.3,59.2 44.4,59.2 44.4,59.2 
		44.5,59.2 44.6,59.2 44.6,59.2 44.7,59.2 44.7,59.2 44.7,59.2 44.7,59.2 44.7,59.2 44.7,59.3 44.6,59.3 44.6,59.3 44.6,59.3 
		44.5,59.3 44.5,59.3 44.5,59.3 44.5,59.4 44.6,59.4 44.6,59.4 44.7,59.4 44.7,59.4 44.7,59.4 44.8,59.3 44.8,59.3 44.8,59.3 
		44.9,59.3 44.9,59.4 44.9,59.4 44.9,59.4 44.9,59.5 44.9,59.5 44.9,59.6 45,59.6 45,59.6 45,59.6 45,59.6 45.1,59.6 45.1,59.6 
		45.1,59.6 45.1,59.6 45.1,59.6 45.1,59.7 45.1,59.7 45.1,59.7 45.2,59.8 45.2,59.8 45.2,59.8 45.2,59.8 45.3,59.7 45.3,59.7 
		45.3,59.7 45.4,59.7 45.4,59.7 45.4,59.7 45.4,59.7 45.4,59.8 45.4,59.8 45.4,59.9 45.4,59.9 45.4,60 43.4,63.2 43.5,63.1 
		43.5,63.1 43.6,63.2 43.6,63.2 43.6,63.2 43.7,63.3 43.7,63.3 43.7,63.3 43.8,63.3 43.9,63.3 43.9,63.3 43.9,63.3 43.9,63.3 
		44,63.4 44,63.4 44.1,63.4 44.1,63.4 44.2,63.4 44.3,63.3 44.4,63.3 44.4,63.2 44.5,63.2 44.5,63.1 44.8,63.2 44.8,63.2 44.9,63.2 
		45,63.3 45,63.3 45.1,63.4 45.1,63.5 45.1,63.6 45.2,63.7 45.2,63.8 45.3,63.8 45.4,63.9 45.4,63.9 45.5,64 45.5,64.1 45.6,64.1 
		45.6,64.2 45.7,64.2 45.7,64.2 45.7,64.2 45.7,64.3 45.7,64.4 45.8,64.4 45.8,64.4 46.6,60.3 46.6,60.2 47.3,56.2 47.3,56.2 
		47.3,56.1 47.3,56.1 47.3,56.1 47.3,56 47.3,56 47.3,56 47.3,55.9 47.3,55.8 47.4,55.8 47.4,55.8 47.4,55.7 47.4,55.7 47.5,55.7 
		47.5,55.7 47.5,55.6 47.5,55.6 47.5,55.5 47.5,55.4 47.5,55.4 47.4,55.3 47.4,55.3 47.4,55.2 47.4,55.2 47.4,55.1 47.4,55.1 
		47.4,55 47.5,55 47.5,55 47.5,54.9 47.5,54.9 47.5,54.9 47.4,54.8 47.4,54.8 47.4,54.7 47.4,54.7 47.4,54.6 47.4,54.6 47.3,54.6 
		47.3,54.5 47.2,54.4 47.2,54.4 47.1,54.3 47.1,54.3 47.1,54.2 47.1,54.1 46.9,53.9 46.9,53.9 46.8,53.8 46.8,53.8 46.8,53.8 
		46.8,53.7 46.8,53.7 46.8,53.7 46.8,53.6 46.9,53.6 46.9,53.5 46.9,53.5 46.9,53.5 46.9,53.4 46.9,53.4 46.8,53.3 46.8,53.3 
		46.9,53.2 46.9,53.2 46.9,53.2 46.8,53.1 46.8,53 46.8,53 46.8,53 46.7,52.9 46.6,52.9 46.6,52.9 46.5,52.9 46.4,52.8 46.4,52.7 
		46.3,52.7 46.2,52.7 46.2,52.6 46.1,52.6 46.1,52.6 46,52.6 46,52.6 45.9,52.5 45.8,52.5 45.8,52.4 45.8,52.4 45.7,52.3 45.6,52.3 
		45.6,52.2 45.6,52.1 45.6,52.1 45.5,52 45.5,52 45.5,51.9 45.5,49.9 45.6,49.9 45.6,49.8 45.6,49.8 45.7,49.8 45.7,49.8 45.7,49.8 
		45.8,49.8 45.9,49.7 45.9,49.7 46,49.7 46.1,49.7 46.1,49.7 46.2,49.7 46.2,49.7 46.3,49.7 46.4,49.7 46.4,49.6 46.5,49.6 
		46.5,49.5 46.6,49.5 46.7,49.5 46.7,49.6 46.7,49.6 46.8,49.6 46.9,49.5 46.9,49.4 47,49.4 47.1,49.4 47.1,49.3 47.1,49.3 
		47.2,49.3 47.2,49.3 47.3,49.3 47.3,49.3 47.3,49.4 47.4,49.4 47.4,49.5 47.5,49.5 47.5,49.6 47.5,49.6 47.6,49.6 47.6,49.6 
		47.6,49.6 47.6,49.6 47.7,49.6 47.7,49.5 47.8,49.5 47.8,49.6 47.8,49.6 47.8,49.6 47.8,49.7 47.9,49.7 47.9,49.7 48,49.7 48,49.6 
		48,49.6 48,49.5 48.1,49.5 48.1,49.5 48.2,49.5 48.2,49.6 48.3,49.5 48.3,49.5 48.3,49.4 48.2,49.4 48.2,49.3 48.1,49.3 48.1,49.2 
		48.1,49.2 48.2,49.2 48.2,49.2 48.2,49.1 48.2,49.1 48.1,49 48.1,48.9 48.2,48.9 48.2,48.9 48.2,48.9 48.2,48.8 48.2,48.8 
		48.2,48.8 48.1,48.8 48.1,48.7 48.1,48.7 48.1,48.7 48.1,48.7 48.1,48.6 48.1,48.6 48.1,48.6 48,48.6 48,48.5 48,48.5 48,48.4 
		48,48.4 48,48.3 47.9,48.3 47.9,48.3 47.8,48.3 47.7,48.2 47.7,48.2 47.6,48.2 47.5,48.2 47.5,48.2 47.5,48.2 47.4,48.3 47.4,48.3 
		47.4,48.3 47.3,48.2 47.3,48.2 47.2,48.2 47.1,48.2 47,48.2 47,48.2 46.9,48.2 46.9,48.2 46.8,48.1 46.7,48.2 46.7,48.2 46.5,48.2 
		46.5,48.2 46.5,48.1 46.5,48.1 46.4,48.1 46.4,48.1 46.3,48.1 46.3,48.1 46.2,48.2 46.2,48.2 46.2,48.2 46.2,48.3 46.2,48.2 
		46.1,48.2 46.1,46.3 46.2,46.3 46.2,46.3 46.3,46.3 46.3,46.3 46.4,46.2 46.4,46.2 46.5,46.2 46.5,46.2 46.6,46.2 46.6,46.2 
		46.7,46.2 46.7,46.2 46.8,46.2 47,46.1 47,46.1 47.1,46.1 47.1,46.1 47.2,46.1 47.2,46.2 47.3,46.2 47.3,46.2 47.4,46.2 47.4,46.2 
		47.5,46.2 47.5,46.2 47.5,46.2 51.3,46.3 51.2,46.2 51.2,46.2 51.2,46.2 51.2,46.2 51.2,46.2 51.2,46.1 51.1,46.1 51,46.1 51,46.1 
		51,46.1 51,46.1 51,46 51,46 51,45.9 51,45.9 50.9,45.9 50.9,45.9 51,45.8 51,45.8 51,45.7 51,45.6 51.1,45.5 51.1,45.5 51.1,45.5 
		51.1,45.5 51.2,45.5 51.2,45.5 51.3,45.5 51.3,45.6 51.4,45.6 51.5,45.6 51.5,45.7 51.6,45.8 51.8,46 51.8,46.1 51.9,46.1 52,46.2 
		52.1,46.2 52.1,46.2 52.2,46.1 52.2,46.1 52.1,46 52.1,45.9 52.2,45.8 52.2,45.8 52.3,45.7 52.4,45.7 52.4,45.6 52.5,45.6 
		52.6,45.6 52.7,45.6 52.9,45.5 53,45.4 53.1,45.2 53.2,45.2 53.3,45 53.4,45 53.4,44.9 53.5,44.9 53.5,44.9 53.6,44.9 53.7,44.9 
		53.8,45 53.8,45 53.8,45.1 53.8,45.2 53.8,45.3 53.8,45.4 53.8,45.5 53.8,45.5 53.8,45.7 53.9,45.8 53.9,45.9 54,45.9 54,46 
		54.1,46.1 54.2,46.1 54.2,46.2 54.3,46.3 54.4,46.4 54.4,46.5 54.4,46.6 54.5,46.8 54.5,46.9 54.6,47 54.6,47.1 54.6,47.2 
		54.6,47.3 54.6,47.4 54.6,47.5 54.6,47.7 54.6,47.8 54.6,47.9 54.6,48 54.7,48 55.3,47.9 55.3,47.8 	"/>
	<path class="st1" d="M20.9,15.6c-0.1,0.2,0,1.2-0.3,1.2c-0.4,0.1-0.8,0.8-0.5,1.2c0.3,0.3,0.1,0.4,0.1,0.6c0,0.5,1,0.7,0,0.8
		c-0.6,0.1-0.4,3.6,0.7,1.9c0.3-0.4,0.2-1.7,0.4-1.8c0.5-0.1,0.4-0.3,0.4-0.9c0-0.8,0.6-1.1,0.6-2C22.4,15.5,21.9,15.6,20.9,15.6
		 M23.7,16.7c-0.2,0.2-0.1,0.4-0.2,0.6c-0.1,0.1-0.3,0.2-0.3,0.3c-0.1,0.4,0,1,0.5,1c0.2,0,0.5-0.3,0.6-0.4c0.3-0.3,0.3-0.1,0.3-0.6
		c0-0.3,0.1-0.8-0.1-1c0,0-0.1-0.1-0.1-0.2C24.1,16.4,23.7,16.5,23.7,16.7"/>
	<path class="st2" d="M35.7,40.7c3.7-5.9,6.8-9,12-13.3c1.3-1.6,3.8-2,3-0.3c-2.5,2.9-5.9,6-9,10.1c-2.6,3.5-4.9,8-7.6,9.6
		c-0.3-3.4-2.4-5.3-4.5-7.9c-1.2-1.5,2.9-2.6,3.5-2.5C34.2,36.6,35.4,41.2,35.7,40.7"/>
	<path class="st3" d="M32.8,42.7c3.7-5.9,6.8-9,12-13.3c1.3-1.6,3.8-2,3-0.3c-2.5,2.9-5.5,6.3-8.6,10.4c-2.6,3.5-4.9,7.7-7.6,9.3
		c-0.3-3.4-2.4-5.3-4.5-7.9c-1.2-1.5,2.9-2.6,3.5-2.5C31.6,38.6,32.4,43.3,32.8,42.7"/>
	<path class="st4" d="M31.3,44.1c3.7-5.9,6.8-9,12-13.3c1.3-1.6,3.8-2,3-0.3c-2.5,2.9-5.5,6.3-8.6,10.4c-2.6,3.5-5.3,7.7-8,9.3
		c-0.3-3.4-2.4-5.3-4.5-7.9c-1.2-1.5,2.9-2.6,3.5-2.5C29.8,40,31,44.7,31.3,44.1"/>
	<g>
		<path class="st1" d="M8.3,52.2l-0.5,0.3l-0.7-1.2l1.1-0.6c0.2,0.1,0.4,0.2,0.6,0.3c0.2,0.2,0.4,0.4,0.5,0.6
			c0.2,0.3,0.2,0.6,0.2,0.8c0,0.3-0.1,0.5-0.2,0.8c-0.2,0.2-0.4,0.4-0.6,0.6C8.4,53.9,8.1,54,7.8,54c-0.3,0-0.6-0.1-0.8-0.2
			c-0.2-0.1-0.4-0.3-0.5-0.6c-0.2-0.3-0.3-0.6-0.2-0.9c0-0.3,0.2-0.5,0.4-0.7l0.4,0.5c-0.1,0.1-0.2,0.2-0.2,0.4c0,0.1,0,0.3,0.1,0.5
			c0.1,0.2,0.3,0.4,0.5,0.4c0.2,0.1,0.5,0,0.8-0.2C8.7,53,8.9,52.8,9,52.6C9,52.3,9,52.1,8.9,51.9c-0.1-0.1-0.2-0.2-0.3-0.3
			c-0.1-0.1-0.2-0.2-0.3-0.2l-0.3,0.2L8.3,52.2z M8.3,50l-2.9,1.3l-0.9-2.1L5,48.9l0.7,1.5l0.6-0.3l-0.6-1.4l0.5-0.2l0.6,1.4
			l0.8-0.3L6.9,48l0.5-0.2L8.3,50z M6.2,47.7L6,47.2c0.2-0.1,0.3-0.2,0.4-0.4c0.1-0.1,0.1-0.3,0-0.5c-0.1-0.2-0.2-0.3-0.3-0.4
			c-0.1-0.1-0.2-0.1-0.3-0.1c-0.1,0-0.1,0.1-0.2,0.1c0,0.1-0.1,0.1-0.1,0.3c0,0.1,0,0.3,0,0.5c0,0.3,0,0.6-0.1,0.8
			C5.4,47.8,5.2,48,5,48c-0.2,0-0.3,0.1-0.5,0c-0.2,0-0.3-0.1-0.4-0.3c-0.1-0.1-0.2-0.3-0.3-0.6c-0.1-0.4-0.1-0.7,0-0.9
			c0.1-0.2,0.3-0.4,0.6-0.5l0.2,0.6c-0.1,0.1-0.2,0.2-0.3,0.3c0,0.1,0,0.2,0,0.4c0.1,0.2,0.1,0.3,0.2,0.4c0.1,0,0.1,0.1,0.2,0
			c0.1,0,0.1-0.1,0.2-0.1c0-0.1,0-0.3,0-0.6c0-0.3,0-0.6,0-0.7c0-0.2,0.1-0.3,0.2-0.4c0.1-0.1,0.2-0.2,0.4-0.3
			c0.2-0.1,0.3-0.1,0.5,0c0.2,0,0.3,0.1,0.5,0.3c0.1,0.1,0.2,0.4,0.3,0.6c0.1,0.4,0.1,0.7,0,1C6.8,47.4,6.6,47.6,6.2,47.7 M6.1,43.8
			l-2.5,0.6l0.2,0.9l-0.5,0.1L2.7,43l0.5-0.1l0.2,0.9L6,43.2L6.1,43.8z M5.7,41.9l-3.1,0.5l-0.1-0.6l3.1-0.5L5.7,41.9z M3.9,41
			c-0.3,0-0.6,0-0.8,0c-0.2-0.1-0.3-0.1-0.5-0.2c-0.1-0.1-0.2-0.2-0.3-0.4c-0.1-0.2-0.2-0.4-0.2-0.7c-0.1-0.5,0-0.8,0.3-1.1
			C2.7,38.3,3,38.1,3.5,38c0.5-0.1,0.9,0,1.2,0.3c0.3,0.2,0.5,0.6,0.6,1c0.1,0.5,0,0.8-0.3,1.2C4.8,40.8,4.4,41,3.9,41 M3.8,40.4
			c0.4,0,0.6-0.2,0.8-0.3c0.2-0.2,0.2-0.4,0.2-0.7c0-0.2-0.1-0.4-0.3-0.6c-0.2-0.1-0.5-0.2-0.8-0.1c-0.4,0-0.6,0.2-0.8,0.3
			c-0.2,0.2-0.2,0.4-0.2,0.7c0,0.3,0.1,0.5,0.3,0.6C3.2,40.4,3.5,40.4,3.8,40.4 M2,40.1l-0.7-0.2l-0.1-0.7L2,39.7L2,40.1z M5.1,37.3
			l-3.1-0.1l0-0.6l2.1-1.2L2,35.3l0-0.6l3.1,0.1l0,0.6L3,36.7l2,0.1L5.1,37.3z M2.2,32.6l0.2-1.1c0-0.3,0.1-0.5,0.1-0.6
			c0.1-0.2,0.2-0.3,0.4-0.4c0.2-0.1,0.3-0.2,0.5-0.2c0.2,0,0.5,0,0.7,0c0.3,0,0.5,0.1,0.6,0.2c0.2,0.1,0.4,0.2,0.5,0.4
			c0.1,0.1,0.2,0.3,0.2,0.5c0,0.1,0,0.3,0,0.6L5.3,33L2.2,32.6z M2.8,32l2,0.3l0.1-0.5c0-0.2,0-0.3,0-0.4c0-0.1,0-0.2-0.1-0.3
			C4.8,31.1,4.7,31,4.5,31c-0.1-0.1-0.3-0.1-0.6-0.1c-0.2,0-0.4,0-0.6,0c-0.1,0-0.2,0.1-0.3,0.1C3,31,3,31.1,2.9,31.2
			c0,0.1-0.1,0.3-0.1,0.5L2.8,32z M5.7,29.8l-3-0.7l0.5-2.3L3.7,27l-0.4,1.6L4,28.8l0.4-1.5l0.5,0.1l-0.4,1.5l0.8,0.2l0.4-1.7
			l0.5,0.1L5.7,29.8z M6.8,25.9l-2.9-1.2l0.2-0.6l2.4,1l0.6-1.5l0.5,0.2L6.8,25.9z M9.1,20.9l-0.3,0.6L8,21.4l-0.6,1.1l0.5,0.6
			l-0.3,0.6l-2.2-2.5l0.3-0.6L9.1,20.9z M7.4,21.3l-1.2-0.2L7,22.1L7.4,21.3z M10,17.4l0.5-0.4c0.2,0.3,0.3,0.6,0.3,0.8
			c0,0.3-0.1,0.5-0.3,0.8c-0.2,0.3-0.6,0.5-0.9,0.6c-0.4,0-0.8-0.1-1.2-0.4c-0.4-0.3-0.7-0.7-0.7-1c-0.1-0.4,0-0.8,0.3-1.1
			c0.2-0.3,0.5-0.5,0.8-0.6c0.2,0,0.4,0,0.7,0.1l-0.2,0.6c-0.2-0.1-0.3-0.1-0.4,0c-0.1,0-0.3,0.1-0.4,0.3c-0.1,0.2-0.2,0.4-0.1,0.6
			c0.1,0.2,0.2,0.4,0.5,0.7c0.3,0.2,0.6,0.3,0.8,0.3c0.2,0,0.4-0.1,0.5-0.3c0.1-0.1,0.1-0.3,0.1-0.4C10.3,17.7,10.2,17.6,10,17.4
			 M13.4,14.9L13,15.5l-0.7-0.3l-0.8,0.9l0.4,0.7l-0.4,0.5l-1.6-3l0.4-0.5L13.4,14.9z M11.8,15l-1.2-0.4l0.6,1.1L11.8,15z
			 M13.7,14.7l-2.1-2.3L12,12l1.8,1.9l1.1-1.1l0.4,0.4L13.7,14.7z M15.6,12.9l-2-2.4l0.5-0.4l2,2.4L15.6,12.9z M14.6,9.6l0.9-0.7
			c0.2-0.2,0.4-0.3,0.5-0.3c0.2-0.1,0.4-0.1,0.5-0.1c0.2,0,0.4,0.1,0.5,0.2c0.2,0.1,0.4,0.3,0.5,0.5c0.2,0.2,0.3,0.4,0.3,0.6
			c0.1,0.2,0.1,0.4,0.1,0.6c0,0.2-0.1,0.3-0.2,0.5c-0.1,0.1-0.2,0.3-0.4,0.4l-0.9,0.7L14.6,9.6z M15.4,9.7l1.3,1.6l0.4-0.3
			c0.1-0.1,0.2-0.2,0.3-0.3c0.1-0.1,0.1-0.2,0.1-0.3c0-0.1,0-0.2-0.1-0.3c-0.1-0.1-0.2-0.3-0.3-0.5c-0.1-0.2-0.3-0.3-0.4-0.4
			c-0.1-0.1-0.2-0.1-0.3-0.1c-0.1,0-0.2,0-0.3,0.1c-0.1,0-0.2,0.1-0.4,0.3L15.4,9.7z M21.5,8.8l-0.6,0.3l-0.6-0.5l-1.1,0.6l0.1,0.7
			l-0.6,0.3L18.3,7l0.6-0.3L21.5,8.8z M19.9,8.3l-0.9-0.8l0.2,1.2L19.9,8.3z M20.5,5.7l1.1-0.5c0.2-0.1,0.4-0.2,0.6-0.2
			c0.2,0,0.4,0,0.5,0.1c0.2,0.1,0.3,0.2,0.5,0.3c0.1,0.2,0.3,0.4,0.4,0.6c0.1,0.2,0.2,0.4,0.2,0.6c0,0.2,0,0.5-0.1,0.6
			c-0.1,0.1-0.2,0.3-0.3,0.4C23.2,7.9,23,8,22.8,8.1l-1.1,0.5L20.5,5.7z M21.3,6l0.8,1.9l0.4-0.2c0.2-0.1,0.3-0.1,0.3-0.2
			C23,7.4,23,7.3,23.1,7.2c0-0.1,0-0.2,0-0.3c0-0.1-0.1-0.3-0.2-0.5c-0.1-0.2-0.2-0.4-0.3-0.5c-0.1-0.1-0.2-0.2-0.3-0.2
			c-0.1,0-0.2,0-0.3,0c-0.1,0-0.3,0.1-0.5,0.2L21.3,6z M25.7,6.8l-0.8-3l0.6-0.2l1.8,1.7l-0.5-2l0.6-0.2l0.8,3l-0.6,0.2l-1.7-1.6
			l0.5,2L25.7,6.8z M29.5,5.8L29,3.3L28,3.5L27.9,3l2.4-0.5L30.5,3l-0.9,0.2l0.5,2.5L29.5,5.8z M33.3,4.1l0.6,0.1
			c-0.1,0.4-0.2,0.6-0.4,0.8c-0.2,0.2-0.5,0.3-0.8,0.3c-0.4,0.1-0.8,0-1.1-0.3c-0.3-0.2-0.5-0.6-0.5-1.1c-0.1-0.5,0-0.9,0.3-1.3
			c0.2-0.3,0.6-0.5,1-0.6c0.4,0,0.7,0,1,0.2c0.2,0.1,0.3,0.3,0.4,0.5l-0.6,0.2C33.1,3,33,2.9,32.9,2.8c-0.1-0.1-0.3-0.1-0.4-0.1
			c-0.2,0-0.4,0.1-0.5,0.3c-0.1,0.2-0.2,0.5-0.1,0.8c0,0.4,0.2,0.7,0.3,0.8c0.2,0.1,0.4,0.2,0.6,0.2c0.2,0,0.3-0.1,0.4-0.2
			C33.2,4.5,33.3,4.3,33.3,4.1 M36,4l0-0.5l1.4,0l0,1.2C37.2,4.8,37,4.9,36.8,5c-0.2,0.1-0.5,0.2-0.8,0.2c-0.3,0-0.6-0.1-0.9-0.2
			c-0.2-0.1-0.4-0.3-0.6-0.6c-0.1-0.3-0.2-0.5-0.2-0.8c0-0.3,0.1-0.6,0.2-0.9c0.1-0.3,0.3-0.5,0.6-0.6C35.4,2,35.6,2,35.9,2
			c0.4,0,0.7,0.1,0.9,0.2c0.2,0.2,0.4,0.4,0.4,0.7L36.7,3c0-0.2-0.1-0.3-0.3-0.4c-0.1-0.1-0.3-0.1-0.5-0.1c-0.3,0-0.5,0.1-0.7,0.3
			c-0.2,0.2-0.2,0.4-0.2,0.8c0,0.4,0.1,0.6,0.3,0.8c0.2,0.2,0.4,0.3,0.7,0.3c0.1,0,0.3,0,0.4-0.1c0.1-0.1,0.2-0.1,0.3-0.2l0-0.4
			L36,4z M37.9,5.2l0.2-3.1l1,0.1c0.4,0,0.6,0.1,0.7,0.1c0.2,0.1,0.3,0.2,0.4,0.3c0.1,0.2,0.2,0.4,0.1,0.6c0,0.2-0.1,0.3-0.1,0.5
			c-0.1,0.1-0.2,0.2-0.3,0.3C40,4,39.8,4.1,39.7,4.1c-0.2,0-0.4,0-0.7,0l-0.4,0l-0.1,1.2L37.9,5.2z M38.8,2.7l-0.1,0.9l0.3,0
			c0.2,0,0.4,0,0.5,0c0.1,0,0.2-0.1,0.2-0.1c0.1-0.1,0.1-0.1,0.1-0.2c0-0.1,0-0.2-0.1-0.3c-0.1-0.1-0.1-0.1-0.2-0.2
			c-0.1,0-0.2,0-0.5-0.1L38.8,2.7z M43.3,6l-0.6-0.1l0.5-2.2c-0.3,0.2-0.5,0.2-0.9,0.3l0.1-0.5c0.2,0,0.3-0.1,0.6-0.2
			c0.2-0.1,0.4-0.2,0.5-0.4L44,2.9L43.3,6z M46,3.5c0.3,0.1,0.5,0.2,0.6,0.5c0.1,0.3,0.1,0.7,0,1.3c-0.2,0.6-0.4,1-0.6,1.2
			c-0.2,0.2-0.5,0.2-0.8,0.1c-0.3-0.1-0.5-0.3-0.6-0.5c-0.1-0.3-0.1-0.7,0.1-1.3c0.2-0.6,0.4-1,0.6-1.1C45.4,3.4,45.7,3.4,46,3.5
			 M45.9,3.9c-0.1,0-0.1,0-0.2,0c-0.1,0-0.1,0.1-0.2,0.2c-0.1,0.1-0.2,0.4-0.3,0.7c-0.1,0.4-0.1,0.6-0.1,0.7c0,0.1,0,0.2,0.1,0.3
			c0,0.1,0.1,0.1,0.2,0.1c0.1,0,0.1,0,0.2,0c0.1,0,0.1-0.1,0.2-0.2c0.1-0.1,0.2-0.4,0.3-0.7c0.1-0.4,0.1-0.6,0.1-0.7
			c0-0.1,0-0.2-0.1-0.3C46,4,45.9,4,45.9,3.9 M48.6,4.4c0.3,0.1,0.5,0.3,0.5,0.6c0.1,0.3,0,0.7-0.2,1.3c-0.2,0.6-0.5,0.9-0.7,1.1
			c-0.2,0.1-0.5,0.2-0.8,0c-0.3-0.1-0.5-0.3-0.6-0.6c-0.1-0.3,0-0.7,0.2-1.3c0.2-0.5,0.5-0.9,0.7-1.1C48.1,4.3,48.3,4.3,48.6,4.4
			 M48.4,4.8c-0.1,0-0.1,0-0.2,0c-0.1,0-0.1,0.1-0.2,0.2c-0.1,0.1-0.2,0.4-0.3,0.7c-0.1,0.3-0.2,0.6-0.2,0.7c0,0.1,0,0.2,0,0.3
			c0,0.1,0.1,0.1,0.2,0.1c0.1,0,0.1,0,0.2,0c0.1,0,0.1-0.1,0.2-0.2c0.1-0.1,0.2-0.4,0.3-0.7c0.1-0.3,0.2-0.6,0.2-0.7
			c0-0.1,0-0.2,0-0.3C48.5,4.9,48.5,4.9,48.4,4.8 M51.1,5.5c0.3,0.1,0.4,0.3,0.5,0.6c0.1,0.3,0,0.7-0.3,1.3c-0.3,0.5-0.6,0.9-0.9,1
			c-0.2,0.1-0.5,0.1-0.8,0c-0.3-0.1-0.4-0.4-0.5-0.6c-0.1-0.3,0-0.7,0.3-1.2c0.3-0.5,0.6-0.9,0.9-1C50.6,5.4,50.8,5.4,51.1,5.5
			 M50.9,5.9c-0.1,0-0.1,0-0.2,0c-0.1,0-0.1,0.1-0.2,0.2c-0.1,0.1-0.2,0.3-0.4,0.7c-0.2,0.3-0.3,0.6-0.3,0.7c0,0.1,0,0.2,0,0.3
			c0,0.1,0.1,0.1,0.1,0.1c0.1,0,0.1,0,0.2,0c0.1,0,0.1-0.1,0.2-0.2c0.1-0.1,0.2-0.3,0.4-0.7C50.9,6.8,51,6.5,51,6.4
			c0-0.1,0-0.2,0-0.3C51,6,50.9,6,50.9,5.9 M52,7.6l0.3-0.5l0.5,0.3l-0.3,0.5L52,7.6z M51.2,9.1l0.3-0.5L52,8.8l-0.3,0.5L51.2,9.1z
			 M54.2,10.3l-0.3,0.5l-1.8-1.1c0.1-0.2,0.3-0.3,0.5-0.4c0.2-0.1,0.5-0.2,1-0.3c0.4-0.1,0.6-0.1,0.7-0.2c0.1-0.1,0.2-0.1,0.3-0.2
			c0.1-0.1,0.1-0.2,0.1-0.3c0-0.1-0.1-0.2-0.2-0.2c-0.1-0.1-0.2-0.1-0.3-0.1c-0.1,0-0.2,0.1-0.3,0.2l-0.5-0.4
			c0.2-0.3,0.4-0.4,0.7-0.4c0.2,0,0.5,0,0.7,0.2c0.3,0.2,0.4,0.4,0.5,0.6c0.1,0.2,0,0.5-0.1,0.7C55,9,54.9,9.1,54.8,9.1
			c-0.1,0.1-0.2,0.2-0.4,0.2c-0.1,0-0.3,0.1-0.5,0.1c-0.3,0-0.4,0.1-0.5,0.1c-0.1,0-0.1,0-0.2,0.1L54.2,10.3z M57,9.2
			c0.2,0.2,0.4,0.4,0.4,0.7c0,0.3-0.2,0.7-0.5,1.2c-0.4,0.5-0.7,0.7-1,0.8c-0.3,0.1-0.5,0-0.8-0.2c-0.2-0.2-0.4-0.4-0.4-0.7
			c0-0.3,0.2-0.7,0.5-1.2c0.4-0.5,0.7-0.7,1-0.8C56.5,8.9,56.7,9,57,9.2 M56.7,9.6c-0.1,0-0.1-0.1-0.2-0.1c-0.1,0-0.2,0-0.3,0.1
			c-0.1,0.1-0.3,0.3-0.5,0.6c-0.2,0.3-0.4,0.5-0.4,0.6c-0.1,0.1-0.1,0.2-0.1,0.3c0,0.1,0.1,0.1,0.1,0.2c0.1,0,0.1,0.1,0.2,0.1
			c0.1,0,0.2,0,0.3-0.1c0.1-0.1,0.3-0.3,0.5-0.6c0.2-0.3,0.4-0.5,0.4-0.6c0.1-0.1,0.1-0.2,0.1-0.3C56.8,9.7,56.7,9.6,56.7,9.6
			 M59,10.9c0.2,0.2,0.3,0.4,0.3,0.7c0,0.3-0.2,0.7-0.6,1.1c-0.4,0.4-0.8,0.7-1.1,0.7c-0.3,0-0.5,0-0.7-0.2
			c-0.2-0.2-0.3-0.5-0.3-0.8c0-0.3,0.2-0.7,0.6-1.1c0.4-0.4,0.8-0.7,1.1-0.7C58.6,10.6,58.8,10.7,59,10.9 M58.7,11.3
			c-0.1,0-0.1-0.1-0.2-0.1c-0.1,0-0.2,0-0.3,0.1c-0.1,0.1-0.3,0.3-0.6,0.5c-0.2,0.3-0.4,0.5-0.5,0.6c-0.1,0.1-0.1,0.2-0.1,0.3
			c0,0.1,0,0.1,0.1,0.2c0.1,0,0.1,0.1,0.2,0.1c0.1,0,0.2,0,0.3-0.1c0.1-0.1,0.3-0.3,0.6-0.5c0.3-0.3,0.4-0.5,0.5-0.6
			c0.1-0.1,0.1-0.2,0.1-0.3C58.8,11.4,58.7,11.3,58.7,11.3 M61.2,16.2l0.4,0.5c-0.1,0.2-0.2,0.3-0.2,0.4c0,0.1,0,0.3,0.2,0.5
			c0.1,0.2,0.2,0.3,0.4,0.3c0.1,0,0.2,0,0.3,0c0.1,0,0.1-0.1,0.1-0.2c0-0.1,0-0.2,0-0.3c0-0.1-0.1-0.2-0.2-0.5
			c-0.1-0.3-0.2-0.6-0.2-0.8c0-0.3,0.1-0.5,0.3-0.6c0.1-0.1,0.3-0.1,0.4-0.2c0.2,0,0.3,0,0.5,0.1c0.2,0.1,0.3,0.2,0.4,0.4
			c0.2,0.3,0.3,0.6,0.3,0.9c0,0.3-0.1,0.5-0.4,0.7L63.2,17c0.1-0.1,0.2-0.2,0.2-0.3c0-0.1,0-0.2-0.1-0.4C63.1,16.1,63,16,62.9,16
			c-0.1,0-0.2,0-0.2,0c-0.1,0-0.1,0.1-0.1,0.2c0,0.1,0,0.3,0.2,0.6c0.1,0.3,0.2,0.5,0.2,0.7c0,0.2,0,0.3-0.1,0.5
			c-0.1,0.1-0.2,0.3-0.3,0.4c-0.1,0.1-0.3,0.2-0.5,0.2c-0.2,0-0.4,0-0.5-0.1c-0.2-0.1-0.3-0.3-0.5-0.5c-0.2-0.3-0.3-0.6-0.3-0.9
			C60.8,16.7,60.9,16.5,61.2,16.2 M62.1,19.3l2.7-1.6l1.2,2L65.5,20l-0.8-1.5l-0.6,0.3l0.8,1.4l-0.5,0.3l-0.8-1.4l-0.7,0.4l0.9,1.5
			l-0.5,0.3L62.1,19.3z M65.5,23.2l0.1,0.6c-0.3,0.1-0.6,0-0.9-0.1c-0.2-0.1-0.4-0.3-0.6-0.6c-0.2-0.4-0.2-0.7,0-1.1
			c0.1-0.4,0.4-0.6,0.9-0.9c0.5-0.2,0.9-0.3,1.3-0.1c0.4,0.1,0.7,0.4,0.8,0.8c0.2,0.3,0.2,0.7,0.1,1c-0.1,0.2-0.2,0.4-0.4,0.5
			l-0.4-0.5c0.1-0.1,0.2-0.2,0.3-0.4c0-0.1,0-0.3-0.1-0.4c-0.1-0.2-0.3-0.3-0.5-0.4c-0.2-0.1-0.5,0-0.8,0.1
			c-0.4,0.2-0.6,0.4-0.7,0.5c-0.1,0.2-0.1,0.4,0,0.6c0.1,0.2,0.2,0.3,0.3,0.3C65.1,23.2,65.2,23.2,65.5,23.2 M65.1,25.4l2.5-0.8
			l-0.3-0.9l0.5-0.2l0.8,2.4L68.1,26l-0.3-0.9L65.3,26L65.1,25.4z M67.3,26.7c0.3-0.1,0.6-0.1,0.8,0c0.2,0,0.3,0.1,0.5,0.2
			c0.2,0.1,0.3,0.2,0.4,0.3c0.1,0.2,0.2,0.4,0.3,0.6c0.1,0.4,0,0.8-0.2,1.2c-0.2,0.3-0.6,0.6-1.1,0.7c-0.5,0.1-0.9,0.1-1.2-0.1
			c-0.3-0.2-0.6-0.5-0.7-1c-0.1-0.5-0.1-0.8,0.2-1.2C66.5,27,66.8,26.8,67.3,26.7 M67.5,27.3c-0.3,0.1-0.6,0.2-0.7,0.4
			c-0.1,0.2-0.2,0.4-0.1,0.7c0.1,0.2,0.2,0.4,0.4,0.5c0.2,0.1,0.5,0.1,0.8,0.1c0.3-0.1,0.6-0.2,0.7-0.4c0.1-0.2,0.2-0.4,0.1-0.7
			c-0.1-0.3-0.2-0.4-0.4-0.6C68.1,27.2,67.8,27.2,67.5,27.3 M66.6,30.5l3.1-0.4l0.2,1.3c0,0.3,0.1,0.6,0,0.7c0,0.2-0.1,0.3-0.2,0.4
			c-0.1,0.1-0.3,0.2-0.5,0.2c-0.2,0-0.4,0-0.6-0.1c-0.2-0.1-0.3-0.3-0.4-0.6c-0.1,0.1-0.1,0.3-0.2,0.4c-0.1,0.1-0.2,0.2-0.5,0.4
			L67,33.3l-0.1-0.7l0.6-0.5c0.2-0.2,0.4-0.3,0.4-0.4c0.1-0.1,0.1-0.1,0.1-0.2c0-0.1,0-0.2,0-0.3l0-0.1l-1.3,0.2L66.6,30.5z
			 M68.4,30.8l0.1,0.5c0,0.3,0.1,0.5,0.1,0.6c0,0.1,0.1,0.1,0.2,0.2c0.1,0,0.1,0,0.2,0c0.1,0,0.2-0.1,0.2-0.1
			c0.1-0.1,0.1-0.1,0.1-0.3c0-0.1,0-0.2-0.1-0.5l-0.1-0.5L68.4,30.8z M67,34.8l3.1-0.1l0,1c0,0.4,0,0.6,0,0.8c0,0.2-0.1,0.3-0.3,0.5
			c-0.2,0.1-0.4,0.2-0.6,0.2c-0.2,0-0.4,0-0.5-0.1c-0.1-0.1-0.2-0.2-0.3-0.3c-0.1-0.1-0.1-0.2-0.2-0.3c0-0.1-0.1-0.4-0.1-0.7l0-0.4
			l-1.2,0L67,34.8z M69.6,35.3l-0.9,0l0,0.3c0,0.2,0,0.4,0.1,0.5c0,0.1,0.1,0.1,0.2,0.2c0.1,0,0.2,0.1,0.2,0.1c0.1,0,0.2,0,0.3-0.1
			c0.1-0.1,0.1-0.2,0.1-0.3c0-0.1,0-0.2,0-0.5L69.6,35.3z M70.1,37.9l0,0.6l-1.7-0.1c-0.3,0-0.4,0-0.5,0c-0.1,0-0.2,0.1-0.3,0.2
			c-0.1,0.1-0.1,0.2-0.1,0.4c0,0.2,0,0.3,0.1,0.4c0.1,0.1,0.2,0.2,0.3,0.2c0.1,0,0.3,0,0.5,0.1l1.7,0.1l0,0.6l-1.6-0.1
			c-0.4,0-0.6-0.1-0.8-0.1c-0.2,0-0.3-0.1-0.4-0.2c-0.1-0.1-0.2-0.2-0.2-0.4c-0.1-0.2-0.1-0.4-0.1-0.6c0-0.3,0.1-0.5,0.2-0.7
			c0.1-0.1,0.2-0.3,0.3-0.3c0.1-0.1,0.2-0.1,0.4-0.2c0.2,0,0.4,0,0.8,0L70.1,37.9z M70.2,38.8l0.6,0.3l0,0.7l-0.6-0.6L70.2,38.8z
			 M69.8,41.4l-0.2,1.2c0,0.2-0.1,0.4-0.1,0.5c0,0.1-0.1,0.2-0.2,0.3c-0.1,0.1-0.2,0.1-0.3,0.2c-0.1,0-0.2,0.1-0.4,0
			c-0.1,0-0.3-0.1-0.4-0.2c-0.1-0.1-0.2-0.2-0.2-0.4c-0.1,0.2-0.2,0.3-0.4,0.4c-0.1,0.1-0.3,0.1-0.5,0.1c-0.1,0-0.3-0.1-0.4-0.2
			c-0.1-0.1-0.2-0.2-0.3-0.3c-0.1-0.1-0.1-0.3-0.1-0.4c0-0.1,0-0.4,0.1-0.8l0.2-1L69.8,41.4z M69.1,41.9l-0.7-0.1l-0.1,0.4
			c0,0.2-0.1,0.4-0.1,0.5c0,0.1,0,0.2,0.1,0.3c0,0.1,0.1,0.1,0.2,0.1c0.1,0,0.2,0,0.2,0c0.1,0,0.1-0.1,0.1-0.2
			c0-0.1,0.1-0.2,0.1-0.5L69.1,41.9z M67.9,41.7l-0.8-0.1L67,42.2c0,0.2-0.1,0.4-0.1,0.4c0,0.1,0,0.2,0.1,0.2
			c0.1,0.1,0.1,0.1,0.2,0.1c0.1,0,0.2,0,0.2,0c0.1,0,0.1-0.1,0.2-0.2c0-0.1,0.1-0.3,0.1-0.5L67.9,41.7z M66,44l3,0.8l-0.2,0.6
			l-2.5-0.7l-0.4,1.5l-0.5-0.1L66,44z M65.3,46.5l2.9,1.1L68,48.2l-2.9-1.1L65.3,46.5z M65.1,49.9l-0.4,0.5
			c-0.3-0.2-0.4-0.5-0.5-0.7c-0.1-0.3,0-0.6,0.1-0.9c0.2-0.4,0.4-0.6,0.8-0.8c0.4-0.1,0.8-0.1,1.2,0.1c0.5,0.2,0.8,0.5,0.9,0.9
			c0.2,0.4,0.1,0.7,0,1.1c-0.2,0.3-0.4,0.6-0.7,0.7C66.3,51,66.1,51,65.8,51l0.1-0.6c0.2,0,0.3,0,0.4-0.1c0.1-0.1,0.2-0.2,0.3-0.3
			c0.1-0.2,0.1-0.4,0-0.6c-0.1-0.2-0.3-0.4-0.6-0.5c-0.4-0.2-0.6-0.2-0.9-0.1c-0.2,0.1-0.4,0.2-0.5,0.4c-0.1,0.2-0.1,0.3,0,0.5
			C64.7,49.7,64.9,49.8,65.1,49.9 M64.9,51.1c0.3,0.2,0.5,0.3,0.6,0.5c0.1,0.1,0.2,0.3,0.2,0.5c0,0.2,0.1,0.3,0,0.5
			c0,0.2-0.1,0.4-0.2,0.7c-0.2,0.4-0.5,0.7-0.9,0.8c-0.4,0.1-0.8,0-1.2-0.2c-0.4-0.2-0.7-0.6-0.8-0.9c-0.1-0.4-0.1-0.8,0.2-1.2
			c0.2-0.4,0.5-0.7,0.9-0.8C64.1,50.8,64.5,50.9,64.9,51.1 M64.6,51.7c-0.3-0.2-0.6-0.2-0.8-0.2c-0.2,0.1-0.4,0.2-0.5,0.4
			c-0.1,0.2-0.1,0.4-0.1,0.7c0.1,0.2,0.3,0.4,0.6,0.6c0.3,0.2,0.6,0.2,0.8,0.2c0.2-0.1,0.4-0.2,0.5-0.4c0.1-0.2,0.1-0.5,0.1-0.7
			C65.1,52.1,64.9,51.9,64.6,51.7"/>
		<g>
			<path class="st1" d="M58.5,13.7l0.4,0.4c-0.1,0.1-0.1,0.2-0.1,0.3s0,0.2,0.1,0.2c0.1,0.1,0.2,0.1,0.3,0.1s0.4-0.1,0.6-0.3
				c-0.2,0-0.4-0.1-0.6-0.3c-0.2-0.2-0.2-0.4-0.2-0.7s0.2-0.5,0.4-0.7c0.2-0.2,0.5-0.3,0.8-0.3c0.3,0,0.5,0.1,0.7,0.4
				c0.2,0.2,0.3,0.5,0.2,0.8c-0.1,0.3-0.3,0.6-0.7,1c-0.4,0.4-0.8,0.5-1.1,0.6c-0.3,0-0.6-0.1-0.8-0.4c-0.2-0.2-0.2-0.4-0.2-0.6
				C58.2,14.1,58.3,13.9,58.5,13.7z M60.3,13.9c0.1-0.1,0.2-0.3,0.3-0.4c0-0.1,0-0.2-0.1-0.3c-0.1-0.1-0.2-0.1-0.3-0.1
				c-0.1,0-0.2,0.1-0.4,0.2c-0.2,0.1-0.2,0.3-0.3,0.4c0,0.1,0,0.2,0.1,0.3c0.1,0.1,0.2,0.1,0.3,0.1C60.1,14.1,60.2,14,60.3,13.9z"/>
		</g>
	</g>
</g>
</svg>
