<?xml version="1.0" encoding="utf-8"?>
<!-- Generator: Adobe Illustrator 19.2.1, SVG Export Plug-In . SVG Version: 6.00 Build 0)  -->
<svg version="1.0" id="Capa_1" xmlns="http://www.w3.org/2000/svg" xmlns:xlink="http://www.w3.org/1999/xlink" x="0px" y="0px"
	 viewBox="0 0 77 80" style="enable-background:new 0 0 77 80;" xml:space="preserve">
<style type="text/css">
	.st0{fill:#1A63D0;}
	.st1{fill:#FFFFFF;}
</style>
<g>
	<path class="st0" d="M154.7-142.2C154.7-142.2,150.7-145.9,154.7-142.2c0.4,0.3,0.6,0.4,1,0l8-7.5c0.6-0.5,0.6-1.5,0-2l0,0
		c-0.5-0.5-1.4-0.5-1.9,0l-5,4.8v-9.9c0-0.8-0.7-1.5-1.5-1.5h0c-0.8,0-1.5,0.7-1.5,1.5v9.9l-5-4.8c-0.5-0.5-1.4-0.5-1.9,0h0
		c-0.6,0.5-0.6,1.5,0,2L154.7-142.2z"/>
	<path class="st0" d="M164.3-140.3h-18v1.9h18V-140.3z"/>
</g>
<path class="st1" d="M26.7,80c-7.1,0-12.8-5.8-12.8-12.9c0-0.7,0.6-1.3,1.3-1.3c0.7,0,1.3,0.6,1.3,1.3c0,5.6,4.6,10.2,10.2,10.2
	c5.6,0,10.2-4.6,10.2-10.2V43.4c0-0.7,0.6-1.3,1.3-1.3c0.7,0,1.3,0.6,1.3,1.3v23.8C39.6,74.2,33.8,80,26.7,80z M50.6,42.5
	c-1.3,0-2.5-0.6-3.6-1.6c-2.2-2.6-5.4-4.2-8.4-4.2h-0.2c-1.3,0-2.6,0.2-3.8,0.7c-1.7,0.6-3.2,1.7-4.4,3.1c-2.2,2.3-5.1,2.2-7.2,0.1
	c-2.1-2.6-5.2-4-8.4-4h-0.2c-1.2,0-3,0.7-4.7,1.4c-2,0.8-3.8,1.5-5.4,1.5c-0.7,0-1.3-0.1-1.9-0.4c-1.6-0.9-2.5-2.8-2.3-4.9
	c3.1-19,19.2-32.7,38.3-32.7h0.5c19,0.2,35,14.1,38.1,33l0,0.2v1.1c0,2.7-2.2,4.9-4.9,4.9c-1.7,0-2.9-0.8-4.1-1.5
	c-1.4-0.9-2.9-1.8-5.5-1.8h-0.2c-3.1,0-6.1,1.4-8.2,3.8L54,41.2C53.6,41.5,52.1,42.5,50.6,42.5z M38.3,34h0.2
	c3.9,0,7.8,1.9,10.4,5.1c0.5,0.5,1,0.8,1.6,0.8c0.4,0,1.2-0.3,1.8-0.7c2.6-2.9,6.3-4.6,10.1-4.6h0.2c3.4,0,5.3,1.2,6.9,2.2
	c1,0.7,1.8,1.1,2.7,1.1c1.2,0,2.2-1,2.2-2.2v-1c-3-17.6-17.9-30.5-35.5-30.7h-0.5C20.5,4.1,5.5,16.9,2.7,34.5
	c-0.1,0.7,0.1,1.7,0.9,2.2c0.1,0.1,0.3,0.1,0.6,0.1c1.1,0,2.8-0.7,4.4-1.3c1.9-0.8,3.9-1.6,5.7-1.6h0.2c4,0,7.9,1.8,10.4,4.9
	c1,0.9,2.2,1,3.3-0.1c1.4-1.6,3.3-3,5.4-3.8C35.1,34.3,36.7,34,38.3,34z M26.5,42.2c-0.6,0-1.2-0.5-1.3-1.1
	c-0.1-0.4-1.7-10.7,1.4-21.7c0.2-0.7,0.4-1.4,0.7-2.1C29.4,11,32.9,5.9,37.5,2.1c0.6-0.5,1.4-0.4,1.9,0.2c0.5,0.6,0.4,1.4-0.2,1.9
	c-4.3,3.5-7.4,8.2-9.4,14c-0.2,0.6-0.4,1.3-0.6,1.9c-3,10.4-1.4,20.5-1.4,20.6c0.1,0.7-0.4,1.4-1.1,1.5
	C26.6,42.2,26.6,42.2,26.5,42.2z M50.6,42.5c-0.1,0-0.1,0-0.2,0c-0.7-0.1-1.2-0.8-1.1-1.5c0-0.2,3.9-24-11.3-36.6
	c-0.6-0.5-0.6-1.3-0.2-1.9c0.5-0.6,1.3-0.6,1.9-0.2C46.5,8,50.7,16.5,52,27.1c1,7.9-0.1,14.1-0.1,14.3
	C51.7,42.1,51.2,42.5,50.6,42.5z M38.3,5.1c-0.7,0-1.3-0.6-1.3-1.3V1.3c0-0.7,0.6-1.3,1.3-1.3c0.7,0,1.3,0.6,1.3,1.3v2.4
	C39.6,4.5,39,5.1,38.3,5.1z"/>
</svg>
