<?xml version="1.0" encoding="utf-8"?>
<!-- Generator: Adobe Illustrator 19.2.1, SVG Export Plug-In . SVG Version: 6.00 Build 0)  -->
<svg version="1.0" id="Capa_1" xmlns="http://www.w3.org/2000/svg" xmlns:xlink="http://www.w3.org/1999/xlink" x="0px" y="0px"
	 viewBox="0 0 72 80" style="enable-background:new 0 0 72 80;" xml:space="preserve">
<style type="text/css">
	.st0{fill:#1A63D0;}
	.st1{fill:#FFFFFF;}
</style>
<g>
	<path class="st0" d="M152.2-142.2C152.2-142.2,148.2-145.9,152.2-142.2c0.4,0.3,0.6,0.4,1,0l8-7.5c0.6-0.5,0.6-1.5,0-2l0,0
		c-0.5-0.5-1.4-0.5-1.9,0l-5,4.8v-9.9c0-0.8-0.7-1.5-1.5-1.5h0c-0.8,0-1.5,0.7-1.5,1.5v9.9l-5-4.8c-0.5-0.5-1.4-0.5-1.9,0h0
		c-0.6,0.5-0.6,1.5,0,2L152.2-142.2z"/>
	<path class="st0" d="M161.8-140.3h-18v1.9h18V-140.3z"/>
</g>
<path class="st1" d="M47.7,58.9h-2.9c-0.7,0-1.3-0.6-1.3-1.3c0-0.7,0.6-1.3,1.3-1.3h2.9c0.7,0,1.2-0.5,1.2-1.2V30.4
	c0-0.6-0.5-1.2-1.2-1.2H24.3c-0.7,0-1.2,0.5-1.2,1.2v24.8c0,0.6,0.5,1.2,1.2,1.2h3c0.7,0,1.3,0.6,1.3,1.3c0,0.7-0.6,1.3-1.3,1.3h-3
	c-2.1,0-3.8-1.7-3.8-3.8V30.4c0-2.1,1.7-3.8,3.8-3.8h23.5c2.1,0,3.8,1.7,3.8,3.8v24.8C51.5,57.3,49.8,58.9,47.7,58.9z M33.5,80h-3.6
	c-2.1,0-3.8-1.7-3.8-3.8V54c0-0.7,0.6-1.3,1.3-1.3c0.7,0,1.3,0.6,1.3,1.3v22.3c0,0.6,0.5,1.2,1.2,1.2h3.6c0.7,0,1.2-0.5,1.2-1.2v-15
	c0-0.7,0.6-1.3,1.3-1.3c0.7,0,1.3,0.6,1.3,1.3v15C37.3,78.3,35.6,80,33.5,80z M42.1,80h-3.6c-2.1,0-3.8-1.7-3.8-3.8v-15
	c0-0.7,0.6-1.3,1.3-1.3c0.7,0,1.3,0.6,1.3,1.3v15c0,0.6,0.5,1.2,1.2,1.2h3.6c0.7,0,1.2-0.5,1.2-1.2V54c0-0.7,0.6-1.3,1.3-1.3
	c0.7,0,1.3,0.6,1.3,1.3v22.3C45.9,78.3,44.2,80,42.1,80z M35.9,24.4c-6.8,0-12.3-5.5-12.3-12.2C23.6,5.5,29.1,0,35.9,0
	c6.8,0,12.3,5.5,12.3,12.2C48.1,19,42.6,24.4,35.9,24.4z M35.9,2.6c-5.3,0-9.7,4.3-9.7,9.6c0,5.3,4.3,9.6,9.7,9.6
	c5.3,0,9.7-4.3,9.7-9.6C45.6,6.9,41.2,2.6,35.9,2.6z M27.4,56.3c-0.7,0-1.3-0.6-1.3-1.3V40.6c0-0.7,0.6-1.3,1.3-1.3
	c0.7,0,1.3,0.6,1.3,1.3V55C28.7,55.7,28.1,56.3,27.4,56.3z M44.6,56.3c-0.7,0-1.3-0.6-1.3-1.3V40.6c0-0.7,0.6-1.3,1.3-1.3
	c0.7,0,1.3,0.6,1.3,1.3V55C45.9,55.7,45.3,56.3,44.6,56.3z M44.6,54.4H27.4c-0.7,0-1.3-0.6-1.3-1.3c0-0.7,0.6-1.3,1.3-1.3h17.1
	c0.7,0,1.3,0.6,1.3,1.3C45.9,53.8,45.3,54.4,44.6,54.4z M68.7,55.5h-2.2c-0.7,0-1.3-0.6-1.3-1.3c0-0.7,0.6-1.3,1.3-1.3h2.2
	c0.3,0,0.6-0.3,0.6-0.6v-19c0-0.3-0.3-0.6-0.6-0.6h-18c-0.7,0-1.3-0.6-1.3-1.3c0-0.7,0.6-1.3,1.3-1.3h18c1.8,0,3.2,1.4,3.2,3.2v19
	C71.9,54.1,70.5,55.5,68.7,55.5z M53,55.5h-2.3c-0.7,0-1.3-0.6-1.3-1.3c0-0.7,0.6-1.3,1.3-1.3H53c0.7,0,1.3,0.6,1.3,1.3
	C54.3,54.9,53.7,55.5,53,55.5z M57.8,71.6H55c-1.8,0-3.2-1.4-3.2-3.2V51.4c0-0.7,0.6-1.3,1.3-1.3c0.7,0,1.3,0.6,1.3,1.3v17.1
	c0,0.3,0.3,0.6,0.6,0.6h2.8c0.3,0,0.6-0.3,0.6-0.6V56.9c0-0.7,0.6-1.3,1.3-1.3s1.3,0.6,1.3,1.3v11.5C61,70.2,59.6,71.6,57.8,71.6z
	 M64.4,71.6h-2.8c-1.8,0-3.2-1.4-3.2-3.2V56.9c0-0.7,0.6-1.3,1.3-1.3s1.3,0.6,1.3,1.3v11.5c0,0.3,0.3,0.6,0.6,0.6h2.8
	c0.3,0,0.6-0.3,0.6-0.6V51.4c0-0.7,0.6-1.3,1.3-1.3c0.7,0,1.3,0.6,1.3,1.3v17.1C67.6,70.2,66.2,71.6,64.4,71.6z M59.6,29
	c-5.4,0-9.7-4.3-9.7-9.7c0-5.3,4.4-9.7,9.7-9.7c5.4,0,9.7,4.3,9.7,9.7C69.3,24.7,65,29,59.6,29z M59.6,12.2c-3.9,0-7.1,3.2-7.1,7.1
	c0,3.9,3.2,7.1,7.1,7.1c3.9,0,7.1-3.2,7.1-7.1C66.7,15.4,63.5,12.2,59.6,12.2z M53.1,53.4c-0.7,0-1.3-0.6-1.3-1.3v-11
	c0-0.7,0.6-1.3,1.3-1.3c0.7,0,1.3,0.6,1.3,1.3v11C54.4,52.9,53.8,53.4,53.1,53.4z M66.3,53.4c-0.7,0-1.3-0.6-1.3-1.3v-11
	c0-0.7,0.6-1.3,1.3-1.3c0.7,0,1.3,0.6,1.3,1.3v11C67.6,52.9,67,53.4,66.3,53.4z M66.3,52H53.1c-0.7,0-1.3-0.6-1.3-1.3
	c0-0.7,0.6-1.3,1.3-1.3h13.2c0.7,0,1.3,0.6,1.3,1.3C67.6,51.4,67,52,66.3,52z M5.5,55.5H3.3c-1.8,0-3.2-1.4-3.2-3.2v-19
	c0-1.8,1.4-3.2,3.2-3.2h18c0.7,0,1.3,0.6,1.3,1.3c0,0.7-0.6,1.3-1.3,1.3h-18c-0.3,0-0.6,0.3-0.6,0.6v19c0,0.3,0.3,0.6,0.6,0.6h2.2
	c0.7,0,1.3,0.6,1.3,1.3C6.8,54.9,6.2,55.5,5.5,55.5z M21.3,55.5H19c-0.7,0-1.3-0.6-1.3-1.3c0-0.7,0.6-1.3,1.3-1.3h2.3
	c0.7,0,1.3,0.6,1.3,1.3C22.6,54.9,22,55.5,21.3,55.5z M17,71.6h-2.8c-1.8,0-3.2-1.4-3.2-3.2V56.9c0-0.7,0.6-1.3,1.3-1.3
	c0.7,0,1.3,0.6,1.3,1.3v11.5c0,0.3,0.3,0.6,0.6,0.6H17c0.3,0,0.6-0.3,0.6-0.6V51.4c0-0.7,0.6-1.3,1.3-1.3c0.7,0,1.3,0.6,1.3,1.3
	v17.1C20.2,70.2,18.7,71.6,17,71.6z M10.4,71.6H7.6c-1.8,0-3.2-1.4-3.2-3.2V51.4c0-0.7,0.6-1.3,1.3-1.3c0.7,0,1.3,0.6,1.3,1.3v17.1
	c0,0.3,0.3,0.6,0.6,0.6h2.8c0.3,0,0.6-0.3,0.6-0.6V56.9c0-0.7,0.6-1.3,1.3-1.3c0.7,0,1.3,0.6,1.3,1.3v11.5
	C13.6,70.2,12.1,71.6,10.4,71.6z M12.4,29c-5.4,0-9.7-4.3-9.7-9.7c0-5.3,4.4-9.7,9.7-9.7c5.4,0,9.7,4.3,9.7,9.7
	C22.1,24.7,17.7,29,12.4,29z M12.4,12.2c-3.9,0-7.1,3.2-7.1,7.1c0,3.9,3.2,7.1,7.1,7.1c3.9,0,7.1-3.2,7.1-7.1
	C19.5,15.4,16.3,12.2,12.4,12.2z M18.9,53.4c-0.7,0-1.3-0.6-1.3-1.3v-11c0-0.7,0.6-1.3,1.3-1.3c0.7,0,1.3,0.6,1.3,1.3v11
	C20.2,52.9,19.6,53.4,18.9,53.4z M5.7,53.4c-0.7,0-1.3-0.6-1.3-1.3v-11c0-0.7,0.6-1.3,1.3-1.3c0.7,0,1.3,0.6,1.3,1.3v11
	C7,52.9,6.4,53.4,5.7,53.4z M18.9,52H5.7c-0.7,0-1.3-0.6-1.3-1.3c0-0.7,0.6-1.3,1.3-1.3h13.2c0.7,0,1.3,0.6,1.3,1.3
	C20.2,51.4,19.6,52,18.9,52z"/>
</svg>
