<?xml version="1.0" encoding="utf-8"?>
<!-- Generator: Adobe Illustrator 19.2.1, SVG Export Plug-In . SVG Version: 6.00 Build 0)  -->
<svg version="1.1" id="Capa_1" xmlns="http://www.w3.org/2000/svg" xmlns:xlink="http://www.w3.org/1999/xlink" x="0px" y="0px"
	 viewBox="0 0 15 15" style="enable-background:new 0 0 15 15;" xml:space="preserve">
<style type="text/css">
	.st0{fill:#003685;}
</style>
<g>
	<path class="st0" d="M3.7,2.9H5l3.1,9.2H6.9L6,9.3H2.6l-0.9,2.8H0.6L3.7,2.9z M2.9,8.4h2.8L5.3,7c-0.3-1-0.6-2-0.9-3.1H4.3
		C4,4.9,3.7,5.9,3.4,7L2.9,8.4z"/>
	<path class="st0" d="M10.5,4.8h1.3l2.6,7.3h-1.2l-0.7-2H9.8l-0.7,2H7.9L10.5,4.8z M10.1,9.2h2.2l-0.3-1c-0.3-0.8-0.5-1.6-0.7-2.4
		h-0.1c-0.3,0.8-0.5,1.6-0.7,2.4L10.1,9.2z"/>
</g>
</svg>
