<?xml version="1.0" encoding="utf-8"?>
<!-- Generator: Adobe Illustrator 19.2.1, SVG Export Plug-In . SVG Version: 6.00 Build 0)  -->
<svg version="1.0" id="Capa_1" xmlns="http://www.w3.org/2000/svg" xmlns:xlink="http://www.w3.org/1999/xlink" x="0px" y="0px"
	 viewBox="0 0 32 32" style="enable-background:new 0 0 32 32;" xml:space="preserve">
<style type="text/css">
	.st0{fill:#003685;}
</style>
<g>
	<path class="st0" d="M16,32C7.2,32,0,24.8,0,16C0,7.2,7.2,0,16,0s16,7.2,16,16C32,24.8,24.8,32,16,32z M16,1.5C8,1.5,1.5,8,1.5,16
		C1.5,24,8,30.5,16,30.5S30.5,24,30.5,16C30.5,8,24,1.5,16,1.5z"/>
	<path class="st0" d="M15.4,20.5c-0.8,0-1.4-0.6-1.4-1.4L13.4,5.9c0-0.4,0.1-0.7,0.4-1c0.3-0.3,0.6-0.4,1-0.4l2.5,0
		c0.4,0,0.7,0.2,1,0.4c0.3,0.3,0.4,0.6,0.4,1L18,19.1c0,0.8-0.7,1.4-1.4,1.4L15.4,20.5z M14.9,6l0.6,13l1.1,0l0.6-13L14.9,6z"/>
	<path class="st0" d="M16,27.6c-1.8,0-3.3-1.5-3.3-3.3c0-1.8,1.5-3.3,3.3-3.3c1.8,0,3.3,1.5,3.3,3.3C19.3,26.1,17.8,27.6,16,27.6z
		 M16,22.4c-1,0-1.8,0.8-1.8,1.8c0,1,0.8,1.8,1.8,1.8c1,0,1.8-0.8,1.8-1.8C17.8,23.2,17,22.4,16,22.4z"/>
</g>
</svg>
