<?xml version="1.0" encoding="utf-8"?>
<!-- Generator: Adobe Illustrator 19.2.1, SVG Export Plug-In . SVG Version: 6.00 Build 0)  -->
<svg version="1.1" id="Capa_1" xmlns="http://www.w3.org/2000/svg" xmlns:xlink="http://www.w3.org/1999/xlink" x="0px" y="0px"
	 viewBox="0 0 45 42" style="enable-background:new 0 0 45 42;" xml:space="preserve">
<style type="text/css">
	.st0{fill:#003685;}
</style>
<path class="st0" d="M41.9,39H3.1C1.4,39,0,37.6,0,35.9V6.1C0,4.4,1.4,3,3.1,3h39c0,0,0,0,0.1,0C43.8,3.1,45,4.4,45,6.1v29.8
	C45,37.6,43.6,39,41.9,39z M3.1,4.6c-0.8,0-1.5,0.7-1.5,1.5v29.8c0,0.8,0.7,1.5,1.5,1.5h38.9c0.8,0,1.5-0.7,1.5-1.5V6.1
	c0-0.8-0.6-1.5-1.4-1.5H3.1z M22.7,24.7c-0.3,0-0.5-0.1-0.7-0.3L2.2,4.7C1.9,4.4,1.8,4.1,1.9,3.6c0.2-0.4,0.6-0.6,1-0.6h39.2
	c0.4,0,0.8,0.2,1,0.6c0.2,0.4,0.1,0.8-0.2,1.1L23.5,24.4C23.3,24.6,23,24.7,22.7,24.7z M5,4.8l17.7,17.6L40,4.8H5z"/>
</svg>
