<?xml version="1.0" encoding="utf-8"?>
<!-- Generator: Adobe Illustrator 19.2.1, SVG Export Plug-In . SVG Version: 6.00 Build 0)  -->
<svg version="1.0" id="Capa_1" xmlns="http://www.w3.org/2000/svg" xmlns:xlink="http://www.w3.org/1999/xlink" x="0px" y="0px"
	 viewBox="0 0 67 60" style="enable-background:new 0 0 67 60;" xml:space="preserve">
<style type="text/css">
	.st0{fill:#1A63D0;}
	.st1{fill-rule:evenodd;clip-rule:evenodd;fill:#FFFFFF;}
	.st2{fill:#003685;}
</style>
<g>
	<g>
		<path class="st0" d="M62.6,0H28.2C25.9,0,24,1.8,24,4.1v43.7c0,2.2,1.9,4.1,4.1,4.1h34.4c2.3,0,4.1-1.8,4.1-4.1V4.1
			C66.7,1.8,64.9,0,62.6,0z M65.1,47.8c0,1.3-1.1,2.4-2.5,2.4H28.2c-1.4,0-2.5-1.1-2.5-2.4V4.1c0-1.3,1.1-2.4,2.5-2.4h34.4
			c1.4,0,2.5,1.1,2.5,2.4V47.8z"/>
		<path class="st0" d="M41.2,27.8h-3.1v-3.1c0-0.5-0.4-0.8-0.8-0.8c-0.5,0-0.8,0.4-0.8,0.8v3.1h-3.1c-0.5,0-0.8,0.4-0.8,0.8
			c0,0.5,0.4,0.8,0.8,0.8h3.1v3.1c0,0.5,0.4,0.8,0.8,0.8c0.5,0,0.8-0.4,0.8-0.8v-3.1h3.1c0.5,0,0.8-0.4,0.8-0.8
			C42.1,28.2,41.7,27.8,41.2,27.8z"/>
		<path class="st0" d="M57.5,27.8h-7.9c-0.5,0-0.8,0.4-0.8,0.8c0,0.5,0.4,0.8,0.8,0.8h7.9c0.5,0,0.8-0.4,0.8-0.8
			C58.3,28.2,57.9,27.8,57.5,27.8z"/>
		<path class="st0" d="M40.6,37.5c-0.3-0.3-0.8-0.3-1.2,0l-2.2,2.2L35,37.5c-0.3-0.3-0.8-0.3-1.2,0c-0.3,0.3-0.3,0.8,0,1.2l2.2,2.2
			L33.9,43c-0.3,0.3-0.3,0.8,0,1.2c0.2,0.2,0.4,0.2,0.6,0.2c0.2,0,0.4-0.1,0.6-0.2l2.2-2.2l2.2,2.2c0.2,0.2,0.4,0.2,0.6,0.2
			c0.2,0,0.4-0.1,0.6-0.2c0.3-0.3,0.3-0.8,0-1.2l-2.2-2.2l2.2-2.2C41,38.3,41,37.8,40.6,37.5z"/>
		<path class="st0" d="M57.5,40h-7.9c-0.5,0-0.8,0.4-0.8,0.8c0,0.5,0.4,0.8,0.8,0.8h7.9c0.5,0,0.8-0.4,0.8-0.8
			C58.3,40.3,57.9,40,57.5,40z"/>
		<path class="st0" d="M53.9,37.3c0.5,0,0.8-0.4,0.8-0.8c0-0.5-0.4-0.8-0.8-0.8h-0.7c-0.5,0-0.8,0.4-0.8,0.8c0,0.5,0.4,0.8,0.8,0.8
			H53.9z"/>
		<path class="st0" d="M53.9,43.9h-0.7c-0.5,0-0.8,0.4-0.8,0.8c0,0.5,0.4,0.8,0.8,0.8h0.7c0.5,0,0.8-0.4,0.8-0.8
			C54.7,44.3,54.3,43.9,53.9,43.9z"/>
		<path class="st0" d="M59.1,6.8H31.7c-0.5,0-0.8,0.4-0.8,0.8v8.8c0,0.5,0.4,0.8,0.8,0.8h24.6c0.5,0,0.8-0.4,0.8-0.8
			c0-0.5-0.4-0.8-0.8-0.8H32.5V8.5h25.8V13c0,0.5,0.4,0.8,0.8,0.8c0.5,0,0.8-0.4,0.8-0.8V7.6C59.9,7.2,59.5,6.8,59.1,6.8z"/>
	</g>
	<g>
		<path class="st1" d="M19.1,23c10,0,18.2,8.1,18.2,18.2c0,10-8.1,18.2-18.2,18.2S0.9,51.2,0.9,41.1C0.9,31.1,9.1,23,19.1,23z"/>
		<path class="st2" d="M19.1,60C8.7,60,0.2,51.5,0.2,41.1s8.5-18.9,18.9-18.9S38,30.7,38,41.1S29.5,60,19.1,60z M19.1,23.7
			c-9.6,0-17.4,7.8-17.4,17.4s7.8,17.4,17.4,17.4s17.4-7.8,17.4-17.4S28.7,23.7,19.1,23.7z"/>
	</g>
	<g>
		<path class="st2" d="M14.5,45c3.3-2.7,5.7-4.9,5.7-6.6c0-1.2-0.6-1.7-1.7-1.7c-1,0-1.8,0.6-2.5,1.2l-1.9-1.8
			c1.4-1.4,3-2.1,4.8-2.1c2.8,0,4.6,1.7,4.6,4.1c0,2.2-2.1,4.4-4.1,6.1c0.7-0.1,1.7-0.1,2.4-0.1H24V47h-9.5V45z"/>
	</g>
</g>
</svg>
