<?xml version="1.0" encoding="utf-8"?>
<!-- Generator: Adobe Illustrator 19.2.1, SVG Export Plug-In . SVG Version: 6.00 Build 0)  -->
<svg version="1.0" id="Capa_1" xmlns="http://www.w3.org/2000/svg" xmlns:xlink="http://www.w3.org/1999/xlink" x="0px" y="0px"
	 viewBox="0 0 56 80" style="enable-background:new 0 0 56 80;" xml:space="preserve">
<style type="text/css">
	.st0{fill:#1A63D0;}
	.st1{fill-rule:evenodd;clip-rule:evenodd;fill:#FFFFFF;}
	.st2{fill:#FFFFFF;}
	.st3{fill:#003685;}
	.st4{fill:#CBD300;}
</style>
<g>
	<path class="st0" d="M144.2-142.2C144.2-142.2,140.2-145.9,144.2-142.2c0.4,0.3,0.6,0.4,1,0l8-7.5c0.6-0.5,0.6-1.5,0-2l0,0
		c-0.5-0.5-1.4-0.5-1.9,0l-5,4.8v-9.9c0-0.8-0.7-1.5-1.5-1.5h0c-0.8,0-1.5,0.7-1.5,1.5v9.9l-5-4.8c-0.5-0.5-1.4-0.5-1.9,0h0
		c-0.6,0.5-0.6,1.5,0,2L144.2-142.2z"/>
	<path class="st0" d="M153.8-140.3h-18v1.9h18V-140.3z"/>
</g>
<path class="st1" d="M36.4,40c0,0.2-0.1,0.4-0.2,0.5c0,0,0,0,0,0l-4.8,4.8c-0.3,0.3-0.7,0.3-1,0c-0.3-0.3-0.3-0.6,0-0.9l3.6-3.4
	H20.6c-0.6,0-1-0.4-1-1l0,0c0-0.6,0.4-1,1-1h13.3l-3.6-3.5c-0.3-0.3-0.3-0.6,0-0.9c0.3-0.3,0.7-0.3,1,0l4.8,4.8c0,0,0,0,0,0
	C36.3,39.6,36.4,39.8,36.4,40z M44,40c0-8.8-7.2-16-16-16s-16,7.2-16,16c0,8.8,7.2,16,16,16S44,48.8,44,40z M42.6,40
	c0,8-6.5,14.6-14.6,14.6S13.4,48,13.4,40c0-8,6.5-14.6,14.6-14.6S42.6,32,42.6,40z"/>
<g>
	<path class="st2" d="M28,0C12.5,0,0,12.3,0,27.6C0,38,5.9,47,14.5,51.7L28,80l13.5-28.3C50.1,47,56,38,56,27.6C56,12.3,43.5,0,28,0
		z"/>
</g>
<g>
	<path class="st3" d="M22.3,26.3l1.2-2.4h-2.1l0.1-0.5c0.2-1.1,0.8-1.9,1.8-1.9c0.4,0,0.7,0.1,1,0.2l1.3-2.2
		C25.3,19.3,24,19,23.2,19c-1,0-2.2,0.3-3,1c-1.1,0.9-1.6,2.2-1.8,3.5L18.3,24h-1.4l-0.8,2.4h1.7l-1.7,8.4h3l1.8-8.4H22.3z M28,24.7
		c-2.6-0.2-5.5,0.7-6.2,4.5l-1.1,5.5h3.1l0.8-4.4c0.4-2.1,1.1-3.3,2.6-3.3c0.8,0,1.1,0.5,1.1,1.2c0,0.3,0,0.7-0.1,1l-1,5.4h3.1
		l0.9-5.1c0.1-0.5,0.2-1.1,0.1-1.6C31.5,26.4,30.8,24.8,28,24.7z M38.6,24.7c-4.8,0-7,3.5-7,6.7c0,2,1.2,3.3,3,3.3
		c1.1,0,1.9,0,2.7,0l2.6,0c0-1.2,1.9-9.5,1.9-9.5C41,25,39.8,24.7,38.6,24.7z M38.9,27.4l-0.4,2c-0.5,2.4-1.3,3.3-2.9,3.3
		c-0.8,0-1.2-0.6-1.2-1.6c0-1.8,1.8-4,3.8-4C38.4,27,39,27,38.9,27.4z"/>
	<g>
		<path class="st3" d="M26.9,39.1h-0.6l-0.1-0.6h-0.7l-0.2,0.6h-0.6l1.2-2.5h0.6L26.9,39.1z M26.1,38.2l-0.1-1l-0.4,1H26.1z"/>
		<path class="st3" d="M29.8,36.6l-0.4,2.5h-0.6l0.1-1h-1.1l-0.1,1h-0.6l0.4-2.5H28l-0.1,0.9H29l0.1-0.9H29.8z"/>
		<path class="st3" d="M32.5,37.7c0,0.2,0,0.4-0.1,0.6c-0.1,0.2-0.2,0.3-0.3,0.5c-0.1,0.1-0.3,0.2-0.4,0.3c-0.2,0.1-0.4,0.1-0.6,0.1
			c-0.2,0-0.4,0-0.6-0.1c-0.2-0.1-0.3-0.2-0.5-0.4c-0.1-0.2-0.2-0.4-0.2-0.6c0-0.2,0-0.4,0.1-0.6c0.1-0.2,0.2-0.3,0.3-0.5
			c0.1-0.1,0.3-0.2,0.4-0.3c0.2-0.1,0.3-0.1,0.5-0.1c0.2,0,0.4,0,0.6,0.1c0.2,0.1,0.3,0.2,0.4,0.4C32.4,37.3,32.5,37.5,32.5,37.7z
			 M31.8,37.8c0-0.1,0-0.2-0.1-0.3c0-0.1-0.1-0.2-0.2-0.2c-0.1-0.1-0.2-0.1-0.3-0.1c-0.2,0-0.3,0-0.4,0.1c-0.1,0.1-0.2,0.2-0.3,0.3
			c-0.1,0.1-0.1,0.3-0.1,0.4c0,0.2,0.1,0.3,0.2,0.4c0.1,0.1,0.2,0.2,0.4,0.2c0.1,0,0.2,0,0.3-0.1c0.1,0,0.2-0.1,0.2-0.2
			c0.1-0.1,0.1-0.2,0.1-0.3C31.8,38,31.8,37.9,31.8,37.8z"/>
		<path class="st3" d="M34.8,39.1h-0.7l-0.2-0.5c-0.1-0.2-0.1-0.3-0.2-0.4c-0.1-0.1-0.1-0.1-0.1-0.1c0,0-0.1,0-0.2,0h-0.1l-0.2,1
			h-0.6l0.3-2.5h0.9c0.3,0,0.6,0.1,0.7,0.2c0.1,0.2,0.2,0.3,0.2,0.5c0,0.2-0.1,0.3-0.2,0.4c-0.1,0.1-0.2,0.2-0.4,0.2
			c0.1,0.1,0.2,0.1,0.2,0.2c0,0.1,0.1,0.2,0.2,0.3L34.8,39.1z M34.1,37.4c0-0.1,0-0.2-0.1-0.3C34,37,33.8,37,33.6,37h-0.1l-0.1,0.7
			h0.2c0.2,0,0.3,0,0.4-0.1C34.1,37.5,34.1,37.5,34.1,37.4z"/>
		<path class="st3" d="M37.2,39.1h-0.7l-0.2-0.5c-0.1-0.2-0.1-0.3-0.2-0.4C36,38.2,36,38.1,36,38.1c0,0-0.1,0-0.2,0h-0.1l-0.2,1H35
			l0.3-2.5h0.9c0.3,0,0.6,0.1,0.7,0.2c0.1,0.2,0.2,0.3,0.2,0.5c0,0.2-0.1,0.3-0.2,0.4c-0.1,0.1-0.2,0.2-0.4,0.2
			c0.1,0.1,0.2,0.1,0.2,0.2c0.1,0.1,0.1,0.2,0.2,0.3L37.2,39.1z M36.5,37.4c0-0.1,0-0.2-0.1-0.3C36.3,37,36.2,37,36,37h-0.1
			l-0.1,0.7H36c0.2,0,0.3,0,0.4-0.1C36.4,37.5,36.5,37.5,36.5,37.4z"/>
		<path class="st3" d="M39.9,37.7c0,0.2,0,0.4-0.1,0.6c-0.1,0.2-0.2,0.3-0.3,0.5c-0.1,0.1-0.3,0.2-0.4,0.3c-0.2,0.1-0.4,0.1-0.6,0.1
			c-0.2,0-0.4,0-0.6-0.1c-0.2-0.1-0.3-0.2-0.5-0.4c-0.1-0.2-0.2-0.4-0.2-0.6c0-0.2,0-0.4,0.1-0.6c0.1-0.2,0.2-0.3,0.3-0.5
			c0.1-0.1,0.3-0.2,0.4-0.3c0.2-0.1,0.3-0.1,0.5-0.1c0.2,0,0.4,0,0.6,0.1c0.2,0.1,0.3,0.2,0.4,0.4C39.8,37.3,39.9,37.5,39.9,37.7z
			 M39.2,37.8c0-0.1,0-0.2-0.1-0.3c0-0.1-0.1-0.2-0.2-0.2c-0.1-0.1-0.2-0.1-0.3-0.1c-0.2,0-0.3,0-0.4,0.1c-0.1,0.1-0.2,0.2-0.3,0.3
			c-0.1,0.1-0.1,0.3-0.1,0.4c0,0.2,0.1,0.3,0.2,0.4c0.1,0.1,0.2,0.2,0.4,0.2c0.1,0,0.2,0,0.3-0.1c0.1,0,0.2-0.1,0.2-0.2
			c0.1-0.1,0.1-0.2,0.1-0.3C39.2,38,39.2,37.9,39.2,37.8z"/>
	</g>
	<path class="st4" d="M42.4,21.3C38,19,31.6,16.6,29.6,16c-7.4,1.5-15,4.7-15.9,5c-0.8,0.3-1-0.4-0.5-0.6c2.7-1.6,13.3-6.7,16.1-7.5
		c0.6-0.2,0.7-0.2,1,0c2.3,1.2,9.2,5.8,12.3,8C43.2,21,43,21.6,42.4,21.3z"/>
</g>
</svg>
