<?xml version="1.0" encoding="utf-8"?>
<!-- Generator: Adobe Illustrator 19.2.1, SVG Export Plug-In . SVG Version: 6.00 Build 0)  -->
<svg version="1.0" id="Capa_1" xmlns="http://www.w3.org/2000/svg" xmlns:xlink="http://www.w3.org/1999/xlink" x="0px" y="0px"
	 viewBox="0 0 50 60" style="enable-background:new 0 0 50 60;" xml:space="preserve">
<style type="text/css">
	.st0{fill:#1A63D0;}
</style>
<g>
	<path class="st0" d="M46.7,60H3.3C1.5,60,0,58.5,0,56.7v-48L8.3,0h38.4C48.5,0,50,1.5,50,3.3v53.4C50,58.5,48.5,60,46.7,60z
		 M1.8,9.4v47.3c0,0.8,0.7,1.5,1.5,1.5h43.4c0.8,0,1.5-0.7,1.5-1.5V3.3c0-0.8-0.7-1.5-1.5-1.5H9.1L1.8,9.4z"/>
	<path class="st0" d="M7,10.6H1.7c-0.5,0-0.9-0.4-0.9-0.9c0-0.5,0.4-0.9,0.9-0.9H7c0.8,0,1.4-0.6,1.4-1.4V1.8c0-0.5,0.4-0.9,0.9-0.9
		c0.5,0,0.9,0.4,0.9,0.9v5.6C10.2,9.1,8.8,10.6,7,10.6z"/>
	<path class="st0" d="M10.5,52.1c-0.2,0-0.5-0.1-0.6-0.3l-3.1-3.1c-0.4-0.4-0.4-0.9,0-1.3c0.4-0.4,0.9-0.4,1.3,0l2.4,2.4l6.1-6.1
		c0.4-0.4,0.9-0.4,1.3,0c0.4,0.4,0.4,0.9,0,1.3l-6.8,6.8C11,52,10.7,52.1,10.5,52.1z"/>
	<path class="st0" d="M14.3,25.8c-1.6,0-2.9-1.3-2.9-2.9c0-1.6,1.3-2.9,2.9-2.9c1.6,0,2.9,1.3,2.9,2.9
		C17.2,24.5,15.9,25.8,14.3,25.8z M14.3,21.8c-0.6,0-1.1,0.5-1.1,1.1s0.5,1.1,1.1,1.1c0.6,0,1.1-0.5,1.1-1.1S14.9,21.8,14.3,21.8z"
		/>
	<path class="st0" d="M25.6,31.9c-1.6,0-2.9-1.3-2.9-2.9c0-1.6,1.3-2.9,2.9-2.9c1.6,0,2.9,1.3,2.9,2.9
		C28.5,30.6,27.2,31.9,25.6,31.9z M25.6,28c-0.6,0-1.1,0.5-1.1,1.1c0,0.6,0.5,1.1,1.1,1.1s1.1-0.5,1.1-1.1
		C26.6,28.4,26.2,28,25.6,28z"/>
	<path class="st0" d="M41.3,15.8c-1.6,0-2.9-1.3-2.9-2.9c0-1.6,1.3-2.9,2.9-2.9c1.6,0,2.9,1.3,2.9,2.9
		C44.2,14.5,42.9,15.8,41.3,15.8z M41.3,11.8c-0.6,0-1.1,0.5-1.1,1.1s0.5,1.1,1.1,1.1c0.6,0,1.1-0.5,1.1-1.1S41.9,11.8,41.3,11.8z"
		/>
	<path class="st0" d="M27.2,28c-0.2,0-0.5-0.1-0.6-0.3c-0.4-0.4-0.4-0.9,0-1.3l12.5-12.5c0.4-0.4,0.9-0.4,1.3,0
		c0.4,0.4,0.4,0.9,0,1.3L27.9,27.7C27.7,27.9,27.5,28,27.2,28z"/>
	<path class="st0" d="M23.9,29c-0.1,0-0.3,0-0.4-0.1l-7.7-4.1c-0.4-0.2-0.6-0.8-0.4-1.2c0.2-0.4,0.8-0.6,1.2-0.4l7.7,4.1
		c0.4,0.2,0.6,0.8,0.4,1.2C24.5,28.8,24.2,29,23.9,29z"/>
	<path class="st0" d="M6,31.8c-0.2,0-0.5-0.1-0.6-0.3c-0.4-0.4-0.4-0.9,0-1.3l6.3-6.3c0.4-0.4,0.9-0.4,1.3,0c0.4,0.4,0.4,0.9,0,1.3
		l-6.3,6.3C6.5,31.7,6.3,31.8,6,31.8z"/>
	<path class="st0" d="M43.6,52.4H21.5c-0.5,0-0.9-0.4-0.9-0.9c0-0.5,0.4-0.9,0.9-0.9h22.1c0.5,0,0.9,0.4,0.9,0.9
		C44.5,52,44.1,52.4,43.6,52.4z"/>
	<path class="st0" d="M43.6,46H21.5c-0.5,0-0.9-0.4-0.9-0.9s0.4-0.9,0.9-0.9h22.1c0.5,0,0.9,0.4,0.9,0.9S44.1,46,43.6,46z"/>
</g>
</svg>
