<?xml version="1.0" encoding="utf-8"?>
<!-- Generator: Adobe Illustrator 19.2.1, SVG Export Plug-In . SVG Version: 6.00 Build 0)  -->
<svg version="1.0" id="Capa_1" xmlns="http://www.w3.org/2000/svg" xmlns:xlink="http://www.w3.org/1999/xlink" x="0px" y="0px"
	 viewBox="0 0 86 60" style="enable-background:new 0 0 86 60;" xml:space="preserve">
<style type="text/css">
	.st0{fill:#1A63D0;}
	.st1{fill-rule:evenodd;clip-rule:evenodd;fill:#FFFFFF;}
	.st2{fill:#003685;}
</style>
<g>
	<g>
		<path class="st0" d="M72.1,45.3L52,47.7c0,0,0,0-0.1,0c-0.8,0-1.6,0.3-2.3,0.7V37.5c0-0.5-0.4-0.9-0.9-0.9c-0.5,0-0.9,0.4-0.9,0.9
			v10.9c-0.6-0.4-1.4-0.7-2.3-0.7c0,0,0,0-0.1,0l-12.8-1.5l-12.2-1.5c-1.5-0.2-2.7-1.5-2.7-3V6c0-1.1,0.4-1.9,0.7-2.2
			c0.2-0.1,0.2-0.1,0.3-0.1l2,0.2c0.5,0.1,0.9-0.3,1-0.7c0.1-0.5-0.3-0.9-0.8-1l-2-0.2c-0.6-0.1-1.2,0.1-1.7,0.5
			c-0.8,0.7-1.3,2-1.3,3.5v35.7c0,2.3,1.9,4.4,4.3,4.7l12.2,1.5l12.9,1.5c0.1,0,0.1,0,0.2,0c1.2,0.1,2.2,1.1,2.2,2.3
			c0,0.5,0.4,0.9,0.9,0.9c0.5,0,0.9-0.4,0.9-0.9c0-1.2,1-2.2,2.2-2.3c0.1,0,0.1,0,0.2,0L72.3,47c0.5-0.1,0.8-0.5,0.8-1
			C73,45.5,72.6,45.2,72.1,45.3z"/>
		<path class="st0" d="M38.2,6l7.4,0.9c1.2,0,2.3,1,2.3,2.3v22.3c0,0.5,0.4,0.9,0.9,0.9c0.5,0,0.9-0.4,0.9-0.9V9.1
			c0-1.2,1-2.2,2.3-2.3l13-1.5l12.1-1.4c0.7-0.1,1.3,0.1,1.8,0.5c0.5,0.4,0.7,1,0.7,1.7v10.5v19.6c0,0.5,0.4,0.9,0.9,0.9
			c0.5,0,0.9-0.4,0.9-0.9V16.6V6c0-1.2-0.5-2.2-1.3-3c-0.9-0.7-2-1.1-3.2-0.9L64.8,3.6L51.9,5.1c-1.3,0-2.4,0.6-3.1,1.5
			c-0.7-0.9-1.8-1.5-3-1.5l-7.3-0.9c-0.5-0.1-0.9,0.3-1,0.7C37.4,5.5,37.7,5.9,38.2,6z"/>
		<path class="st0" d="M24.9,19.9c0.3,0.1,0.6,0.1,0.9-0.1l3.9-2.7l3.9,3.6c0.2,0.2,0.4,0.2,0.6,0.2c0.1,0,0.2,0,0.3-0.1
			c0.3-0.1,0.5-0.4,0.5-0.8V1.4c0-0.4-0.3-0.8-0.8-0.9l-8.9-1c-0.3,0-0.5,0-0.7,0.2c-0.2,0.2-0.3,0.4-0.3,0.6v18.8
			C24.5,19.5,24.6,19.8,24.9,19.9z M26.2,1.3l7.1,0.8v16l-3-2.8c-0.2-0.2-0.4-0.2-0.6-0.2c-0.2,0-0.4,0.1-0.5,0.2l-3.1,2.1V1.3z"/>
		<path class="st0" d="M85.6,46l-8.8-8.5l-2.5-2.5c0.8-1.5,1.3-3.1,1.3-4.9c0-2.7-1.1-5.2-3-7.1c-4-3.9-10.4-3.9-14.4,0
			c-3.5,3.5-4,9-1,12.9c0.3,0.4,0.8,0.5,1.2,0.2c0.4-0.3,0.5-0.8,0.2-1.2c-2.4-3.3-2.1-7.9,0.8-10.7c3.3-3.2,8.6-3.2,11.9,0
			c1.6,1.6,2.5,3.6,2.5,5.8s-0.9,4.3-2.5,5.8c-2,1.9-4.8,2.8-7.6,2.3c-0.5-0.1-0.9,0.2-1,0.7c-0.1,0.5,0.2,0.9,0.7,1
			c0.6,0.1,1.3,0.2,1.9,0.2c1.8,0,3.6-0.5,5.1-1.4l2.5,2.5c0,0,0,0,0,0c0,0,0,0,0,0l8.8,8.5c0.2,0.2,0.4,0.2,0.6,0.2
			c0.2,0,0.4-0.1,0.6-0.3l2.6-2.5c0.2-0.2,0.3-0.4,0.3-0.6C85.8,46.4,85.7,46.2,85.6,46z M73.3,36.5l1.7,1.6l-1.3,1.3l-1.7-1.6
			L73.3,36.5z M82.4,48l-7.5-7.3l1.3-1.3l7.5,7.3L82.4,48z"/>
		<path class="st0" d="M65.3,24.9c0.5,0,0.9-0.4,0.9-0.9c0-0.5-0.4-0.9-0.9-0.9c-1.9,0-3.7,0.7-5,2c-2.8,2.7-2.8,7.2,0,9.9
			c1.3,1.3,3.1,2,5,2c1.9,0,3.7-0.7,5-2c2.8-2.7,2.8-7.2,0-9.9c-0.3-0.3-0.9-0.3-1.2,0c-0.3,0.3-0.3,0.9,0,1.2
			c2.1,2.1,2.1,5.4,0,7.4c-1,1-2.4,1.5-3.8,1.5c-1.4,0-2.8-0.5-3.8-1.5c-2.1-2.1-2.1-5.4,0-7.4C62.5,25.5,63.9,24.9,65.3,24.9z"/>
	</g>
	<g>
		<path class="st1" d="M19.1,22.1c10.2,0,18.6,8.3,18.6,18.6c0,10.2-8.3,18.6-18.6,18.6S0.5,51,0.5,40.7
			C0.5,30.5,8.9,22.1,19.1,22.1z"/>
		<path class="st2" d="M19.1,60C8.5,60-0.2,51.3-0.2,40.7s8.7-19.3,19.3-19.3s19.3,8.7,19.3,19.3S29.7,60,19.1,60z M19.1,22.9
			c-9.8,0-17.8,8-17.8,17.8s8,17.8,17.8,17.8s17.8-8,17.8-17.8S28.9,22.9,19.1,22.9z"/>
	</g>
	<g>
		<path class="st2" d="M17.9,37.6h-2.7v-2.2c1.5-0.3,2.6-0.7,3.6-1.3h2.7v13h-3.6V37.6z"/>
	</g>
</g>
</svg>
