<?xml version="1.0" encoding="utf-8"?>
<!-- Generator: Adobe Illustrator 19.2.1, SVG Export Plug-In . SVG Version: 6.00 Build 0)  -->
<svg version="1.1" id="Capa_1" xmlns="http://www.w3.org/2000/svg" xmlns:xlink="http://www.w3.org/1999/xlink" x="0px" y="0px"
	 viewBox="0 0 15 15" style="enable-background:new 0 0 15 15;" xml:space="preserve">
<style type="text/css">
	.st0{fill-rule:evenodd;clip-rule:evenodd;fill:#003685;}
</style>
<g>
	<g>
		<path class="st0" d="M14.7,13.6l-4.2-4.2c0.8-1,1.2-2.2,1.2-3.6C11.8,2.6,9.1,0,5.9,0S0,2.6,0,5.9c0,3.2,2.6,5.9,5.9,5.9
			c1.3,0,2.5-0.4,3.5-1.2l4.2,4.2c0.3,0.3,0.8,0.3,1.1,0C15.1,14.4,15.1,13.9,14.7,13.6z M5.9,10.8C3.2,10.8,1,8.6,1,5.9
			c0-2.7,2.2-4.9,4.9-4.9c2.7,0,4.9,2.2,4.9,4.9C10.8,8.6,8.6,10.8,5.9,10.8z"/>
	</g>
</g>
</svg>
