<?xml version="1.0" encoding="utf-8"?>
<!-- Generator: Adobe Illustrator 19.2.1, SVG Export Plug-In . SVG Version: 6.00 Build 0)  -->
<svg version="1.1" id="Capa_1" xmlns="http://www.w3.org/2000/svg" xmlns:xlink="http://www.w3.org/1999/xlink" x="0px" y="0px"
	 viewBox="0 0 24 24" style="enable-background:new 0 0 24 24;" xml:space="preserve">
<style type="text/css">
	.st0{fill:#6E6F75;}
</style>
<path class="st0" d="M23.5,3.6c-0.2-1.8-1.5-3.1-3.2-3.2c-7.6-0.5-9-0.5-16.6,0c-1.8,0.1-3,1.5-3.2,3.2C-0.1,9-0.1,15,0.5,20.4
	c0.2,1.8,1.5,3.1,3.2,3.2c7.6,0.5,9,0.5,16.6,0c1.8-0.1,3-1.5,3.2-3.2C24.1,15,24.1,9,23.5,3.6z M16.3,12.6L9,17
	c-0.2,0.1-0.5,0.1-0.6,0C8.1,16.9,8,16.8,8,16.5V7.7c0-0.2,0.2-0.4,0.3-0.5c0.2-0.1,0.4-0.1,0.6,0l7.4,4.4c0.2,0.1,0.3,0.3,0.3,0.5
	C16.6,12.3,16.5,12.5,16.3,12.6z"/>
</svg>
