<?xml version="1.0" encoding="utf-8"?>
<!-- Generator: Adobe Illustrator 19.2.1, SVG Export Plug-In . SVG Version: 6.00 Build 0)  -->
<svg version="1.1" id="Capa_1" xmlns="http://www.w3.org/2000/svg" xmlns:xlink="http://www.w3.org/1999/xlink" x="0px" y="0px"
	 viewBox="0 0 60 60" style="enable-background:new 0 0 60 60;" xml:space="preserve">
<style type="text/css">
	.st0{fill:#003685;}
</style>
<path class="st0" d="M30,60C13.5,60,0,46.5,0,30C0,13.5,13.5,0,30,0s30,13.5,30,30C60,46.5,46.5,60,30,60z M30,2C14.6,2,2,14.6,2,30
	c0,15.4,12.5,28,28,28c15.4,0,28-12.5,28-28C58,14.6,45.4,2,30,2z"/>
<g>
	<g>
		<path class="st0" d="M30.6,38.7L30.6,38.7c-2.1,0-3.9-1.6-4.1-3.8c-0.4-4,1-7,4.1-9.1c0.2-0.2,0.5-0.3,0.7-0.5l0,0
			c0.6-0.4,1.2-0.8,1.9-1.2c1.5-0.9,2-2.1,1.6-4c-0.2-1.4-1.1-2.3-2.8-2.8c-0.8-0.2-1.5-0.4-2.3-0.4c-1,0-2,0.2-2.9,0.7
			c-1.1,0.5-1.8,1.2-2.3,2.4c-0.7,1.6-2.1,2.6-3.8,2.6c-0.3,0-0.6,0-0.9-0.1c-1.2-0.3-2.2-1.1-2.8-2.1c-0.5-1.1-0.6-2.4-0.1-3.6
			c1.2-2.9,3.4-5,6.6-6.6c1.9-0.9,3.9-1.4,6-1.4l0.2,0c5.5,0,10.8,3.6,12.6,8.4c1.6,4.3,0.1,9.5-3.5,12.6c-0.9,0.8-2,1.6-3.3,2.4
			c-1,0.6-1.1,1.1-1,1.8c0.2,1.7-0.5,3.2-1.9,4.1C32.1,38.5,31.4,38.7,30.6,38.7z M29.9,15.1c0.9,0,1.9,0.1,2.8,0.4
			c2.3,0.7,3.7,2.1,4.1,4.2c0.4,2.6-0.4,4.5-2.5,5.8c-0.6,0.4-1.2,0.8-1.8,1.2l0,0c-0.2,0.2-0.5,0.3-0.7,0.5
			c-2.6,1.7-3.6,4.2-3.3,7.5c0.1,1.2,1.1,2.1,2.2,2.1h0c0.4,0,0.8-0.1,1.2-0.3c0.8-0.5,1.2-1.3,1.1-2.3c-0.2-1.5,0.4-2.6,1.9-3.5
			c1.2-0.8,2.2-1.5,3.1-2.2c3.1-2.6,4.3-6.9,3-10.6c-1.5-4.2-6.1-7.3-10.9-7.3l-0.2,0c-1.8,0-3.6,0.4-5.2,1.2
			c-2.8,1.4-4.7,3.2-5.7,5.7c-0.3,0.7-0.3,1.4,0,2c0.3,0.6,0.9,1,1.5,1.2c0.2,0,0.3,0.1,0.5,0.1c0.9,0,1.7-0.6,2.1-1.5
			c0.7-1.6,1.7-2.6,3.2-3.3C27.4,15.4,28.6,15.1,29.9,15.1z"/>
	</g>
	<g>
		<path class="st0" d="M30.7,51.1L30.7,51.1c-2.6,0-4.4-2.1-4.5-4.9c0-1.5,0.5-2.8,1.4-3.7c0.8-0.8,1.9-1.2,3.1-1.2l0,0
			c2.6,0,4.4,1.9,4.4,4.9c0,1.6-0.5,2.9-1.4,3.8C33,50.7,31.9,51.1,30.7,51.1z M30.7,43.1c-0.7,0-1.3,0.2-1.8,0.7
			c-0.6,0.6-0.8,1.4-0.8,2.4c0,1.9,1,3.1,2.6,3.1l0,0c0.7,0,1.3-0.2,1.7-0.7c0.5-0.6,0.8-1.4,0.8-2.5C33.3,44.2,32.4,43.1,30.7,43.1
			L30.7,43.1z"/>
	</g>
</g>
</svg>
