<?xml version="1.0" encoding="utf-8"?>
<!-- Generator: Adobe Illustrator 20.1.0, SVG Export Plug-In . SVG Version: 6.00 Build 0)  -->
<svg version="1.1" xmlns="http://www.w3.org/2000/svg" xmlns:xlink="http://www.w3.org/1999/xlink" x="0px" y="0px"
	 viewBox="0 0 36 36" style="enable-background:new 0 0 36 36;" xml:space="preserve">
<style type="text/css">
	.st0{display:none;}
	.st1{display:inline;fill:#333333;}
	.st2{display:inline;fill:none;}
	.st3{fill:#3C67DE;}
</style>
<g id="Capa_1" class="st0">
	<path class="st1" d="M18,36C8.1,36,0,27.9,0,18S8.1,0,18,0s18,8.1,18,18S27.9,36,18,36z M18,1.4C8.8,1.4,1.4,8.8,1.4,18
		S8.8,34.6,18,34.6S34.6,27.2,34.6,18S27.2,1.4,18,1.4z"/>
	<path class="st2" d="M24.5,17H19v-5.5c0-0.5-0.5-0.9-1-0.9s-1,0.4-1,0.9V17h-5.5c-0.5,0-0.9,0.5-0.9,1s0.4,1,0.9,1H17v5.5
		c0,0.5,0.5,0.9,1,0.9s1-0.4,1-0.9V19h5.5c0.5,0,0.9-0.5,0.9-1S25,17,24.5,17z"/>
</g>
<g id="Layer_2">
	<path class="st3" d="M18,36C8.1,36,0,27.9,0,18S8.1,0,18,0s18,8.1,18,18S27.9,36,18,36z M18,1.4C8.8,1.4,1.4,8.8,1.4,18
		S8.8,34.6,18,34.6S34.6,27.2,34.6,18S27.2,1.4,18,1.4z"/>
	<polygon class="st3" points="30.3,18 11.9,7.4 11.9,28.6 	"/>
</g>
</svg>
