<?xml version="1.0" encoding="utf-8"?>
<!-- Generator: Adobe Illustrator 19.2.1, SVG Export Plug-In . SVG Version: 6.00 Build 0)  -->
<svg version="1.1" id="Capa_1" xmlns="http://www.w3.org/2000/svg" xmlns:xlink="http://www.w3.org/1999/xlink" x="0px" y="0px"
	 viewBox="0 0 45 42" style="enable-background:new 0 0 45 42;" xml:space="preserve">
<style type="text/css">
	.st0{fill:#003685;}
</style>
<path class="st0" d="M8.2,42c-0.1,0-0.3,0-0.4-0.1c-0.3-0.1-0.4-0.4-0.4-0.7v-5.5H3.1c-1.7,0-3.1-1.4-3.1-3.2V3.2C0,1.4,1.4,0,3.1,0
	h39c0,0,0,0,0.1,0C43.8,0.1,45,1.4,45,3.2v29.3c0,1.7-1.4,3.2-3.1,3.2H17.6l-9,6.2C8.5,42,8.4,42,8.2,42z M3.1,1.6
	c-0.8,0-1.5,0.7-1.5,1.5v29.3c0,0.8,0.7,1.5,1.5,1.5h5.2C8.6,34,9,34.4,9,34.8v4.8l7.9-5.5c0.1-0.1,0.3-0.1,0.4-0.1h24.6
	c0.8,0,1.5-0.7,1.5-1.5V3.2c0-0.9-0.6-1.5-1.4-1.5H3.1z"/>
</svg>
