<?xml version="1.0" encoding="utf-8"?>
<!-- Generator: Adobe Illustrator 19.2.1, SVG Export Plug-In . SVG Version: 6.00 Build 0)  -->
<svg version="1.1" id="Capa_1" xmlns="http://www.w3.org/2000/svg" xmlns:xlink="http://www.w3.org/1999/xlink" x="0px" y="0px"
	 viewBox="0 0 22 22" style="enable-background:new 0 0 22 22;" xml:space="preserve">
<style type="text/css">
	.st0{fill:#1A63D0;}
</style>
<path class="st0" d="M21.5,19.5c0,1.1-0.9,2-2,2h-17c-1,0-2-1-2-2V2.2c0-1,0.8-1.7,1.8-1.7h6.2c0.6,0,1,0.4,1,1c0,0.6-0.4,1-1,1h-5
	c-0.6,0-1,0.4-1,1v15c0,0.6,0.4,1,1,1h15c0.6,0,1-0.4,1-1v-4c0-0.6,0.4-1,1-1s1,0.4,1,1V19.5z M20.5,10.5c-0.6,0-1-0.4-1-1v-5
	l-6.3,5.8c-0.4,0.4-1.1,0.4-1.6,0c-0.4-0.4-0.6-1.4-0.2-1.8l7-6h-6c-0.6,0-1-0.4-1-1c0-0.6,0.6-1,1.2-1h7c1,0,1.8,0.8,1.8,1.7l0,7.3
	C21.5,10.1,21.1,10.5,20.5,10.5z"/>
</svg>
