<?xml version="1.0" encoding="utf-8"?>
<!-- Generator: Adobe Illustrator 19.2.1, SVG Export Plug-In . SVG Version: 6.00 Build 0)  -->
<svg version="1.1" id="Capa_1" xmlns="http://www.w3.org/2000/svg" xmlns:xlink="http://www.w3.org/1999/xlink" x="0px" y="0px"
	 viewBox="0 0 24 24" style="enable-background:new 0 0 24 24;" xml:space="preserve">
<style type="text/css">
	.st0{fill-rule:evenodd;clip-rule:evenodd;fill:#6E6F75;}
</style>
<path class="st0" d="M12,24c-2.4,0-4.7,0-7.1,0c-2.4,0-4.3-1.6-4.8-3.9C0,19.8,0,19.4,0,19.1c0-4.7,0-9.5,0-14.2
	c0-2.4,1.6-4.3,3.8-4.8C4.2,0,4.6,0,4.9,0c4.7,0,9.4,0,14.2,0C21.9,0,24,2.1,24,4.9c0,4.7,0,9.5,0,14.2c0,2.8-2.1,4.9-4.9,4.9
	C16.7,24,14.3,24,12,24z M2.7,10.2c0,0.1,0,0.2,0,0.3c0,3,0,6,0,9c0,1,0.7,1.7,1.7,1.7c5,0,10.1,0,15.1,0c1.1,0,1.7-0.6,1.7-1.7
	c0-3,0-6,0-9c0-0.1,0-0.2,0-0.3c-0.7,0-1.4,0-2,0c1.3,4.6-2.4,9-6.9,9.2c-2.1,0.1-3.9-0.6-5.4-2.1c-2-2-2.6-4.4-2-7.1
	C4.1,10.2,3.5,10.2,2.7,10.2z M16.6,12c0-2.5-2.1-4.6-4.6-4.6c-2.6,0-4.6,2.1-4.6,4.6c0,2.5,2.1,4.6,4.6,4.6
	C14.5,16.6,16.6,14.6,16.6,12z M18.9,2.8c-0.3,0-0.6,0-0.8,0c-0.8,0-1.5,0.7-1.5,1.5c0,0.6,0,1.1,0,1.7c0,0.8,0.7,1.4,1.5,1.5
	c0.6,0,1.1,0,1.7,0c0.8,0,1.4-0.7,1.5-1.5c0-0.6,0-1.1,0-1.7c0-0.8-0.7-1.5-1.5-1.5C19.4,2.8,19.1,2.8,18.9,2.8z"/>
</svg>
