<?xml version="1.0" encoding="utf-8"?>
<!-- Generator: Adobe Illustrator 19.2.1, SVG Export Plug-In . SVG Version: 6.00 Build 0)  -->
<svg version="1.1" id="Capa_1" xmlns="http://www.w3.org/2000/svg" xmlns:xlink="http://www.w3.org/1999/xlink" x="0px" y="0px"
	 viewBox="0 0 36 36" style="enable-background:new 0 0 36 36;" xml:space="preserve">
<style type="text/css">
	.st0{fill:#FFFFFF;}
	.st1{fill-rule:evenodd;clip-rule:evenodd;fill:none;}
</style>
<path class="st0" d="M18,36C8.1,36,0,27.9,0,18S8.1,0,18,0s18,8.1,18,18S27.9,36,18,36z M18,1.4C8.8,1.4,1.4,8.8,1.4,18
	S8.8,34.6,18,34.6S34.6,27.2,34.6,18S27.2,1.4,18,1.4z"/>
<path class="st1" d="M24.5,17H19v-5.5c0-0.5-0.5-0.9-1-0.9c-0.5,0-1,0.4-1,0.9V17h-5.5c-0.5,0-0.9,0.5-0.9,1c0,0.5,0.4,1,0.9,1H17
	v5.5c0,0.5,0.5,0.9,1,0.9c0.5,0,1-0.4,1-0.9V19h5.5c0.5,0,0.9-0.5,0.9-1C25.4,17.5,25,17,24.5,17z"/>
</svg>
