<?xml version="1.0" encoding="utf-8"?>
<!-- Generator: Adobe Illustrator 19.2.1, SVG Export Plug-In . SVG Version: 6.00 Build 0)  -->
<svg version="1.0" id="Capa_1" xmlns="http://www.w3.org/2000/svg" xmlns:xlink="http://www.w3.org/1999/xlink" x="0px" y="0px"
	 viewBox="0 0 65 60" style="enable-background:new 0 0 65 60;" xml:space="preserve">
<style type="text/css">
	.st0{fill:#1A63D0;}
</style>
<g>
	<path class="st0" d="M46.7,60.1H3.2c-1.8,0-3.3-1.5-3.3-3.3V8.7l8.3-8.6h38.5c1.8,0,3.3,1.5,3.3,3.3v18.4c0,0.5-0.4,0.8-0.8,0.8
		s-0.8-0.4-0.8-0.8V3.3c0-0.9-0.7-1.6-1.6-1.6H8.9L1.7,9.4v47.4c0,0.9,0.7,1.6,1.6,1.6h43.5c0.9,0,1.6-0.7,1.6-1.6V43.4
		c0-0.5,0.4-0.8,0.8-0.8s0.8,0.4,0.8,0.8v13.4C50,58.6,48.5,60.1,46.7,60.1z"/>
	<path class="st0" d="M6.4,10.5H1.1c-0.5,0-0.8-0.4-0.8-0.8c0-0.5,0.4-0.8,0.8-0.8h5.2c0.8,0,1.5-0.7,1.5-1.5V1.8
		c0-0.5,0.4-0.8,0.8-0.8c0.5,0,0.8,0.4,0.8,0.8v5.6C9.6,9.1,8.1,10.5,6.4,10.5z"/>
	<g>
		<path class="st0" d="M36.9,50.3l-0.1-4.7l22.7-28.3c0.5-0.6,1.2-1,2-1.1c0.8-0.1,1.6,0.1,2.2,0.6l0.3,0.3c1.3,1,1.5,2.9,0.4,4.2
			L41.6,49.6L36.9,50.3z M41.3,49L41.3,49L41.3,49z M38,46l0.1,2.8l2.9-0.4l22.4-27.9c0.6-0.8,0.5-1.8-0.2-2.4l-0.3-0.3
			c-0.4-0.3-0.8-0.4-1.2-0.4c-0.5,0-0.9,0.3-1.1,0.6L38,46z"/>
		<path class="st0" d="M48.5,27.8c-0.1,0-0.3,0-0.4-0.1c-0.3-0.2-0.3-0.6-0.1-0.9l6.8-8.5c1-1.3,2.9-1.5,4.2-0.5l4.1,3.2
			c0.3,0.2,0.3,0.6,0.1,0.9c-0.2,0.3-0.6,0.3-0.9,0.1l-4.1-3.2c-0.7-0.6-1.8-0.5-2.4,0.3L49,27.6C48.8,27.8,48.6,27.8,48.5,27.8z"/>
		<path class="st0" d="M52.9,34.9c-0.1,0-0.3,0-0.4-0.1l-3.8-3.2c-0.3-0.2-0.3-0.6-0.1-0.9c0.2-0.3,0.6-0.3,0.9-0.1l3.8,3.2
			c0.3,0.2,0.3,0.6,0.1,0.9C53.3,34.9,53.1,34.9,52.9,34.9z"/>
	</g>
	<path class="st0" d="M40.7,24.1H8.3c-0.6,0-1.1-0.5-1.1-1.1c0-0.6,0.5-1.1,1.1-1.1h32.4c0.6,0,1.1,0.5,1.1,1.1
		C41.8,23.6,41.3,24.1,40.7,24.1z"/>
	<path class="st0" d="M40.7,33.1H8.3c-0.6,0-1.1-0.5-1.1-1.1c0-0.6,0.5-1.1,1.1-1.1h32.4c0.6,0,1.1,0.5,1.1,1.1
		C41.8,32.7,41.3,33.1,40.7,33.1z"/>
	<path class="st0" d="M32.4,42.2H8.3c-0.6,0-1.1-0.5-1.1-1.1c0-0.6,0.5-1.1,1.1-1.1h24.1c0.6,0,1.1,0.5,1.1,1.1
		C33.5,41.7,33,42.2,32.4,42.2z"/>
	<path class="st0" d="M21.5,51.2H7.9c-0.6,0-1.1-0.5-1.1-1.1s0.5-1.1,1.1-1.1h13.7c0.6,0,1.1,0.5,1.1,1.1S22.1,51.2,21.5,51.2z"/>
	<path class="st0" d="M22.5,15.1H8.3c-0.6,0-1.1-0.5-1.1-1.1s0.5-1.1,1.1-1.1h14.1c0.6,0,1.1,0.5,1.1,1.1S23.1,15.1,22.5,15.1z"/>
</g>
</svg>
