<?xml version="1.0" encoding="utf-8"?>
<!-- Generator: Adobe Illustrator 19.2.1, SVG Export Plug-In . SVG Version: 6.00 Build 0)  -->
<svg version="1.1" id="Capa_1" xmlns="http://www.w3.org/2000/svg" xmlns:xlink="http://www.w3.org/1999/xlink" x="0px" y="0px"
	 viewBox="0 0 24 24" style="enable-background:new 0 0 24 24;" xml:space="preserve">
<style type="text/css">
	.st0{fill:#6E6F75;}
</style>
<path class="st0" d="M21.5,7c0,0.2,0,0.4,0,0.7c0,6.7-5,14.4-14,14.4c-2.8,0-5.4-0.8-7.5-2.3c0.4,0,0.8,0.1,1.2,0.1
	c2.3,0,4.4-0.8,6.1-2.2c-2.2,0-4-1.5-4.6-3.5c0.3,0.1,0.6,0.1,0.9,0.1c0.4,0,0.9-0.1,1.3-0.2C2.7,13.6,1,11.5,1,9.1c0,0,0,0,0-0.1
	c0.7,0.4,1.4,0.6,2.2,0.6C1.9,8.8,1,7.2,1,5.5c0-0.9,0.2-1.8,0.7-2.5C4.1,6,7.7,8,11.8,8.2c-0.1-0.4-0.1-0.8-0.1-1.2
	c0-2.8,2.2-5,4.9-5c1.4,0,2.7,0.6,3.6,1.6c1.1-0.2,2.2-0.6,3.1-1.2c-0.4,1.2-1.1,2.2-2.2,2.8c1-0.1,1.9-0.4,2.8-0.8
	C23.3,5.4,22.5,6.3,21.5,7z"/>
</svg>
