<?xml version="1.0" encoding="utf-8"?>
<!-- Generator: Adobe Illustrator 19.2.1, SVG Export Plug-In . SVG Version: 6.00 Build 0)  -->
<svg version="1.1" id="Capa_1" xmlns="http://www.w3.org/2000/svg" xmlns:xlink="http://www.w3.org/1999/xlink" x="0px" y="0px"
	 viewBox="0 0 350 310" style="enable-background:new 0 0 350 310;" xml:space="preserve">
<style type="text/css">
	.st0{fill:#003685;}
	.st1{fill:#CBD300;}
</style>
<g>
	<path class="st0" d="M109.3,160.3l13.4-27.4H98.5l1-6c2.2-12.2,9.6-22.4,21.4-22.4c4.5,0,8.3,0.7,11.6,2L148,80.6
		c-4-1.7-19.8-5.5-28.3-5.5c-12.1,0-25.2,3.2-35.3,11.5C72.1,96.8,66.3,112,63.5,126.7l-1,6.2H46.4l-9.3,27.4h20.2l-20,97h35.3
		l21-97H109.3z M175.1,141c-30.6-1.9-63.6,7.5-71.4,52.6l-12.3,64.1h36.3l9.2-50.8c4.9-24,12.7-38.1,29.8-38.1
		c9.3,0,12.8,6.3,12.9,14.1c0.1,4-0.4,8.2-1,12l-11.8,62.8h36.3l10.9-59.4c0.9-5.3,1.8-13.3,1.7-18.2
		C215.2,161.2,207.4,142.9,175.1,141z M297.8,141.7c-55.7,0-81.2,40.4-81.2,78.2c0,23.4,13.9,38.5,34.3,38.5
		c13.2,0,22.4,0.4,31.7-0.4l30.1-0.6c-0.5-14,22.3-110.2,22.3-110.2C325.9,144.2,311.5,141.7,297.8,141.7z M301.2,172.2l-4.9,22.9
		c-5.3,27.4-14.7,38.5-34,38.5c-9.7,0-14.4-7.5-14.4-18.4c0-20.7,21.4-46.7,44-46.7C295.6,168.5,302.2,168.3,301.2,172.2z"/>
	<g>
		<path class="st0" d="M162.1,308.6h-7.4l-0.7-6.4h-8.5l-2.8,6.4h-7.2l14-28.9h7.5L162.1,308.6z M153.5,298.2l-1.3-11l-4.8,11H153.5
			z"/>
		<path class="st0" d="M195.4,279.8l-4.2,28.9h-7l1.6-11.2h-13.1l-1.6,11.2H164l4.1-28.9h7.1l-1.5,10.7h13.1l1.5-10.7H195.4z"/>
		<path class="st0" d="M226.8,292.6c0,2.3-0.4,4.5-1.1,6.5c-0.7,2-1.8,3.7-3.2,5.2c-1.4,1.5-3.1,2.6-5.1,3.5c-2,0.8-4.1,1.2-6.6,1.2
			c-2.2,0-4.4-0.4-6.5-1.3c-2.1-0.9-3.9-2.3-5.3-4.3c-1.4-2-2.1-4.5-2.1-7.5c0-2.6,0.4-5,1.3-7.1c0.9-2.1,2.1-3.8,3.6-5.2
			c1.5-1.4,3.3-2.5,5.2-3.2c1.9-0.7,4-1.1,6.1-1.1c2.6,0,4.9,0.5,6.9,1.6c2.1,1.1,3.7,2.6,4.9,4.6
			C226.3,287.6,226.8,289.9,226.8,292.6z M219.4,293.1c0-1.5-0.3-2.7-0.8-3.8c-0.6-1.1-1.3-1.9-2.3-2.5c-1-0.6-2.1-0.9-3.3-0.9
			c-1.8,0-3.3,0.5-4.6,1.5c-1.3,1-2.3,2.2-2.9,3.7c-0.7,1.5-1,3-1,4.5c0,1.9,0.6,3.6,1.7,5c1.2,1.4,2.8,2,4.8,2
			c1.3,0,2.5-0.2,3.5-0.8c1-0.5,1.9-1.2,2.7-2.1c0.7-0.9,1.3-1.9,1.7-3.1C219.2,295.4,219.4,294.3,219.4,293.1z"/>
		<path class="st0" d="M254.3,308.6h-7.7l-2.8-6c-0.8-1.8-1.5-3.2-2.1-4.1c-0.6-0.9-1.1-1.5-1.6-1.7c-0.4-0.2-1-0.3-1.8-0.3h-1.1
			l-1.8,12.1h-7l4-28.9h10.8c3.9,0,6.6,0.9,8,2.7c1.4,1.8,2.1,3.7,2.1,5.8c0,2.2-0.6,3.9-1.8,5.2c-1.2,1.2-2.8,2-4.9,2.3
			c1.1,0.6,1.9,1.4,2.5,2.2c0.6,0.9,1.3,2.2,2.1,4L254.3,308.6z M246,288.1c0-1.1-0.4-2.1-1.2-2.9c-0.8-0.8-2.4-1.2-4.7-1.2H239
			l-1.2,8.3h2.8c2,0,3.4-0.4,4.2-1.3C245.6,290.1,246,289.2,246,288.1z"/>
		<path class="st0" d="M281.5,308.6h-7.7l-2.8-6c-0.8-1.8-1.5-3.2-2.1-4.1c-0.6-0.9-1.1-1.5-1.6-1.7c-0.4-0.2-1.1-0.3-1.8-0.3h-1.1
			l-1.8,12.1h-7l4-28.9h10.8c3.9,0,6.6,0.9,8,2.7c1.4,1.8,2.1,3.7,2.1,5.8c0,2.2-0.6,3.9-1.8,5.2c-1.2,1.2-2.8,2-4.9,2.3
			c1.1,0.6,1.9,1.4,2.5,2.2c0.6,0.9,1.3,2.2,2.1,4L281.5,308.6z M273.2,288.1c0-1.1-0.4-2.1-1.2-2.9c-0.8-0.8-2.4-1.2-4.7-1.2h-1.1
			l-1.2,8.3h2.8c2,0,3.4-0.4,4.2-1.3C272.8,290.1,273.2,289.2,273.2,288.1z"/>
		<path class="st0" d="M312.8,292.6c0,2.3-0.4,4.5-1.1,6.5c-0.8,2-1.8,3.7-3.2,5.2c-1.4,1.5-3.1,2.6-5.1,3.5c-2,0.8-4.1,1.2-6.6,1.2
			c-2.2,0-4.4-0.4-6.5-1.3c-2.1-0.9-3.9-2.3-5.3-4.3c-1.4-2-2.1-4.5-2.1-7.5c0-2.6,0.4-5,1.3-7.1c0.9-2.1,2.1-3.8,3.6-5.2
			c1.5-1.4,3.3-2.5,5.2-3.2c1.9-0.7,4-1.1,6.2-1.1c2.6,0,4.9,0.5,6.9,1.6c2.1,1.1,3.7,2.6,4.8,4.6
			C312.2,287.6,312.8,289.9,312.8,292.6z M305.4,293.1c0-1.5-0.3-2.7-0.8-3.8c-0.5-1.1-1.3-1.9-2.3-2.5c-1-0.6-2.1-0.9-3.3-0.9
			c-1.8,0-3.3,0.5-4.6,1.5c-1.3,1-2.3,2.2-2.9,3.7c-0.7,1.5-1,3-1,4.5c0,1.9,0.6,3.6,1.8,5c1.2,1.4,2.8,2,4.8,2
			c1.3,0,2.5-0.2,3.5-0.8c1-0.5,1.9-1.2,2.7-2.1c0.8-0.9,1.3-1.9,1.7-3.1C305.2,295.4,305.4,294.3,305.4,293.1z"/>
	</g>
	<path class="st1" d="M342.6,102c-51.2-26.8-125.5-54.6-148.7-62.1C108.4,57,20.2,93.9,9.6,97.5c-8.8,3-11.2-4.1-5.7-7.5
		C35.6,70.9,158.7,11.9,190.6,2.7c7-2.1,8.6-2.3,12.1-0.5c26.2,13.7,107,66.9,143.2,92.5C351.1,98.4,349.5,105.6,342.6,102z"/>
</g>
</svg>
