<?xml version="1.0" encoding="utf-8"?>
<!-- Generator: Adobe Illustrator 19.2.1, SVG Export Plug-In . SVG Version: 6.00 Build 0)  -->
<svg version="1.0" id="Capa_1" xmlns="http://www.w3.org/2000/svg" xmlns:xlink="http://www.w3.org/1999/xlink" x="0px" y="0px"
	 viewBox="0 0 11 228" style="enable-background:new 0 0 11 228;" xml:space="preserve">
<g>
	<polygon points="2.9,88 2.9,89.5 4.1,89.5 4.1,87.8 4.4,87.8 4.4,90 1.2,90 1.2,87.9 1.6,87.9 1.6,89.5 2.6,89.5 2.6,88 	"/>
	<path d="M3,84.3c-0.4,0-1,0.1-1.4,0.1v0c0.4,0.1,0.8,0.3,1.2,0.5l1.5,0.7v0.4l-1.5,0.6c-0.5,0.2-0.9,0.3-1.2,0.4v0
		c0.4,0,0.9,0,1.4,0.1l1.4,0.1v0.5l-3.2-0.3v-0.6L2.8,86c0.4-0.1,0.7-0.3,1.1-0.4v0c-0.3-0.1-0.7-0.2-1.1-0.4l-1.5-0.7v-0.6l3.2-0.2
		v0.5L3,84.3z"/>
	<path d="M1.3,83.2c0-0.2-0.1-0.5-0.1-0.9c0-0.5,0.1-0.8,0.3-1.1c0.2-0.2,0.4-0.3,0.7-0.3c0.3,0,0.5,0.1,0.7,0.3
		c0.2,0.3,0.3,0.7,0.3,1.2l0,0.4h1.3v0.5H1.3z M2.8,82.7l0-0.4c0-0.6-0.2-1-0.7-1c-0.4,0-0.6,0.4-0.6,0.9c0,0.2,0,0.4,0,0.5H2.8z"/>
	<path d="M1.3,80.4c0-0.2-0.1-0.6-0.1-0.9c0-0.5,0.1-0.9,0.3-1.1c0.1-0.2,0.4-0.3,0.6-0.3c0.4,0,0.7,0.3,0.8,0.7h0
		c0.1-0.3,0.3-0.5,0.6-0.5C4,78.1,4.3,78,4.4,78v0.5c-0.1,0.1-0.4,0.1-0.8,0.2C3.2,78.8,3.1,79,3,79.5v0.5h1.4v0.5H1.3z M2.7,79.9
		v-0.5c0-0.5-0.2-0.9-0.6-0.9c-0.4,0-0.6,0.3-0.6,0.9c0,0.2,0,0.4,0,0.5H2.7z"/>
	<polygon points="2.9,75.7 2.9,77.1 4.1,77.1 4.1,75.5 4.4,75.5 4.4,77.6 1.2,77.6 1.2,75.6 1.6,75.6 1.6,77.1 2.6,77.1 2.6,75.7 	
		"/>
	<path d="M3.9,75.2c0.1-0.2,0.2-0.5,0.2-0.9c0-0.5-0.2-0.8-0.5-0.8c-0.3,0-0.5,0.2-0.6,0.7c-0.2,0.6-0.5,1-0.9,1
		c-0.5,0-0.9-0.5-0.9-1.2c0-0.4,0.1-0.7,0.2-0.8l0.3,0.1c-0.1,0.1-0.2,0.4-0.2,0.7c0,0.5,0.3,0.7,0.5,0.7c0.3,0,0.4-0.2,0.6-0.7
		c0.2-0.6,0.5-1,0.9-1c0.5,0,0.9,0.4,0.9,1.3c0,0.4-0.1,0.8-0.2,1L3.9,75.2z"/>
	<path d="M3.4,72l1,0.4v0.5l-3.2-1.3V71l3.2-1.3v0.5l-1,0.4V72z M3.1,70.7l-0.9,0.4c-0.2,0.1-0.4,0.1-0.6,0.2v0
		c0.2,0.1,0.4,0.1,0.6,0.2l0.9,0.4V70.7z"/>
	<rect x="1.2" y="67.9" width="3.2" height="0.5"/>
	<path d="M4.4,67.3H1.2v-0.5l1.6-1.2c0.4-0.3,0.7-0.5,1-0.7l0,0c-0.4,0-0.8,0.1-1.3,0.1H1.2v-0.5h3.2v0.5l-1.6,1.2
		c-0.4,0.3-0.7,0.5-1.1,0.7v0c0.4,0,0.8,0,1.3,0h1.4V67.3z"/>
	<path d="M1.3,63.8c0-0.3-0.1-0.6-0.1-1c0-0.7,0.1-1.2,0.4-1.5c0.3-0.3,0.6-0.5,1.1-0.5c0.5,0,0.9,0.2,1.2,0.5
		c0.3,0.4,0.5,0.9,0.5,1.7c0,0.4,0,0.6,0,0.9H1.3z M4.1,63.3l0-0.5c0-1-0.5-1.6-1.4-1.6c-0.8,0-1.2,0.5-1.2,1.5c0,0.3,0,0.4,0,0.6
		H4.1z"/>
	<path d="M1.2,59.8h1.9c0.7,0,1-0.4,1-0.9c0-0.6-0.3-0.9-1-0.9H1.2v-0.5h1.9c1,0,1.4,0.6,1.4,1.4c0,0.8-0.4,1.4-1.4,1.4H1.2V59.8z"
		/>
	<path d="M3.9,57c0.1-0.2,0.2-0.5,0.2-0.9c0-0.5-0.2-0.8-0.5-0.8c-0.3,0-0.5,0.2-0.6,0.7c-0.2,0.6-0.5,1-0.9,1
		c-0.5,0-0.9-0.5-0.9-1.2c0-0.4,0.1-0.7,0.2-0.8l0.3,0.1c-0.1,0.1-0.2,0.4-0.2,0.7c0,0.5,0.3,0.7,0.5,0.7c0.3,0,0.4-0.2,0.6-0.8
		c0.2-0.6,0.5-1,0.9-1c0.5,0,0.9,0.4,0.9,1.3c0,0.4-0.1,0.8-0.2,1L3.9,57z"/>
	<polygon points="1.6,53.7 1.6,54.8 1.2,54.8 1.2,52 1.6,52 1.6,53.2 4.4,53.2 4.4,53.7 	"/>
	<path d="M1.3,51.8c0-0.2-0.1-0.6-0.1-0.9c0-0.5,0.1-0.9,0.3-1.1c0.1-0.2,0.4-0.3,0.6-0.3c0.4,0,0.7,0.3,0.8,0.7h0
		c0.1-0.3,0.3-0.5,0.6-0.5c0.4-0.1,0.7-0.2,0.9-0.3v0.5C4.3,49.9,4,50,3.7,50.1c-0.4,0.1-0.6,0.3-0.6,0.8v0.5h1.4v0.5H1.3z
		 M2.7,51.3v-0.5c0-0.5-0.2-0.9-0.6-0.9c-0.4,0-0.6,0.4-0.6,0.9c0,0.2,0,0.4,0,0.5H2.7z"/>
	<rect x="1.2" y="48.6" width="3.2" height="0.5"/>
	<path d="M3.4,47.3l1,0.4v0.5l-3.2-1.3v-0.6l3.2-1.3v0.5l-1,0.4V47.3z M3.1,46.1l-0.9,0.4c-0.2,0.1-0.4,0.1-0.6,0.2v0
		c0.2,0.1,0.4,0.1,0.6,0.2l0.9,0.4V46.1z"/>
	<polygon points="1.2,44.7 1.2,44.2 4.1,44.2 4.1,42.6 4.4,42.6 4.4,44.7 	"/>
	<path d="M4.4,40.8H3.1L1.2,42v-0.6l0.9-0.5c0.2-0.1,0.4-0.3,0.7-0.4v0c-0.2-0.1-0.4-0.2-0.7-0.4l-0.9-0.5V39l1.8,1.3h1.4V40.8z"/>
	<path d="M4.3,35.2c0.1,0.2,0.2,0.5,0.2,1c0,1.1-0.6,1.9-1.6,1.9c-1,0-1.7-0.8-1.7-2c0-0.5,0.1-0.8,0.1-0.9l0.3,0.1
		c-0.1,0.2-0.1,0.4-0.1,0.8c0,0.9,0.5,1.5,1.3,1.5c0.8,0,1.3-0.5,1.3-1.4c0-0.3,0-0.6-0.1-0.8L4.3,35.2z"/>
	<path d="M2.8,31.7c1.1,0,1.7,0.8,1.7,1.7c0,1-0.7,1.7-1.6,1.7c-1,0-1.7-0.7-1.7-1.8C1.2,32.4,1.8,31.7,2.8,31.7 M2.8,34.6
		c0.7,0,1.3-0.4,1.3-1.2c0-0.8-0.6-1.2-1.3-1.2c-0.6,0-1.3,0.4-1.3,1.2C1.5,34.2,2.1,34.6,2.8,34.6"/>
	<path d="M3,28.1c-0.4,0-1,0.1-1.4,0.1v0c0.4,0.1,0.8,0.3,1.2,0.5l1.5,0.7v0.4l-1.5,0.6c-0.5,0.2-0.9,0.3-1.2,0.4v0
		c0.4,0,0.9,0,1.4,0.1l1.4,0.1v0.5l-3.2-0.3v-0.6l1.5-0.6c0.4-0.2,0.7-0.3,1.1-0.4v0c-0.3-0.1-0.7-0.2-1.1-0.4l-1.5-0.7v-0.6
		l3.2-0.2V28L3,28.1z"/>
	<polygon points="2.9,25.1 2.9,26.5 4.1,26.5 4.1,24.9 4.4,24.9 4.4,27 1.2,27 1.2,25 1.6,25 1.6,26.5 2.6,26.5 2.6,25.1 	"/>
	<path d="M1.3,24.5c0-0.3-0.1-0.6-0.1-0.9c0-0.5,0.1-0.9,0.3-1.1c0.1-0.2,0.4-0.3,0.6-0.3c0.4,0,0.7,0.3,0.8,0.7h0
		c0.1-0.3,0.3-0.4,0.6-0.5C4,22.2,4.3,22.1,4.4,22v0.5c-0.1,0.1-0.4,0.1-0.8,0.3c-0.4,0.1-0.6,0.3-0.6,0.8V24h1.4v0.5H1.3z M2.7,24
		v-0.5c0-0.5-0.2-0.8-0.6-0.8c-0.4,0-0.6,0.3-0.6,0.9c0,0.2,0,0.4,0,0.5H2.7z"/>
	<path d="M4.3,19.1c0.1,0.2,0.2,0.5,0.2,1c0,1.1-0.6,1.9-1.6,1.9c-1,0-1.7-0.8-1.7-2c0-0.5,0.1-0.8,0.1-0.9l0.3,0.1
		c-0.1,0.2-0.1,0.4-0.1,0.8c0,0.9,0.5,1.5,1.3,1.5c0.8,0,1.3-0.5,1.3-1.4c0-0.3,0-0.6-0.1-0.8L4.3,19.1z"/>
	<rect x="1.2" y="18.2" width="3.2" height="0.5"/>
	<path d="M3.4,17l1,0.4v0.5l-3.2-1.3V16l3.2-1.3v0.5l-1,0.4V17z M3.1,15.7l-0.9,0.4c-0.2,0.1-0.4,0.1-0.6,0.2v0
		c0.2,0.1,0.4,0.1,0.6,0.2l0.9,0.4V15.7z"/>
	<polygon points="1.2,14.4 1.2,13.9 4.1,13.9 4.1,12.3 4.4,12.3 4.4,14.4 	"/>
	<path d="M6.6,90.9c0-0.3-0.1-0.7-0.1-1c0-0.7,0.1-1.2,0.4-1.5c0.3-0.3,0.6-0.5,1.1-0.5c0.5,0,0.9,0.2,1.2,0.5
		c0.3,0.4,0.5,0.9,0.5,1.7c0,0.3,0,0.6,0,0.9H6.6z M9.5,90.4l0-0.5c0-1-0.5-1.6-1.3-1.6c-0.8,0-1.2,0.5-1.2,1.5c0,0.2,0,0.4,0,0.6
		H9.5z"/>
	<polygon points="8.3,85.5 8.3,86.9 9.4,86.9 9.4,85.3 9.8,85.3 9.8,87.4 6.6,87.4 6.6,85.4 6.9,85.4 6.9,86.9 7.9,86.9 7.9,85.5 	
		"/>
	<polygon points="6.6,84.9 6.6,84.4 9.4,84.4 9.4,82.8 9.8,82.8 9.8,84.9 	"/>
	<polygon points="8.3,79.6 8.3,81 9.4,81 9.4,79.4 9.8,79.4 9.8,81.5 6.6,81.5 6.6,79.5 6.9,79.5 6.9,81 7.9,81 7.9,79.6 	"/>
	<path d="M9.3,79c0.1-0.2,0.2-0.5,0.2-0.9c0-0.5-0.2-0.8-0.5-0.8c-0.3,0-0.5,0.2-0.6,0.7c-0.2,0.6-0.5,1-0.9,1
		c-0.5,0-0.9-0.5-0.9-1.2c0-0.4,0.1-0.7,0.2-0.8L7,77.2c-0.1,0.1-0.2,0.4-0.2,0.7c0,0.5,0.3,0.7,0.5,0.7c0.3,0,0.4-0.2,0.6-0.7
		c0.2-0.6,0.5-1,0.9-1c0.5,0,0.9,0.4,0.9,1.3c0,0.4-0.1,0.8-0.2,1L9.3,79z"/>
	<polygon points="6.9,75.7 6.9,76.9 6.6,76.9 6.6,74.1 6.9,74.1 6.9,75.2 9.8,75.2 9.8,75.7 	"/>
	<path d="M8.8,73.7l1,0.4v0.5l-3.2-1.3v-0.6l3.2-1.3V72l-1,0.4V73.7z M8.5,72.5l-0.9,0.4C7.3,72.9,7.1,73,7,73v0
		c0.2,0.1,0.4,0.1,0.6,0.2l0.9,0.4V72.5z"/>
	<path d="M6.6,71.1c0-0.3-0.1-0.6-0.1-1c0-0.7,0.1-1.2,0.4-1.5C7.2,68.2,7.6,68,8.1,68c0.5,0,0.9,0.2,1.2,0.5
		c0.3,0.4,0.5,0.9,0.5,1.7c0,0.3,0,0.6,0,0.9H6.6z M9.5,70.6l0-0.5c0-1.1-0.5-1.6-1.3-1.6c-0.8,0-1.2,0.5-1.2,1.5c0,0.3,0,0.4,0,0.6
		H9.5z"/>
	<path d="M8.2,64.4c1.1,0,1.7,0.8,1.7,1.8c0,1-0.7,1.7-1.6,1.7c-1,0-1.7-0.7-1.7-1.7C6.5,65.1,7.2,64.4,8.2,64.4 M8.2,67.3
		c0.7,0,1.3-0.4,1.3-1.2c0-0.8-0.6-1.2-1.3-1.2c-0.6,0-1.3,0.4-1.3,1.2C6.9,66.9,7.5,67.3,8.2,67.3"/>
	<path d="M6.6,63c0-0.3-0.1-0.6-0.1-1c0-0.7,0.1-1.2,0.4-1.5c0.3-0.3,0.6-0.5,1.1-0.5c0.5,0,0.9,0.2,1.2,0.5
		c0.3,0.4,0.5,0.9,0.5,1.7c0,0.4,0,0.6,0,0.9H6.6z M9.5,62.5l0-0.5c0-1.1-0.5-1.6-1.3-1.6c-0.8,0-1.2,0.5-1.2,1.5c0,0.2,0,0.4,0,0.6
		H9.5z"/>
	<polygon points="8.3,57.6 8.3,59 9.4,59 9.4,57.4 9.8,57.4 9.8,59.5 6.6,59.5 6.6,57.5 6.9,57.5 6.9,59 7.9,59 7.9,57.6 	"/>
	<path d="M9.7,53.4c0.1,0.2,0.2,0.5,0.2,1c0,1.1-0.6,1.9-1.6,1.9c-1,0-1.7-0.8-1.7-2c0-0.5,0.1-0.8,0.1-0.9L7,53.5
		c-0.1,0.2-0.1,0.4-0.1,0.8c0,0.9,0.5,1.5,1.3,1.5c0.8,0,1.3-0.5,1.3-1.4c0-0.3-0.1-0.6-0.1-0.8L9.7,53.4z"/>
	<path d="M8.8,52.4l1,0.4v0.5L6.6,52v-0.6l3.2-1.3v0.5l-1,0.4V52.4z M8.5,51.1l-0.9,0.4c-0.2,0.1-0.4,0.1-0.6,0.2v0
		c0.2,0.1,0.4,0.1,0.6,0.2l0.9,0.4V51.1z"/>
	<path d="M6.6,49.8c0-0.3-0.1-0.6-0.1-0.9c0-0.5,0.1-0.9,0.3-1.1c0.1-0.2,0.4-0.3,0.6-0.3c0.4,0,0.7,0.3,0.8,0.7h0
		c0.1-0.3,0.3-0.5,0.6-0.5c0.4-0.1,0.7-0.2,0.9-0.3v0.5C9.7,47.9,9.4,48,9,48.1c-0.4,0.1-0.6,0.3-0.6,0.8v0.5h1.4v0.5H6.6z
		 M8.1,49.3v-0.5c0-0.5-0.2-0.9-0.6-0.9c-0.4,0-0.6,0.4-0.6,0.9c0,0.2,0,0.4,0,0.5H8.1z"/>
	<path d="M5.9,44.9l0.5,0.7V46l-0.5-0.5V44.9z M8.8,46.4l1,0.4v0.5L6.6,46v-0.6l3.2-1.3v0.5l-1,0.4V46.4z M8.5,45.1l-0.9,0.4
		c-0.2,0.1-0.4,0.1-0.6,0.2v0c0.2,0.1,0.4,0.1,0.6,0.2l0.9,0.4V45.1z"/>
	<path d="M9.7,41.2c0.1,0.2,0.2,0.5,0.2,1c0,1.1-0.6,1.9-1.6,1.9c-1,0-1.7-0.8-1.7-2c0-0.5,0.1-0.8,0.1-0.9L7,41.3
		c-0.1,0.2-0.1,0.4-0.1,0.8c0,0.9,0.5,1.5,1.3,1.5c0.8,0,1.3-0.5,1.3-1.4c0-0.3-0.1-0.6-0.1-0.8L9.7,41.2z"/>
	<polygon points="6.9,40 6.9,41.1 6.6,41.1 6.6,38.3 6.9,38.3 6.9,39.5 9.8,39.5 9.8,40 	"/>
	<polygon points="8.3,36.2 8.3,37.6 9.4,37.6 9.4,36 9.8,36 9.8,38.1 6.6,38.1 6.6,36.1 6.9,36.1 6.9,37.6 7.9,37.6 7.9,36.2 	"/>
	<path d="M6.6,35.6c0-0.2-0.1-0.6-0.1-0.9c0-0.5,0.1-0.9,0.3-1.1c0.1-0.2,0.4-0.3,0.6-0.3c0.4,0,0.7,0.3,0.8,0.7h0
		c0.1-0.3,0.3-0.5,0.6-0.5c0.4-0.1,0.7-0.2,0.9-0.3v0.5c-0.1,0.1-0.4,0.2-0.8,0.2c-0.4,0.1-0.6,0.3-0.6,0.8v0.5h1.4v0.5H6.6z
		 M8.1,35.1v-0.5c0-0.5-0.2-0.8-0.6-0.8c-0.4,0-0.6,0.4-0.6,0.9c0,0.2,0,0.4,0,0.5H8.1z"/>
	<polygon points="6.6,31.8 6.6,29.8 6.9,29.8 6.9,31.3 8,31.3 8,29.9 8.3,29.9 8.3,31.3 9.8,31.3 9.8,31.8 	"/>
	<rect x="6.6" y="28.8" width="3.2" height="0.5"/>
	<path d="M9.8,28.2H6.6v-0.5l1.6-1.2c0.4-0.3,0.7-0.5,1-0.7l0,0c-0.4,0-0.8,0.1-1.3,0.1H6.6v-0.5h3.2v0.5l-1.6,1.2
		c-0.4,0.3-0.7,0.5-1.1,0.7l0,0c0.4,0,0.8,0,1.3,0h1.4V28.2z"/>
	<path d="M8.8,24.1l1,0.4V25l-3.2-1.3v-0.6l3.2-1.3v0.5l-1,0.4V24.1z M8.5,22.9l-0.9,0.4c-0.2,0.1-0.4,0.1-0.6,0.2v0
		c0.2,0.1,0.4,0.1,0.6,0.2L8.5,24V22.9z"/>
	<path d="M9.8,21.6H6.6V21l1.6-1.2c0.4-0.3,0.7-0.5,1-0.7l0,0c-0.4,0-0.8,0.1-1.3,0.1H6.6v-0.5h3.2v0.5l-1.6,1.2
		c-0.4,0.3-0.7,0.5-1.1,0.7l0,0c0.4,0,0.8,0,1.3,0h1.4V21.6z"/>
	<path d="M9.7,15.5c0.1,0.2,0.2,0.5,0.2,1c0,1.1-0.6,1.9-1.6,1.9c-1,0-1.7-0.8-1.7-2c0-0.5,0.1-0.8,0.1-0.9L7,15.6
		c-0.1,0.2-0.1,0.4-0.1,0.8c0,0.9,0.5,1.5,1.3,1.5c0.8,0,1.3-0.5,1.3-1.4c0-0.3-0.1-0.6-0.1-0.8L9.7,15.5z"/>
	<rect x="6.6" y="14.6" width="3.2" height="0.5"/>
	<polygon points="8.3,12 8.3,13.5 9.4,13.5 9.4,11.8 9.8,11.8 9.8,14 6.6,14 6.6,11.9 6.9,11.9 6.9,13.5 7.9,13.5 7.9,12 	"/>
	<path d="M6.6,11.4c0-0.2-0.1-0.6-0.1-0.9c0-0.5,0.1-0.9,0.3-1.1C7,9.2,7.2,9.1,7.4,9.1c0.4,0,0.7,0.3,0.8,0.7h0
		c0.1-0.3,0.3-0.5,0.6-0.5C9.3,9.1,9.6,9.1,9.8,9v0.5C9.7,9.5,9.4,9.6,9,9.7C8.6,9.8,8.4,10,8.4,10.5V11h1.4v0.5H6.6z M8.1,11v-0.5
		c0-0.5-0.2-0.8-0.6-0.8c-0.4,0-0.6,0.4-0.6,0.9c0,0.2,0,0.4,0,0.5H8.1z"/>
	<path d="M8.2,5.4c1.1,0,1.7,0.8,1.7,1.8c0,1-0.7,1.7-1.6,1.7c-1,0-1.7-0.7-1.7-1.7C6.5,6.1,7.2,5.4,8.2,5.4 M8.2,8.3
		c0.7,0,1.3-0.4,1.3-1.2c0-0.8-0.6-1.2-1.3-1.2c-0.6,0-1.3,0.4-1.3,1.2C6.9,7.9,7.5,8.3,8.2,8.3"/>
	<polygon points="0.3,97.7 0,97.4 0.3,97 10.7,97 11,97.4 10.7,97.7 	"/>
	<polygon points="6.9,218.7 3.6,220 3.6,219.2 6,218.2 3.6,217.3 3.6,216.5 6.9,217.8 	"/>
	<rect x="3.6" y="213.6" width="3.2" height="0.8"/>
	<path d="M5.7,209.4H5.1v-1.7h1.3c0.1,0.2,0.3,0.4,0.3,0.7c0.1,0.3,0.2,0.6,0.2,0.9c0,0.4-0.1,0.8-0.2,1.1c-0.1,0.3-0.3,0.5-0.6,0.7
		c-0.3,0.2-0.5,0.2-0.9,0.2c-0.3,0-0.6-0.1-0.9-0.3c-0.3-0.2-0.5-0.4-0.6-0.7c-0.1-0.2-0.2-0.5-0.2-0.9c0-0.5,0.1-0.8,0.3-1.1
		c0.2-0.3,0.4-0.4,0.7-0.5l0.1,0.8c-0.2,0.1-0.3,0.2-0.4,0.3c-0.1,0.2-0.1,0.3-0.1,0.6c0,0.3,0.1,0.6,0.3,0.8
		c0.2,0.2,0.5,0.3,0.8,0.3c0.4,0,0.7-0.1,0.9-0.3c0.2-0.2,0.3-0.5,0.3-0.8l-0.1-0.5l-0.2-0.4H5.7V209.4z"/>
	<rect x="3.6" y="204.5" width="3.2" height="0.8"/>
	<polygon points="6.9,202.1 3.7,202.1 3.7,201.3 6.3,201.3 6.3,199.4 6.9,199.4 	"/>
	<path d="M6.9,193.7v0.8l-0.7,0.3v1.5l0.7,0.3v0.8L3.6,196v-0.8L6.9,193.7z M5.6,195.1l-1.2,0.5l1.2,0.5V195.1z"/>
	<path d="M3.6,191.5v-1.4c0-0.3,0-0.6,0.1-0.7c0.1-0.2,0.2-0.4,0.3-0.6c0.1-0.2,0.3-0.3,0.5-0.4c0.2-0.1,0.5-0.1,0.8-0.1
		c0.3,0,0.5,0,0.7,0.1c0.2,0.1,0.4,0.2,0.6,0.4c0.1,0.1,0.2,0.3,0.3,0.5c0,0.2,0.1,0.4,0.1,0.7v1.5H3.6z M4.2,190.8h2.1v-0.6
		c0-0.2,0-0.4,0-0.5l-0.1-0.3l-0.3-0.2c-0.1-0.1-0.3-0.1-0.6-0.1c-0.2,0-0.4,0-0.6,0.1l-0.3,0.2l-0.2,0.4c0,0.1,0,0.3,0,0.6V190.8z"
		/>
	<path d="M5.3,186.1c-0.3,0-0.6-0.1-0.8-0.2c-0.2-0.1-0.3-0.2-0.4-0.4c-0.1-0.2-0.2-0.3-0.3-0.5c-0.1-0.2-0.1-0.5-0.1-0.8
		c0-0.6,0.1-1,0.4-1.4c0.3-0.3,0.7-0.5,1.2-0.5c0.5,0,0.9,0.2,1.2,0.5c0.3,0.3,0.4,0.8,0.4,1.3c0,0.6-0.1,1-0.4,1.4
		C6.2,186,5.8,186.1,5.3,186.1 M5.3,185.3c0.4,0,0.6-0.1,0.8-0.3c0.2-0.2,0.3-0.5,0.3-0.8c0-0.3-0.1-0.6-0.3-0.8
		c-0.2-0.2-0.5-0.3-0.8-0.3c-0.4,0-0.6,0.1-0.8,0.3c-0.2,0.2-0.3,0.4-0.3,0.8c0,0.3,0.1,0.6,0.3,0.8C4.6,185.2,4.9,185.3,5.3,185.3"
		/>
	<path d="M3.4,178.5l0-0.6c0.2,0,0.3-0.1,0.4-0.2l0.1-0.4l-0.1-0.4l-0.2-0.1l-0.2,0.1L3.3,177c0,0.1-0.1,0.2-0.1,0.5
		c-0.1,0.3-0.2,0.5-0.2,0.7c-0.1,0.2-0.3,0.3-0.5,0.3l-0.4-0.1l-0.3-0.4c-0.1-0.2-0.1-0.3-0.1-0.6c0-0.4,0.1-0.6,0.2-0.8
		c0.1-0.2,0.3-0.3,0.6-0.3l0,0.6L2.2,177l-0.1,0.4l0.1,0.4l0.2,0.1l0.2-0.1c0.1-0.1,0.1-0.3,0.2-0.6c0.1-0.3,0.1-0.5,0.2-0.6
		l0.3-0.3l0.4-0.1l0.4,0.1l0.3,0.4c0.1,0.2,0.1,0.4,0.1,0.6c0,0.4-0.1,0.7-0.2,0.9C3.9,178.4,3.7,178.5,3.4,178.5"/>
	<path d="M1.8,175.5v-0.6h1.3c0.2,0,0.4,0,0.4,0l0.2-0.2l0.1-0.4l-0.1-0.4l-0.2-0.2c-0.1,0-0.2,0-0.4,0H1.8v-0.6h1.3
		c0.3,0,0.5,0,0.6,0.1l0.3,0.2l0.2,0.3c0.1,0.1,0.1,0.3,0.1,0.6c0,0.3,0,0.5-0.1,0.6L4,175.2l-0.3,0.2c-0.1,0-0.4,0.1-0.6,0.1H1.8z"
		/>
	<path d="M4.3,172.3H1.8v-1c0-0.4,0-0.6,0-0.7l0.2-0.4c0.1-0.1,0.3-0.2,0.5-0.2l0.4,0.1l0.2,0.3l0.1,0.3c0,0.1,0,0.3,0,0.6v0.4h0.9
		V172.3z M2.2,171.7h0.7v-0.3c0-0.2,0-0.4,0-0.5l-0.1-0.2l-0.2-0.1l-0.2,0.1L2.2,171c0,0.1,0,0.2,0,0.4V171.7z"/>
	<polygon points="4.3,169.4 1.8,169.4 1.8,167.2 2.2,167.2 2.2,168.8 2.7,168.8 2.7,167.3 3.2,167.3 3.2,168.8 3.8,168.8 3.8,167.2 
		4.3,167.2 	"/>
	<path d="M4.3,166.5H1.8v-1.3c0-0.3,0-0.6,0.1-0.7l0.2-0.3l0.4-0.1c0.2,0,0.3,0.1,0.5,0.2c0.1,0.1,0.2,0.3,0.2,0.6l0.2-0.3
		c0.1-0.1,0.2-0.2,0.4-0.3l0.5-0.4v0.7L3.7,165c-0.2,0.1-0.3,0.2-0.4,0.3l-0.1,0.2l0,0.3v0.1h1V166.5z M2.8,165.9v-0.4
		c0-0.3,0-0.5,0-0.5l-0.1-0.2l-0.2-0.1l-0.2,0.1L2.2,165c0,0.1,0,0.2,0,0.4v0.5H2.8z"/>
	<rect x="1.8" y="162.8" width="2.5" height="0.6"/>
	<polygon points="4.3,162 1.8,162 1.8,161.5 3.4,160.3 1.8,160.3 1.8,159.7 4.3,159.7 4.3,160.3 2.6,161.5 4.3,161.5 	"/>
	<polygon points="4.3,158.2 2.2,158.2 2.2,159.1 1.8,159.1 1.8,156.8 2.2,156.8 2.2,157.7 4.3,157.7 	"/>
	<polygon points="4.3,156.2 1.8,156.2 1.8,154 2.2,154 2.2,155.6 2.7,155.6 2.7,154.2 3.2,154.2 3.2,155.6 3.8,155.6 3.8,154 
		4.3,154 	"/>
	<polygon points="4.3,153.3 1.8,153.3 1.8,152.7 3.4,151.5 1.8,151.5 1.8,151 4.3,151 4.3,151.6 2.6,152.8 4.3,152.8 	"/>
	<path d="M1.8,150.2v-1.1c0-0.2,0-0.4,0-0.6l0.2-0.4l0.4-0.3c0.2-0.1,0.3-0.1,0.6-0.1c0.2,0,0.4,0,0.5,0.1c0.2,0.1,0.3,0.2,0.4,0.3
		l0.2,0.4c0,0.1,0,0.3,0,0.5v1.1H1.8z M2.2,149.6h1.6v-0.4l0-0.4l-0.1-0.2l-0.2-0.2c-0.1,0-0.3-0.1-0.5-0.1c-0.2,0-0.3,0-0.4,0.1
		l-0.2,0.2l-0.1,0.3c0,0.1,0,0.3,0,0.5V149.6z"/>
	<polygon points="4.3,147 1.8,147 1.8,144.9 2.2,144.9 2.2,146.4 2.7,146.4 2.7,145 3.2,145 3.2,146.4 3.8,146.4 3.8,144.8 
		4.3,144.8 	"/>
	<polygon points="4.3,144.1 1.8,144.1 1.8,143.5 3.4,142.3 1.8,142.3 1.8,141.8 4.3,141.8 4.3,142.4 2.6,143.6 4.3,143.6 	"/>
	<path d="M3.3,139.1l0.2-0.6c0.3,0.1,0.5,0.2,0.6,0.4c0.1,0.2,0.2,0.5,0.2,0.8c0,0.4-0.1,0.7-0.3,1c-0.2,0.3-0.5,0.4-0.9,0.4
		c-0.4,0-0.7-0.1-1-0.4c-0.2-0.3-0.3-0.6-0.3-1c0-0.4,0.1-0.7,0.3-0.9c0.1-0.1,0.3-0.2,0.5-0.3l0.1,0.6l-0.3,0.2l-0.1,0.4
		c0,0.2,0.1,0.4,0.2,0.5c0.1,0.1,0.4,0.2,0.6,0.2c0.3,0,0.5-0.1,0.7-0.2c0.1-0.1,0.2-0.3,0.2-0.5l-0.1-0.4
		C3.7,139.2,3.5,139.1,3.3,139.1"/>
	<rect x="1.8" y="137.3" width="2.5" height="0.6"/>
	<path d="M4.3,133.9v0.6l-0.6,0.3v1.2l0.6,0.2v0.6l-2.5-1.2v-0.6L4.3,133.9z M3.3,135l-0.9,0.4l0.9,0.4V135z"/>
	<polygon points="4.3,132.2 1.8,132.2 1.8,130.2 2.2,130.2 2.2,131.6 2.8,131.6 2.8,130.4 3.2,130.4 3.2,131.6 4.3,131.6 	"/>
	<rect x="1.8" y="129" width="2.5" height="0.6"/>
	<polygon points="4.3,128.2 1.8,128.2 1.8,127.7 3.4,126.5 1.8,126.5 1.8,125.9 4.3,125.9 4.3,126.5 2.6,127.7 4.3,127.7 	"/>
	<path d="M4.3,122.5v0.6l-0.6,0.3v1.2l0.6,0.2v0.6l-2.5-1.1v-0.6L4.3,122.5z M3.3,123.5L2.3,124l0.9,0.4V123.5z"/>
	<polygon points="4.3,122 1.8,122 1.8,121.4 3.4,120.2 1.8,120.2 1.8,119.6 4.3,119.6 4.3,120.2 2.6,121.4 4.3,121.4 	"/>
	<path d="M3.3,116.9l0.2-0.6c0.3,0.1,0.5,0.2,0.6,0.4c0.1,0.2,0.2,0.5,0.2,0.8c0,0.4-0.1,0.7-0.3,1c-0.2,0.3-0.5,0.4-0.9,0.4
		c-0.4,0-0.7-0.1-1-0.4c-0.2-0.3-0.3-0.6-0.3-1c0-0.4,0.1-0.7,0.3-0.9c0.1-0.1,0.3-0.2,0.5-0.3l0.1,0.6l-0.3,0.2l-0.1,0.4
		c0,0.2,0.1,0.4,0.2,0.5c0.1,0.1,0.4,0.2,0.6,0.2c0.3,0,0.5-0.1,0.7-0.2c0.1-0.1,0.2-0.3,0.2-0.5l-0.1-0.4
		C3.7,117.1,3.5,117,3.3,116.9"/>
	<rect x="1.8" y="115.1" width="2.5" height="0.6"/>
	<polygon points="4.3,114.4 1.8,114.4 1.8,112.2 2.2,112.2 2.2,113.8 2.7,113.8 2.7,112.3 3.2,112.3 3.2,113.8 3.8,113.8 3.8,112.1 
		4.3,112.1 	"/>
	<path d="M4.3,111.5H1.8v-1.3c0-0.3,0-0.5,0.1-0.7l0.2-0.3l0.4-0.1c0.2,0,0.3,0.1,0.5,0.2c0.1,0.1,0.2,0.3,0.2,0.6l0.2-0.3
		c0.1-0.1,0.2-0.2,0.4-0.3l0.5-0.4v0.7L3.7,110c-0.2,0.2-0.3,0.3-0.4,0.3l-0.1,0.2l0,0.3v0.1h1V111.5z M2.8,110.9v-0.4
		c0-0.3,0-0.5,0-0.5l-0.1-0.2l-0.2-0.1l-0.2,0.1L2.2,110c0,0,0,0.2,0,0.4v0.5H2.8z"/>
	<path d="M4.3,105.7v0.6l-0.6,0.3v1.2l0.6,0.3v0.6l-2.5-1.1v-0.6L4.3,105.7z M3.3,106.8l-0.9,0.4l0.9,0.4V106.8z"/>
	<path d="M6.2,157.3v-1.1c0-0.2,0-0.4,0.1-0.6l0.2-0.4l0.4-0.3c0.2-0.1,0.4-0.1,0.6-0.1c0.2,0,0.4,0,0.5,0.1
		c0.2,0.1,0.3,0.2,0.4,0.3l0.2,0.4c0,0.1,0,0.3,0,0.5v1.1H6.2z M6.7,156.7h1.7v-0.4l0-0.4l-0.1-0.2L8,155.5c-0.1,0-0.3-0.1-0.5-0.1
		c-0.2,0-0.3,0-0.4,0.1l-0.2,0.2L6.7,156c0,0.1,0,0.2,0,0.5V156.7z"/>
	<polygon points="8.7,154.2 6.2,154.2 6.2,152 6.7,152 6.7,153.6 7.2,153.6 7.2,152.1 7.6,152.1 7.6,153.6 8.3,153.6 8.3,152 
		8.7,152 	"/>
	<path d="M7.8,148.1l0.2-0.6c0.3,0.1,0.5,0.2,0.6,0.4c0.1,0.2,0.2,0.5,0.2,0.8c0,0.4-0.1,0.7-0.3,1c-0.2,0.3-0.5,0.4-0.9,0.4
		c-0.4,0-0.7-0.1-1-0.4c-0.2-0.2-0.3-0.6-0.3-1c0-0.4,0.1-0.7,0.3-0.9c0.1-0.1,0.3-0.2,0.5-0.3l0.1,0.6l-0.3,0.2l-0.1,0.4
		c0,0.2,0.1,0.4,0.2,0.5c0.1,0.1,0.3,0.2,0.6,0.2c0.3,0,0.5-0.1,0.7-0.2c0.1-0.1,0.2-0.3,0.2-0.5l-0.1-0.4
		C8.1,148.2,8,148.1,7.8,148.1"/>
	<path d="M7.5,147c-0.3,0-0.5,0-0.6-0.1l-0.3-0.3l-0.2-0.4c-0.1-0.2-0.1-0.4-0.1-0.6c0-0.4,0.1-0.8,0.3-1c0.2-0.3,0.5-0.4,0.9-0.4
		c0.4,0,0.7,0.1,0.9,0.4c0.2,0.3,0.3,0.6,0.3,1c0,0.4-0.1,0.8-0.3,1C8.2,146.8,7.9,147,7.5,147 M7.5,146.3c0.3,0,0.5-0.1,0.6-0.2
		c0.1-0.2,0.2-0.4,0.2-0.6c0-0.2-0.1-0.4-0.2-0.6c-0.1-0.2-0.4-0.2-0.7-0.2c-0.3,0-0.5,0.1-0.6,0.2c-0.1,0.1-0.2,0.4-0.2,0.6
		c0,0.2,0.1,0.4,0.2,0.6C7,146.3,7.2,146.3,7.5,146.3"/>
	<polygon points="8.7,143.4 6.3,143.4 6.3,142.8 8.3,142.8 8.3,141.4 8.7,141.4 	"/>
	<path d="M7.5,140.9c-0.3,0-0.5-0.1-0.6-0.1l-0.3-0.3l-0.2-0.4c-0.1-0.2-0.1-0.4-0.1-0.6c0-0.4,0.1-0.8,0.3-1
		c0.2-0.3,0.5-0.4,0.9-0.4c0.4,0,0.7,0.1,0.9,0.4c0.2,0.3,0.3,0.6,0.3,1c0,0.4-0.1,0.8-0.3,1C8.2,140.8,7.9,140.9,7.5,140.9
		 M7.5,140.3c0.3,0,0.5-0.1,0.6-0.2c0.1-0.2,0.2-0.4,0.2-0.6c0-0.2-0.1-0.4-0.2-0.6c-0.1-0.2-0.4-0.2-0.7-0.2
		c-0.3,0-0.5,0.1-0.6,0.2c-0.1,0.1-0.2,0.3-0.2,0.6c0,0.2,0.1,0.4,0.2,0.6C7,140.2,7.2,140.3,7.5,140.3"/>
	<polygon points="8.7,137.4 6.2,137.4 6.2,136.5 7.9,136 6.2,135.5 6.2,134.6 8.7,134.6 8.7,135.1 6.8,135.1 8.7,135.7 8.7,136.3 
		6.8,136.9 8.7,136.9 	"/>
	<path d="M6.2,133.8v-1.2c0-0.2,0-0.4,0-0.5l0.1-0.3l0.2-0.2l0.3-0.1l0.3,0.1l0.2,0.3l0.2-0.4l0.4-0.2l0.3,0.1l0.3,0.3l0.1,0.4
		c0,0.1,0,0.3,0,0.7v1H6.2z M6.7,133.2h0.6v-0.4c0-0.2,0-0.4,0-0.4l-0.1-0.2l-0.2-0.1l-0.2,0.1l-0.1,0.2c0,0.1,0,0.2,0,0.5V133.2z
		 M7.7,133.2h0.7v-0.5c0-0.2,0-0.4,0-0.4L8.2,132L8,132L7.8,132l-0.1,0.2c0,0.1,0,0.3,0,0.5V133.2z"/>
	<rect x="6.2" y="130.1" width="2.5" height="0.6"/>
	<path d="M8.7,126.7v0.6l-0.6,0.3v1.2l0.6,0.2v0.6l-2.5-1.1v-0.6L8.7,126.7z M7.8,127.8l-0.9,0.4l0.9,0.4V127.8z"/>
	<rect x="1" y="181" width="0.8" height="41.6"/>
	<rect x="9.2" y="181" width="0.8" height="41.6"/>
</g>
</svg>
