<?xml version="1.0" encoding="utf-8"?>
<!-- Generator: Adobe Illustrator 19.0.0, SVG Export Plug-In . SVG Version: 6.00 Build 0)  -->
<svg version="1.1" id="Capa_1" xmlns="http://www.w3.org/2000/svg" xmlns:xlink="http://www.w3.org/1999/xlink" x="0px" y="0px"
	 viewBox="0 0 126 78" style="enable-background:new 0 0 126 78;" xml:space="preserve">
<style type="text/css">
	.st0{fill-rule:evenodd;clip-rule:evenodd;fill:#FFFFFF;}
	.st1{fill-rule:evenodd;clip-rule:evenodd;fill:#004C96;}
	.st2{fill-rule:evenodd;clip-rule:evenodd;fill:#00548C;}
	.st3{fill-rule:evenodd;clip-rule:evenodd;fill:#E5EDF5;}
	.st4{fill:#FFFFFF;}
	.st5{fill:#0064A7;}
	.st6{fill:#E63339;}
	.st7{fill:#3B489F;}
	.st8{fill:#F1EE44;}
</style>
<g id="XMLID_316_">
	<g id="XMLID_212_">
		<path id="XMLID_269_" class="st0" d="M104,17c12.2,0,22,9.8,22,22c0,12.1-9.9,22-22,22c-12.2,0-22-9.8-22-22
			C82,26.8,91.8,17,104,17L104,17z"/>
		<path id="XMLID_235_" class="st1" d="M104,23.5c8.1,0,14.8,6.3,15.4,14.3h6.6c-0.6-11.6-10.2-20.8-22-20.8s-21.4,9.2-22,20.8h6.6
			C89.2,29.8,95.8,23.5,104,23.5L104,23.5z M119.4,40.1c-0.6,8-7.3,14.3-15.4,14.3c-8.1,0-14.8-6.3-15.4-14.3H82
			c0.6,11.6,10.2,20.8,22,20.8c11.8,0,21.4-9.2,22-20.8H119.4L119.4,40.1z M87.2,29.2c-0.4-0.2-1-0.1-1.4,0.6
			c-0.3,0.6-0.2,1.3,0.7,1.8c0.8,0.4,1.5,0.2,1.8-0.4c0.3-0.6,0.1-1.1-0.3-1.5l-0.3,0.5c0.3,0.2,0.3,0.5,0.2,0.8
			c-0.2,0.4-0.7,0.4-1.1,0.2c-0.7-0.4-0.6-0.8-0.5-1c0.2-0.4,0.5-0.3,0.7-0.3L87.2,29.2L87.2,29.2z M90.1,24.1l-1.4,1.4l2,1.9
			l1.4-1.5l-0.3-0.3l-1,1.1l-0.5-0.5l0.9-1L90.8,25l-0.9,1l-0.4-0.4l1-1L90.1,24.1L90.1,24.1z M94.6,24.1l0.5-0.3l-0.5-0.9l0.5-0.3
			c0.4-0.2,0.5-0.1,0.6,0.2c0.1,0.2,0.2,0.4,0.3,0.4l0.5-0.3l0-0.1c-0.1,0-0.2-0.1-0.4-0.4C95.9,22,95.8,22,95.6,22
			c0.2-0.2,0.2-0.5,0.1-0.8c-0.1-0.2-0.5-0.6-1.1-0.3l-1.2,0.7L94.6,24.1L94.6,24.1z M94.4,22.5L94,21.8l0.6-0.3
			c0.3-0.2,0.4,0,0.5,0.1c0.1,0.2,0.1,0.4-0.2,0.5L94.4,22.5L94.4,22.5z M100.2,19.5l0.8-0.2l-0.1-0.5l-2.2,0.5l0.1,0.5l0.8-0.2
			l0.5,2.2l0.6-0.1L100.2,19.5L100.2,19.5z M105.1,18.7h-0.6v2.7h0.6V18.7L105.1,18.7z M109.1,21l1.1,0.3l0.1-0.5l-1.1-0.3l0.2-0.6
			l1.3,0.4l0.1-0.5l-1.9-0.5l-0.7,2.6l0.5,0.2L109.1,21L109.1,21z M114.8,21.8l-0.5-0.3l-1.4,2.3l0.5,0.3L114.8,21.8L114.8,21.8z
			 M119.3,25.7l-1.4-1.5l-2,1.9l1.4,1.5l0.4-0.3l-1-1.1l0.5-0.5l0.9,1l0.4-0.3l-0.9-1l0.4-0.4l1,1.1L119.3,25.7L119.3,25.7z
			 M119.2,30.2l0.6,1c0.4,0.8,1.3,0.6,1.8,0.3c0.5-0.2,1.1-0.8,0.6-1.6l-0.6-1.1L119.2,30.2L119.2,30.2z M121.4,29.6l0.3,0.5
			c0.1,0.2,0.2,0.6-0.5,1c-0.4,0.2-0.9,0.3-1.1-0.1l-0.3-0.5L121.4,29.6L121.4,29.6z M87.5,44.6l-0.2-0.8l-2.2,0.1l0,0l1.9-1.1
			l-0.2-0.8l-2.6,0.7l0.1,0.5l2.2-0.6l0,0l-2,1.1l0.2,0.5l2.3-0.1l0,0l-2.2,0.6l0.1,0.5L87.5,44.6L87.5,44.6z M86.1,46.9l0.4,0.9
			L86,48.2l0.3,0.6l2.1-2l-0.3-0.6l-2.9,0.2l0.2,0.5L86.1,46.9L86.1,46.9z M87.7,46.7L87.7,46.7l-0.8,0.8l-0.3-0.6L87.7,46.7
			L87.7,46.7z M88.6,50.6L88.6,50.6l0.9-2l-0.3-0.5l-2.2,1.6l0.3,0.4l1.6-1.1l0,0l-0.9,2l0.3,0.5l2.2-1.6l-0.3-0.4L88.6,50.6
			L88.6,50.6z M89.8,52.5l0.7,0.7l-0.3,0.5l0.4,0.4l1.2-2.6l-0.5-0.5l-2.6,1.3l0.4,0.4L89.8,52.5L89.8,52.5z M91.3,51.8L91.3,51.8
			l-0.5,1l-0.5-0.5L91.3,51.8L91.3,51.8z M93.1,54.7l0.5,0.4c-0.4,0.4-0.8,0.2-0.9,0.1c-0.3-0.2-0.5-0.6-0.1-1.2
			c0.4-0.6,0.9-0.6,1.2-0.3c0.3,0.2,0.3,0.6,0.2,0.7l0.5,0.3c0.2-0.3,0.2-1-0.4-1.4c-0.7-0.5-1.5-0.2-1.9,0.4
			c-0.6,0.8-0.4,1.5,0.2,1.9c0.4,0.3,0.7,0.2,0.9,0.2L93.1,56l0.3,0.2l0.9-1.2l-0.9-0.7L93.1,54.7L93.1,54.7z M97.6,55.2l-1.8-0.8
			l-1.1,2.5l1.9,0.9l0.2-0.4l-1.4-0.6l0.3-0.6l1.2,0.6l0.2-0.4l-1.2-0.6l0.2-0.5l1.3,0.6L97.6,55.2L97.6,55.2z M101,56.3l-0.8-0.2
			L99.1,58l0,0l0.2-2.2l-0.8-0.2l-0.8,2.6l0.5,0.2l0.7-2.2l0,0l-0.2,2.3l0.5,0.2l1.1-2l0,0l-0.7,2.2l0.5,0.2L101,56.3L101,56.3z
			 M103.8,56.5l-2-0.2l-0.2,2.7l2.1,0.2l0-0.5l-1.5-0.1l0.1-0.7l1.3,0.1l0-0.5l-1.3-0.1l0-0.6l1.4,0.1L103.8,56.5L103.8,56.5z
			 M106.4,58.2L106.4,58.2l-1.2-1.8l-0.6,0.1l0.2,2.7l0.5,0l-0.2-1.9l0,0l1.3,1.8l0.6,0l-0.2-2.7l-0.5,0L106.4,58.2L106.4,58.2z
			 M108.8,56.2l0.8-0.2l-0.1-0.5l-2.1,0.6l0.1,0.5l0.8-0.2l0.7,2.1l0.5-0.2L108.8,56.2L108.8,56.2z M111.8,56.7
			c0.2,0.3,0.6,0.7,1.5,0.3c0.2-0.1,0.9-0.6,0.5-1.3c-0.2-0.4-0.6-0.4-1-0.3l-0.7,0.2c-0.1,0-0.3,0.1-0.4-0.1
			c-0.1-0.2,0.1-0.4,0.3-0.5c0.4-0.2,0.6,0,0.7,0.1l0.5-0.3c-0.2-0.3-0.6-0.7-1.3-0.3c-0.8,0.4-0.7,1-0.5,1.2
			c0.3,0.5,0.7,0.4,1.1,0.3l0.3-0.1c0.3-0.1,0.5-0.1,0.6,0.1c0.1,0.3-0.1,0.5-0.3,0.6c-0.4,0.2-0.6,0-0.7-0.1L111.8,56.7L111.8,56.7
			z M115.6,54.2l-0.3-1.9l-0.5,0.4l0.3,1.3l-1.1-0.6l-0.5,0.4l1.8,0.8l0.6,0.8l0.5-0.3L115.6,54.2L115.6,54.2z M117.1,53.3
			c0.2,0.2,0.8,0.5,1.5-0.2c0.2-0.2,0.7-0.8,0.1-1.4c-0.4-0.3-0.7-0.2-1,0l-0.6,0.4c-0.1,0.1-0.2,0.2-0.4,0
			c-0.2-0.2-0.1-0.4,0.1-0.6c0.3-0.4,0.6-0.2,0.7-0.1l0.4-0.4c-0.2-0.2-0.8-0.4-1.4,0.2c-0.6,0.6-0.3,1.1-0.1,1.3
			c0.4,0.4,0.8,0.2,1.2-0.1l0.2-0.2c0.2-0.2,0.4-0.3,0.6-0.1c0.2,0.2,0.1,0.5-0.1,0.7c-0.3,0.4-0.6,0.2-0.7,0.1L117.1,53.3
			L117.1,53.3z M118.9,49l0.5-0.7l-0.4-0.3l-1.3,1.8l0.4,0.3l0.5-0.7l1.8,1.3l0.3-0.5L118.9,49L118.9,49z M120.2,45.7l-0.9,1.8
			l2.4,1.2l0.9-1.8l-0.4-0.2l-0.7,1.3l-0.6-0.3l0.6-1.2l-0.4-0.2l-0.6,1.2l-0.5-0.3l0.7-1.3L120.2,45.7L120.2,45.7z M121.2,42.4
			l-0.2,0.8l1.9,1.1l0,0l-2.2-0.1l-0.2,0.8l2.6,0.7l0.1-0.5l-2.2-0.6l0,0l2.3,0.1l0.2-0.5l-2-1.1l0,0l2.2,0.6l0.1-0.5L121.2,42.4
			L121.2,42.4z M82,39.2h6.5c0-0.1,0-0.2,0-0.3c0-0.1,0-0.2,0-0.3H82c0,0.1,0,0.2,0,0.3C82,39,82,39.1,82,39.2L82,39.2z M119.5,39.2
			h6.5c0-0.1,0-0.2,0-0.3c0-0.1,0-0.2,0-0.3h-6.5c0,0.1,0,0.2,0,0.3C119.5,39,119.5,39.1,119.5,39.2L119.5,39.2z"/>
		<path id="XMLID_213_" class="st1" d="M90,34.5h28v-1.1H90V34.5L90,34.5z M90,44.5h28v-0.8H90V44.5L90,44.5z M113.3,38.5h-0.6v-0.3
			l1.9-2h0.2v1.3h1.6v1h-1.6v1.7v0.1v0.1l0.1,0.1v0.1v0.1l0.1,0.1v0.1l0.1,0.1l0.1,0.1l0.1,0.1h0.1l0.1,0.1h0.1h0.1h0.1h0.1h0.1h0.1
			h0.1l0.1-0.1h0.1h0.1h0.1h0.1l0.1-0.1h0.1h0.1l0.1-0.1h0.1l0.1-0.1v1.1h-0.1l-0.1,0.1H116l-0.1,0.1h-0.1h-0.1l-0.1,0.1h-0.1h-0.1
			h-0.1l-0.1,0.1h-0.1h-0.1H115H115h-0.1h-0.2l-0.2-0.1h-0.2l-0.2-0.1l-0.2-0.1l-0.1-0.1l-0.1-0.1l-0.1-0.1l-0.1-0.1l-0.1-0.2
			l-0.1-0.1V41l-0.1-0.2l-0.1-0.2v-0.2v-0.2V38.5L113.3,38.5z M109.1,39.3h1.8v-0.1v-0.1l-0.1-0.1v-0.1l-0.1-0.1l-0.1-0.1l-0.1-0.1
			l-0.1-0.1l-0.1-0.1h-0.1l-0.1-0.1l-0.1-0.1h-0.1h-0.1l-0.1-0.1H110h-0.1l-0.1,0.1h-0.1h-0.1l-0.1,0.1l-0.1,0.1h-0.1l-0.1,0.1
			l-0.1,0.1l-0.1,0.1l-0.1,0.1l-0.1,0.1V39l-0.1,0.1v0.1V39.3L109.1,39.3z M112.2,41.4l-0.1,0.1l-0.1,0.1l-0.1,0.1l-0.1,0.1
			l-0.1,0.1h-0.1l-0.2,0.1l-0.1,0.1h-0.1l-0.1,0.1h-0.2h-0.1l-0.1,0.1h-0.2h-0.1h-0.2h-0.3l-0.2-0.1l-0.3-0.1l-0.2-0.1l-0.2-0.1
			l-0.2-0.1l-0.2-0.1l-0.2-0.2l-0.1-0.1l-0.2-0.2l-0.1-0.2l-0.1-0.2l-0.1-0.2l-0.1-0.2l-0.1-0.2v-0.3v-0.2l0.1-0.2l0.1-0.2l0.1-0.2
			l0.1-0.2l0.1-0.2l0.2-0.2l0.1-0.1l0.2-0.2l0.2-0.1l0.2-0.1l0.2-0.1l0.2-0.1l0.2-0.1l0.3-0.1h0.2h0.3l0.2,0.1l0.2,0.1l0.2,0.1
			l0.2,0.1l0.2,0.1l0.2,0.1l0.1,0.2l0.2,0.2l0.1,0.2l0.1,0.2l0.1,0.2l0.1,0.2v0.2l0.1,0.3v0.3h-3.2V40v0.1v0.1v0.1l0.1,0.1l0.1,0.1
			l0.1,0.1l0.1,0.1l0.1,0.1l0.1,0.1l0.1,0.1l0.1,0.1l0.1,0.1h0.2l0.1,0.1h0.2h0.1h0.1h0.1h0.1l0.1-0.1h0.1l0.1-0.1h0.1l0.1-0.1h0.1
			l0.1-0.1l0.1-0.1l0.1-0.1l0.1-0.1l0.1-0.1l0.1-0.1l0.1-0.1V41.4L112.2,41.4z M102.4,37.8v4.1H101v-6.6h1.2l3,3.9v-3.9h1.4v6.6
			h-1.1L102.4,37.8L102.4,37.8z M91.3,41.9v-6.6H93v6.6H91.3L91.3,41.9z M94.3,38l0.2-0.5L94,37.2h0.5l0.1-0.4l0.2,0.4h0.4l-0.3,0.3
			L95,38l-0.4-0.3L94.3,38L94.3,38z M93.9,39.5l0.2-0.4l-0.4-0.3h0.5l0.1-0.4l0.2,0.4h0.4l-0.4,0.3l0.2,0.4l-0.4-0.2L93.9,39.5
			L93.9,39.5z M94.2,41l0.1-0.4L94,40.2h0.5l0.1-0.4l0.1,0.4h0.5l-0.4,0.3l0.1,0.4l-0.4-0.3L94.2,41L94.2,41z M95.3,42.1l0.1-0.5
			l-0.3-0.3h0.4l0.2-0.4l0.1,0.4h0.5l-0.4,0.3L96,42l-0.4-0.2L95.3,42.1L95.3,42.1z M96.7,42.6l0.2-0.5l-0.4-0.3H97l0.1-0.4l0.2,0.4
			h0.4l-0.4,0.3l0.1,0.5l-0.4-0.3L96.7,42.6L96.7,42.6z M98.3,42l0.1-0.4l-0.4-0.3h0.4l0.2-0.4l0.1,0.4h0.5l-0.4,0.3L99,42l-0.4-0.3
			L98.3,42L98.3,42z M99.3,41l0.1-0.5l-0.4-0.3h0.5l0.1-0.4l0.1,0.4h0.5l-0.4,0.3L100,41l-0.4-0.3L99.3,41L99.3,41z M99.7,39.5
			l0.1-0.4l-0.3-0.3h0.5l0.1-0.4l0.1,0.4h0.5l-0.4,0.3l0.1,0.4l-0.4-0.2L99.7,39.5L99.7,39.5z M99.2,37.9l0.1-0.4L99,37.2h0.4
			l0.2-0.4l0.1,0.4h0.5l-0.4,0.3l0.2,0.4l-0.4-0.2L99.2,37.9L99.2,37.9z M98.1,36.8l0.1-0.4l-0.4-0.3h0.5l0.1-0.4l0.2,0.4h0.4
			l-0.4,0.3l0.1,0.4l-0.4-0.2L98.1,36.8L98.1,36.8z M96.7,36.5l0.1-0.5l-0.4-0.3h0.4l0.2-0.4l0.1,0.4h0.5l-0.4,0.3l0.1,0.4l-0.4-0.2
			L96.7,36.5L96.7,36.5z M95.3,36.8l0.1-0.4L95,36.1h0.5l0.1-0.4l0.1,0.4h0.5l-0.4,0.3l0.1,0.4l-0.4-0.2L95.3,36.8L95.3,36.8z
			 M97.3,40.7l0.2-0.5l-0.4-0.3h0.4l0.2-0.4l0.1,0.4h0.5l-0.4,0.3l0.1,0.5l-0.4-0.3L97.3,40.7L97.3,40.7z M99.1,43.3l0.2-0.5
			l-0.4-0.3h0.5l0.1-0.4l0.2,0.4h0.4l-0.4,0.3l0.2,0.4l-0.4-0.2L99.1,43.3L99.1,43.3z"/>
	</g>
	<g>
		<path id="XMLID_315_" class="st2" d="M50.2,20.6v36.7c0.1,0.3,0,1.4,1.1,2.5c0.4,0.5,1,0.8,1.7,1c0.2,0,0.7,0.1,0.8,0.1h18.7
			c0.2-0.1,1.4,0,2.4-1.1c0.5-0.5,0.8-1,1-1.7c0.1-0.2,0.1-0.7,0.1-0.8V20.5c-0.1-0.3,0-1.3-1.1-2.5c-1-1.1-2.2-1-2.4-1.1H53.7
			c-0.1,0-0.6,0.1-0.8,0.1c-1.3,0.4-2.3,1.4-2.6,2.7C50.2,20,50.2,20.5,50.2,20.6L50.2,20.6z"/>
		<path id="XMLID_314_" class="st0" d="M50.8,52.1h24.3c0-0.3,0-5.5,0-5.9V22.6c0-1.8,0.3-3.3-1.3-4.5c-0.7-0.5-1.3-0.5-2.3-0.5h-17
			c-1,0-1.6,0-2.3,0.5c-0.5,0.3-1,0.9-1.2,1.7c-0.2,0.8-0.2,1.9-0.2,2.8v28C50.8,51,50.8,51.7,50.8,52.1L50.8,52.1z"/>
		<path id="XMLID_313_" class="st2" d="M55.3,30.6c0-0.1-0.3-0.7-0.4-1.4c-0.4-2,0-4.4,0.9-6.1c0.2-0.4,0.6-0.9,0.7-1.1
			c0.1-0.5-0.4-0.9-0.9-0.9c-0.5,0.1-0.7,0.5-0.9,0.9c-2.2,3.6-2,7.9,0.2,11.3c0.9,1.4,2.1,2.7,3.6,3.6c1.7,1,3.4,1.4,5.7,1.4
			c2.1,0,4-0.8,5.4-1.8c0.5-0.4,1.2-1,1.7-1.5c0,0,0.1-0.1,0.1-0.1c0.4-0.4,0.6-0.7,0.9-1.1c0.1-0.2,0.7-0.9,0.7-1.1
			c0.1-0.6-0.1-1.1-0.4-1.4c-0.4-0.4-0.7-0.4-1.4-0.4c-1.2,0-2.4,0-3.5,0c-0.6,0-0.7,0.2-1,0.8c-0.2,0.4-0.5,0.7-0.9,0.9
			c-1.2,0.7-3,0.8-4.2-0.1c-1-0.7-1.7-2.5-1.5-3.9c0.6-2.9,4.6-4.1,6.5-1.5c0.3,0.4,0.4,0.7,0.6,1.2c0.1,0.3,0.6,0.8,1.1,0.5
			c0.4-0.2,0.5-0.8,0.3-1.3c-0.5-1.2-1.3-2.3-2.5-2.9c-2.5-1.3-5.9-0.1-7.2,2.6c-0.3,0.7-0.5,1.5-0.5,2.3c0,0.3,0.1,0.6,0.1,0.8
			c-0.2-0.4-0.3-1.4-0.2-1.9c0.1-1.3,0.7-2.4,1.5-3.3l0.3-0.3c0.2-0.2,0.4-0.3,0.6-0.5c0.8-0.6,2-1.1,3.3-0.9c0.3,0,0.6,0.2,0.9,0.2
			c1.1,0,1.4-1.3,0.3-1.6c-1.1-0.4-2.6-0.2-3.6,0.1c-0.8,0.3-1.4,0.6-2.1,1.1c-1.1,0.8-1.8,1.8-2.3,3.1c-0.3,0.9-0.5,1.9-0.5,2.8
			c0,0.4,0.1,0.7,0.1,1c-0.2-0.3-0.3-1.4-0.3-1.8c0-1.8,0.6-3.4,1.5-4.6c0.5-0.7,1.3-1.4,2.2-1.9c0.2-0.1,0.4-0.2,0.7-0.3
			c0.8-0.4,0.4-1.9-0.5-1.5c-0.9,0.3-1.9,1-2.5,1.5c-1.5,1.3-2.5,3.2-2.8,5.4c-0.1,1-0.1,1.9,0,2.9C55.1,30,55.2,30.3,55.3,30.6
			L55.3,30.6z"/>
		<path id="XMLID_312_" class="st2" d="M59.2,44.3c-0.7,0.2-0.9,1-0.9,1.8c0.1,0.8,0.5,1.5,1.3,1.3C61,47.2,60.8,43.9,59.2,44.3
			L59.2,44.3z"/>
		<path id="XMLID_311_" class="st2" d="M67.3,44.4c-0.3,0.1-0.5,0.3-0.6,0.7c-0.2,0.6-0.2,1.6,0.2,2.1c0.5,0.7,1.8,0.4,1.7-1.5
			C68.5,44.9,68.1,44.1,67.3,44.4L67.3,44.4z"/>
		<path id="XMLID_310_" class="st2" d="M65.1,44.3c-0.7,0.1-0.9,1-0.8,1.8c0,0.7,0.4,1.6,1.2,1.4c0.7-0.1,0.9-1,0.8-1.8
			C66.2,45,65.9,44.2,65.1,44.3L65.1,44.3z"/>
		<path id="XMLID_309_" class="st2" d="M63.5,46.1c0,1-0.8,1.1-0.9,0.6l-0.5,0c0,1,1.3,1,1.7,0.4c0.4-0.6,0.3-1.9-0.1-2.4
			c-0.4-0.6-1.6-0.5-1.7,0.6c-0.1,0.8,0.5,1.3,1,1.2C63.3,46.4,63.3,46.2,63.5,46.1L63.5,46.1z"/>
		<path id="XMLID_308_" class="st0" d="M63.2,54.8c-1.4,0.3-1.1,2.5,0.4,2.3c0.5-0.1,1-0.6,0.9-1.3C64.4,55.2,63.8,54.7,63.2,54.8
			L63.2,54.8z"/>
		<path id="XMLID_307_" class="st0" d="M70.2,56.3c-0.6,0-0.4,0-0.6,0.1c0,0-0.1,0.1-0.1,0.1c-0.3,0.1-0.8,0-0.8-0.4l1.7,0
			c0.1-1.5-1.8-1.8-2.1-0.5c-0.3,1,0.7,1.8,1.6,1.3C69.9,56.9,70.1,56.6,70.2,56.3L70.2,56.3z"/>
		<path id="XMLID_306_" class="st2" d="M56.7,46.5l-0.4,0c0,0.6,0.4,1,1,1c0.6,0,0.9-0.5,0.8-1.2c-0.1-0.7-0.8-0.6-1.1-0.9
			c-0.2-0.2-0.2-0.6,0.1-0.7c0.3-0.1,0.5,0.1,0.5,0.4l0.5,0c-0.1-1.2-1.3-1.1-1.6-0.5c-0.1,0.2-0.1,0.6,0,0.9c0.2,0.5,1,0.4,1.1,0.8
			c0.1,0.3-0.1,0.6-0.4,0.6C56.7,47,56.8,46.6,56.7,46.5L56.7,46.5z"/>
		<path id="XMLID_305_" class="st0" d="M54.8,56.2c0,0.1,0,1.4,0,1.7c0,0.2,0.1,0.3,0.2,0.4c0.5,0.6,0.7,0.8,1.4,0.2
			c0.5-0.5,0.5-0.3-0.4-1.2l-0.8-0.9C55,56.4,54.9,56.2,54.8,56.2L54.8,56.2z"/>
		<path id="XMLID_304_" class="st0" d="M56.6,56.7c0-0.2,0-1.3,0-1.7c0-0.3-0.1-0.3-0.2-0.4c-0.1-0.1-0.4-0.5-0.6-0.5
			c-0.4-0.2-0.7,0.3-1,0.6c-0.1,0.2-0.1,0.2,0.1,0.3c0.4,0.4,1.2,1.2,1.5,1.6C56.5,56.7,56.5,56.7,56.6,56.7L56.6,56.7z"/>
		<path id="XMLID_303_" class="st0" d="M72.6,56.2l-0.5,0C71.8,56.9,71,56.6,71,56c0-0.8,0.9-0.9,1.1-0.3l0.5,0
			c-0.1-0.5-0.6-0.9-1.2-0.8c-1.3,0.2-1.3,2.1,0,2.3C72,57.2,72.6,56.8,72.6,56.2L72.6,56.2z"/>
		<path id="XMLID_302_" class="st0" d="M65.2,55.1l0-0.2l-0.5,0l0,2.2l0.5,0c0-0.4,0-0.7,0-1.1c0-0.3,0.1-0.6,0.4-0.6
			c0.4,0,0.4,0.3,0.4,0.6c0,0.4,0,0.7,0,1.1l0.5,0c0-0.9,0.2-2.1-0.7-2.2C65.4,54.8,65.3,55,65.2,55.1L65.2,55.1z"/>
		<path id="XMLID_301_" class="st0" d="M62,56.2l-0.5,0c-0.1,0.1-0.2,0.4-0.7,0.3c-0.6-0.1-0.6-1.1,0-1.3c0.5-0.1,0.7,0.3,0.7,0.3
			l0.5,0c-0.2-1.3-2.2-1-2.1,0.4c0,0.6,0.4,1,1,1.1C61.5,57.1,62,56.7,62,56.2L62,56.2z"/>
		<path id="XMLID_300_" class="st0" d="M59.3,44.8c-0.5,0.1-0.5,0.8-0.5,1.3c0,0.5,0.2,1.1,0.7,1C60.3,46.8,60.2,44.5,59.3,44.8
			L59.3,44.8z"/>
		<path id="XMLID_299_" class="st2" d="M69.2,44.8l0.5,0l0,2.6l0.5,0c0.1-0.2,0-2.7,0-3.1h-1L69.2,44.8L69.2,44.8z"/>
		<path id="XMLID_298_" class="st0" d="M67.5,44.8c-0.4,0.2-0.4,0.8-0.4,1.2c0,0.4,0.1,1.1,0.6,1C68.3,46.8,68.2,44.6,67.5,44.8
			L67.5,44.8z"/>
		<path id="XMLID_297_" class="st0" d="M65.2,44.8c-0.1,0-0.1,0.1-0.2,0.2c-0.3,0.5-0.3,2.2,0.4,2C66,46.8,65.9,44.6,65.2,44.8
			L65.2,44.8z"/>
		<polygon id="XMLID_296_" class="st0" points="67.2,54.8 66.9,54.9 66.9,55.3 67.2,55.3 67.2,57 67.7,57 67.7,55.3 68,55.3 
			68,54.9 67.7,54.9 67.7,54.1 67.2,54.1 67.2,54.8 		"/>
		<path id="XMLID_295_" class="st0" d="M57,57.8c0.1,0,0.2-0.2,0.3-0.3l0.6-0.6c0.1-0.1,0.2-0.2,0.2-0.4c0-0.3-0.3-0.6-0.5-0.7
			c-0.1-0.1-0.5-0.5-0.6-0.6C57,55.4,57,57.5,57,57.8L57,57.8z"/>
		<path id="XMLID_294_" class="st0" d="M54.4,57.8c0-0.3,0-2.4,0-2.6c-0.1,0-0.5,0.5-0.6,0.6c-0.2,0.2-0.7,0.7-0.3,1.1
			C53.7,57.1,54.3,57.7,54.4,57.8L54.4,57.8z"/>
		<polygon id="XMLID_293_" class="st2" points="55.3,47.5 55.8,47.5 55.8,44.4 55.3,44.4 55.3,47.5 		"/>
		<path id="XMLID_292_" class="st2" d="M63.2,55.3c-0.7,0.3-0.4,1.5,0.4,1.2C64.2,56.3,64,55,63.2,55.3L63.2,55.3z"/>
		<polygon id="XMLID_291_" class="st0" points="59,57 59.1,57 59.5,57 59.6,57 59.6,54.9 59,54.9 59,57 		"/>
		<path id="XMLID_290_" class="st0" d="M65.8,58.8L65.8,58.8c0.1,0.1,0.1,0.1,0.2,0.1l0-0.9c-0.2,0-0.2,0-0.2,0.1c0,0,0,0,0,0
			c-0.3-0.3-0.7,0-0.7,0.4C65.1,58.8,65.6,59.1,65.8,58.8L65.8,58.8z"/>
		<path id="XMLID_289_" class="st0" d="M71.7,58.8L71.7,58.8c0.1,0.1,0.1,0.1,0.2,0.1l0-0.9c-0.3,0-0.2,0-0.2,0.1
			c-0.3-0.3-0.7,0-0.7,0.3C71,58.9,71.6,59.1,71.7,58.8L71.7,58.8z"/>
		<path id="XMLID_288_" class="st0" d="M62.9,44.8c-0.2,0.1-0.4,0.3-0.3,0.7c0,0.3,0.2,0.5,0.5,0.5C63.6,45.8,63.5,44.7,62.9,44.8
			L62.9,44.8z"/>
		<path id="XMLID_287_" class="st0" d="M68.8,58c-0.6,0.2-0.4,1.1,0.3,0.9c0.2-0.1,0.4-0.3,0.3-0.6C69.3,58.1,69.1,57.9,68.8,58
			L68.8,58z"/>
		<path id="XMLID_286_" class="st3" d="M62.6,58.6c-0.3,0-0.2,0.1-0.4,0.1c-0.2,0-0.3-0.1-0.3-0.2l0-0.2c0-0.1,0-0.1,0.1-0.1
			c0.1-0.1,0.2-0.1,0.3,0c0.1,0,0.1,0.1,0.1,0.1l-0.5,0l0,0.2l0.7,0c0-0.7-0.8-0.8-0.9-0.2C61.6,58.9,62.5,59.2,62.6,58.6L62.6,58.6
			z"/>
		<path id="XMLID_285_" class="st0" d="M60,58C60,58,59.9,58,60,58L60,58C59.8,58,59.8,58,59.7,58l0,0.9l0.2,0
			c0-0.2-0.1-0.7,0.2-0.7c0.2,0,0.2,0.1,0.2,0.2c0,0.2,0,0.3,0,0.5l0.2,0c0-0.2,0-0.6,0-0.8C60.4,57.9,60.1,57.9,60,58L60,58z"/>
		<path id="XMLID_284_" class="st0" d="M67.4,58.6l-0.2,0c-0.1,0.1-0.1,0.2-0.3,0.1c-0.2-0.1-0.2-0.6,0.2-0.5c0.2,0,0,0.1,0.4,0.1
			c0-0.5-0.9-0.5-0.9,0.1C66.5,59,67.3,59.1,67.4,58.6L67.4,58.6z"/>
		<path id="XMLID_283_" class="st0" d="M70,58C70,58,70,58,70,58C70,58,70,58,70,58C69.9,57.9,70.1,58,70,58
			C69.9,58,69.9,58,69.8,58c0,0.2,0,0.7,0,0.9l0.2,0c0-0.2-0.1-0.7,0.2-0.7c0.3,0,0.2,0.5,0.2,0.7l0.2,0c0-0.3,0-0.7-0.1-0.9
			C70.3,57.9,70.1,57.9,70,58L70,58z"/>
		<path id="XMLID_282_" class="st0" d="M64.1,58.1c0-0.1,0-0.1-0.2-0.1l0,0.9l0.2,0c0-0.2-0.1-0.7,0.2-0.7c0.3,0,0.2,0.5,0.2,0.7
			l0.2,0c0-0.2,0-0.7,0-0.8C64.5,57.9,64.2,57.9,64.1,58.1L64.1,58.1z"/>
		<path id="XMLID_281_" class="st2" d="M68.6,55.7l1.1,0C69.6,55.1,68.7,55.1,68.6,55.7L68.6,55.7z"/>
		<path id="XMLID_280_" class="st0" d="M61.1,57.9c-0.1,0.1-0.2,0-0.1,0.2c0,0.1,0.1,0,0.1,0.1l0,0.7l0.2,0l0-0.7
			c0-0.1,0.2,0,0.1-0.2c0-0.1-0.1,0-0.1-0.1l0-0.3l-0.2,0L61.1,57.9L61.1,57.9z"/>
		<path id="XMLID_279_" class="st0" d="M59.2,54.1c-0.1,0.1-0.3,0.2-0.2,0.4c0,0.1,0.2,0.3,0.4,0.2C59.8,54.5,59.6,54,59.2,54.1
			L59.2,54.1z"/>
		<path id="XMLID_278_" class="st0" d="M63.1,58.9l0.2,0c0-0.2,0-0.6,0.1-0.7c0.1-0.1,0.2,0.1,0.2-0.3c-0.1,0-0.1,0-0.2,0.1
			c-0.1-0.1,0-0.1-0.2-0.1L63.1,58.9L63.1,58.9z"/>
		<path id="XMLID_277_" class="st2" d="M68.8,58.2c-0.3,0.1-0.2,0.6,0.2,0.5C69.3,58.6,69.2,58,68.8,58.2L68.8,58.2z"/>
		<path id="XMLID_276_" class="st2" d="M65.5,58.2c-0.3,0.2-0.1,0.6,0.2,0.5C66,58.5,65.8,58,65.5,58.2L65.5,58.2z"/>
		<path id="XMLID_275_" class="st2" d="M71.4,58.2c-0.3,0.1-0.2,0.6,0.1,0.5C71.9,58.6,71.7,58.1,71.4,58.2L71.4,58.2z"/>
		<polygon id="XMLID_274_" class="st0" points="59.1,58.9 59.2,58.9 59.3,58 59.1,58 59.1,58.9 		"/>
		<polygon id="XMLID_273_" class="st0" points="59,58.9 59.1,58.9 59.2,58.9 59.3,58.9 59.3,58 59,58 59,58.9 		"/>
		<path id="XMLID_272_" class="st0" d="M59.1,57.6c-0.1,0-0.1,0.1-0.1,0.2c0,0.1,0.1,0.1,0.2,0.1C59.4,57.8,59.3,57.6,59.1,57.6
			L59.1,57.6z"/>
		<polygon id="XMLID_271_" class="st0" points="72.4,58.9 72.4,58.9 72.6,58.9 72.6,58.9 72.6,57.7 72.4,57.7 72.4,58.9 		"/>
		<path id="XMLID_270_" class="st0" d="M67.8,57.6c-0.1,0-0.1,0.1-0.1,0.2c0,0.1,0.1,0.1,0.2,0.1C68.1,57.8,68,57.6,67.8,57.6
			L67.8,57.6z"/>
		<polygon id="XMLID_40_" class="st0" points="67.8,58.9 67.8,58.9 68,58.9 68,58.9 68,58 67.8,58 67.8,58.9 		"/>
	</g>
	<g id="XMLID_41_">
		<ellipse id="XMLID_211_" class="st4" cx="22" cy="39.1" rx="21.8" ry="21.9"/>
		<path id="XMLID_210_" class="st5" d="M0,39.1c0-12.2,9.9-22,22-22v0.2v0.2c-6,0-11.4,2.4-15.3,6.3c-3.9,3.9-6.3,9.3-6.3,15.3
			c0,6,2.4,11.4,6.3,15.3c3.9,3.9,9.3,6.3,15.3,6.3c6,0,11.4-2.4,15.3-6.3c3.9-3.9,6.3-9.3,6.3-15.3c0-6-2.4-11.4-6.3-15.3
			c-3.9-3.9-9.3-6.3-15.3-6.3v-0.2v-0.2c12.2,0,22,9.9,22,22c0,12.2-9.9,22-22,22C9.9,61.1,0,51.2,0,39.1"/>
		<path id="XMLID_194_" class="st5" d="M14.8,57.7l0.2,0.2c-0.1,0.2-0.3,0.3-0.5,0.3c-0.2,0-0.4,0-0.5-0.1c-0.2-0.1-0.3-0.2-0.4-0.3
			c-0.1-0.1-0.1-0.3-0.1-0.5c0-0.2,0-0.4,0.1-0.5c0.1-0.2,0.2-0.3,0.3-0.4c0.1-0.1,0.3-0.2,0.5-0.2c0.2,0,0.3,0,0.5,0.1
			c0.2,0.1,0.3,0.2,0.4,0.3c0.1,0.1,0.1,0.3,0.1,0.5L15.1,57c0-0.2,0-0.3,0-0.4c-0.1-0.1-0.1-0.2-0.3-0.2c-0.1-0.1-0.3-0.1-0.4-0.1
			c-0.1,0-0.2,0.1-0.3,0.2c-0.1,0.1-0.2,0.2-0.2,0.3c-0.1,0.2-0.1,0.3-0.1,0.4c0,0.1,0,0.3,0.1,0.4c0.1,0.1,0.2,0.2,0.3,0.2
			c0.1,0.1,0.3,0.1,0.4,0C14.6,57.9,14.7,57.8,14.8,57.7 M15.1,58.5l0.6-1.9l1.4,0.5L17,57.3l-1.1-0.4l-0.2,0.6l1,0.4l-0.1,0.2
			l-1-0.4l-0.2,0.6l1.2,0.4L16.5,59L15.1,58.5z M16.8,59l0.5-1.9l0.9,0.2c0.2,0,0.3,0.1,0.4,0.1c0.1,0.1,0.1,0.1,0.2,0.2
			c0,0.1,0,0.2,0,0.3c0,0.1-0.1,0.2-0.2,0.3c-0.1,0.1-0.3,0.1-0.5,0.1c0.1,0,0.1,0.1,0.1,0.1c0.1,0.1,0.1,0.2,0.1,0.3l0.2,0.6
			l-0.3-0.1l-0.2-0.5c0-0.1-0.1-0.2-0.1-0.3c0-0.1-0.1-0.1-0.1-0.2c0,0-0.1-0.1-0.1-0.1c0,0-0.1,0-0.1,0l-0.3-0.1l-0.2,0.9L16.8,59z
			 M17.4,58l0.5,0.1c0.1,0,0.2,0,0.3,0c0.1,0,0.1,0,0.2-0.1c0,0,0.1-0.1,0.1-0.2c0-0.1,0-0.2,0-0.2c-0.1-0.1-0.1-0.1-0.3-0.2
			l-0.6-0.2L17.4,58z M19.2,59.5l0.2-1.7l-0.6-0.1l0-0.2l1.6,0.2l0,0.2l-0.7-0.1l-0.2,1.7L19.2,59.5z M20.4,59.6l0.2-2l0.3,0l-0.2,2
			L20.4,59.6z M21.2,59.7l0.1-2l1.3,0l0,0.2l-1.1,0l0,0.6l0.9,0l0,0.2l-0.9,0l0,0.9L21.2,59.7z M22.9,59.7l-0.1-2l0.3,0l0.1,2
			L22.9,59.7z M25,58.8l0.3,0c0,0.2-0.1,0.4-0.2,0.5c-0.1,0.1-0.3,0.2-0.5,0.2c-0.2,0-0.4,0-0.5-0.1c-0.1-0.1-0.3-0.2-0.3-0.3
			c-0.1-0.2-0.1-0.3-0.2-0.5c0-0.2,0-0.4,0.1-0.6c0.1-0.2,0.2-0.3,0.3-0.4c0.1-0.1,0.3-0.2,0.5-0.2c0.2,0,0.4,0,0.5,0.1
			c0.1,0.1,0.3,0.2,0.3,0.4l-0.2,0.1c-0.1-0.1-0.1-0.2-0.2-0.3c-0.1-0.1-0.2-0.1-0.3-0.1c-0.2,0-0.3,0.1-0.4,0.2
			c-0.1,0.1-0.2,0.2-0.2,0.3c0,0.1,0,0.3,0,0.4c0,0.2,0.1,0.3,0.1,0.4c0.1,0.1,0.2,0.2,0.3,0.3c0.1,0,0.2,0.1,0.3,0.1
			c0.1,0,0.3-0.1,0.4-0.2C24.9,59.1,24.9,58.9,25,58.8 M25.4,59.4l0.3-2.1l0.3-0.1l1.2,1.7l-0.3,0.1l-0.4-0.5l-0.8,0.2l-0.1,0.6
			L25.4,59.4z M25.8,58.5l0.7-0.2l-0.3-0.5c-0.1-0.1-0.2-0.3-0.2-0.4c0,0.1,0,0.3,0,0.4L25.8,58.5z M27.4,59l-0.7-1.9l0.6-0.2
			c0.1-0.1,0.3-0.1,0.3-0.1c0.1,0,0.2,0,0.3,0c0.1,0,0.2,0.1,0.3,0.2c0.1,0.1,0.2,0.2,0.2,0.4c0.1,0.1,0.1,0.3,0.1,0.4
			c0,0.1,0,0.2,0,0.3c0,0.1-0.1,0.2-0.1,0.2c0,0.1-0.1,0.1-0.2,0.2c-0.1,0.1-0.2,0.1-0.3,0.1L27.4,59z M27.6,58.7l0.4-0.1
			c0.1,0,0.2-0.1,0.3-0.1c0.1,0,0.1-0.1,0.1-0.2c0-0.1,0.1-0.2,0.1-0.3c0-0.1,0-0.2-0.1-0.4c-0.1-0.2-0.2-0.3-0.3-0.4
			C28,57.1,27.9,57,27.8,57c-0.1,0-0.2,0-0.3,0.1l-0.4,0.1L27.6,58.7z M28.9,57.5c-0.1-0.3-0.2-0.6-0.1-0.8c0.1-0.2,0.2-0.4,0.5-0.5
			c0.2-0.1,0.3-0.1,0.5-0.1c0.2,0,0.3,0.1,0.5,0.2c0.1,0.1,0.2,0.3,0.3,0.4c0.1,0.2,0.1,0.4,0.1,0.5c0,0.2-0.1,0.3-0.2,0.5
			c-0.1,0.1-0.2,0.2-0.4,0.3c-0.2,0.1-0.3,0.1-0.5,0.1c-0.2,0-0.3-0.1-0.5-0.2C29,57.8,28.9,57.7,28.9,57.5 M29.1,57.4
			c0.1,0.2,0.2,0.4,0.4,0.4c0.2,0.1,0.3,0.1,0.5,0c0.2-0.1,0.3-0.2,0.4-0.4c0.1-0.2,0-0.4-0.1-0.6c-0.1-0.1-0.2-0.3-0.3-0.3
			c-0.1-0.1-0.2-0.1-0.3-0.2c-0.1,0-0.2,0-0.4,0.1c-0.2,0.1-0.3,0.2-0.4,0.4C29,56.9,29,57.1,29.1,57.4"/>
		<path id="XMLID_121_" class="st5" d="M4.4,41.7l-0.1-0.4c0-0.1,0-0.2,0-0.2c0-0.1,0-0.1,0.1-0.2c0-0.1,0.1-0.1,0.2-0.1
			c0.1,0,0.2-0.1,0.3-0.1c0.1,0,0.2,0,0.3,0c0.1,0,0.2,0.1,0.2,0.1c0,0,0.1,0.1,0.1,0.2c0,0.1,0,0.1,0.1,0.2l0.1,0.5L4.4,41.7z
			 M4.6,41.4l0.8-0.1l0-0.2c0-0.1,0-0.1,0-0.1c0,0,0-0.1-0.1-0.1c0,0-0.1,0-0.1,0c-0.1,0-0.1,0-0.2,0c-0.1,0-0.2,0-0.2,0.1
			c0,0-0.1,0.1-0.1,0.1c0,0,0,0.1,0,0.1c0,0,0,0.1,0,0.2L4.6,41.4z M5.5,40.3l-1.2,0l0-0.9l0.2,0l0,0.7l0.3,0l0-0.6l0.2,0l0,0.6
			l0.3,0l0-0.7l0.2,0L5.5,40.3z M5.4,39.1l-1.2,0l0-0.4c0-0.2,0-0.2,0-0.3c0-0.1,0.1-0.1,0.1-0.2c0.1,0,0.1-0.1,0.2-0.1
			c0.1,0,0.1,0,0.2,0c0.1,0,0.1,0.1,0.1,0.1c0,0,0,0.1,0.1,0.1c0,0.1,0,0.1,0,0.3l0,0.2l0.5,0L5.4,39.1z M4.4,38.8l0.3,0l0-0.1
			c0-0.1,0-0.2,0-0.2c0,0,0-0.1-0.1-0.1c0,0-0.1,0-0.1,0c0,0-0.1,0-0.1,0c0,0,0,0.1-0.1,0.1c0,0,0,0.1,0,0.2L4.4,38.8z M5.6,37
			l0,0.3l-0.3,0.1l0,0.5L5.5,38l0,0.3l-1.2-0.6l0-0.3L5.6,37z M5,37.4l-0.5,0.1L5,37.8L5,37.4z M5.6,36.9l-1.2-0.2l0.1-0.5
			c0-0.1,0.1-0.2,0.1-0.3c0-0.1,0.1-0.1,0.1-0.1c0.1,0,0.1,0,0.2,0c0.1,0,0.2,0.1,0.2,0.1c0,0.1,0.1,0.2,0.1,0.3
			c0,0,0.1-0.1,0.1-0.1c0,0,0.1-0.1,0.2-0.1l0.3-0.1l-0.1,0.3l-0.3,0.1c-0.1,0-0.2,0.1-0.2,0.1c0,0,0,0-0.1,0.1c0,0,0,0.1,0,0.1l0,0
			l0.5,0.1L5.6,36.9z M4.9,36.5l0-0.2c0-0.1,0-0.2,0-0.2c0,0,0-0.1,0-0.1c0,0,0,0-0.1,0c0,0-0.1,0-0.1,0c0,0-0.1,0-0.1,0.1
			c0,0,0,0.1,0,0.2l0,0.2L4.9,36.5z M5.8,35.4l-1-0.2l-0.1,0.4l-0.2-0.1l0.2-0.9L5,34.6l-0.1,0.4l1,0.2L5.8,35.4z M6.3,33.7L6.2,34
			l-0.3,0l-0.1,0.5L6,34.6L6,34.9l-1-0.8L5,33.9L6.3,33.7z M5.7,34l-0.5,0l0.4,0.3L5.7,34z M6.4,33.6l-1.1-0.5l0.1-0.3l0.9,0.1
			l-0.7-0.5L5.7,32l1.1,0.5l-0.1,0.2l-0.9-0.4l0.8,0.6l-0.1,0.2l-1-0.1l0.9,0.4L6.4,33.6z M6.9,32.3l-1.1-0.6l0.4-0.8L6.4,31
			l-0.3,0.6l0.2,0.1l0.3-0.5l0.2,0.1l-0.3,0.5l0.3,0.2l0.3-0.6l0.2,0.1L6.9,32.3z M7.4,31.2l-1.1-0.6l0.1-0.2l1,0L6.7,30l0.1-0.2
			l1.1,0.6l-0.1,0.2l-0.9,0L7.5,31L7.4,31.2z M8.2,29.9l-0.9-0.6l-0.2,0.3L7,29.6l0.5-0.8l0.2,0.1l-0.2,0.3l0.9,0.6L8.2,29.9z
			 M8.1,29c-0.1-0.1-0.2-0.2-0.2-0.2c0-0.1-0.1-0.1-0.1-0.2c0-0.1,0-0.1,0-0.2c0-0.1,0.1-0.2,0.1-0.2c0.1-0.1,0.2-0.2,0.4-0.2
			c0.2,0,0.3,0,0.5,0.2c0.2,0.1,0.2,0.3,0.3,0.4c0,0.2,0,0.3-0.1,0.4c-0.1,0.1-0.2,0.2-0.4,0.2C8.4,29.2,8.2,29.1,8.1,29 M8.2,28.8
			c0.1,0.1,0.2,0.1,0.3,0.1c0.1,0,0.2,0,0.2-0.1c0.1-0.1,0.1-0.2,0.1-0.3c0-0.1-0.1-0.2-0.2-0.3c-0.1-0.1-0.2-0.1-0.3-0.1
			c-0.1,0-0.2,0-0.2,0.1C8.1,28.3,8,28.4,8,28.5C8.1,28.6,8.1,28.7,8.2,28.8 M10.5,27.2l-0.2,0.2L10,27.3l-0.3,0.4l0.1,0.3l-0.2,0.2
			l-0.5-1.2l0.2-0.2L10.5,27.2z M9.8,27.2L9.4,27l0.2,0.4L9.8,27.2z M9.7,26.1l0.3-0.3c0.1-0.1,0.1-0.1,0.2-0.1c0.1,0,0.1,0,0.2,0
			c0.1,0,0.1,0,0.2,0.1c0.1,0,0.1,0.1,0.2,0.2c0.1,0.1,0.1,0.2,0.1,0.2c0,0.1,0,0.2,0,0.3c0,0.1,0,0.1-0.1,0.2c0,0-0.1,0.1-0.2,0.2
			l-0.4,0.3L9.7,26.1z M10.1,26.1l0.5,0.6l0.1-0.1c0.1,0,0.1-0.1,0.1-0.1c0,0,0-0.1,0-0.1c0,0,0-0.1,0-0.1c0-0.1-0.1-0.1-0.1-0.2
			C10.7,26,10.6,26,10.6,26c0,0-0.1,0-0.1,0c0,0-0.1,0-0.1,0C10.3,26,10.2,26,10.1,26.1L10.1,26.1z M11.5,26.3l-0.8-1l0.3-0.2
			l0.7,0.5l-0.3-0.8l0.3-0.2l0.8,1l-0.2,0.1l-0.6-0.8l0.4,0.9L11.8,26l-0.8-0.6l0.6,0.8L11.5,26.3z M12.6,25.4l-0.7-1l0.2-0.1l0.7,1
			L12.6,25.4z M13,25.1l-0.6-1.1l0.2-0.1l0.8,0.5l-0.4-0.7l0.2-0.1l0.6,1.1l-0.2,0.1l-0.8-0.5l0.4,0.7L13,25.1z M14.1,24.5l-0.6-1.1
			l0.2-0.1l0.6,1.1L14.1,24.5z M14.3,23.9l0.2-0.1c0,0.1,0.1,0.1,0.2,0.1c0.1,0,0.1,0,0.2,0c0.1,0,0.1-0.1,0.1-0.1c0,0,0-0.1,0-0.1
			c0,0,0,0-0.1-0.1c0,0-0.1,0-0.1,0c0,0-0.1,0-0.2,0c-0.1,0-0.2,0-0.3,0c-0.1,0-0.2-0.1-0.2-0.2c0-0.1,0-0.1,0-0.2
			c0-0.1,0-0.1,0.1-0.2c0-0.1,0.1-0.1,0.2-0.1c0.1-0.1,0.3-0.1,0.4,0c0.1,0,0.2,0.1,0.2,0.2l-0.2,0.1c0-0.1-0.1-0.1-0.1-0.1
			c0,0-0.1,0-0.2,0c-0.1,0-0.1,0.1-0.1,0.1c0,0,0,0.1,0,0.1c0,0,0,0,0.1,0.1c0,0,0.1,0,0.2,0c0.1,0,0.2,0,0.3,0c0.1,0,0.1,0,0.2,0.1
			c0.1,0,0.1,0.1,0.1,0.2c0,0.1,0,0.1,0,0.2c0,0.1,0,0.1-0.1,0.2c-0.1,0.1-0.1,0.1-0.2,0.1c-0.1,0.1-0.3,0.1-0.4,0
			C14.4,24.1,14.3,24.1,14.3,23.9 M15.8,23.7l-0.4-1l-0.3,0.1L15,22.7l0.9-0.3l0.1,0.2l-0.3,0.1l0.4,1L15.8,23.7z M16.5,23.4
			l-0.4-1.2l0.5-0.2c0.1,0,0.2-0.1,0.3-0.1c0.1,0,0.1,0,0.2,0.1c0.1,0,0.1,0.1,0.1,0.2c0,0.1,0,0.2,0,0.2c0,0.1-0.1,0.1-0.2,0.2
			c0.1,0,0.1,0,0.2,0.1c0,0,0.1,0.1,0.2,0.1l0.2,0.2l-0.3,0.1L17,23c-0.1-0.1-0.1-0.1-0.2-0.1c0,0-0.1,0-0.1,0c0,0-0.1,0-0.1,0l0,0
			l0.2,0.5L16.5,23.4z M16.5,22.7l0.2-0.1c0.1,0,0.2-0.1,0.2-0.1c0,0,0,0,0-0.1c0,0,0-0.1,0-0.1c0,0,0-0.1-0.1-0.1c0,0-0.1,0-0.1,0
			c0,0-0.1,0-0.2,0.1l-0.2,0.1L16.5,22.7z M18.8,22.8l-0.3,0.1l-0.2-0.3l-0.5,0.1l0,0.3l-0.3,0.1l0.2-1.3l0.3-0.1L18.8,22.8z
			 M18.2,22.4L18,22l-0.1,0.5L18.2,22.4z M19,22.8l-0.2-1l-0.4,0.1l0-0.2l1-0.2l0,0.2l-0.4,0.1l0.2,1L19,22.8z M19.8,22.6l-0.1-1.2
			l0.2,0l0.1,1.2L19.8,22.6z M20.6,22.6l-0.5-1.2l0.3,0l0.4,0.9l0.2-0.9l0.3,0l-0.4,1.3L20.6,22.6z M21.3,21.9c0-0.1,0-0.2,0.1-0.3
			c0-0.1,0.1-0.1,0.1-0.2c0,0,0.1-0.1,0.2-0.1c0.1,0,0.2-0.1,0.3-0.1c0.2,0,0.3,0.1,0.4,0.2c0.1,0.1,0.2,0.3,0.2,0.5
			c0,0.2,0,0.4-0.2,0.5c-0.1,0.1-0.2,0.2-0.4,0.2c-0.2,0-0.3-0.1-0.4-0.2C21.4,22.3,21.3,22.1,21.3,21.9 M21.6,21.9
			c0,0.1,0,0.2,0.1,0.3c0.1,0.1,0.1,0.1,0.2,0.1c0.1,0,0.2,0,0.2-0.1c0.1-0.1,0.1-0.2,0.1-0.3c0-0.1,0-0.2-0.1-0.3
			c-0.1-0.1-0.1-0.1-0.2-0.1c-0.1,0-0.2,0-0.2,0.1C21.6,21.6,21.6,21.7,21.6,21.9 M23.3,21.3l0.5,0c0.1,0,0.2,0,0.2,0
			c0.1,0,0.1,0.1,0.2,0.1c0,0.1,0.1,0.1,0.1,0.2c0,0.1,0,0.2,0,0.3c0,0.1,0,0.2-0.1,0.3c0,0.1-0.1,0.2-0.1,0.2c0,0-0.1,0.1-0.2,0.1
			c-0.1,0-0.1,0-0.2,0l-0.5,0L23.3,21.3z M23.5,21.5l-0.1,0.8l0.2,0c0.1,0,0.1,0,0.2,0c0,0,0.1,0,0.1,0c0,0,0.1-0.1,0.1-0.1
			c0-0.1,0-0.1,0-0.2c0-0.1,0-0.2,0-0.2c0-0.1,0-0.1-0.1-0.1c0,0-0.1-0.1-0.1-0.1c0,0-0.1,0-0.2,0L23.5,21.5z M24.4,22.7l0.2-1.2
			l0.9,0.2l0,0.2l-0.7-0.1l0,0.3l0.6,0.1l0,0.2l-0.6-0.1l-0.1,0.3l0.7,0.1l0,0.2L24.4,22.7z M26,23l0.3-1.2l0.2,0.1l-0.3,1l0.6,0.2
			l-0.1,0.2L26,23z M28.1,23.6l-0.3-0.1l0-0.3l-0.5-0.2l-0.2,0.2l-0.2-0.1l0.8-1l0.2,0.1L28.1,23.6z M27.8,23l0-0.5l-0.3,0.4
			L27.8,23z M28.6,23.8l0.5-1.1l0.8,0.3l-0.1,0.2L29.2,23l-0.1,0.3l0.5,0.2l-0.1,0.2L29,23.5l-0.2,0.5L28.6,23.8z M30.1,23.2
			l0.2,0.1L30,23.9c-0.1,0.1-0.1,0.2-0.1,0.2c0,0,0,0.1,0,0.1c0,0,0.1,0.1,0.1,0.1c0.1,0,0.1,0,0.2,0c0,0,0.1,0,0.1-0.1
			c0,0,0.1-0.1,0.1-0.2l0.3-0.6l0.2,0.1l-0.3,0.6c-0.1,0.1-0.1,0.2-0.2,0.3c0,0-0.1,0.1-0.1,0.1c-0.1,0-0.1,0-0.2,0
			c-0.1,0-0.1,0-0.2-0.1c-0.1-0.1-0.2-0.1-0.2-0.2c0-0.1-0.1-0.1-0.1-0.2c0-0.1,0-0.1,0-0.2c0-0.1,0.1-0.2,0.1-0.3L30.1,23.2z
			 M30.6,24.9l0.6-1l0.2,0.1l0,1l0.4-0.7l0.2,0.1l-0.6,1l-0.2-0.1l0-0.9L30.8,25L30.6,24.9z M32.5,25.7l0.1,0.2
			C32.6,26,32.4,26,32.3,26c-0.1,0-0.2,0-0.3-0.1c-0.1-0.1-0.2-0.2-0.2-0.4c0-0.2,0-0.3,0.2-0.5c0.1-0.2,0.3-0.3,0.4-0.3
			c0.2,0,0.3,0,0.4,0.1c0.1,0.1,0.2,0.2,0.2,0.3c0,0.1,0,0.2,0,0.3l-0.2-0.1c0-0.1,0-0.1,0-0.2c0-0.1,0-0.1-0.1-0.1
			C32.6,25,32.5,25,32.4,25c-0.1,0-0.2,0.1-0.3,0.2c-0.1,0.1-0.1,0.2-0.1,0.3c0,0.1,0,0.2,0.1,0.2c0.1,0,0.1,0.1,0.2,0.1
			C32.4,25.8,32.5,25.7,32.5,25.7 M32.6,26.3l0.8-0.9l0.2,0.2l-0.8,0.9L32.6,26.3z M33.4,26.1c0.1-0.1,0.2-0.2,0.3-0.2
			c0.1,0,0.1,0,0.2,0c0.1,0,0.1,0,0.2,0c0.1,0,0.2,0.1,0.2,0.1c0.1,0.1,0.2,0.3,0.2,0.4c0,0.2-0.1,0.3-0.2,0.5
			c-0.1,0.1-0.3,0.2-0.4,0.2c-0.2,0-0.3,0-0.4-0.2c-0.1-0.1-0.2-0.3-0.2-0.4C33.2,26.4,33.2,26.3,33.4,26.1 M33.5,26.3
			c-0.1,0.1-0.1,0.2-0.1,0.3c0,0.1,0,0.2,0.1,0.2c0.1,0.1,0.2,0.1,0.3,0.1c0.1,0,0.2-0.1,0.3-0.2c0.1-0.1,0.1-0.2,0.1-0.3
			c0-0.1,0-0.2-0.1-0.2c-0.1-0.1-0.2-0.1-0.3-0.1C33.7,26.1,33.6,26.2,33.5,26.3 M34.1,25.9l0.3-0.1l0.2,0.2l-0.3,0L34.1,25.9z
			 M33.9,27.5l0.9-0.9l0.2,0.2l-0.2,0.9l0.6-0.6l0.2,0.2l-0.9,0.9l-0.2-0.2l0.2-0.9l-0.6,0.6L33.9,27.5z M35.1,28.8l1-0.7l0.2,0.3
			c0.1,0.1,0.1,0.2,0.2,0.2c0,0.1,0,0.1,0,0.2c0,0.1-0.1,0.1-0.2,0.2c-0.1,0-0.1,0.1-0.2,0.1c-0.1,0-0.1,0-0.2,0c0,0-0.1,0-0.1-0.1
			c0,0-0.1-0.1-0.2-0.2l-0.1-0.1L35.2,29L35.1,28.8z M36,28.4l-0.3,0.2l0.1,0.1c0.1,0.1,0.1,0.1,0.1,0.1c0,0,0.1,0,0.1,0
			c0,0,0.1,0,0.1,0c0,0,0.1-0.1,0.1-0.1c0,0,0-0.1,0-0.1C36.2,28.6,36.2,28.6,36,28.4L36,28.4z M36.8,29.1l0.1,0.2l-0.6,0.4
			c-0.1,0.1-0.1,0.1-0.2,0.1c0,0-0.1,0.1-0.1,0.1c0,0.1,0,0.1,0.1,0.2c0,0.1,0.1,0.1,0.1,0.1c0,0,0.1,0,0.1,0c0,0,0.1-0.1,0.2-0.1
			l0.6-0.4l0.1,0.2l-0.5,0.4c-0.1,0.1-0.2,0.1-0.3,0.2c-0.1,0-0.1,0-0.2,0c-0.1,0-0.1,0-0.2-0.1c-0.1,0-0.1-0.1-0.2-0.2
			c-0.1-0.1-0.1-0.2-0.1-0.2c0-0.1,0-0.1,0-0.2c0-0.1,0-0.1,0.1-0.1c0-0.1,0.1-0.1,0.2-0.2L36.8,29.1z M37,29.3l0.3,0l0.1,0.2
			l-0.3-0.1L37,29.3z M37.5,30.2l0.2,0.4c0,0.1,0.1,0.2,0.1,0.2c0,0,0,0.1,0,0.1c0,0,0,0.1,0,0.1c0,0-0.1,0.1-0.1,0.1
			c-0.1,0-0.1,0-0.2,0c-0.1,0-0.1,0-0.2-0.1c0,0.1,0,0.1,0,0.2c0,0.1-0.1,0.1-0.1,0.1c0,0-0.1,0-0.2,0c-0.1,0-0.1,0-0.2,0
			c0,0-0.1-0.1-0.1-0.1c0,0-0.1-0.1-0.1-0.3l-0.2-0.4L37.5,30.2z M37.4,30.5l-0.3,0.1l0.1,0.1c0,0.1,0.1,0.1,0.1,0.2
			c0,0,0.1,0.1,0.1,0.1c0,0,0.1,0,0.1,0c0,0,0.1,0,0.1-0.1c0,0,0-0.1,0-0.1c0,0,0-0.1-0.1-0.2L37.4,30.5z M37,30.8l-0.3,0.2l0.1,0.2
			c0,0.1,0.1,0.1,0.1,0.1c0,0,0.1,0,0.1,0.1c0,0,0.1,0,0.1,0c0,0,0.1,0,0.1-0.1c0,0,0-0.1,0-0.1c0,0,0-0.1-0.1-0.2L37,30.8z
			 M37,31.9l1.1-0.5l0.1,0.2L37.3,32l0.3,0.6l-0.2,0.1L37,31.9z M37.4,32.8l1.1-0.5l0.1,0.2l-1.1,0.5L37.4,32.8z M38.2,33.9l0,0.3
			c-0.1,0-0.3,0-0.3-0.1c-0.1-0.1-0.2-0.2-0.2-0.3c-0.1-0.2,0-0.3,0-0.4c0.1-0.1,0.2-0.2,0.4-0.3c0.2-0.1,0.4-0.1,0.5,0
			c0.1,0.1,0.2,0.2,0.3,0.3c0,0.1,0,0.3,0,0.4c0,0.1-0.1,0.1-0.2,0.2l-0.1-0.2c0.1,0,0.1-0.1,0.1-0.1c0-0.1,0-0.1,0-0.2
			c0-0.1-0.1-0.1-0.2-0.2c-0.1,0-0.2,0-0.3,0c-0.1,0.1-0.2,0.1-0.3,0.2c0,0.1-0.1,0.2,0,0.2c0,0.1,0.1,0.1,0.1,0.1
			C38.1,33.9,38.2,33.9,38.2,33.9 M38.2,35.5l-0.1-0.3l0.2-0.2l-0.1-0.5l-0.3,0l-0.1-0.3l1.3,0.1l0.1,0.3L38.2,35.5z M38.6,35
			l0.4-0.3l-0.5,0L38.6,35z M38.6,36l0.2,0l0.1,0.5l-0.2,0L38.6,36z M39.7,37l0,0.5c0,0.1,0,0.2,0,0.2c0,0.1,0,0.1-0.1,0.2
			c0,0.1-0.1,0.1-0.2,0.1c-0.1,0-0.2,0.1-0.3,0.1c-0.1,0-0.2,0-0.3,0c-0.1,0-0.2-0.1-0.2-0.1c0,0-0.1-0.1-0.1-0.2c0-0.1,0-0.1,0-0.2
			l0-0.5L39.7,37z M39.5,37.3l-0.8,0.1l0,0.2c0,0.1,0,0.1,0,0.1c0,0,0,0.1,0.1,0.1c0,0,0.1,0,0.1,0.1c0.1,0,0.1,0,0.2,0
			c0.1,0,0.2,0,0.2,0c0,0,0.1,0,0.1-0.1c0,0,0-0.1,0-0.1c0,0,0-0.1,0-0.2L39.5,37.3z M38.6,39.4l0-0.3l0.3-0.1l0-0.5l-0.3-0.1l0-0.3
			l1.2,0.4l0,0.3L38.6,39.4z M39.1,39l0.4-0.2l-0.5-0.1L39.1,39z M38.6,39.6l1.2,0.1l-0.1,0.8l-0.2,0l0-0.6l-0.3,0l0,0.5l-0.2,0
			l0-0.5l-0.5,0L38.6,39.6z M38.5,40.6l1.2,0.1l0,0.4c0,0.1,0,0.2-0.1,0.3c0,0.1-0.1,0.1-0.1,0.2c-0.1,0-0.1,0.1-0.2,0
			c-0.1,0-0.1,0-0.2-0.1c0,0-0.1-0.1-0.1-0.1c0,0,0-0.1,0-0.1c0-0.1,0-0.1,0-0.3l0-0.2l-0.5-0.1L38.5,40.6z M39.5,41l-0.3,0l0,0.1
			c0,0.1,0,0.2,0,0.2c0,0,0,0.1,0.1,0.1c0,0,0.1,0,0.1,0c0,0,0.1,0,0.1,0c0,0,0.1-0.1,0.1-0.1c0,0,0-0.1,0-0.2L39.5,41z"/>
		<polygon id="XMLID_120_" class="st5" points="33.8,46.1 33.7,46.1 33.7,46.1 33.7,46 33.7,46 33.8,46 33.8,46 33.8,45.9 
			33.7,45.9 33.7,45.9 33.7,45.8 33.7,45.8 33.7,45.8 33.7,45.8 33.7,45.8 33.7,45.7 33.7,45.7 33.6,45.6 33.6,45.5 33.6,45.5 
			33.6,45.4 33.5,45.4 33.5,45.3 33.5,45.3 33.5,45.2 33.4,45.2 33.4,45.1 33.4,45.1 33.4,45 33.4,45 33.4,44.9 33.4,44.9 
			33.3,44.8 33.3,44.8 33.3,44.7 33.3,44.7 33.3,44.7 33.3,44.6 33.3,44.6 33.3,44.6 33.3,44.5 33.3,44.5 33.3,44.5 33.3,44.4 
			33.2,44.4 33.2,44.5 33.2,44.4 33.2,44.4 33.1,44.4 33.1,44.3 33.1,44.3 33.1,44.2 33.1,44.2 33.1,44.2 33.1,44.1 33.1,44.1 
			33.1,44.1 33.1,44.1 33.1,44.1 33.1,44 33.1,44 33,43.9 33,43.9 32.9,43.8 32.9,43.7 32.8,43.7 32.8,43.6 32.7,43.6 32.7,43.5 
			32.6,43.5 32.6,43.4 32.6,43.4 32.6,43.4 32.5,43.4 32.5,43.4 32.5,43.4 32.5,43.4 32.5,43.3 32.4,43.3 32.4,43.2 32.4,43.2 
			32.4,43.1 32.3,43.1 32.3,43.1 32.3,43.2 32.3,43.2 32.2,43.2 32.2,43.2 32.2,43.1 32.1,43.1 32.1,43.1 32.1,43.1 32.1,43.1 
			32,43.1 32,43.1 32,43.1 31.9,43.1 31.9,43.1 31.9,43.2 31.9,43.2 31.9,43.2 31.9,43.1 32.7,42.3 32.8,42.3 32.8,42.3 32.8,42.3 
			32.8,42.3 32.8,42.2 32.8,42.2 32.8,42.2 32.9,42.2 32.9,42.1 32.9,42.1 32.9,42.1 32.9,42 32.9,42 32.9,41.9 32.8,41.9 
			32.8,41.9 32.8,41.9 32.7,41.9 32.7,41.8 32.7,41.8 32.7,41.7 32.7,41.7 32.7,41.7 32.7,41.7 32.7,41.6 32.7,41.6 32.7,41.6 
			32.6,41.5 32.6,41.5 32.6,41.4 32.6,41.4 32.6,41.4 32.6,41.3 32.6,41.3 32.5,41.3 32.5,41.3 32.5,41.3 32.5,41.3 32.5,41.3 
			32.5,41.4 32.5,41.4 32.5,41.4 32.4,41.4 32.4,41.4 32.4,41.4 32.4,41.4 32.3,41.4 32.3,41.3 32.3,41.3 32.3,41.3 32.3,41.2 
			32.3,41.2 32.3,41.1 32.2,41.1 32.2,41.1 32.2,41 32.2,41 32.2,40.9 32.2,40.9 32.2,40.8 32.2,40.8 32.1,40.8 32.1,40.7 
			32.1,40.7 32.1,40.6 32.1,40.6 32,40.5 32,40.5 32,40.5 32,40.4 32,40.4 32,40.3 32,40.3 32,40.2 32,40.1 32,40.1 32,40 31.9,40 
			31.9,39.9 31.9,39.9 31.8,39.9 31.8,39.8 31.8,39.7 31.9,39.6 31.9,39.5 31.9,39.5 31.9,39.4 31.9,39.3 31.9,39.3 31.9,39.2 
			31.9,39.2 31.9,39.1 31.9,39 31.9,39 31.9,38.9 31.9,38.8 31.9,38.8 31.9,38.8 31.9,38.7 31.9,38.7 31.9,38.7 31.9,38.6 
			31.9,38.6 31.9,38.5 31.9,38.5 31.9,38.4 31.9,38.4 32,38.3 32,38.3 32.1,38.2 32.2,38.2 32.3,38.1 32.3,38.1 32.3,38 32.3,38 
			32.3,37.9 32.3,37.9 32.3,37.8 32.3,37.7 32.3,37.7 32.3,37.7 32.3,37.6 32.3,37.6 32.3,37.5 32.3,37.5 32.3,37.4 32.4,37.4 
			32.4,37.3 32.5,37.3 32.5,37.2 32.6,37.2 32.6,37.1 32.7,37.1 32.7,37 32.6,37 32.6,36.9 32.5,36.8 32.6,36.8 32.6,36.7 
			32.6,36.7 32.6,36.7 32.5,36.7 32.5,36.6 32.5,36.6 32.4,36.6 32.4,36.6 32.4,36.6 32.4,36.5 32.3,36.5 32.3,36.5 32.2,36.5 
			32.2,36.5 32.2,36.5 32.1,36.5 32.1,36.5 32,36.5 32,36.5 32,36.5 32,36.5 31.9,36.5 31.9,36.5 31.9,36.5 31.8,36.5 31.8,36.6 
			31.8,36.6 31.7,36.6 31.7,36.6 31.7,36.6 31.7,36.7 31.7,36.7 31.7,36.7 31.6,36.7 31.6,36.7 31.5,36.7 31.5,36.7 31.4,36.7 
			31.4,36.7 31.4,36.7 31.4,36.7 31.3,36.7 31.3,36.7 31.3,36.7 31.3,36.7 31.3,36.7 31.2,36.7 31.2,36.7 31.2,36.7 31.1,36.7 
			31.1,36.7 31.1,36.7 31.1,36.8 31.1,36.8 31,36.8 31,36.8 31,36.8 30.9,36.8 30.8,36.8 30.8,36.8 30.7,36.8 30.7,36.8 30.7,36.8 
			30.6,36.8 30.6,36.8 30.5,36.8 30.5,36.8 30.5,36.8 30.5,36.8 30.5,36.8 30.4,36.8 30.4,36.8 30.4,36.9 30.3,36.9 30.3,36.9 
			30.2,36.8 30.2,36.8 30.1,36.8 30.1,36.8 30.1,36.8 30,36.8 30,36.8 29.9,36.8 29.8,36.8 29.8,36.8 29.8,36.8 29.7,36.7 
			29.7,36.7 29.7,36.7 29.7,36.7 29.6,36.7 29.6,36.7 29.6,36.7 29.6,36.7 29.5,36.7 29.5,36.7 29.5,36.7 29.5,36.7 29.4,36.7 
			29.4,36.8 29.4,36.8 29.4,36.8 29.4,36.8 29.3,36.8 29.3,36.9 29.3,36.9 29.3,36.9 29.3,36.9 29.3,36.9 29.3,36.9 29.2,37 
			29.2,37 29.2,37 29.1,37 29.1,36.9 29.1,36.9 29.1,36.9 29.1,36.9 29,36.9 29,36.9 29,36.9 29,36.9 29,36.9 28.9,36.9 28.9,36.9 
			28.9,36.9 27.6,35.3 27.5,35.3 27.4,35.3 27.4,35.3 27.3,35.3 27.3,35.4 27.3,35.4 27.3,35.4 27.1,35.3 27,35.3 27,35.3 
			26.9,35.3 26.9,35.3 26.8,35.2 26.8,35.2 26.8,35.2 26.8,35.1 26.7,35.1 26.7,35.1 26.7,35.1 26.6,35.1 26.5,35.1 26.5,35.1 
			26.4,35.1 26.3,35.1 26.3,35.1 26.3,35.1 26.2,35.1 26.2,35.1 26.1,35.2 26.1,35.2 26.1,35.2 26,35.2 26,35.3 25.9,35.3 
			25.9,35.3 25.8,35.3 25.8,35.3 25.8,35.3 25.7,35.3 25.7,35.3 25.7,35.2 25.7,35.2 25.6,35.2 25.6,35.2 25.5,35.2 25.5,35.2 
			25.4,35.2 25.4,35.2 25.3,35.2 25.3,35.2 25.2,35.2 25.2,35.2 25.2,35.2 25.1,35.2 25.1,35.2 25.1,35.2 25.1,35.2 25.1,35.2 
			25.1,35.2 25,35.2 24.9,35.2 24.9,35.2 24.9,35.2 24.9,35.2 24.8,35.2 24.8,35.2 24.8,35.2 24.8,35.2 24.7,35.2 24.7,35.2 
			24.7,35.2 24.7,35.2 24.6,35.2 24.6,35.2 24.6,35.2 24.6,35.2 24.5,35.2 24.5,35.2 24.5,35.2 24.5,35.2 24.4,35.2 24.4,35.2 
			24.3,35.2 24.3,35.2 24.2,35.2 24.2,35.2 24.1,35.2 24.1,35.3 24,35.2 24,35.2 23.7,34.8 23.7,34.7 23.7,34.6 23.7,34.6 
			23.6,34.5 23.6,34.5 23.6,34.5 23.5,34.5 23.5,34.5 23.5,34.6 23.4,34.6 23.3,34.5 23.3,34.5 23.2,34.5 23.2,34.5 23.2,34.5 
			23.2,34.4 23.2,34.4 23.2,34.4 23.2,34.4 23.2,34.4 23.2,34.3 23.2,34.3 23.2,34.2 23.2,34.2 23.1,34.1 23.1,34.1 23.1,34 
			23.1,33.9 23.1,33.9 23.1,33.8 23.2,33.8 23.2,33.8 23.2,33.7 23.2,33.7 23.2,33.7 23.2,33.6 23.2,33.6 23.2,33.6 23.2,33.5 
			23.2,33.5 23.2,33.5 23.2,33.4 23.3,33.4 23.3,33.4 23.3,33.4 23.3,33.3 23.3,33.3 23.3,33.3 23.3,33.2 23.3,33.2 23.4,33.1 
			23.3,33.1 23.3,33 23.3,33 23.3,33 23.3,32.9 23.3,32.9 23.3,32.8 23.3,32.8 23.3,32.8 23.3,32.8 23.3,32.7 23.2,32.7 22.9,32.3 
			22.9,32.3 22.8,32.3 22.8,32.3 22.6,31.4 22.6,31.3 22.6,31.3 22.5,31.3 22.5,31.3 22.5,31.3 22.5,31.3 22.4,31.3 22.4,31.3 
			22.4,31.3 22.4,31.3 22.3,31.4 22.3,31.4 22.3,31.4 22.2,31.3 22.2,31.3 22.2,31.3 22.2,31.3 22.2,31.2 22.2,31.2 22.2,31.2 
			22.2,31.1 22.2,31.1 22.1,31.1 22.1,31 22.1,31 22.1,31 22,31 22,31.1 22,31.1 22,31.1 21.9,31.1 21.9,31.1 21.9,31.2 21.9,31.2 
			21.8,31.2 21.8,31.2 21.8,31.2 21.7,31.2 21.7,31.2 21.6,31.2 21.6,31.2 21.5,31.2 21.5,31.2 21.6,31.1 21.6,31.1 21.6,31 
			21.6,31 21.7,30.9 21.7,30.9 21.7,30.8 21.7,30.8 21.8,30.7 21.8,30.6 21.8,30.6 21.9,30.6 21.9,30.5 21.9,30.5 22,30.5 22,30.4 
			22,30.3 22.1,30.3 22.1,30.2 22.1,30.2 22.1,30.1 22.2,30 22.2,30 22.3,30 22.2,29.9 22.2,29.9 22.2,29.9 22.2,29.8 22.2,29.7 
			22.2,29.7 22.2,29.6 22.3,29.5 22.3,29.5 22.3,29.4 22.3,29.4 22.3,29.2 22.3,29.2 22.3,29.1 22.4,29.1 22.4,29 22.5,28.9 
			22.5,28.8 22.6,28.8 22.6,28.7 22.7,28.6 22.7,28.5 22.8,28.4 22.8,28.3 22.9,28.1 22.9,28 23,27.9 23,27.8 23.1,27.7 23.2,27.7 
			23.2,27.6 23.5,27.5 23.5,27.5 23.5,27.5 23.6,27.5 24.1,26.6 24.4,26.5 25.2,26.2 25.2,26.2 25.2,26.1 25.2,26.1 25.2,26.1 
			25.2,26.1 25.3,26.1 25.3,26.1 25.3,26.1 25.2,26 25.2,26 25.2,26 25.2,26 25.3,26 25.3,26 25.3,26 25.3,26 25.3,26 25.4,25.9 
			25.4,25.9 25.4,25.9 25.5,25.9 25.5,25.9 25.6,25.9 25.6,25.8 25.6,25.8 25.6,25.7 25.6,25.7 25.5,25.6 25.5,25.5 25.4,25.4 
			25.4,25.3 25.4,25.3 25.4,25.3 25.3,25.2 25.3,25.2 25.3,25.2 25.3,25.2 25.2,25.2 25.2,25.2 25.2,25.2 25.1,25.2 25.1,25.1 
			25.1,25.1 25,25.1 25,25.1 24.9,25.1 24.9,25.1 24.9,25 24.8,25 24.8,25 24.8,25 24.7,25 24.7,25 24.6,25 24.6,25 24.6,25 
			24.5,25 24.5,25 24.5,25.1 24.5,25.1 24.5,25.1 24.6,25.1 24.6,25 24.6,25 24.6,25 24.6,25.1 24.6,25.1 24.6,25.1 24.6,25.1 
			24.7,25.1 24.6,25.1 24.6,25.1 24.6,25.1 24.5,25.1 24.6,25.1 24.6,25.2 24.5,25.2 24.5,25.2 24.5,25.2 24.5,25.1 24.5,25.1 
			24.5,25.1 24.5,25.1 24.5,25.1 24.4,25.1 24.4,25.2 24.5,25.2 24.5,25.2 24.4,25.2 24.4,25.2 24.4,25.3 24.4,25.3 24.3,25.3 
			24.3,25.3 24.3,25.2 24.3,25.2 24.2,25.2 24.2,25.2 24.2,25.3 24.1,25.3 24.1,25.3 24.1,25.3 24.1,25.4 24.1,25.4 24.2,25.3 
			24.2,25.3 24.2,25.4 24.2,25.4 24.2,25.4 24.2,25.4 24.2,25.4 24.2,25.5 24.2,25.5 24.2,25.5 24.2,25.5 24.1,25.5 24.1,25.5 
			24.1,25.5 24.1,25.5 24.1,25.6 24.1,25.6 24.1,25.6 24,25.6 24,25.6 24,25.6 24,25.5 24,25.5 24,25.5 24,25.5 24,25.4 24.1,25.4 
			24.1,25.4 24,25.4 24,25.4 24,25.4 23.9,25.4 23.9,25.4 23.9,25.4 23.8,25.4 23.8,25.4 23.8,25.4 23.7,25.4 23.7,25.4 23.7,25.4 
			23.6,25.5 23.7,25.5 23.7,25.5 23.7,25.5 23.7,25.6 23.7,25.6 23.7,25.8 23.6,25.9 23.6,25.9 23.6,26 23.5,26.1 23.5,26.1 
			23.4,26.2 23.3,26.2 23.3,26.2 23.2,26.3 23.1,26.3 23.1,26.3 23.1,26.3 23,26.3 23,26.3 23,26.3 22.9,26.3 22.9,26.4 22.8,26.4 
			22.7,26.4 22.7,26.4 22.7,26.4 22.6,26.5 22.5,26.5 22.5,26.5 22.4,26.6 22.3,26.7 22.3,26.7 22.2,26.7 22.2,26.8 22.1,26.8 
			22.1,26.8 22,26.9 22,26.9 21.9,27 21.9,27 21.9,27 21.8,27 21.8,27.1 21.8,27.1 21.8,27.1 21.7,27.1 21.7,27.2 21.6,27.2 
			21.6,27.2 21.4,27.2 21.3,27.3 21.2,27.3 21.1,27.3 21.1,27.3 21.1,27.3 21,27.3 20.9,27.3 20.8,27.3 20.7,27.3 20.7,27.3 
			20.6,27.3 20.5,27.2 20.5,27.2 20.4,27.2 20.4,27.2 20.3,27.1 20.3,27.1 20.3,27.1 20.2,27.1 20.2,27.1 20.2,27.1 20.2,27.1 
			20.1,27.2 20.1,27.1 20.1,27.1 20.1,27.1 20,27.1 20,27.1 20,27.1 20,27.2 20,27.2 20,27.2 19.9,27.2 19.9,27.2 19.9,27.2 
			19.9,27.3 19.9,27.3 19.9,27.3 19.8,27.3 19.8,27.4 19.8,27.4 19.9,27.5 19.9,27.5 19.9,27.5 19.9,27.6 19.9,27.6 19.9,27.6 
			19.8,27.7 19.8,27.7 19.8,27.8 19.7,27.8 19.7,27.8 19.6,27.8 19.6,27.8 19.5,27.8 19.5,27.8 19.4,27.8 19.4,27.8 19.2,27.7 
			19.1,27.7 19,27.7 18.9,27.6 18.9,27.6 18.8,27.6 18.8,27.6 18.7,27.6 18.7,27.6 18.7,27.6 18.6,27.6 18.6,27.6 18.6,27.7 
			18.6,27.7 18.5,27.8 18.5,27.8 18.4,27.8 18.4,27.8 18.4,27.9 18.4,27.9 18.4,27.9 18.3,28 18.2,28 18.2,28 18.2,28.1 18.1,28.1 
			18.1,28.1 18,28.1 18,28.1 18,28.1 18,28.1 17.9,28.3 17.9,28.3 17.8,28.3 17.8,28.4 17.7,28.4 17.7,28.4 17.7,28.4 17.7,28.4 
			17.7,28.4 17.6,28.4 17.6,28.5 17.6,28.5 17.6,28.5 17.6,28.5 17.6,28.5 17.5,28.5 17.5,28.6 17.5,28.6 17.5,28.6 17.5,28.6 
			17.5,28.6 17.5,28.6 17.5,28.7 17.5,28.7 17.5,28.8 17.5,28.8 17.6,28.8 17.5,28.9 17.5,28.9 17.5,28.9 17.5,28.9 17.5,28.8 
			17.5,28.8 17.5,28.8 17.5,28.7 17.5,28.7 17.5,28.7 17.5,28.7 17.5,28.8 17.5,28.8 17.4,28.8 17.4,28.8 17.4,28.9 17.4,28.9 
			17.4,28.9 17.5,28.9 17.5,28.9 17.5,29 17.5,29 17.5,29 17.5,29.1 17.4,29.1 17.4,29.1 17.4,29.1 17.4,29.1 17.4,29.1 17.4,29.1 
			17.4,29.1 17.3,29.1 17.3,29.1 17.3,29.1 17.3,29.1 17.3,29.2 17.3,29.2 17.3,29.2 17.3,29.2 17.3,29.2 17.3,29.2 17.3,29.2 
			17.3,29.2 17.3,29.3 17.2,29.3 17.2,29.3 17.2,29.3 17.2,29.3 17.1,29.4 17.1,29.4 17.1,29.4 17.2,29.4 17.2,29.4 17.2,29.4 
			17.2,29.3 17.3,29.3 17.3,29.3 17.3,29.2 17.4,29.2 17.4,29.2 17.4,29.2 17.5,29.2 17.5,29.2 17.4,29.3 17.5,29.3 17.5,29.3 
			17.5,29.3 17.5,29.4 17.5,29.4 17.4,29.3 17.4,29.4 17.4,29.4 17.4,29.4 17.4,29.4 17.4,29.4 17.4,29.4 17.4,29.4 17.3,29.4 
			17.3,29.4 17.3,29.4 17.4,29.5 17.3,29.5 17.4,29.5 17.4,29.5 17.4,29.5 17.4,29.6 17.4,29.6 17.5,29.6 17.5,29.6 17.4,29.6 
			17.4,29.6 17.4,29.7 17.4,29.7 17.4,29.7 17.4,29.7 17.3,29.8 17.3,29.8 17.3,29.8 17.3,29.9 17.3,29.9 17.3,30 17.3,30 
			17.3,30.1 17.2,30.1 17.2,30.2 17.1,30.2 17.1,30.2 17.2,30.2 17.2,30.2 17.2,30.2 17.4,30.4 17.4,30.5 17.3,30.6 17.3,30.6 
			17.3,30.6 17.3,30.7 17.2,30.7 17.2,30.7 17.2,30.7 17.1,30.7 17.1,30.7 17.1,30.7 17.1,30.7 17,30.8 17,30.8 17,30.8 16.9,30.8 
			16.9,30.8 16.9,30.8 16.9,30.8 16.9,30.8 16.9,30.7 16.9,30.7 16.9,30.7 17,30.7 17,30.7 16.9,30.7 16.9,30.7 16.9,30.7 
			16.8,30.7 16.8,30.7 16.8,30.7 16.7,30.7 16.7,30.7 16.7,30.8 16.6,30.8 16.6,30.8 16.5,30.8 16.5,30.9 16.4,30.9 16.4,30.9 
			16.4,30.9 16.4,30.9 16.4,31 16.3,31 16.3,31 16.3,31.1 16.2,31.1 16.2,31.1 16.2,31.1 16.2,31.2 16.2,31.3 16.2,31.3 16.2,31.3 
			16.1,31.4 16.1,31.4 16.1,31.4 16.1,31.4 16.1,31.5 16,31.5 16,31.6 16,31.6 15.9,31.6 15.9,31.6 15.9,31.6 15.9,31.7 15.8,31.7 
			15.8,31.7 15.8,31.7 15.7,31.7 15.7,31.7 15.7,31.7 15.7,31.8 15.7,31.8 15.6,31.8 15.6,31.9 15.5,31.9 15.5,31.9 15.3,32.1 
			15.3,32.1 15.3,32.1 15.2,32.2 15.2,32.2 15.1,32.2 15.1,32.2 15,32.2 15,32.2 14.9,32.2 14.9,32.2 14.9,32.2 14.9,32.2 
			14.9,32.3 14.9,32.3 14.8,32.3 14.8,32.3 14.8,32.4 14.8,32.4 14.8,32.4 14.8,32.4 14.8,32.4 14.9,32.4 14.9,32.4 14.9,32.4 
			14.9,32.4 15,32.4 15,32.5 15,32.5 15,32.5 15.1,32.6 15.1,32.6 15.1,32.6 15.1,32.7 15.1,32.7 15.1,32.7 15.1,32.8 15.1,32.8 
			15.1,33.1 15.1,33.1 15.1,33.1 15.1,33.2 15.1,33.2 15.2,33.3 15.2,33.3 15.2,33.2 15.2,33.2 15.2,33.3 15.2,33.3 15.2,33.3 
			15.2,33.3 15.2,33.4 15.2,33.4 15.1,33.4 15.1,33.5 15.1,33.5 15.1,33.5 15.1,33.5 15.1,33.6 15,33.6 15,33.6 14.9,33.6 
			14.9,33.6 14.9,33.6 14.8,33.6 14.8,33.5 14.8,33.5 14.8,33.5 14.8,33.4 14.8,33.4 14.8,33.4 14.8,33.4 14.8,33.4 14.8,33.3 
			14.8,33.3 14.9,33.3 14.9,33.3 14.9,33.3 14.9,33.4 15,33.3 15,33.3 14.9,33.3 14.9,33.3 14.9,33.3 15,33.3 15,33.3 15,33.3 
			15,33.2 15,33.2 15,33.2 15,33.2 15,33.2 15,33.2 15,33.1 14.9,33.1 14.9,33.1 14.9,33.1 14.9,33.1 14.9,33.1 14.9,33.1 
			14.9,33.2 14.8,33.2 14.8,33.2 14.8,33.2 14.8,33.1 14.8,33.1 14.8,33.1 14.8,33.1 14.8,33.1 14.8,33 14.8,33 14.8,33 14.7,33 
			14.7,33 14.7,33 14.8,32.9 14.8,32.9 14.7,32.9 14.7,32.9 14.7,32.9 14.7,32.9 14.7,32.9 14.7,32.9 14.6,32.9 14.6,32.9 
			14.6,32.9 14.6,32.8 14.5,32.8 14.5,32.7 14.5,32.7 14.5,32.7 14.4,32.6 14.4,32.6 14.3,32.5 14.3,32.5 14.3,32.5 14.2,32.5 
			14.2,32.5 14.2,32.5 14.2,32.4 14.2,32.4 14.1,32.4 14.1,32.3 14.1,32.3 14.1,32.3 14,32.2 14,32.2 14,32.2 14,32.2 14,32.2 
			14,32.3 13.9,32.3 13.9,32.3 13.9,32.3 13.9,32.4 13.8,32.4 13.8,32.4 13.8,32.5 13.9,32.5 13.9,32.6 14,32.6 14,32.7 14,32.8 
			14,32.8 14,32.8 14.1,32.9 14.2,33.1 14.2,33.1 14.3,33.2 14.3,33.3 14.3,33.3 14.3,33.4 14.3,33.4 14.3,33.5 14.3,33.5 
			14.3,33.5 14.3,33.6 14.3,33.6 14.3,33.6 14.2,33.7 14.2,33.7 14.1,33.7 14,33.7 14,33.8 14,33.8 13.9,33.9 13.9,34 13.8,34.1 
			13.8,34.1 13.7,34.2 13.7,34.2 13.7,34.3 13.7,34.3 13.6,34.3 13.6,34.3 13.5,34.3 13.5,34.2 13.5,34.2 13.4,34.1 13.4,34 
			13.4,34 13.4,34 13.3,34 13.3,34 13.3,34.1 13.3,34.1 13.3,34.2 13.3,34.2 13.3,34.2 13.3,34.3 13.3,34.3 13.3,34.4 13.3,34.4 
			13.2,34.4 13.2,34.4 13.2,34.4 13.1,34.4 13.1,34.4 13.1,34.5 13.1,34.5 13.1,34.6 13.1,34.6 13,34.7 13,34.7 13,34.8 13,34.8 
			13,34.9 13.1,34.9 13.1,34.9 13.1,35 13.1,35 13.2,35 13.2,35.1 13.2,35.1 13.3,35.1 13.3,35.1 13.4,35.3 13.4,35.3 13.5,35.3 
			13.4,35.4 13.4,35.4 13.4,35.4 13.4,35.4 13.4,35.5 13.3,35.5 13.3,35.5 13.3,35.6 13.4,35.6 13.4,35.6 13.4,35.6 13.4,35.6 
			13.4,35.6 13.4,35.5 13.4,35.5 13.4,35.5 13.5,35.6 13.5,35.6 13.5,35.6 13.6,35.6 13.6,35.7 13.6,35.7 13.6,35.7 13.6,35.8 
			13.6,35.8 13.6,35.8 13.6,35.9 13.7,35.9 13.7,35.9 13.7,35.9 13.7,35.9 13.7,35.9 13.7,35.9 13.7,35.9 13.7,35.8 13.7,35.8 
			13.8,35.8 13.8,35.8 13.8,35.8 13.9,35.8 13.9,35.9 13.9,35.9 13.9,36 13.9,36 14,36 14,36.1 14,36.1 14,36.1 14,36.1 14,36.2 
			14,36.2 14,36.3 14,36.3 14,36.3 14,36.4 14,36.4 14,36.4 13.9,36.4 13.9,36.4 13.9,36.4 13.9,36.4 13.9,36.5 13.9,36.5 14,36.5 
			14,36.5 14,36.5 14,36.6 14,36.6 13.9,36.6 13.9,36.6 13.9,36.7 13.9,36.7 13.9,36.7 13.9,36.7 13.9,36.7 13.9,36.6 13.9,36.6 
			13.8,36.6 13.8,36.6 13.8,36.6 13.8,36.6 13.8,36.6 13.8,36.6 13.8,36.6 13.8,36.7 13.8,36.7 13.8,36.8 13.8,36.8 13.8,36.9 
			13.8,36.9 13.9,36.9 13.9,37 13.9,37 13.9,37 14,37 14,37 14,37 14,37.1 14,37.1 14,37.2 14,37.2 14,37.3 14.1,37.3 14.1,37.4 
			14.1,37.4 14.2,37.5 14.2,37.6 14.2,37.6 14.2,37.7 14.1,37.7 14.1,37.7 14.1,37.8 14,37.8 14,37.8 14,37.8 14,37.9 14,37.9 
			14,37.9 13.9,37.9 13.9,37.9 13.9,37.9 13.8,37.9 13.8,37.9 13.8,37.9 13.7,37.9 13.7,37.9 13.7,37.9 13.7,37.9 13.7,38 13.7,38 
			13.7,38 13.7,38.1 13.6,38.1 13.7,38.1 13.7,38.1 13.7,38.1 13.8,38.1 13.8,38.1 13.8,38.2 13.8,38.2 13.9,38.2 13.9,38.2 
			13.9,38.2 13.9,38.2 13.9,38.2 13.8,38.3 13.8,38.3 13.8,38.3 13.8,38.3 13.9,38.3 13.9,38.4 13.9,38.4 13.9,38.4 13.9,38.4 
			13.9,38.4 13.9,38.4 13.9,38.5 14,38.5 13.9,38.5 13.9,38.5 13.9,38.5 13.9,38.5 13.9,38.5 13.9,38.5 13.9,38.5 13.9,38.5 
			13.9,38.6 13.9,38.7 13.9,38.7 13.9,38.7 13.9,38.6 14,38.6 14,38.7 13.9,38.7 13.9,38.7 14,38.7 14,38.7 14,38.7 14.1,38.7 
			14.1,38.7 14,38.7 14,38.7 14,38.7 14,38.7 13.9,38.7 13.9,38.7 13.9,38.7 13.9,38.8 13.9,38.8 13.9,38.8 13.9,38.8 13.9,38.9 
			13.9,38.9 13.9,39 13.9,39.1 13.9,39.1 14,39.2 14,39.2 14,39.2 14,39.3 14,39.3 14,39.4 14,39.4 14.1,39.4 14.1,39.5 14.1,39.5 
			14.1,39.5 14.1,39.5 14.2,39.6 14.2,39.6 14.2,39.6 14.1,39.6 14.1,39.6 14.1,39.5 14.1,39.5 14,39.5 14,39.5 14,39.5 14,39.6 
			14,39.6 14,39.7 14,39.7 14,39.7 14,39.8 14,39.8 14,39.8 14,39.9 14,39.9 14,39.9 14,39.9 14,40 14,40 14,40 14,40.1 14,40.1 
			14,40.1 14.1,40.1 14.1,40.1 14,40.1 14,40.1 13.9,40.3 13.9,40.3 13.8,40.3 13.8,40.3 13.8,40.3 13.8,40.4 13.8,40.4 13.8,40.4 
			13.8,40.4 13.7,40.4 13.7,40.4 13.7,40.4 13.7,40.4 13.7,40.4 13.7,40.4 13.7,40.4 13.7,40.4 13.7,40.5 13.6,40.5 13.6,40.6 
			13.7,40.6 13.7,40.7 13.7,40.7 13.7,40.8 13.8,40.8 13.8,40.8 13.8,40.8 13.8,40.8 13.8,40.8 13.8,40.8 13.8,40.8 13.8,40.8 
			13.8,40.8 13.8,40.8 13.8,40.9 13.9,40.9 13.9,40.9 13.9,40.9 13.9,41 13.9,41 14,41 14,41.1 14,41 14,41 14,41 14,40.9 14,40.9 
			14.1,40.8 14.1,40.8 14.1,40.8 14.1,40.8 14.1,40.7 14.2,40.7 14.2,40.8 14.2,40.8 14.2,40.8 14.2,40.8 14.3,40.8 14.3,40.8 
			14.3,40.9 14.2,40.9 14.2,40.9 14.2,40.9 14.2,40.9 14.2,41 14.2,41 14.2,41 14.1,41 14.1,41 14.1,41 14.1,41 14.1,41 14,41.1 
			14,41.1 14.1,41.1 14.1,41.1 14.1,41.1 14.1,41.1 14.2,41.2 14.2,41.2 14.3,41.2 14.3,41.2 14.4,41.2 14.4,41.2 14.4,41.2 
			14.4,41.1 14.5,41.1 14.4,41.1 14.4,41.1 14.4,41.1 14.4,41.1 14.4,41 14.4,41.1 14.5,41.1 14.5,41 14.5,41 14.5,41 14.5,41 
			14.5,41.1 14.5,41.1 14.5,41.1 14.5,41.1 14.6,41.1 14.6,41.1 14.6,41.1 14.6,41.1 14.6,41.1 14.5,41.1 14.5,41.1 14.5,41.1 
			14.5,41.2 14.5,41.2 14.5,41.2 14.5,41.2 14.5,41.3 14.5,41.3 14.4,41.3 14.4,41.3 14.4,41.2 14.4,41.2 14.4,41.2 14.4,41.2 
			14.4,41.2 14.4,41.3 14.4,41.3 14.4,41.3 14.3,41.3 14.3,41.4 14.3,41.4 14.3,41.5 14.3,41.5 14.3,41.5 14.4,41.5 14.4,41.5 
			14.4,41.6 14.4,41.6 14.4,41.6 14.3,41.6 14.3,41.6 14.3,41.6 14.3,41.6 14.3,41.7 14.2,41.7 14.2,41.7 14.1,41.7 14.1,41.7 
			14.1,41.8 14.1,41.8 14,41.8 14,41.9 14,41.9 14,41.9 14,41.9 14,41.9 14.1,41.9 14.1,42 14,42 14,42 14,42 14,42 14,42 14,42 
			13.9,42.1 13.9,42.1 13.9,42.1 13.9,42.1 13.8,42.1 13.8,42.1 13.8,42.2 13.8,42.2 13.8,42.2 13.8,42.2 13.7,42.2 13.7,42.3 
			13.7,42.3 13.7,42.3 13.7,42.3 13.7,42.3 13.8,42.3 13.8,42.4 13.8,42.4 13.8,42.4 13.7,42.4 13.7,42.4 13.7,42.4 13.7,42.4 
			13.6,42.4 13.6,42.5 13.6,42.5 13.6,42.5 13.5,42.5 13.5,42.6 13.5,42.6 13.4,42.6 13.4,42.6 13.4,42.7 13.4,42.7 13.3,42.7 
			13.3,42.8 13.3,42.8 13.3,42.8 13.3,42.8 13.4,42.8 13.4,42.8 13.4,42.8 13.4,42.8 13.5,42.8 13.4,42.8 13.4,42.8 13.4,42.9 
			13.4,42.9 13.4,42.9 13.4,42.9 13.4,42.9 13.3,42.9 13.3,42.9 13.3,43 13.3,43 13.3,43 13.3,43 13.3,43.1 13.3,43.1 13.3,43.1 
			13.3,43.1 13.2,43.1 13.2,43.1 13.2,43.1 13.2,43.1 13.2,43.2 13.2,43.2 13.2,43.2 13.3,43.2 13.3,43.2 13.2,43.2 13.1,43.2 
			13.1,43.2 13.1,43.2 13.1,43.3 13.1,43.3 13.1,43.3 13.1,43.4 13.1,43.4 13.1,43.4 13.1,43.4 13,43.3 13,43.3 13,43.3 12.9,43.3 
			12.9,43.3 12.9,43.3 12.9,43.3 12.9,43.3 12.9,43.4 12.9,43.4 12.9,43.4 12.9,43.4 12.9,43.5 12.9,43.5 12.8,43.5 12.8,43.4 
			12.8,43.4 12.8,43.4 12.8,43.4 12.8,43.4 12.8,43.4 12.8,43.5 12.7,43.5 12.7,43.5 12.7,43.5 12.7,43.5 12.7,43.6 12.7,43.6 
			12.6,43.6 12.6,43.6 12.6,43.6 12.6,43.6 12.6,43.6 12.6,43.6 12.6,43.5 12.5,43.5 12.5,43.5 12.5,43.4 12.5,43.4 12.5,43.4 
			12.4,43.4 12.4,43.4 12.4,43.4 12.4,43.5 12.4,43.5 12.4,43.5 12.3,43.5 12.3,43.6 12.3,43.6 12.2,43.6 12.2,43.7 12.2,43.6 
			12.2,43.6 12.2,43.6 12.1,43.6 12.1,43.6 12.1,43.7 12.1,43.7 12.1,43.7 12.1,43.7 12.1,43.7 12.1,43.8 12.1,43.8 12.1,43.8 
			12.1,43.7 12.1,43.7 12.1,43.7 12,43.7 12,43.7 12,43.6 12,43.6 12,43.6 12,43.6 12,43.6 12,43.6 11.9,43.6 11.9,43.7 11.9,43.7 
			11.9,43.7 11.9,43.7 11.8,43.7 11.8,43.7 11.8,43.7 11.7,43.8 11.7,43.8 11.7,43.8 11.7,43.8 11.7,43.9 11.7,43.9 11.6,43.9 
			11.6,43.9 11.6,44 11.6,44.1 11.6,44.1 11.6,44.1 11.6,44.1 11.6,44.2 11.6,44.2 11.6,44.2 11.7,44.3 11.7,44.3 11.7,44.3 
			11.7,44.3 11.7,44.3 11.7,44.3 11.7,44.4 11.7,44.4 11.7,44.4 11.7,44.5 11.7,44.5 11.7,44.5 11.7,44.6 11.6,44.6 11.6,44.6 
			11.6,44.6 11.6,44.6 11.5,44.5 11.5,44.5 11.5,44.6 11.5,44.6 11.5,44.6 11.5,44.7 11.5,44.6 11.6,44.6 11.6,44.7 11.6,44.8 
			11.6,44.8 11.6,44.8 11.7,44.9 11.7,44.8 11.7,44.8 11.7,44.8 11.7,44.9 11.7,44.9 11.7,44.9 11.7,45 11.7,45 11.7,45 11.7,45.1 
			11.7,45.1 11.7,45.1 11.6,45.1 11.6,45.1 11.6,45 11.6,45 11.6,45 11.5,45 11.5,45 11.5,45 11.4,45.1 11.4,45.1 11.4,45.1 
			11.4,45 11.4,45 11.3,45 11.3,45 11.3,45 11.3,45 11.2,45 11.2,45 11.2,45 11.2,45 11.1,45 11.1,45 11,45.1 11,45.2 10.9,45.3 
			10.8,45.3 10.8,45.4 10.8,45.4 10.8,45.4 10.8,45.4 10.8,45.4 10.8,45.5 11,45.6 11.1,45.6 11.1,45.6 11.1,45.6 11.1,45.6 
			11.1,45.6 11.1,45.6 11.1,45.7 11.1,45.7 11.2,45.7 11.2,45.8 11.2,45.8 11.3,45.8 11.3,45.9 11.4,45.9 11.4,46 11.5,46 11.5,46 
			11.5,46.1 11.5,46.1 11.6,46.1 11.6,46.1 11.6,46.1 11.6,46.1 11.7,46.2 11.7,46.2 11.7,46.2 11.7,46.2 11.8,46.2 11.8,46.2 
			11.8,46.2 11.9,46.2 11.9,46.3 11.9,46.3 12,46.3 12,46.4 12,46.4 12.1,46.4 12.1,46.5 12.2,46.5 12.2,46.5 12.2,46.5 12.3,46.5 
			12.3,46.6 12.3,46.6 12.4,46.6 12.4,46.6 12.4,46.7 12.5,46.7 12.5,46.7 12.5,46.7 12.6,46.7 12.6,46.7 12.6,46.8 12.7,46.8 
			12.7,46.8 12.7,46.9 12.8,46.9 12.8,46.9 12.9,47 12.9,47 13,47 13.1,46.9 13.2,46.9 13.3,46.9 13.3,46.9 13.4,46.9 13.4,46.9 
			13.4,46.9 13.4,46.9 13.5,47 13.4,47 13.4,47 13.4,47.1 13.4,47.1 13.5,47.2 13.5,47.2 13.6,47.2 13.6,47.2 13.7,47.3 13.7,47.3 
			13.7,47.3 13.8,47.3 13.8,47.4 13.7,47.4 13.7,47.4 13.7,47.5 13.7,47.5 13.8,47.5 13.8,47.6 13.8,47.6 13.8,47.6 13.8,47.7 
			13.9,47.7 13.9,47.8 13.9,47.8 14,47.8 14,47.7 14,47.7 14.1,47.7 14.1,47.8 14.2,47.8 14.2,47.8 14.3,47.8 14.3,47.8 14.3,47.8 
			14.4,47.8 14.4,47.8 14.4,47.8 14.5,47.8 14.5,47.8 14.5,47.8 14.5,47.8 14.5,47.8 14.5,47.8 14.7,47.9 14.7,47.9 14.8,47.9 
			14.8,47.9 14.8,47.9 14.8,48 14.9,48 14.9,48 14.9,48 14.9,48 15,48 15,47.9 15,47.9 15,48 15.1,48 15.1,48 15.1,48 15.1,48 
			15.1,48 15.1,47.9 15.1,47.9 15.1,47.9 15.1,47.9 15.2,47.9 15.2,47.9 15.2,47.9 15.2,47.9 15.3,47.9 15.3,47.9 15.4,47.9 
			15.4,48 15.4,48 15.4,48 15.4,48 15.5,48 15.5,48 15.6,48 15.6,48 15.7,48 15.7,48 15.8,47.7 15.8,47.7 15.8,47.7 15.8,47.7 
			15.8,47.7 15.8,47.7 15.9,47.7 15.9,47.7 15.9,47.7 15.9,47.7 15.9,47.6 16,47.6 16,47.6 16,47.6 16,47.7 16,47.7 16.1,47.7 
			16.1,47.7 16.1,47.7 16.1,47.7 16.2,47.7 16.2,47.7 16.2,47.7 16.2,47.7 16.2,47.7 16.3,47.7 16.3,47.7 16.3,47.7 16.3,47.8 
			16.3,47.8 16.3,47.8 16.3,47.8 16.4,47.8 16.4,47.8 16.4,47.8 16.4,47.8 16.4,47.8 16.5,47.8 16.5,47.8 16.5,47.9 16.5,47.9 
			16.5,47.9 16.5,47.9 16.5,47.9 16.5,48 16.5,48 16.6,48 16.6,48 16.6,48 16.6,48.1 16.6,48.1 16.7,48.1 16.7,48.1 16.7,48.2 
			16.8,48.2 16.8,48.2 16.8,48.2 16.8,48.2 16.9,48.3 16.9,48.3 16.9,48.3 17,48.3 17,48.3 17.1,48.3 17.1,48.3 17.1,48.3 
			17.1,48.3 17.2,48.3 17.2,48.3 17.2,48.3 17.2,48.3 17.2,48.3 17.2,48.3 17.3,48.3 17.3,48.3 17.3,48.4 17.3,48.4 17.3,48.4 
			17.4,48.4 17.4,48.4 17.4,48.5 17.5,48.5 17.5,48.5 17.5,48.5 17.6,48.5 17.6,48.5 17.6,48.6 17.7,48.6 17.7,48.6 17.7,48.6 
			17.8,48.6 17.8,48.6 17.8,48.6 17.9,48.6 17.9,48.6 17.9,48.6 17.9,48.6 18,48.6 18,48.5 18,48.5 18,48.5 18,48.5 18.1,48.5 
			18.1,48.5 18.1,48.5 18.1,48.5 18.1,48.5 18.2,48.6 18.2,48.6 18.3,48.6 18.3,48.6 18.3,48.6 18.4,48.7 18.4,48.7 18.4,48.7 
			18.4,48.7 18.4,48.7 18.5,48.8 18.5,48.8 18.5,48.8 18.6,48.8 18.6,48.8 18.6,48.8 18.6,48.9 18.7,48.9 18.7,48.9 18.7,48.8 
			18.7,48.8 18.8,48.8 18.8,48.8 18.8,48.8 18.8,48.8 18.8,48.8 18.9,48.8 18.9,48.9 18.9,48.9 18.9,49 18.9,49 18.9,49 18.9,49 
			18.9,49.1 18.9,49.1 19,49.1 19,49.1 19,49.1 19,49.1 19,49.1 19.1,49.1 19.1,49.1 19.1,49.1 19.1,49.1 19.1,49.1 19.2,49.2 
			19.2,49.2 19.2,49.2 19.2,49.2 19.3,49.2 19.3,49.2 19.3,49.3 19.3,49.3 19.3,49.3 19.3,49.3 19.3,49.3 19.4,49.3 19.4,49.4 
			19.4,49.3 19.4,49.3 19.4,49.4 19.4,49.4 19.5,49.4 19.5,49.4 19.5,49.4 19.5,49.4 19.5,49.4 19.5,49.4 19.5,49.5 19.5,49.5 
			19.5,49.5 19.5,49.5 19.5,49.5 19.5,49.5 19.6,49.5 19.6,49.6 19.6,49.6 19.6,49.6 19.6,49.6 19.6,49.6 19.6,49.6 19.6,49.7 
			19.6,49.7 19.6,49.7 19.6,49.7 19.6,49.7 19.7,49.7 19.6,49.8 19.6,49.8 19.6,49.8 19.6,49.8 19.6,49.8 19.6,49.8 19.6,49.8 
			19.6,49.8 19.6,49.8 19.6,49.9 19.7,49.9 19.7,49.9 19.7,49.9 19.7,49.9 19.7,49.9 19.7,49.9 19.7,50 19.7,50 19.8,50 19.8,50 
			19.8,50 19.8,50 19.8,50 19.8,50.1 19.8,50.1 19.8,50.1 19.8,50.1 19.8,50.1 19.7,50.1 19.7,50.1 19.7,50.1 19.7,50.1 19.7,50.1 
			19.7,50.2 19.8,50.2 19.8,50.2 19.8,50.2 19.8,50.2 19.8,50.3 19.8,50.3 19.8,50.3 19.8,50.3 19.8,50.3 19.9,50.4 19.9,50.4 
			19.9,50.4 19.9,50.4 19.9,50.4 20,50.4 20,50.4 20,50.4 20,50.4 20.1,50.4 20.1,50.4 20.1,50.5 20.1,50.5 20.2,50.5 20.2,50.5 
			20.2,50.5 20.2,50.4 20.2,50.4 20.2,50.4 20.2,50.4 20.2,50.4 20.2,50.4 20.2,50.4 20.2,50.4 20.2,50.4 20.2,50.4 20.2,50.5 
			20.3,50.5 20.3,50.5 20.3,50.5 20.3,50.5 20.3,50.5 20.3,50.5 20.3,50.5 20.4,50.5 20.4,50.5 20.4,50.5 20.4,50.5 20.4,50.6 
			20.4,50.6 20.4,50.6 20.4,50.6 20.4,50.6 20.4,50.6 20.5,50.6 20.5,50.6 20.5,50.6 20.5,50.6 20.5,50.6 20.5,50.6 20.5,50.7 
			20.5,50.7 20.5,50.7 20.5,50.7 20.5,50.7 20.6,50.8 20.6,50.8 20.6,50.8 20.6,50.8 20.6,50.8 20.7,50.8 20.7,50.8 20.7,50.8 
			20.7,50.8 20.7,50.8 20.7,50.8 20.7,50.8 20.8,50.8 20.8,50.8 20.8,50.8 20.8,50.8 20.8,50.8 20.8,50.8 20.8,50.8 20.8,50.8 
			20.8,50.8 20.8,50.8 20.8,50.8 20.8,50.8 20.9,50.8 20.9,50.8 20.9,50.8 20.9,50.8 20.9,50.8 20.9,50.8 21,50.8 21,50.9 21,50.9 
			21,50.9 21,50.9 21,50.9 21,50.9 21.1,51 21.1,51 21.1,51 21.1,51 21.1,51 21.1,51 21.1,51 21.1,51 21.1,51.1 21.1,51.1 
			21.1,51.1 21.1,51.1 21.1,51.1 21.1,51.1 21.1,51.1 21.1,51.1 21.1,51.1 21.1,51.2 21.1,51.2 21.2,51.2 21.2,51.2 21.2,51.2 
			21.2,51.2 21.2,51.2 21.2,51.2 21.2,51.2 21.2,51.2 21.2,51.2 21.2,51.3 21.3,51.3 21.3,51.3 21.3,51.3 21.3,51.4 21.3,51.4 
			21.3,51.4 21.3,51.4 21.3,51.4 21.3,51.4 21.3,51.4 21.3,51.4 21.3,51.5 21.3,51.5 21.3,51.5 21.3,51.5 21.3,51.5 21.2,51.5 
			21.2,51.5 21.2,51.5 21.2,51.6 21.2,51.6 21.2,51.6 21.2,51.6 21.2,51.6 21.2,51.6 21.2,51.6 21.2,51.6 21.2,51.7 21.2,51.7 
			21.2,51.7 21.2,51.7 21.2,51.7 21.2,51.7 21.2,51.7 21.3,51.7 21.3,51.7 21.3,51.7 21.3,51.8 21.3,51.8 21.3,51.8 21.3,51.8 
			21.4,51.8 21.4,51.8 21.4,51.8 21.4,51.8 21.4,51.8 21.4,51.8 21.4,51.8 21.5,51.8 21.5,51.8 21.5,51.8 21.5,51.8 21.5,51.9 
			21.5,51.9 21.5,51.9 21.6,51.9 21.6,51.9 21.6,51.9 21.6,51.9 21.6,51.9 21.6,51.9 21.6,51.9 21.6,51.8 21.6,51.8 21.7,51.8 
			21.7,51.8 21.7,51.8 21.7,51.8 21.7,51.9 21.7,51.8 21.8,51.8 21.8,51.8 21.8,51.8 21.8,51.8 21.8,51.8 21.8,51.8 21.8,51.8 
			21.8,51.8 21.8,51.9 21.9,51.9 21.9,51.9 21.9,51.9 21.9,51.9 21.9,51.9 21.9,51.9 21.9,51.9 21.9,52 21.9,52 21.9,52 22,52 
			22,52 22,52 22,52 22,52 22,52 22,52.1 22,52.1 22,52.1 22,52.1 22,52.2 22,52.2 22,52.2 22,52.2 22,52.2 22,52.2 22,52.2 
			22,52.3 22,52.3 22,52.3 22,52.3 22,52.3 22,52.3 22,52.3 22,52.3 22,52.4 22,52.4 22,52.4 22,52.4 22,52.4 22,52.4 22.1,52.4 
			22.1,52.4 22.1,52.4 22.1,52.4 22.1,52.4 22.1,52.4 22.1,52.5 22,52.5 22,52.5 22,52.5 22,52.5 22,52.5 22,52.5 22,52.5 22,52.5 
			22,52.6 22,52.6 22,52.6 22,52.6 22,52.6 21.9,52.6 21.9,52.6 21.9,52.6 21.9,52.6 21.9,52.6 21.9,52.7 21.9,52.7 21.9,52.7 
			21.9,52.7 21.9,52.7 21.9,52.7 21.9,52.7 21.9,52.7 22,52.8 22,52.8 22,52.8 22,52.8 22,52.8 22,52.9 22,52.9 22,52.9 22,52.9 
			22.1,52.9 22.1,52.9 22.1,52.9 22.1,52.9 22.1,52.9 22.1,52.9 22.1,52.9 22.1,52.9 22.1,52.9 22.1,52.9 22.1,52.9 22.1,52.9 
			22.1,52.9 22.2,52.9 22.2,52.9 22.2,52.9 22.2,52.9 22.2,52.9 22.2,52.9 22.2,52.9 22.2,52.9 22.3,52.9 22.3,52.9 22.3,52.9 
			22.3,52.9 22.3,52.9 22.3,52.9 22.3,52.9 22.3,53 22.3,53 22.3,53 22.3,53 22.3,53 22.3,53 22.3,53 22.3,53 22.3,53.1 22.3,53.1 
			22.3,53.1 22.4,53.1 22.4,53.1 22.4,53.1 22.4,53.1 22.4,53.1 22.4,53.1 22.5,53.1 22.5,53.1 22.5,53 22.6,53 22.6,53 22.6,53 
			22.6,53 22.6,53 22.6,53 22.7,53 22.7,53 22.7,53 22.7,53 22.7,53 22.7,53 22.7,53 22.7,53 22.7,53 22.7,53 22.7,53 22.7,53 
			22.7,53 22.7,53 22.8,53 22.8,53 22.8,53 22.8,53 22.8,53 22.8,53 22.8,53.1 22.8,53.1 22.8,53.1 22.8,53.1 22.8,53.1 22.8,53.1 
			22.8,53 22.9,53 22.9,53 22.9,53 22.9,53 22.9,53 22.9,53 22.9,53 22.9,52.9 22.9,52.9 22.9,52.9 22.9,52.9 22.9,52.9 23,52.9 
			23,52.9 23,52.9 23,53 23,53 23,53 23,53 23.1,53 23.1,53 23.2,53 23.2,53 23.2,53 23.3,53 23.3,53 23.3,53 23.3,53 23.4,53 
			23.4,53 23.4,53 23.4,53.1 23.4,53.1 23.4,53.1 23.4,53.1 23.5,53.1 23.5,53.1 23.5,53.1 23.6,53.1 23.6,53.1 23.6,53 23.6,53 
			23.6,53 23.6,53.1 23.6,53.1 23.6,53.1 23.6,53.1 23.6,53 23.6,53 23.7,53 23.7,53 23.7,53 23.7,53 23.8,53 23.8,53 23.8,53 
			23.8,53 23.8,53 23.8,53 23.8,53 23.8,53 23.9,53 23.9,53 23.9,53 23.9,52.9 23.9,52.9 23.9,52.9 24,52.9 24,52.9 24,52.8 
			24,52.8 24,52.8 24.1,52.8 24.1,52.8 24.1,52.9 24.1,52.9 24.1,52.9 24.1,52.9 24.2,52.9 24.2,52.9 24.2,52.8 24.2,52.8 
			24.2,52.8 24.2,52.8 24.3,52.8 24.3,52.8 24.3,52.8 24.3,52.7 24.3,52.7 24.4,52.7 24.4,52.7 24.4,52.7 24.4,52.6 24.4,52.6 
			24.4,52.6 24.4,52.5 24.4,52.5 24.5,52.5 24.5,52.5 24.5,52.5 24.5,52.5 24.5,52.5 24.6,52.5 24.6,52.4 24.6,52.4 24.6,52.4 
			24.6,52.4 24.6,52.5 24.6,52.5 24.6,52.5 24.6,52.5 24.6,52.6 24.6,52.6 24.6,52.6 24.6,52.6 24.7,52.6 24.7,52.6 24.7,52.6 
			24.7,52.6 24.7,52.5 24.8,52.5 24.8,52.5 24.8,52.5 24.8,52.6 24.8,52.6 24.9,52.6 24.9,52.6 24.9,52.6 24.9,52.6 25,52.6 
			25,52.6 25,52.6 25,52.6 25,52.7 25,52.7 25,52.7 25,52.8 25,52.8 25.1,52.8 25.1,52.8 25.1,52.8 25.1,52.8 25.1,52.8 25.1,52.8 
			25.1,52.8 25.1,52.7 25.1,52.7 25.1,52.7 25.1,52.7 25.1,52.7 25.2,52.7 25.2,52.7 25.2,52.7 25.2,52.8 25.2,52.8 25.2,52.8 
			25.2,52.8 25.2,52.8 25.2,52.8 25.2,52.9 25.2,52.9 25.2,52.9 25.3,52.9 25.3,52.9 25.3,52.9 25.3,52.9 25.4,52.9 25.4,52.9 
			25.4,52.9 25.4,52.8 25.4,52.8 25.5,52.8 25.5,52.8 25.5,52.8 25.5,52.8 25.5,52.8 25.5,52.8 25.6,52.8 25.6,52.8 25.6,52.9 
			25.6,52.9 25.7,52.9 25.7,52.9 25.7,52.8 25.8,52.8 25.8,52.8 25.8,52.7 25.8,52.7 25.8,52.7 25.8,52.7 25.9,52.7 25.9,52.7 
			25.9,52.7 25.9,52.7 26,52.7 26,52.7 26,52.7 26,52.7 26,52.7 26,52.6 26,52.6 26,52.6 26,52.6 26,52.6 26,52.6 26,52.6 
			26.1,52.6 26.1,52.6 26.1,52.6 26.1,52.6 26.1,52.6 26.2,52.6 26.2,52.6 26.2,52.6 26.2,52.6 26.3,52.6 26.3,52.6 26.3,52.6 
			26.3,52.7 26.3,52.7 26.3,52.7 26.3,52.7 26.4,52.7 26.4,52.7 26.4,52.7 26.4,52.7 26.5,52.8 26.5,52.8 26.5,52.8 26.5,52.8 
			26.6,52.8 26.6,52.8 26.6,52.8 26.6,52.8 26.6,52.9 26.6,52.9 26.6,52.9 26.6,52.9 26.6,52.9 26.6,52.9 26.7,52.9 26.7,52.9 
			26.7,52.9 26.7,52.9 26.7,52.9 26.7,53 26.7,53 26.7,53 26.7,53 26.7,53.1 26.7,53.1 26.8,53.1 26.8,53.1 26.8,53.1 26.8,53 
			26.8,53 26.8,53 26.8,53 26.8,53 26.8,53 26.8,52.9 26.8,53 26.8,53 26.9,53 26.9,53 26.9,53 26.9,53 26.9,53 26.9,53 27,53 
			27,53 27,53 27,53 27,53 27,53.1 27,53.1 27,53.1 27,53.1 27.1,53.1 27.1,53.1 27.1,53.1 27.1,53.1 27.2,53.1 27.2,53.1 
			27.2,53.1 27.3,53.1 27.3,53.1 27.3,53.1 27.3,53.1 27.3,53.2 27.3,53.2 27.2,53.2 27.2,53.2 27.2,53.2 27.2,53.2 27.2,53.2 
			27.2,53.2 27.2,53.2 27.2,53.2 27.2,53.2 27.3,53.2 27.3,53.2 27.3,53.2 27.3,53.2 27.4,53.2 27.4,53.2 27.4,53.2 27.4,53.2 
			27.4,53.2 27.4,53.3 27.4,53.3 27.4,53.3 27.4,53.3 27.4,53.4 27.5,53.4 27.5,53.4 27.5,53.4 27.5,53.4 27.5,53.4 27.5,53.4 
			27.6,53.4 27.6,53.4 27.6,53.4 27.6,53.4 27.6,53.5 27.6,53.5 27.6,53.5 27.6,53.5 27.6,53.5 27.6,53.4 27.7,53.4 27.7,53.4 
			27.7,53.4 27.7,53.4 27.7,53.4 27.7,53.4 27.7,53.5 27.7,53.5 27.7,53.5 27.7,53.6 27.7,53.6 26.5,55.6 26.6,55.5 26.6,55.5 
			26.6,55.5 26.6,55.6 26.6,55.6 26.7,55.6 26.7,55.6 26.7,55.6 26.7,55.6 26.8,55.6 26.8,55.6 26.8,55.6 26.8,55.6 26.8,55.7 
			26.9,55.7 26.9,55.7 26.9,55.7 27,55.7 27,55.7 27.1,55.6 27.1,55.6 27.2,55.6 27.2,55.5 27.3,55.5 27.4,55.6 27.4,55.6 
			27.4,55.6 27.5,55.6 27.5,55.7 27.5,55.8 27.6,55.8 27.6,55.9 27.6,55.9 27.7,55.9 27.7,56 27.7,56 27.8,56.1 27.8,56.1 
			27.8,56.1 27.8,56.2 27.9,56.2 27.9,56.2 27.9,56.2 27.9,56.2 27.9,56.3 27.9,56.3 28,56.3 28.4,53.8 28.4,53.7 28.9,51.3 
			28.9,51.3 28.9,51.2 28.9,51.2 28.9,51.2 28.9,51.2 28.9,51.2 28.9,51.1 28.9,51.1 28.9,51.1 28.9,51 28.9,51 28.9,51 29,51 
			29,51 29,51 29,50.9 29,50.9 29,50.9 29,50.8 29,50.8 29,50.8 28.9,50.7 28.9,50.7 28.9,50.7 29,50.6 29,50.6 29,50.6 29,50.6 
			29,50.5 29,50.5 29,50.5 29,50.5 29,50.4 28.9,50.4 29,50.4 28.9,50.4 28.9,50.3 28.9,50.3 28.9,50.3 28.9,50.2 28.8,50.2 
			28.8,50.2 28.8,50.1 28.8,50.1 28.8,50.1 28.7,50 28.6,49.9 28.6,49.9 28.6,49.8 28.6,49.8 28.6,49.8 28.6,49.8 28.6,49.8 
			28.6,49.8 28.6,49.7 28.6,49.7 28.6,49.7 28.7,49.6 28.7,49.6 28.6,49.6 28.6,49.5 28.6,49.5 28.6,49.5 28.6,49.5 28.6,49.5 
			28.6,49.4 28.6,49.4 28.6,49.3 28.6,49.3 28.6,49.3 28.5,49.3 28.5,49.3 28.4,49.3 28.4,49.3 28.3,49.2 28.3,49.2 28.3,49.2 
			28.2,49.1 28.2,49.1 28.2,49.1 28.1,49.1 28.1,49.1 28.1,49.1 28,49.1 28,49 28,49 27.9,49 27.9,48.9 27.8,48.9 27.8,48.8 
			27.8,48.8 27.8,48.7 27.8,48.7 27.8,48.7 27.8,48.7 27.8,47.4 27.8,47.4 27.8,47.4 27.8,47.4 27.9,47.4 27.9,47.4 27.9,47.4 
			28,47.4 28,47.3 28,47.3 28.1,47.3 28.1,47.3 28.2,47.3 28.2,47.3 28.2,47.3 28.3,47.3 28.3,47.3 28.4,47.3 28.4,47.2 28.4,47.2 
			28.4,47.2 28.5,47.2 28.5,47.2 28.5,47.2 28.6,47.2 28.6,47.2 28.7,47.2 28.7,47.1 28.7,47.1 28.7,47.1 28.8,47.1 28.8,47.1 
			28.8,47 28.9,47.1 28.9,47.1 28.9,47.1 28.9,47.2 29,47.2 29,47.2 29,47.2 29,47.3 29,47.3 29.1,47.3 29.1,47.2 29.1,47.2 
			29.1,47.2 29.1,47.2 29.2,47.2 29.2,47.2 29.2,47.3 29.2,47.3 29.2,47.3 29.2,47.3 29.3,47.3 29.3,47.3 29.3,47.3 29.3,47.3 
			29.3,47.2 29.4,47.2 29.4,47.2 29.4,47.2 29.5,47.2 29.5,47.2 29.5,47.2 29.5,47.1 29.4,47.1 29.4,47.1 29.4,47.1 29.4,47 
			29.4,47 29.4,47 29.4,47 29.4,47 29.4,46.9 29.4,46.9 29.4,46.9 29.4,46.8 29.4,46.8 29.4,46.8 29.5,46.8 29.4,46.8 29.4,46.7 
			29.4,46.7 29.4,46.7 29.3,46.7 29.4,46.7 29.4,46.7 29.4,46.7 29.4,46.6 29.4,46.6 29.3,46.6 29.3,46.6 29.3,46.6 29.3,46.5 
			29.3,46.5 29.3,46.5 29.3,46.4 29.2,46.4 29.2,46.4 29.1,46.4 29.1,46.4 29.1,46.4 29,46.4 29,46.4 29,46.4 29,46.4 28.9,46.5 
			28.9,46.4 28.9,46.4 28.9,46.4 28.8,46.4 28.8,46.4 28.7,46.4 28.7,46.4 28.6,46.4 28.6,46.4 28.6,46.4 28.5,46.4 28.5,46.4 
			28.4,46.4 28.4,46.4 28.4,46.3 28.4,46.3 28.4,46.3 28.3,46.3 28.3,46.3 28.2,46.4 28.2,46.4 28.2,46.4 28.2,46.4 28.2,46.4 
			28.2,46.4 28.2,46.4 28.2,45.2 28.2,45.2 28.2,45.2 28.2,45.2 28.3,45.2 28.3,45.2 28.3,45.2 28.4,45.2 28.4,45.2 28.5,45.2 
			28.5,45.2 28.5,45.2 28.5,45.2 28.6,45.2 28.7,45.1 28.7,45.1 28.7,45.1 28.8,45.1 28.8,45.1 28.8,45.1 28.9,45.1 28.9,45.2 
			28.9,45.2 29,45.2 29,45.2 29,45.2 29,45.2 31.3,45.2 31.3,45.2 31.3,45.2 31.3,45.2 31.3,45.2 31.3,45.1 31.2,45.1 31.2,45.1 
			31.2,45.1 31.1,45.1 31.1,45.1 31.1,45.1 31.1,45.1 31.2,45 31.2,45 31.1,45 31.1,45 31.1,45 31.1,45 31.1,44.9 31.1,44.9 
			31.2,44.8 31.2,44.8 31.2,44.7 31.2,44.7 31.2,44.7 31.3,44.7 31.3,44.8 31.3,44.8 31.4,44.8 31.4,44.8 31.4,44.8 31.5,44.9 
			31.5,45 31.6,45.1 31.7,45.1 31.7,45.1 31.8,45.1 31.8,45.2 31.8,45.2 31.9,45.1 31.9,45.1 31.8,45 31.8,45 31.9,44.9 31.9,44.9 
			31.9,44.9 32,44.8 32,44.8 32.1,44.8 32.1,44.8 32.2,44.8 32.3,44.7 32.4,44.7 32.4,44.6 32.5,44.5 32.6,44.5 32.6,44.4 
			32.6,44.4 32.7,44.4 32.7,44.4 32.8,44.4 32.8,44.4 32.8,44.4 32.9,44.4 32.9,44.5 32.9,44.6 32.9,44.6 32.9,44.7 32.9,44.7 
			32.9,44.8 32.9,44.8 32.9,44.9 32.9,45 33,45 33,45.1 33,45.1 33.1,45.1 33.1,45.2 33.2,45.2 33.2,45.3 33.2,45.3 33.2,45.4 
			33.3,45.5 33.3,45.6 33.3,45.7 33.3,45.7 33.4,45.8 33.3,45.9 33.3,45.9 33.3,46 33.3,46.1 33.3,46.1 33.4,46.2 33.4,46.2 
			33.4,46.3 33.8,46.2 33.8,46.2 		"/>
		<path id="XMLID_117_" class="st5" d="M12.7,26.5c0,0.1,0,0.7-0.2,0.7c-0.3,0-0.5,0.5-0.3,0.7c0.2,0.2,0.1,0.2,0.1,0.4
			c0,0.3,0.6,0.4,0,0.5c-0.3,0-0.3,2.2,0.4,1.2c0.2-0.2,0.1-1.1,0.3-1.1c0.3-0.1,0.2-0.2,0.2-0.6c0-0.5,0.4-0.6,0.4-1.2
			C13.7,26.4,13.4,26.5,12.7,26.5 M14.4,27.1c-0.1,0.2-0.1,0.2-0.1,0.4c0,0.1-0.2,0.1-0.2,0.2c0,0.3,0,0.6,0.3,0.6
			c0.1,0,0.3-0.2,0.3-0.2c0.2-0.2,0.2-0.1,0.2-0.3c0-0.2,0-0.5-0.1-0.6c0,0-0.1-0.1-0.1-0.1C14.7,27,14.4,27,14.4,27.1"/>
		<path id="XMLID_116_" class="st6" d="M21.8,41.8c2.3-3.6,4.1-5.5,7.3-8.2c0.8-1,2.3-1.2,1.8-0.2c-1.5,1.8-3.6,3.7-5.5,6.2
			c-1.6,2.1-3,4.9-4.7,5.9c-0.2-2.1-1.5-3.3-2.8-4.8c-0.8-0.9,1.8-1.6,2.1-1.5C20.8,39.3,21.6,42.1,21.8,41.8"/>
		<path id="XMLID_115_" class="st7" d="M20,43c2.3-3.6,4.1-5.5,7.3-8.2c0.8-1,2.3-1.2,1.8-0.2c-1.5,1.8-3.4,3.9-5.3,6.4
			c-1.6,2.1-3,4.7-4.7,5.7c-0.2-2.1-1.5-3.3-2.8-4.8c-0.8-0.9,1.8-1.6,2.1-1.5C19.3,40.5,19.8,43.4,20,43"/>
		<path id="XMLID_114_" class="st8" d="M19.1,43.9c2.3-3.6,4.1-5.5,7.3-8.2c0.8-1,2.3-1.2,1.8-0.2c-1.5,1.8-3.4,3.9-5.3,6.4
			c-1.6,2.1-3.2,4.7-4.9,5.7c-0.2-2.1-1.5-3.3-2.8-4.8c-0.8-0.9,1.8-1.6,2.1-1.5C18.2,41.4,18.9,44.2,19.1,43.9"/>
		<g id="XMLID_42_">
			<path id="XMLID_47_" class="st5" d="M5,48.8L4.7,49l-0.4-0.7L5,47.9c0.1,0,0.2,0.1,0.4,0.2c0.1,0.1,0.2,0.2,0.3,0.4
				c0.1,0.2,0.1,0.3,0.1,0.5c0,0.2-0.1,0.3-0.2,0.5c-0.1,0.1-0.2,0.3-0.4,0.3c-0.2,0.1-0.3,0.1-0.5,0.1c-0.2,0-0.3,0-0.5-0.1
				c-0.1-0.1-0.2-0.2-0.3-0.4c-0.1-0.2-0.2-0.4-0.1-0.6c0-0.2,0.1-0.3,0.2-0.4l0.2,0.3c-0.1,0.1-0.1,0.1-0.1,0.2
				c0,0.1,0,0.2,0.1,0.3c0.1,0.1,0.2,0.2,0.3,0.3c0.1,0,0.3,0,0.5-0.1c0.2-0.1,0.3-0.2,0.4-0.4c0.1-0.1,0-0.3,0-0.4
				c0-0.1-0.1-0.1-0.2-0.2c-0.1-0.1-0.1-0.1-0.2-0.1l-0.2,0.1L5,48.8z M5,47.5l-1.7,0.8l-0.6-1.3L3,46.8l0.4,0.9l0.4-0.2l-0.4-0.9
				l0.3-0.1l0.4,0.9l0.5-0.2l-0.4-1l0.3-0.1L5,47.5z M3.8,46.1l-0.2-0.3c0.1-0.1,0.2-0.1,0.2-0.2c0-0.1,0-0.2,0-0.3
				c0-0.1-0.1-0.2-0.2-0.2c-0.1,0-0.1-0.1-0.2,0c0,0-0.1,0-0.1,0.1c0,0,0,0.1,0,0.2c0,0,0,0.2,0,0.3c0,0.2,0,0.4,0,0.5
				c-0.1,0.1-0.2,0.2-0.3,0.3c-0.1,0-0.2,0-0.3,0c-0.1,0-0.2-0.1-0.3-0.2c-0.1-0.1-0.1-0.2-0.2-0.3c-0.1-0.2-0.1-0.4,0-0.6
				c0.1-0.1,0.2-0.3,0.3-0.3l0.1,0.4c-0.1,0-0.1,0.1-0.2,0.2c0,0.1,0,0.1,0,0.3c0,0.1,0.1,0.2,0.1,0.2c0,0,0.1,0,0.1,0
				c0,0,0.1,0,0.1-0.1c0-0.1,0-0.2,0-0.4c0-0.2,0-0.3,0-0.4c0-0.1,0.1-0.2,0.1-0.3c0.1-0.1,0.2-0.1,0.3-0.2c0.1,0,0.2,0,0.3,0
				c0.1,0,0.2,0.1,0.3,0.2C4,44.9,4.1,45,4.2,45.2c0.1,0.2,0.1,0.4,0,0.6C4.1,45.9,4,46,3.8,46.1 M3.7,43.7l-1.5,0.4l0.1,0.6
				l-0.3,0.1l-0.3-1.5l0.3-0.1L2,43.7l1.5-0.4L3.7,43.7z M3.4,42.6l-1.9,0.3l-0.1-0.4l1.9-0.3L3.4,42.6z M2.4,42c-0.2,0-0.4,0-0.5,0
				c-0.1,0-0.2-0.1-0.3-0.1c-0.1-0.1-0.2-0.1-0.2-0.2c-0.1-0.1-0.1-0.2-0.1-0.4c0-0.3,0-0.5,0.2-0.7c0.2-0.2,0.4-0.3,0.7-0.3
				c0.3,0,0.6,0,0.7,0.2c0.2,0.1,0.3,0.4,0.3,0.6c0,0.3,0,0.5-0.2,0.7C2.9,41.9,2.7,42,2.4,42 M2.3,41.6c0.2,0,0.4-0.1,0.5-0.2
				c0.1-0.1,0.1-0.2,0.1-0.4c0-0.2-0.1-0.3-0.2-0.4c-0.1-0.1-0.3-0.1-0.5-0.1c-0.2,0-0.4,0.1-0.5,0.2c-0.1,0.1-0.1,0.2-0.1,0.4
				c0,0.2,0.1,0.3,0.2,0.4C1.9,41.6,2.1,41.6,2.3,41.6 M1.2,41.5l-0.4-0.1l-0.1-0.4l0.4,0.3L1.2,41.5z M3,39.8l-1.9-0.1l0-0.4
				l1.3-0.7l-1.3,0l0-0.4l1.9,0.1l0,0.4l-1.3,0.7l1.2,0L3,39.8z M1.3,36.8l0.1-0.7c0-0.2,0.1-0.3,0.1-0.4c0-0.1,0.1-0.2,0.2-0.3
				c0.1-0.1,0.2-0.1,0.3-0.1c0.1,0,0.3,0,0.5,0c0.2,0,0.3,0.1,0.4,0.1c0.1,0.1,0.2,0.1,0.3,0.2c0.1,0.1,0.1,0.2,0.1,0.3
				c0,0.1,0,0.2,0,0.3l-0.1,0.7L1.3,36.8z M1.7,36.5l1.3,0.2l0-0.3c0-0.1,0-0.2,0-0.2c0-0.1,0-0.1-0.1-0.2c0,0-0.1-0.1-0.2-0.1
				c-0.1,0-0.2-0.1-0.3-0.1c-0.1,0-0.3,0-0.3,0c-0.1,0-0.1,0-0.2,0.1c-0.1,0-0.1,0.1-0.1,0.2c0,0.1,0,0.2-0.1,0.3L1.7,36.5z
				 M3.5,35.2l-1.9-0.4l0.3-1.4l0.3,0.1l-0.2,1l0.4,0.1l0.2-0.9l0.3,0.1l-0.2,0.9l0.5,0.1l0.2-1l0.3,0.1L3.5,35.2z M4.1,32.7L2.4,32
				l0.1-0.4L4,32.3l0.4-0.9l0.3,0.1L4.1,32.7z M5.5,29.7l-0.2,0.4L4.9,30l-0.4,0.7L4.8,31l-0.2,0.4l-1.3-1.6l0.2-0.4L5.5,29.7z
				 M4.5,30l-0.8-0.1l0.5,0.6L4.5,30z M6.1,27.5l0.3-0.2c0.1,0.2,0.2,0.3,0.2,0.5c0,0.2-0.1,0.3-0.2,0.5c-0.1,0.2-0.3,0.3-0.6,0.4
				c-0.2,0-0.5,0-0.7-0.2c-0.3-0.2-0.4-0.4-0.5-0.6c0-0.2,0-0.5,0.2-0.7C5,27,5.2,26.8,5.3,26.8c0.1,0,0.3,0,0.4,0l-0.2,0.4
				c-0.1,0-0.2,0-0.3,0c-0.1,0-0.2,0.1-0.2,0.2C5,27.5,5,27.6,5,27.7c0,0.1,0.1,0.3,0.3,0.4c0.2,0.1,0.4,0.2,0.5,0.2
				c0.1,0,0.2-0.1,0.3-0.2C6.2,28,6.2,28,6.2,27.9C6.2,27.8,6.2,27.7,6.1,27.5 M8.2,26.1l-0.3,0.3l-0.4-0.2L7,26.8l0.2,0.4l-0.3,0.3
				l-1-1.8l0.3-0.3L8.2,26.1z M7.1,26.1l-0.7-0.3l0.4,0.7L7.1,26.1z M8.3,25.9L7,24.5l0.3-0.3l1.1,1.2l0.7-0.7L9.3,25L8.3,25.9z
				 M9.5,24.8l-1.2-1.5l0.3-0.2l1.2,1.5L9.5,24.8z M8.9,22.8l0.6-0.4c0.1-0.1,0.2-0.2,0.3-0.2c0.1,0,0.2-0.1,0.3,0
				c0.1,0,0.2,0.1,0.3,0.1c0.1,0.1,0.2,0.2,0.3,0.3c0.1,0.1,0.2,0.2,0.2,0.4c0,0.1,0.1,0.3,0,0.4c0,0.1-0.1,0.2-0.1,0.3
				c0,0.1-0.1,0.2-0.2,0.2l-0.6,0.4L8.9,22.8z M9.4,22.8l0.8,1l0.2-0.2c0.1-0.1,0.1-0.1,0.2-0.2c0-0.1,0.1-0.1,0.1-0.2
				c0-0.1,0-0.1,0-0.2c0-0.1-0.1-0.2-0.2-0.3c-0.1-0.1-0.2-0.2-0.2-0.2c-0.1,0-0.1-0.1-0.2-0.1c-0.1,0-0.1,0-0.2,0
				c-0.1,0-0.1,0.1-0.3,0.2L9.4,22.8z M13.1,22.3l-0.4,0.2l-0.4-0.3l-0.7,0.4l0.1,0.5l-0.4,0.2l-0.3-2l0.4-0.2L13.1,22.3z M12.1,22
				l-0.6-0.5l0.1,0.7L12.1,22z M12.5,20.4l0.6-0.3c0.1-0.1,0.3-0.1,0.3-0.1c0.1,0,0.2,0,0.3,0c0.1,0,0.2,0.1,0.3,0.2
				c0.1,0.1,0.2,0.2,0.2,0.4c0.1,0.1,0.1,0.3,0.1,0.4c0,0.1,0,0.3-0.1,0.4c0,0.1-0.1,0.2-0.2,0.2c-0.1,0.1-0.2,0.1-0.3,0.2l-0.7,0.3
				L12.5,20.4z M13,20.6l0.5,1.2l0.3-0.1c0.1,0,0.2-0.1,0.2-0.1c0.1,0,0.1-0.1,0.1-0.1c0-0.1,0-0.1,0-0.2c0-0.1,0-0.2-0.1-0.3
				c-0.1-0.1-0.1-0.2-0.2-0.3c-0.1-0.1-0.1-0.1-0.2-0.1c-0.1,0-0.1,0-0.2,0c-0.1,0-0.2,0-0.3,0.1L13,20.6z M15.7,21.1l-0.5-1.8
				l0.4-0.1l1.1,1L16.3,19l0.3-0.1l0.5,1.8l-0.4,0.1l-1.1-1L16,21L15.7,21.1z M18,20.5l-0.3-1.6L17.1,19L17,18.7l1.5-0.3l0.1,0.3
				L18,18.9l0.3,1.6L18,20.5z M20.3,19.4l0.4,0.1c0,0.2-0.1,0.4-0.2,0.5c-0.1,0.1-0.3,0.2-0.5,0.2c-0.3,0-0.5,0-0.7-0.2
				c-0.2-0.2-0.3-0.4-0.3-0.7c0-0.3,0-0.6,0.2-0.8c0.1-0.2,0.3-0.3,0.6-0.3c0.2,0,0.4,0,0.6,0.1c0.1,0.1,0.2,0.2,0.2,0.3l-0.4,0.1
				c0-0.1-0.1-0.2-0.2-0.2c-0.1,0-0.2-0.1-0.3-0.1c-0.1,0-0.2,0.1-0.3,0.2c-0.1,0.1-0.1,0.3-0.1,0.5c0,0.2,0.1,0.4,0.2,0.5
				c0.1,0.1,0.2,0.1,0.4,0.1c0.1,0,0.2-0.1,0.3-0.1C20.3,19.7,20.3,19.6,20.3,19.4 M22,19.4l0-0.3l0.8,0l0,0.8
				c-0.1,0.1-0.2,0.2-0.3,0.2c-0.2,0.1-0.3,0.1-0.5,0.1c-0.2,0-0.4,0-0.5-0.1c-0.1-0.1-0.3-0.2-0.3-0.4C21,19.5,21,19.3,21,19.1
				c0-0.2,0-0.4,0.1-0.5c0.1-0.2,0.2-0.3,0.4-0.4c0.1-0.1,0.3-0.1,0.5-0.1c0.2,0,0.4,0,0.6,0.1c0.1,0.1,0.2,0.2,0.3,0.4l-0.4,0.1
				c0-0.1-0.1-0.2-0.2-0.2c-0.1-0.1-0.2-0.1-0.3-0.1c-0.2,0-0.3,0.1-0.4,0.2c-0.1,0.1-0.1,0.3-0.1,0.5c0,0.2,0.1,0.4,0.2,0.5
				c0.1,0.1,0.2,0.2,0.4,0.2c0.1,0,0.2,0,0.2-0.1c0.1,0,0.1-0.1,0.2-0.1l0-0.2L22,19.4z M23.2,20.1l0.1-1.9l0.6,0
				c0.2,0,0.4,0,0.5,0.1c0.1,0,0.2,0.1,0.3,0.2c0.1,0.1,0.1,0.2,0.1,0.4c0,0.1,0,0.2-0.1,0.3c0,0.1-0.1,0.1-0.2,0.2
				c-0.1,0-0.1,0.1-0.2,0.1c-0.1,0-0.2,0-0.4,0l-0.3,0l-0.1,0.7L23.2,20.1z M23.7,18.5l0,0.5l0.2,0c0.2,0,0.3,0,0.3,0
				c0.1,0,0.1,0,0.1-0.1c0,0,0.1-0.1,0.1-0.1c0-0.1,0-0.1,0-0.2c0,0-0.1-0.1-0.1-0.1c0,0-0.1,0-0.3,0L23.7,18.5z M26.4,20.6
				l-0.4-0.1l0.3-1.4c-0.2,0.1-0.3,0.2-0.5,0.2l0.1-0.3c0.1,0,0.2,0,0.3-0.1c0.1-0.1,0.2-0.1,0.3-0.3l0.3,0.1L26.4,20.6z M28.1,19
				c0.2,0,0.3,0.1,0.4,0.3c0.1,0.2,0.1,0.5,0,0.8c-0.1,0.3-0.2,0.6-0.4,0.7c-0.1,0.1-0.3,0.1-0.5,0.1c-0.2,0-0.3-0.2-0.4-0.3
				c-0.1-0.2-0.1-0.4,0-0.8c0.1-0.3,0.2-0.6,0.4-0.7C27.7,19,27.9,19,28.1,19 M28,19.3c0,0-0.1,0-0.1,0c0,0-0.1,0.1-0.1,0.1
				c0,0.1-0.1,0.2-0.2,0.5c-0.1,0.2-0.1,0.4-0.1,0.5c0,0.1,0,0.1,0,0.2c0,0,0.1,0.1,0.1,0.1c0,0,0.1,0,0.1,0c0,0,0.1-0.1,0.1-0.1
				c0-0.1,0.1-0.2,0.2-0.5c0.1-0.2,0.1-0.4,0.1-0.5c0-0.1,0-0.1,0-0.2C28.1,19.4,28,19.3,28,19.3 M29.7,19.6
				c0.2,0.1,0.3,0.2,0.3,0.3c0.1,0.2,0,0.5-0.1,0.8c-0.1,0.3-0.3,0.6-0.5,0.7c-0.1,0.1-0.3,0.1-0.5,0c-0.2-0.1-0.3-0.2-0.3-0.4
				c-0.1-0.2,0-0.4,0.1-0.8c0.1-0.3,0.3-0.6,0.5-0.7C29.4,19.5,29.5,19.5,29.7,19.6 M29.6,19.9c0,0-0.1,0-0.1,0c0,0-0.1,0.1-0.1,0.1
				c-0.1,0.1-0.1,0.2-0.2,0.4C29,20.6,29,20.8,29,20.9c0,0.1,0,0.1,0,0.2c0,0,0.1,0.1,0.1,0.1c0,0,0.1,0,0.1,0c0,0,0.1-0.1,0.1-0.1
				c0.1-0.1,0.1-0.2,0.2-0.4c0.1-0.2,0.1-0.4,0.1-0.4C29.7,20.1,29.7,20,29.6,19.9C29.6,19.9,29.6,19.9,29.6,19.9 M31.2,20.3
				c0.2,0.1,0.3,0.2,0.3,0.4c0,0.2,0,0.5-0.2,0.8C31.2,21.8,31,22,30.8,22c-0.2,0.1-0.3,0.1-0.5,0c-0.2-0.1-0.3-0.2-0.3-0.4
				c0-0.2,0-0.4,0.2-0.8c0.2-0.3,0.3-0.5,0.5-0.6C30.9,20.2,31,20.2,31.2,20.3 M31.1,20.5c0,0-0.1,0-0.1,0c0,0-0.1,0-0.1,0.1
				c-0.1,0.1-0.1,0.2-0.3,0.4c-0.1,0.2-0.2,0.3-0.2,0.4c0,0.1,0,0.1,0,0.2c0,0,0,0.1,0.1,0.1c0,0,0.1,0,0.1,0c0,0,0.1,0,0.1-0.1
				c0.1-0.1,0.1-0.2,0.3-0.4c0.1-0.2,0.2-0.3,0.2-0.4C31.2,20.7,31.2,20.7,31.1,20.5C31.1,20.6,31.1,20.6,31.1,20.5 M31.7,21.6
				l0.2-0.3l0.3,0.2l-0.2,0.3L31.7,21.6z M31.2,22.5l0.2-0.3l0.3,0.2l-0.2,0.3L31.2,22.5z M33.1,23.2l-0.2,0.3l-1.1-0.7
				c0.1-0.1,0.2-0.2,0.3-0.2c0.1-0.1,0.3-0.1,0.6-0.2c0.2,0,0.4-0.1,0.4-0.1c0.1,0,0.1-0.1,0.2-0.1c0-0.1,0.1-0.1,0-0.2
				c0-0.1-0.1-0.1-0.1-0.2c-0.1,0-0.1-0.1-0.2,0c-0.1,0-0.1,0.1-0.2,0.2l-0.3-0.2c0.1-0.2,0.3-0.2,0.4-0.3c0.1,0,0.3,0,0.4,0.1
				c0.2,0.1,0.3,0.2,0.3,0.4c0,0.1,0,0.3-0.1,0.4c0,0.1-0.1,0.1-0.2,0.2c-0.1,0-0.2,0.1-0.3,0.1c-0.1,0-0.2,0.1-0.3,0.1
				c-0.2,0-0.3,0.1-0.3,0.1c0,0-0.1,0-0.1,0L33.1,23.2z M34.8,22.5c0.1,0.1,0.2,0.3,0.2,0.4c0,0.2-0.1,0.4-0.3,0.7
				c-0.2,0.3-0.4,0.5-0.6,0.5c-0.2,0-0.3,0-0.5-0.1c-0.1-0.1-0.2-0.3-0.2-0.4c0-0.2,0.1-0.4,0.3-0.7c0.2-0.3,0.4-0.4,0.6-0.5
				C34.5,22.4,34.7,22.4,34.8,22.5 M34.6,22.8c0,0-0.1,0-0.1,0c0,0-0.1,0-0.2,0.1c-0.1,0.1-0.2,0.2-0.3,0.4
				c-0.1,0.2-0.2,0.3-0.3,0.4c0,0.1,0,0.1,0,0.2c0,0,0,0.1,0.1,0.1c0,0,0.1,0,0.1,0c0,0,0.1,0,0.2-0.1c0.1-0.1,0.2-0.2,0.3-0.4
				c0.1-0.2,0.2-0.3,0.3-0.4c0-0.1,0-0.1,0-0.2C34.7,22.8,34.6,22.8,34.6,22.8 M36.1,23.6c0.1,0.1,0.2,0.3,0.2,0.4
				c0,0.2-0.1,0.4-0.4,0.7c-0.2,0.3-0.5,0.4-0.7,0.4c-0.2,0-0.3,0-0.5-0.2c-0.1-0.1-0.2-0.3-0.2-0.5c0-0.2,0.1-0.4,0.4-0.7
				c0.2-0.3,0.5-0.4,0.7-0.4C35.8,23.4,35.9,23.5,36.1,23.6 M35.8,23.8c0,0-0.1,0-0.1-0.1c0,0-0.1,0-0.2,0.1
				c-0.1,0.1-0.2,0.2-0.4,0.3c-0.2,0.2-0.2,0.3-0.3,0.4c0,0.1-0.1,0.1-0.1,0.2c0,0,0,0.1,0.1,0.1c0,0,0.1,0,0.1,0c0,0,0.1,0,0.2-0.1
				c0.1-0.1,0.2-0.2,0.4-0.3c0.2-0.2,0.2-0.3,0.3-0.4c0-0.1,0.1-0.1,0.1-0.2C35.9,23.9,35.9,23.8,35.8,23.8 M37.4,26.8l0.3,0.3
				c-0.1,0.1-0.1,0.2-0.1,0.3c0,0.1,0,0.2,0.1,0.3c0.1,0.1,0.1,0.2,0.2,0.2c0.1,0,0.1,0,0.2,0c0,0,0.1-0.1,0.1-0.1c0,0,0-0.1,0-0.2
				c0,0-0.1-0.1-0.1-0.3c-0.1-0.2-0.1-0.4-0.1-0.5c0-0.2,0.1-0.3,0.2-0.4c0.1-0.1,0.2-0.1,0.3-0.1c0.1,0,0.2,0,0.3,0.1
				c0.1,0.1,0.2,0.1,0.3,0.3c0.1,0.2,0.2,0.4,0.2,0.5c0,0.2-0.1,0.3-0.2,0.4l-0.2-0.3c0.1-0.1,0.1-0.1,0.1-0.2c0-0.1,0-0.1-0.1-0.2
				c-0.1-0.1-0.1-0.1-0.2-0.2c0,0-0.1,0-0.1,0c0,0-0.1,0.1-0.1,0.1c0,0.1,0,0.2,0.1,0.4c0.1,0.2,0.1,0.3,0.1,0.4c0,0.1,0,0.2,0,0.3
				c0,0.1-0.1,0.2-0.2,0.2c-0.1,0.1-0.2,0.1-0.3,0.1c-0.1,0-0.2,0-0.3-0.1c-0.1-0.1-0.2-0.2-0.3-0.3c-0.1-0.2-0.2-0.4-0.2-0.5
				C37.1,27.1,37.2,27,37.4,26.8 M38,28.7l1.7-1l0.7,1.2L40,29.2l-0.5-0.9l-0.4,0.2l0.5,0.8l-0.3,0.2l-0.5-0.8l-0.5,0.3l0.5,0.9
				L38.7,30L38,28.7z M40,31.1l0.1,0.4c-0.2,0-0.4,0-0.5-0.1c-0.1-0.1-0.3-0.2-0.4-0.4c-0.1-0.2-0.1-0.5,0-0.7
				c0.1-0.2,0.3-0.4,0.5-0.5c0.3-0.1,0.5-0.2,0.8-0.1c0.2,0.1,0.4,0.2,0.5,0.5c0.1,0.2,0.1,0.4,0.1,0.6c0,0.1-0.1,0.2-0.2,0.3
				l-0.2-0.3c0.1-0.1,0.1-0.1,0.2-0.2c0-0.1,0-0.2,0-0.3c-0.1-0.1-0.2-0.2-0.3-0.2c-0.1,0-0.3,0-0.5,0.1c-0.2,0.1-0.4,0.2-0.4,0.3
				c-0.1,0.1-0.1,0.2,0,0.4c0,0.1,0.1,0.2,0.2,0.2C39.7,31.1,39.9,31.1,40,31.1 M39.8,32.4l1.5-0.5l-0.2-0.5l0.3-0.1l0.5,1.4
				l-0.3,0.1l-0.2-0.5l-1.5,0.5L39.8,32.4z M41.1,33.2c0.2,0,0.4-0.1,0.5,0c0.1,0,0.2,0.1,0.3,0.1c0.1,0.1,0.2,0.1,0.2,0.2
				c0.1,0.1,0.1,0.2,0.2,0.4c0.1,0.3,0,0.5-0.1,0.7c-0.1,0.2-0.3,0.3-0.7,0.4c-0.3,0.1-0.6,0-0.8-0.1c-0.2-0.1-0.3-0.3-0.4-0.6
				c-0.1-0.3,0-0.5,0.1-0.7C40.6,33.4,40.8,33.3,41.1,33.2 M41.2,33.6c-0.2,0-0.4,0.1-0.4,0.3c-0.1,0.1-0.1,0.3-0.1,0.4
				c0,0.1,0.1,0.3,0.2,0.3c0.1,0.1,0.3,0.1,0.5,0c0.2,0,0.4-0.1,0.4-0.3C42,34.3,42,34.1,42,34c0-0.2-0.1-0.3-0.2-0.3
				C41.6,33.6,41.4,33.6,41.2,33.6 M40.7,35.6l1.9-0.3l0.1,0.8c0,0.2,0,0.4,0,0.4c0,0.1-0.1,0.2-0.2,0.2c-0.1,0.1-0.2,0.1-0.3,0.1
				c-0.1,0-0.3,0-0.4-0.1c-0.1-0.1-0.2-0.2-0.2-0.3c0,0.1-0.1,0.2-0.1,0.2c-0.1,0.1-0.1,0.1-0.3,0.3l-0.3,0.3l-0.1-0.5l0.4-0.3
				c0.1-0.1,0.2-0.2,0.2-0.2c0,0,0.1-0.1,0.1-0.1c0,0,0-0.1,0-0.2l0-0.1l-0.8,0.1L40.7,35.6z M41.8,35.8l0,0.3c0,0.2,0,0.3,0.1,0.3
				c0,0,0.1,0.1,0.1,0.1c0,0,0.1,0,0.1,0c0.1,0,0.1,0,0.1-0.1c0,0,0.1-0.1,0.1-0.2c0,0,0-0.1,0-0.3l0-0.3L41.8,35.8z M40.9,38.2
				l1.9-0.1l0,0.6c0,0.2,0,0.4,0,0.5c0,0.1-0.1,0.2-0.2,0.3c-0.1,0.1-0.2,0.1-0.4,0.1c-0.1,0-0.2,0-0.3-0.1c-0.1,0-0.1-0.1-0.2-0.2
				c0-0.1-0.1-0.1-0.1-0.2c0-0.1,0-0.2,0-0.4l0-0.3l-0.7,0L40.9,38.2z M42.5,38.5l-0.5,0l0,0.2c0,0.2,0,0.3,0,0.3
				c0,0.1,0.1,0.1,0.1,0.1c0,0,0.1,0,0.2,0c0.1,0,0.1,0,0.2-0.1c0,0,0.1-0.1,0.1-0.2c0,0,0-0.1,0-0.3L42.5,38.5z M42.8,40.1l0,0.4
				l-1-0.1c-0.2,0-0.3,0-0.3,0c-0.1,0-0.1,0-0.2,0.1c-0.1,0.1-0.1,0.1-0.1,0.3c0,0.1,0,0.2,0,0.3c0,0.1,0.1,0.1,0.2,0.1
				c0.1,0,0.2,0,0.3,0l1.1,0.1l0,0.4l-1-0.1c-0.2,0-0.4,0-0.5-0.1c-0.1,0-0.2-0.1-0.2-0.1c-0.1-0.1-0.1-0.1-0.1-0.2
				c0-0.1,0-0.2,0-0.4c0-0.2,0-0.3,0.1-0.4c0-0.1,0.1-0.2,0.2-0.2c0.1-0.1,0.1-0.1,0.2-0.1c0.1,0,0.3,0,0.5,0L42.8,40.1z M42.9,40.6
				l0.4,0.2l0,0.4l-0.4-0.4L42.9,40.6z M42.6,42.2L42.5,43c0,0.1-0.1,0.3-0.1,0.3c0,0.1-0.1,0.1-0.1,0.2c0,0.1-0.1,0.1-0.2,0.1
				c-0.1,0-0.1,0-0.2,0c-0.1,0-0.2-0.1-0.2-0.1c-0.1-0.1-0.1-0.1-0.1-0.2c-0.1,0.1-0.1,0.2-0.2,0.2c-0.1,0-0.2,0.1-0.3,0
				c-0.1,0-0.2-0.1-0.2-0.1c-0.1-0.1-0.1-0.1-0.2-0.2c0-0.1-0.1-0.2,0-0.3c0-0.1,0-0.2,0.1-0.5l0.1-0.6L42.6,42.2z M42.2,42.6
				l-0.4-0.1l0,0.2c0,0.1,0,0.2,0,0.3c0,0.1,0,0.1,0,0.2c0,0,0.1,0.1,0.1,0.1c0.1,0,0.1,0,0.2,0c0,0,0.1-0.1,0.1-0.1
				c0,0,0-0.1,0.1-0.3L42.2,42.6z M41.5,42.4L41,42.3l-0.1,0.4c0,0.1,0,0.2,0,0.3c0,0.1,0,0.1,0.1,0.2c0,0,0.1,0.1,0.2,0.1
				c0.1,0,0.1,0,0.2,0c0,0,0.1-0.1,0.1-0.1c0,0,0.1-0.2,0.1-0.3L41.5,42.4z M40.3,43.8l1.8,0.5l-0.1,0.4l-1.5-0.4l-0.2,0.9L40,45.1
				L40.3,43.8z M39.9,45.3l1.8,0.7l-0.1,0.4l-1.8-0.7L39.9,45.3z M39.7,47.5l-0.3,0.3c-0.2-0.1-0.3-0.3-0.3-0.5c0-0.2,0-0.3,0.1-0.5
				c0.1-0.2,0.3-0.4,0.5-0.5c0.2-0.1,0.5-0.1,0.7,0.1c0.3,0.1,0.5,0.3,0.6,0.5c0.1,0.2,0.1,0.5,0,0.7c-0.1,0.2-0.2,0.4-0.4,0.4
				c-0.1,0-0.2,0.1-0.4,0l0.1-0.4c0.1,0,0.2,0,0.3,0c0.1,0,0.1-0.1,0.2-0.2c0.1-0.1,0.1-0.3,0-0.4c-0.1-0.1-0.2-0.2-0.4-0.3
				c-0.2-0.1-0.4-0.1-0.5-0.1c-0.1,0-0.2,0.1-0.3,0.2c0,0.1,0,0.2,0,0.3C39.6,47.3,39.6,47.4,39.7,47.5 M39.6,48.2
				c0.2,0.1,0.3,0.2,0.4,0.3c0.1,0.1,0.1,0.2,0.1,0.3c0,0.1,0,0.2,0,0.3c0,0.1-0.1,0.3-0.1,0.4c-0.1,0.2-0.3,0.4-0.6,0.5
				c-0.2,0.1-0.5,0-0.8-0.1c-0.3-0.2-0.4-0.3-0.5-0.6c-0.1-0.2,0-0.5,0.1-0.7c0.1-0.2,0.3-0.4,0.6-0.5C39.1,48,39.4,48,39.6,48.2
				 M39.5,48.5c-0.2-0.1-0.4-0.1-0.5-0.1c-0.1,0-0.3,0.1-0.3,0.3c-0.1,0.1-0.1,0.3,0,0.4c0,0.1,0.2,0.3,0.4,0.4
				c0.2,0.1,0.4,0.1,0.5,0.1c0.1,0,0.2-0.1,0.3-0.3c0.1-0.1,0.1-0.3,0-0.4C39.8,48.8,39.7,48.6,39.5,48.5"/>
			<g id="XMLID_43_">
				<path id="XMLID_44_" class="st5" d="M35.7,25.3l0.3,0.2c0,0.1-0.1,0.1-0.1,0.2c0,0,0,0.1,0.1,0.1c0,0.1,0.1,0.1,0.2,0.1
					c0.1,0,0.2-0.1,0.4-0.2c-0.1,0-0.3-0.1-0.3-0.2c-0.1-0.1-0.1-0.2-0.1-0.4c0-0.2,0.1-0.3,0.2-0.4c0.1-0.1,0.3-0.2,0.5-0.2
					c0.2,0,0.3,0.1,0.4,0.2c0.1,0.1,0.2,0.3,0.1,0.5c0,0.2-0.2,0.4-0.4,0.6c-0.3,0.2-0.5,0.3-0.7,0.3c-0.2,0-0.4-0.1-0.5-0.2
					c-0.1-0.1-0.1-0.2-0.1-0.3C35.6,25.6,35.6,25.4,35.7,25.3z M36.9,25.4c0.1-0.1,0.1-0.2,0.2-0.2s0-0.2,0-0.2
					c0-0.1-0.1-0.1-0.2-0.1s-0.1,0-0.2,0.1c-0.1,0.1-0.1,0.2-0.2,0.2c0,0.1,0,0.1,0.1,0.2c0,0.1,0.1,0.1,0.2,0.1
					C36.7,25.5,36.8,25.5,36.9,25.4z"/>
			</g>
		</g>
	</g>
</g>
</svg>
